<?xml version="1.0" encoding="utf-8"?>
<!-- Generator: Adobe Illustrator 28.2.0, SVG Export Plug-In . SVG Version: 6.00 Build 0)  -->
<svg version="1.1" id="Layer_1" xmlns="http://www.w3.org/2000/svg" xmlns:xlink="http://www.w3.org/1999/xlink" x="0px" y="0px"
	 viewBox="0 0 3127.06 2409.71" style="enable-background:new 0 0 3127.06 2409.71;" xml:space="preserve">
<style type="text/css">
	.st0{fill:#3D4041;}
	.st1{fill:#414548;}
	.st2{fill:#2D3033;}
	.st3{fill:#FFFFFF;}
	.st4{fill:#EDEDED;}
	.st5{fill:#000026;}
	.st6{opacity:0.5;}
	.st7{opacity:0.3;}
	.st8{fill:#F7AA42;}
	.st9{fill:#FDF2E8;}
	.st10{fill:#512717;}
	.st11{fill:#E4F3F9;}
	.st12{fill:#49C1F0;}
	.st13{fill:#3A95D2;}
	.st14{fill:#61818A;}
	.st15{fill:#FFDA46;}
	.st16{fill:#F8B23E;}
	.st17{opacity:0.35;}
	.st18{fill:#FF0068;}
</style>
<g>
	<g>
		<g>
			<g>
				<g>
					<g>
						<g>
							<path class="st0" d="M1467.73,1864.95c36.38,102.18,148.13,197.69,390.02,197.72c36.45,0,67.12,50.31,100.69,87.41
								c98.59,108.96,222.9,124.59,272.28,76.79c50.55-48.93,70.2-112.84,11.56-211.86c-30.59-51.65-55.47-136.41-111.06-180.6
								c-52.52-41.75-113.65-43.95-125.17-67.87c-11.52-23.92,22.39-230.82-72.81-393.13"/>
						</g>
						<g>
							<path class="st0" d="M2230.73,2226.86c-49.38,47.81-173.68,32.2-272.28-76.77c-13.68-15.13-26.9-32.45-40.2-47.68
								c-19.34-22.1-38.91-39.77-60.49-39.75c-241.9-0.01-353.65-95.53-390.04-197.72l465.5-491.52
								c95.23,162.3,61.32,369.22,72.85,393.13c11.2,23.25,69.15,25.96,120.55,64.35c1.56,1.1,3.09,2.29,4.61,3.51
								c55.57,44.19,80.46,128.93,111.03,180.59C2300.9,2114.04,2281.25,2177.94,2230.73,2226.86"/>
						</g>
						<g>
							<path class="st1" d="M2230.71,2226.87c-49.35,47.82-173.65,32.2-272.26-76.76c-13.67-15.13-26.9-32.46-40.18-47.71
								c-2.23-2.53-4.44-5.02-6.68-7.42c-17.19-18.51-34.74-32.33-53.81-32.33c-180.48-0.02-288.48-53.17-346.85-122.6
								c-19.87-23.62-34-49.18-43.24-75.12l465.51-491.5c95.23,162.3,61.31,369.2,72.84,393.12
								c11.21,23.25,69.17,25.98,120.59,64.35c1.54,1.12,3.1,2.28,4.59,3.52c55.56,44.17,80.48,128.93,111.02,180.6
								C2300.91,2114.05,2281.24,2177.92,2230.71,2226.87"/>
						</g>
						<g>
							<path class="st2" d="M1911.59,2094.98c-17.19-18.51-34.74-32.33-53.81-32.33c-180.48-0.02-288.48-53.17-346.84-122.6
								c-9.77-31.74-14.53-64.82,9.85-61.77c45.95,5.8,109.17,112.57,252.85,119.29c115.36,5.4,115.91-88,178.29-93.4
								C2006.65,1899.43,2051.34,2054.56,1911.59,2094.98"/>
						</g>
						<g>
							<path class="st3" d="M2230.73,2226.86c-49.38,47.81-173.68,32.2-272.28-76.77c-13.68-15.13-26.9-32.45-40.2-47.68
								c66.32-6.75,198.17-48.41,208.38-271.51c1.56,1.1,3.09,2.29,4.61,3.51c55.57,44.19,80.46,128.93,111.03,180.59
								C2300.9,2114.04,2281.25,2177.94,2230.73,2226.86"/>
						</g>
						<g>
							<path class="st4" d="M2183.99,2215.29c-31.93,19.71-74.8,5.09-127.86-27.05c-44.07-26.7-41.52-41.09,10.43-72.53
								c50.62-30.63,42.96-60.06,67.25-49.77C2162.79,2078.24,2243.98,2178.27,2183.99,2215.29"/>
						</g>
						<g>
							<path class="st5" d="M1467.73,1864.95c21.76,34.4,46.7,63.29,75.76,87.23c28.88,24.07,62,42.68,97.37,56.47
								c35.37,13.74,72.67,23.61,110.89,29.61c19.11,2.98,38.41,5.17,57.84,6.33c9.7,0.69,19.45,1.04,29.18,1.4l14.63,0.29
								l3.66,0.07l4.94,0.19c3.48,0.27,6.88,0.86,10.17,1.69c13.15,3.47,23.44,10.35,32.18,17.4c8.76,7.16,16.12,14.89,23.11,22.62
								c13.83,15.5,25.91,31.34,38.54,45.79c25.06,28.71,54.38,53.69,87.2,72.12c16.39,9.17,33.63,16.72,51.38,21.99
								c17.73,5.25,36.02,8.27,53.88,7.98c17.78-0.25,35.3-3.95,49.2-12.15c3.46-2.04,6.69-4.34,9.62-6.89l2.14-1.96l2.45-2.44
								c1.65-1.61,3.2-3.28,4.77-4.94c6.25-6.68,11.88-13.74,16.69-21.18c9.75-14.82,15.88-31.25,17.89-48.44
								c1.97-17.22-0.2-35.13-5.17-52.69c-4.92-17.6-12.68-34.8-21.73-51.45c-2.3-4.25-4.59-8.09-7.16-12.59
								c-2.68-4.56-5.12-9.13-7.54-13.7c-4.78-9.14-9.17-18.26-13.46-27.33c-17.05-36.13-32.96-71.85-55.25-101.78
								c-5.55-7.44-11.51-14.4-17.91-20.76c-6.39-6.36-13.19-11.95-20.73-17.22c-14.98-10.44-31.69-18.62-49.53-25.7
								c-8.92-3.59-18.13-6.9-27.69-10.59c-4.79-1.87-9.68-3.83-14.75-6.19c-5.06-2.4-10.31-5.01-15.84-9.19
								c-2.74-2.03-5.56-4.63-8.19-7.73c-1.28-1.7-2.58-3.31-3.66-5.34l-0.81-1.47l-0.4-0.74l-0.45-1.02l-0.82-2.09l-0.51-1.66
								c-1.17-4.28-1.45-7.22-1.79-10.22c-0.31-2.95-0.44-5.63-0.58-8.34c-0.43-10.62-0.35-20.59-0.35-30.58
								c0.25-39.74-0.21-78.8-3.75-117.68c-3.47-38.81-9.77-77.24-20.04-114.44c-10.28-37.16-24.65-73.05-43.92-105.97l-0.01-0.02
								c-4.55-7.77-1.94-17.76,5.83-22.31c7.77-4.55,17.76-1.94,22.31,5.83c20.94,35.75,36.32,74.32,47.23,113.77
								c10.89,39.48,17.48,79.85,21.09,120.22c3.68,40.35,4.12,80.92,3.88,120.67c-0.02,9.88-0.07,19.81,0.31,29.05
								c0.11,2.25,0.23,4.54,0.45,6.53c0.18,1.94,0.52,3.95,0.68,4.46c-0.3-0.62,0.04,0,0.49,0.64c0.62,0.66,1.41,1.51,2.67,2.43
								c2.38,1.86,6.04,3.82,9.95,5.64c3.95,1.84,8.28,3.59,12.75,5.34c8.98,3.47,18.48,6.89,28.01,10.72
								c19.09,7.57,38.38,16.89,56.05,29.22c8.76,6.11,17.38,13.17,25.08,20.85c7.71,7.66,14.69,15.86,21.03,24.35
								c25.3,34.11,41.73,71.77,58.62,107.37c4.22,8.89,8.45,17.69,12.89,26.16c2.23,4.22,4.47,8.42,6.83,12.42
								c2.36,4.14,5.16,8.84,7.59,13.34c9.91,18.25,18.68,37.5,24.5,58.23c5.84,20.63,8.75,42.91,6.18,65.28
								c-2.54,22.34-10.81,44.1-22.93,62.48c-6,9.25-12.82,17.78-20.16,25.62c-1.84,1.95-3.67,3.92-5.58,5.78l-2.84,2.82
								c-1.1,1.02-2.21,2.09-3.35,3.08c-4.56,3.99-9.47,7.47-14.57,10.47c-20.55,12-43.39,16.27-65.2,16.65
								c-21.94,0.33-43.31-3.31-63.68-9.33c-20.38-6.05-39.77-14.58-58.06-24.81c-36.59-20.56-68.61-47.98-95.8-79.12
								c-13.52-15.5-25.6-31.31-38.26-45.47c-6.32-7.01-12.77-13.67-19.43-19.1c-6.63-5.43-13.5-9.52-19.68-11.09
								c-1.54-0.38-3.05-0.64-4.53-0.76l-1.1-0.04c-0.36-0.02-0.66-0.05-1.4-0.04l-3.79-0.02l-15.19-0.09
								c-10.12-0.22-20.26-0.44-30.4-1.01c-20.28-0.91-40.56-2.99-60.82-5.45c-40.45-5.27-80.99-14.22-119.53-29.9
								c-38.38-15.68-75.05-37.93-104.54-68.03C1493.59,1944.33,1472.56,1905.6,1467.73,1864.95"/>
						</g>
						<g>
							<path class="st5" d="M2136.99,2124.45c17.82,18.52,38.59,33.95,60.87,44.26c11.06,5.07,22.75,8.82,33.5,9.51
								c5.29,0.31,10.38-0.09,14.1-1.58c3.84-1.4,6.02-3.56,7.57-6.04l23.62,22.48c-3.73,3.29-7.91,6.12-12.4,8.05
								c-4.46,1.85-9.07,3.15-13.46,3.53c-8.88,1.03-16.83-0.42-24.07-2.43c-14.45-4.26-26.37-11.5-37.24-19.53
								C2167.92,2166.44,2150.59,2146.33,2136.99,2124.45"/>
						</g>
						<g>
							<path class="st5" d="M2071.15,2167.71c7.78,11.51,16.75,22.05,26.66,31.33c9.91,9.26,20.8,17.25,32.39,23.18
								c11.57,5.93,23.83,9.68,35.89,10.57c12.08,0.93,23.84-1,34.81-5.06l8.05,31.6c-15.89,2.55-32.35,1.8-47.43-2.51
								c-15.12-4.25-28.66-11.77-40.21-20.93c-11.59-9.18-21.35-19.96-29.64-31.48C2083.4,2192.86,2076.54,2180.52,2071.15,2167.71"
								/>
						</g>
						<g>
							<path class="st0" d="M976.34,1806.58c0,0-154.25,214.44-412.3,353.49c-121.73,65.59-303.31,95.22-321.86-16.04
								c-29.74-178.43,325.78-201.42,512.92-573.9"/>
						</g>
						<g>
							<path class="st0" d="M976.32,1806.57c0,0-154.23,214.45-412.26,353.51c-6.13,3.29-12.37,6.49-18.78,9.57
								c-120.81,58.64-285.49,80.06-303.09-25.63c-11.72-70.32,36.41-116.51,110.51-169.43c113.88-81.39,289.02-178.8,402.42-404.44
								L976.32,1806.57z"/>
						</g>
						<g>
							<path class="st1" d="M976.31,1806.57c0,0-154.23,214.45-412.27,353.5c-6.13,3.29-12.37,6.49-18.78,9.57
								c-120.81,58.64-285.5,80.06-303.1-25.63c-0.61-3.73-1.06-7.42-1.34-11.03c-5.19-64.24,41.69-108.28,111.84-158.4
								c72.79-52.03,170.69-110.63,261.41-205.12c51.22-53.29,100.13-117.97,141.01-199.32L976.31,1806.57z"/>
						</g>
						<g>
							<path class="st2" d="M976.31,1806.57c0,0-154.23,214.45-412.27,353.5c-6.13,3.29-12.37,6.49-18.78,9.57
								c-120.81,58.64-285.5,80.06-303.1-25.63c-0.61-3.73-1.06-7.42-1.34-11.03c26,21.25,68.81,39.17,138,32.28
								c183.3-18.25,354.85-175.72,364.98-238.58c6.86-42.59-44.97-141.13-129.73-157.23c51.22-53.29,100.13-117.97,141.01-199.32
								L976.31,1806.57z"/>
						</g>
						<g>
							<path class="st4" d="M545.27,2169.64c-120.81,58.64-285.5,80.06-303.1-25.63c-0.61-3.73-1.1-7.42-1.34-11.03
								c26,21.25,68.81,39.17,138,32.28c60.34-6,119.39-27.09,171.82-54.91C553.98,2131.36,551.31,2151.35,545.27,2169.64"/>
						</g>
						<g>
							<path class="st3" d="M545.28,2169.65c-120.81,58.64-285.49,80.06-303.09-25.63c-11.72-70.32,36.41-116.51,110.51-169.43
								c86.74-11.27,156.21,21.61,190.93,109.86C555.62,2114.9,553.76,2143.94,545.28,2169.65"/>
						</g>
						<g>
							<path class="st4" d="M545.27,2169.64c-120.81,58.64-285.5,80.06-303.1-25.63c-0.61-3.73-1.1-7.42-1.34-11.03
								c26,21.25,68.81,39.17,138,32.28c60.34-6,119.39-27.09,171.82-54.91C553.98,2131.36,551.31,2151.35,545.27,2169.64"/>
						</g>
						<g>
							<path class="st5" d="M357.52,2236.14c-29.05,0-55.85-4.69-77.98-15.53c-30.21-14.81-49.13-40.29-54.7-73.69
								c-15.95-95.68,64.34-150.64,165.97-220.22c112.37-76.93,252.22-172.67,348.58-364.46l31.42,15.78
								c-100.43,199.9-250.53,302.66-360.13,377.69c-98.41,67.37-163.42,111.88-151.16,185.43c3.73,22.35,15.34,38.02,35.49,47.9
								c60.61,29.7,179.55-0.73,260.68-44.44c251.25-135.38,404.85-346.17,406.38-348.29l28.54,20.53
								c-6.39,8.89-159.58,219.33-418.23,358.7C510.05,2209.12,427.28,2236.14,357.52,2236.14z"/>
						</g>
						<g>
							<path class="st5" d="M360.8,2079.32c-6.15,11.22-11.18,22.96-15.24,34.86c-4.05,11.89-6.92,24.06-8.04,36
								c-0.99,11.89-0.2,23.66,3.71,33.35c1.91,4.84,4.45,9.15,7.52,12.89c3.2,3.67,6.93,6.75,10.98,9.46l-21.05,24.9
								c-5.51-5.71-10.39-12.13-14.1-19.19c-3.6-7.13-5.95-14.72-7.1-22.23c-2.36-15.13,0.15-29.46,4.08-42.45
								c4.13-13,9.91-24.97,16.62-36.16C344.89,2099.56,352.41,2089.01,360.8,2079.32"/>
						</g>
						<g>
							<path class="st5" d="M303.52,2048.4c-7.78,9.95-14.4,20.66-20.09,31.67c-5.63,11.03-10.21,22.47-13.23,34.03
								c-1.47,5.78-2.55,11.58-3.2,17.33c-0.58,5.75-0.65,11.43-0.26,16.95c0.4,5.52,1.5,10.85,2.94,15.93
								c1.5,5.09,3.68,9.85,6.09,14.39l-30.28,12.11c-2.01-7.22-3.48-14.53-3.96-21.88c-0.44-7.33-0.24-14.6,0.78-21.64
								c2.01-14.1,6.66-27.16,12.68-39.05c6.06-11.89,13.47-22.72,21.64-32.67C284.85,2065.66,293.77,2056.47,303.52,2048.4"/>
						</g>
					</g>
					<g>
						<g>
							<path class="st0" d="M1911.57,1219.55c161.75,83.67,431.22,77.87,580.69-114.97c202.82-261.69-53.58-563.65,76.27-855.94
								c89.85-202.27,271.53-241.27,387.64-228.92c100.78,10.72,161.88,80.98,152.32,138.24
								c-25.31,151.58-239.08,86.08-322.33,244.63c-79.57,151.53,121.31,532.74-189.18,844.88
								c-301.87,303.47-695.65,186.7-695.65,186.7"/>
						</g>
						<g>
							<path class="st0" d="M3108.49,157.96c-25.3,151.6-239.08,86.07-322.33,244.62c-3.81,7.24-6.97,15-9.57,23.27
								c-51.98,164.54,116.03,524.42-179.61,821.62c-301.88,303.46-695.64,186.69-695.64,186.69l10.24-214.61
								c161.77,83.69,431.22,77.88,580.69-114.95c183.76-237.14-9.51-507.37,49.21-773.45c6.06-27.57,14.85-55.1,27.04-82.53
								c89.86-202.26,271.53-241.23,387.64-228.89C3056.95,30.43,3118.06,100.68,3108.49,157.96"/>
						</g>
						<g>
							<path class="st1" d="M3108.49,157.94c-25.3,151.63-239.1,86.1-322.32,244.62c-3.81,7.26-6.97,15-9.57,23.28
								c-34.63,109.65,28.43,306.06-13.14,512.84c-20.81,103.53-67.85,209.66-166.47,308.77
								c-301.88,303.47-695.66,186.71-695.66,186.71l10.26-214.61c76.04,39.34,175.92,58.88,275.88,48.54
								c112.7-11.68,225.6-61.36,304.8-163.51c183.75-237.12-9.53-507.37,49.19-773.44c6.08-27.58,14.84-55.11,27.05-82.53
								c89.87-202.28,271.51-241.25,387.65-228.89C3056.95,30.44,3118.07,100.68,3108.49,157.94"/>
						</g>
						<g>
							<path class="st2" d="M2752.23,242.01c125.56-121.66,294.01-26.36,309.47-135.41c11.88,15.64,17.14,31.98,14.8,46
								c-9.28,55.58-50.4,71.85-122.28,95.82c-66.84,22.29-150.03,50.04-196.77,139.06c-4.63,8.81-8.6,18.45-11.8,28.64
								c-17.95,56.81-12.73,129.39-6.7,213.44C2745.55,721.59,2582.75,406.23,2752.23,242.01"/>
						</g>
						<g>
							<path class="st4" d="M3076.5,152.59c-9.29,55.6-50.41,71.86-122.27,95.83c-66.87,22.3-150.05,50.04-196.77,139.05
								c-4.62,8.8-8.6,18.46-11.8,28.63c-0.44,1.46-0.89,2.92-1.34,4.42c-24.94-7.95-30.7-22.99-20.15-36.01
								c6.04-7.46-17.48-6.37-43.8-4.26c9.17-49.68,30.74-98.42,71.86-138.25c125.55-121.66,294.01-26.36,309.46-135.41
								C3073.58,122.26,3078.85,138.55,3076.5,152.59"/>
						</g>
						<g>
							<path class="st2" d="M2763.47,938.68c-20.8,103.53-67.85,209.66-166.47,308.77c-301.88,303.46-695.66,186.71-695.66,186.71
								l10.26-214.61c76.04,39.33,175.92,58.88,275.89,48.54c75.95,49.07,174.46,88.17,354.19-19.34
								C2658.84,1178.67,2726.03,1047.4,2763.47,938.68"/>
						</g>
						<g>
							<path class="st3" d="M3108.49,157.96c-25.3,151.6-239.08,86.07-322.33,244.62c-3.81,7.24-6.97,15-9.57,23.27
								c-51.4-2.79-66.58-23.91-52.43-41.34c11.54-14.18-84.38,2.51-102.06-1.51c-27.92-6.34,2.73-34.28-17.83-45.43
								c-11.71-6.36-40.32-7-62.79-6.42c6.06-27.57,14.85-55.1,27.04-82.53c89.86-202.26,271.53-241.23,387.64-228.89
								C3056.95,30.43,3118.06,100.68,3108.49,157.96"/>
						</g>
						<g>
							<path class="st4" d="M3076.5,152.59c-9.29,55.6-50.41,71.86-122.27,95.83c-66.87,22.3-150.05,50.04-196.77,139.05
								c-4.62,8.8-8.6,18.46-11.8,28.63c-0.44,1.46-0.89,2.92-1.34,4.42c-24.94-7.95-30.7-22.99-20.15-36.01
								c6.04-7.46-17.48-6.37-43.8-4.26c9.17-49.68,30.74-98.42,71.86-138.25c125.55-121.66,294.01-26.36,309.46-135.41
								C3073.58,122.26,3078.85,138.55,3076.5,152.59"/>
						</g>
						<g>
							<path class="st5" d="M2084.37,1473.85c-109.63,0-184.45-21.76-188.05-22.83c-9.31-2.76-14.61-12.54-11.85-21.85
								s12.57-14.63,21.85-11.86c0.95,0.28,98.08,28.35,229.82,19.68c120.84-7.97,296.72-49.46,448.37-201.92
								c198.47-199.51,182.27-425.23,169.25-606.59c-6.85-95.36-12.75-177.71,16.84-234.07c43.97-83.75,120.67-109.34,188.34-131.92
								c67.61-22.55,121.02-40.37,132.21-107.44c3.03-18.11-3.24-38.52-17.63-57.47c-25.07-32.99-68.52-55.01-119.21-60.4
								c-125.82-13.39-289.06,37-369.72,218.57c-57.53,129.5-35.96,264.05-15.09,394.16c25.06,156.29,50.98,317.91-63.35,465.41
								c-149.45,192.82-423.78,212.34-602.66,119.82c-8.62-4.46-12-15.07-7.54-23.69c4.46-8.62,15.06-11.99,23.69-7.54
								c166.09,85.92,420.49,68.2,558.72-110.13c104.98-135.45,81.39-282.56,56.42-438.31c-21.67-135.18-44.09-274.97,17.68-414
								c88.32-198.82,267.4-253.94,405.57-239.26c60.28,6.41,112.58,33.42,143.48,74.1c20.32,26.74,28.95,56.76,24.32,84.52
								c-14.68,87.93-86.4,111.86-155.76,135c-64.38,21.48-130.95,43.69-168.35,114.91c-24.93,47.49-19.36,125.21-12.9,215.21
								c12.82,178.53,30.37,423.04-179.39,633.9c-159.81,160.66-345.08,204.13-472.36,212.29
								C2118.79,1473.34,2101.16,1473.85,2084.37,1473.85z"/>
						</g>
						<g>
							<path class="st0" d="M1360.5,1298.99c360.53-241.89,681.31-108.2,773.23-19.8c138.47,119.5,88.14,531.66-109.67,651.55
								c-230.62,39-613.74,298.02-1066.05,66.87c-109.55-55.98-293.21-200.98-315.85-553.36L1360.5,1298.99z"/>
						</g>
						<g>
							<path class="st0" d="M2024.06,1930.74c-3.31,0.56-6.6,1.15-9.94,1.79c-231.59,44.49-610.23,292.95-1056.09,65.1
								c-54.54-27.9-127.47-77.82-189.75-164.47c-62.79-87.36-114.76-212-126.13-388.92L1360.49,1299
								c360.55-241.91,681.32-108.22,773.22-19.8C2272.19,1398.7,2221.86,1810.87,2024.06,1930.74"/>
						</g>
						<g>
							<path class="st0" d="M2024.05,1930.74c-1.42,0.25-2.88,0.49-4.3,0.73c-1.87,0.37-3.77,0.69-5.64,1.05
								c-231.6,44.49-610.25,292.96-1056.09,65.09c-54.55-27.9-127.46-77.78-189.75-164.44
								c-62.77-87.35-114.77-212.01-126.12-388.95l504.81-102.07l213.51-43.15c360.56-241.91,681.34-108.2,773.23-19.79
								C2272.2,1398.68,2221.87,1810.87,2024.05,1930.74"/>
						</g>
						<g>
							<path class="st1" d="M2024.05,1930.74c-1.42,0.25-2.88,0.49-4.3,0.73c-1.87,0.37-3.77,0.69-5.64,1.05
								c-231.6,44.49-610.25,292.96-1056.09,65.09c-54.55-27.9-127.46-77.78-189.75-164.44
								c-62.77-87.35-114.77-212.01-126.12-388.95l504.81-102.07l175.72-35.53l37.8-7.62c360.56-241.91,681.34-108.2,773.23-19.79
								c26.73,23.08,46.44,57.06,59.37,97.74C2247.26,1546.94,2183.67,1834.02,2024.05,1930.74"/>
						</g>
						<g class="st6">
							<g>
								<g>
									<path class="st3" d="M2292.52,1491.59c-52.27-73.64-108.93-129.04-167.69-169.79l18.57-42.58
										C2216.44,1339.84,2262.42,1422.32,2292.52,1491.59"/>
								</g>
							</g>
						</g>
						<g>
							<path class="st2" d="M2019.75,1931.47c-1.87,0.37-3.77,0.69-5.64,1.06c-231.6,44.48-610.25,292.96-1056.09,65.09
								c-54.55-27.9-127.46-77.78-189.75-164.45c-62.77-87.35-114.77-212.01-126.12-388.95l504.81-102.07
								c71.17,76.32,325.92,39.62,316.69,83.01c-64.89,305.01-599.51,321.07-562.16,427.76c28.02,80.17,218.67,28.31,406.55,99.8
								c55.03,20.93,174.01,8.64,245.75,0c230.91-27.74,311.33-59.86,345.8-45.99C1912,1911.72,1961.43,1921.29,2019.75,1931.47"/>
						</g>
						<g>
							<path class="st4" d="M2016.52,1916.88c0,5.24-0.86,10.43-2.41,15.66c-231.59,44.49-610.23,292.95-1056.08,65.1
								c-54.54-27.9-127.47-77.81-189.75-164.47c23.15-23.75,62.48-32.54,103.89,7.25c66.43,63.77,301.15,181.44,619.76,145.21
								C1851.36,1944.76,2016.66,1831.62,2016.52,1916.88"/>
						</g>
						<g>
							<path class="st5" d="M1346.12,2109.88c-123.98,0-256.97-25.51-396.1-96.61c-111.56-57.01-302.18-206.59-325.4-567.89
								l-0.98-15.32l729.98-147.61c199.16-132.56,382.49-145.24,501.48-132.45c144.41,15.53,251.95,72.29,300.17,116.19
								c59.93,51.72,89.54,159.07,78.83,286.85c-11.03,131.68-70.27,313.55-200.92,392.74l-2.87,1.74l-3.31,0.56
								c-55.13,9.32-119.11,31.51-193.19,57.21C1698.09,2052.36,1532.26,2109.87,1346.12,2109.88z M660.8,1458.41
								c26.35,332.85,201.88,470.74,305.21,523.54c334.67,171.04,636.15,66.46,856.26-9.89c74.1-25.7,138.29-47.96,195.45-58.07
								c109.94-68.73,170.27-231.8,181.33-363.9c9.77-116.6-15.32-212.91-67.12-257.61c-36.02-32.78-135.18-91.9-280.61-107.54
								c-113.76-12.23-289.56,0.16-481.04,128.63l-2.9,1.94l-3.41,0.69L660.8,1458.41z M1360.5,1298.99h0.05H1360.5z"/>
						</g>
						<g>
							<path class="st0" d="M1872.98,1899.81c68.98,83.7,206.57,135.48,434.02,53.19c34.28-12.4,80.24,24.47,124.43,47.93
								c129.79,68.9,251.99,41.29,282.16-20.47c30.88-63.21,27.6-129.99-61.23-203.15c-46.34-38.16-98.59-109.4-165.89-132.02
								c-63.6-21.38-121.82-2.65-140.79-21.22c-18.98-18.57-57.51-224.66-202.26-344.88"/>
						</g>
						<g>
							<path class="st0" d="M2713.6,1980.44c-30.16,61.76-152.35,89.39-282.15,20.47c-18.02-9.56-36.35-21.36-54.03-31.15
								c-25.71-14.2-50.12-24.15-70.4-16.79c-227.47,82.31-365.05,30.54-434.05-53.17l270.43-620.6
								c144.79,120.19,183.32,326.31,202.3,344.87c18.45,18.04,73.86,0.88,135.26,19.48c1.84,0.51,3.68,1.1,5.53,1.73
								c67.29,22.64,119.53,93.85,165.86,132.03C2741.19,1850.47,2744.46,1917.25,2713.6,1980.44"/>
						</g>
						<g>
							<path class="st1" d="M2713.58,1980.46c-30.13,61.76-152.32,89.38-282.13,20.48c-18.01-9.57-36.34-21.37-54.02-31.18
								c-2.96-1.62-5.88-3.2-8.8-4.7c-22.47-11.56-43.67-18.57-61.6-12.09c-169.72,61.4-289.35,48.17-367.86,2.76
								c-26.73-15.45-48.7-34.67-66.23-55.92l270.45-620.59c144.78,120.2,183.31,326.29,202.28,344.86
								c18.46,18.05,73.89,0.89,135.29,19.47c1.83,0.53,3.69,1.09,5.51,1.74c67.28,22.63,119.55,93.84,165.87,132.04
								C2741.2,1850.49,2744.45,1917.24,2713.58,1980.46"/>
						</g>
						<g>
							<path class="st2" d="M2368.63,1965.05c-22.47-11.56-43.67-18.57-61.6-12.09c-169.72,61.4-289.35,48.17-367.86,2.76
								c-20-26.52-35.73-56-11.76-61.44c45.18-10.18,140.97,68.7,278.36,26.11c110.3-34.18,79.04-122.19,135.85-148.51
								C2391.47,1748.82,2486.28,1879.48,2368.63,1965.05"/>
						</g>
						<g>
							<path class="st3" d="M2713.6,1980.44c-30.16,61.76-152.35,89.39-282.15,20.47c-18.02-9.56-36.35-21.36-54.03-31.15
								c60.06-28.91,169.86-112.97,103.54-326.21c1.84,0.51,3.68,1.1,5.53,1.73c67.29,22.64,119.53,93.85,165.86,132.03
								C2741.19,1850.47,2744.46,1917.25,2713.6,1980.44"/>
						</g>
						<g>
							<path class="st4" d="M2665.72,1985.47c-23.32,29.4-68.61,30.25-129.44,18.08c-50.52-10.11-53.02-24.51-14.87-71.75
								c37.18-46.03,19.95-71.1,46.3-69.69C2599.14,1863.81,2709.52,1930.24,2665.72,1985.47"/>
						</g>
						<g>
							<path class="st5" d="M1872.98,1899.81c32.18,24.94,65.45,43.62,100.93,56.25c35.35,12.79,72.82,19.03,110.76,19.96
								c37.94,0.88,76.37-2.54,114.35-9.89c18.99-3.7,37.88-8.21,56.54-13.74c9.36-2.65,18.64-5.64,27.92-8.62l13.85-4.7l3.47-1.17
								l4.71-1.5c3.37-0.93,6.77-1.53,10.13-1.87c13.55-1.21,25.57,1.75,36.19,5.41c10.67,3.75,20.22,8.51,29.43,13.4
								c18.28,9.87,35.03,20.64,51.83,29.94c33.33,18.46,69.4,31.98,106.53,38.14c18.54,3.04,37.31,4.28,55.8,3.19
								c18.45-1.1,36.68-4.48,53.38-10.83c16.63-6.29,31.85-15.73,42.13-28.17c2.56-3.1,4.81-6.36,6.7-9.76l1.34-2.58l1.47-3.12
								c1.01-2.08,1.9-4.18,2.81-6.28c3.61-8.4,6.49-16.96,8.49-25.59c4.12-17.26,4.3-34.78,0.33-51.64
								c-4.01-16.86-12.14-32.96-22.79-47.78c-10.62-14.86-23.77-28.41-37.94-40.98c-3.62-3.21-7.07-6.03-11.02-9.4
								c-4.08-3.37-7.92-6.84-11.75-10.32c-7.6-6.97-14.84-14.05-21.96-21.11c-28.33-28.17-55.44-56.35-86.59-76.9
								c-7.75-5.1-15.73-9.63-23.91-13.42c-8.17-3.81-16.47-6.75-25.35-9.15c-17.64-4.71-36.14-6.72-55.32-7.31
								c-9.6-0.34-19.39-0.32-29.64-0.53c-5.14-0.13-10.41-0.31-15.97-0.8c-5.58-0.54-11.4-1.21-18.03-3.25
								c-3.27-0.98-6.8-2.45-10.33-4.48c-1.79-1.17-3.56-2.24-5.26-3.78l-1.26-1.1l-0.62-0.56l-0.77-0.81l-1.49-1.69l-1.04-1.39
								c-2.56-3.63-3.82-6.29-5.16-9c-1.29-2.68-2.33-5.15-3.38-7.64c-4.02-9.84-7.34-19.24-10.74-28.64
								c-13.29-37.46-27.01-74.03-43.57-109.38c-16.47-35.31-35.48-69.3-57.79-100.79c-22.31-31.45-48.03-60.3-77.37-84.69
								l-0.02-0.01c-6.92-5.76-7.87-16.04-2.11-22.96c5.76-6.92,16.04-7.87,22.96-2.11c31.85,26.49,59.44,57.53,83.13,90.91
								c23.68,33.42,43.61,69.14,60.75,105.87c17.19,36.69,31.42,74.68,44.71,112.15c3.35,9.3,6.68,18.64,10.19,27.21
								c0.88,2.08,1.76,4.19,2.64,6c0.83,1.75,1.83,3.54,2.16,3.96c-0.5-0.48,0.04-0.01,0.68,0.44c0.81,0.4,1.84,0.94,3.34,1.37
								c2.87,0.93,6.99,1.54,11.28,1.92c4.34,0.38,9.02,0.56,13.81,0.68c9.63,0.2,19.73,0.19,29.99,0.55
								c20.52,0.63,41.83,2.82,62.65,8.4c10.32,2.76,20.82,6.46,30.67,11.07c9.86,4.58,19.21,9.91,28.06,15.74
								c35.4,23.46,63.66,53.28,91.66,81.01c7,6.93,13.97,13.76,21.02,20.22c3.54,3.2,7.07,6.39,10.65,9.35
								c3.62,3.09,7.85,6.56,11.67,9.96c15.53,13.79,30.33,28.91,42.86,46.41c12.51,17.41,22.83,37.38,28.03,59.28
								c5.22,21.87,4.85,45.15-0.3,66.55c-2.49,10.74-6,21.08-10.23,30.95c-1.06,2.46-2.12,4.94-3.28,7.33l-1.7,3.62
								c-0.69,1.33-1.37,2.71-2.1,4.03c-2.93,5.3-6.36,10.25-10.14,14.8c-15.24,18.28-35.27,30.06-55.64,37.84
								c-20.51,7.78-41.86,11.62-63.05,12.9c-21.22,1.24-42.36-0.18-63.04-3.57c-41.4-6.88-80.84-21.77-117.02-41.79
								c-17.98-9.99-34.72-20.73-51.45-29.73c-8.33-4.45-16.66-8.51-24.77-11.35c-8.08-2.85-15.93-4.36-22.28-3.73
								c-1.59,0.17-3.09,0.44-4.52,0.83l-1.05,0.34c-0.35,0.11-0.64,0.18-1.33,0.43l-3.58,1.28l-14.31,5.09
								c-9.6,3.24-19.21,6.48-28.94,9.4c-19.38,6.05-39.15,10.99-59.04,15.57c-39.83,8.81-81,14.19-122.57,12.56
								c-41.43-1.69-83.48-10.12-121.45-28.4C1924.32,1965.65,1891.35,1936.39,1872.98,1899.81"/>
						</g>
						<g>
							<path class="st0" d="M1310.9,1948.99c0,0-224.18,299.98-461.6,402.55c-39.19,16.93-85.33,34.13-134.16,39.54
								c-80.21,8.89-147.81-7.06-168.88-54.41c-66.16-148.69,167.7-206.15,363.45-495.76"/>
						</g>
						<g>
							<path class="st0" d="M1310.89,1949c0,0-205.73,275.28-431.69,388.55c-9.94,5.03-19.91,9.69-29.89,13.99
								c-39.21,16.95-85.33,34.14-134.19,39.54c-80.17,8.89-147.78-7.06-168.87-54.42c-35.48-79.73,15.33-133.26,100.29-210.39
								c73.44-66.71,172.39-151.1,263.15-285.38L1310.89,1949z"/>
						</g>
						<g>
							<path class="st1" d="M1310.88,1948.99c0,0-2.72,3.61-7.87,10.22c-39.62,50.81-223.78,278.04-423.83,378.32
								c-9.94,5.03-19.91,9.69-29.88,13.99c-39.21,16.95-85.33,34.14-134.2,39.54c-80.17,8.88-147.78-7.06-168.87-54.43
								c-8.43-18.93-12-36.37-11.36-53.04c1.95-53.45,46.84-98.54,111.65-157.35c73.44-66.71,172.4-151.1,263.15-285.37
								L1310.88,1948.99z"/>
						</g>
						<g>
							<path class="st2" d="M1303.01,1959.21c-39.62,50.81-223.78,278.04-423.83,378.32c-9.94,5.03-19.91,9.69-29.88,13.99
								c-39.22,16.95-85.33,34.14-134.2,39.54c-80.17,8.88-147.78-7.06-168.87-54.42c-8.43-18.94-12-36.37-11.36-53.04
								c24.78,33.09,74.13,63.55,172.52,51.99C993.02,2302.01,1199.96,2009.82,1303.01,1959.21"/>
						</g>
						<g>
							<path class="st4" d="M879.18,2337.54c-9.94,5.03-19.91,9.69-29.88,13.99c-39.21,16.95-85.33,34.14-134.2,39.54
								c-80.17,8.88-147.78-7.06-168.87-54.43c-2.59-5.8-4.7-11.43-6.41-16.99c-0.44-1.58-0.89-3.12-1.3-4.7
								c-0.16-0.49-0.29-0.97-0.36-1.46c-0.41-1.42-0.73-2.84-1.01-4.26c-0.41-1.83-0.73-3.65-1.02-5.47
								c-0.08-0.57-0.16-1.14-0.24-1.7c-0.24-1.38-0.4-2.76-0.53-4.14c-0.16-1.3-0.24-2.56-0.33-3.81
								c-0.24-3.53-0.32-7.06-0.16-10.5c24.78,33.09,74.14,63.54,172.52,51.99c59.9-7.06,116.35-25.47,169.11-50.65
								C879.79,2301.44,880.8,2319,879.18,2337.54"/>
						</g>
						<g>
							<path class="st3" d="M879.2,2337.54c-9.94,5.03-19.91,9.69-29.89,13.99c-39.21,16.95-85.33,34.14-134.19,39.54
								c-80.17,8.89-147.78-7.06-168.87-54.42c-35.49-79.73,15.33-133.26,100.29-210.39C766.78,2119.73,890.76,2204.2,879.2,2337.54
								"/>
						</g>
						<g>
							<path class="st4" d="M879.18,2337.54c-9.94,5.03-19.91,9.69-29.88,13.99c-39.21,16.95-85.33,34.14-134.2,39.54
								c-80.17,8.88-147.78-7.06-168.87-54.43c-2.59-5.8-4.7-11.43-6.41-16.99c-0.44-1.58-0.89-3.12-1.3-4.7
								c-0.16-0.49-0.29-0.97-0.36-1.46c-0.41-1.42-0.73-2.84-1.01-4.26c-0.41-1.83-0.73-3.65-1.02-5.47
								c-0.08-0.57-0.16-1.14-0.24-1.7c-0.24-1.38-0.4-2.76-0.53-4.14c-0.16-1.3-0.24-2.56-0.33-3.81
								c-0.24-3.53-0.32-7.06-0.16-10.5c24.78,33.09,74.14,63.54,172.52,51.99c59.9-7.06,116.35-25.47,169.11-50.65
								C879.79,2301.44,880.8,2319,879.18,2337.54"/>
						</g>
						<g>
							<path class="st5" d="M1310.9,1948.99c-35.34,56.43-75.99,109.47-119.65,159.98c-22.01,25.1-44.33,50.11-68.98,72.77
								c-6.15,5.67-12.33,11.32-18.7,16.76c-6.32,5.49-12.63,10.99-19.08,16.34c-12.69,10.93-25.7,21.5-38.73,32.07
								c-52.25,41.99-107.97,80.58-169.33,110.12c-7.74,3.52-15.48,7.18-23.22,10.56c-7.72,3.33-15.53,6.54-23.41,9.65
								c-15.75,6.23-31.85,11.89-48.3,16.74c-16.48,4.78-33.3,8.79-50.5,11.4c-17.31,2.66-34.3,3.98-51.72,4.3
								c-17.36,0.21-34.9-0.76-52.49-3.8c-17.53-3.08-35.26-8.14-52-17.22c-8.32-4.59-16.36-10.21-23.54-17.11
								c-7.1-6.96-13.41-15.1-17.93-24.2c-2.4-4.74-3.88-8.62-5.62-12.98l-2.34-6.51l-2.03-6.68c-2.5-9-4.16-18.42-4.64-28.01
								c-1.09-19.23,3.15-38.75,10.75-55.69c7.56-17.05,17.84-31.88,28.76-45.49c11.01-13.55,22.81-25.96,34.82-37.87
								c11.98-11.95,24.26-23.34,36.42-34.71c48.93-45.19,96.56-90.04,143.08-136.03c23.09-23.16,45.99-46.51,68.6-70.35
								l34.05-35.91c11.36-12.06,22.63-24.27,34.51-36.22c-6.72,15.45-14.58,30.26-22.91,44.83c-8.37,14.54-17.34,28.72-26.84,42.56
								c-19.02,27.65-40.12,53.86-62.68,78.67c-22.45,24.92-46.29,48.51-70.99,70.95c-24.62,22.51-49.97,44.04-74.48,65.99
								c-24.42,21.97-48.42,44.31-68.24,68.61c-9.78,12.17-18.42,24.88-24.28,38.15c-5.9,13.26-8.77,27-8.03,40.89
								c0.35,6.95,1.56,13.93,3.48,20.88l1.58,5.21l1.86,5.18c1.32,3.33,2.85,7.18,4.21,9.81c2.85,5.75,6.83,10.86,11.51,15.5
								c4.77,4.58,10.39,8.56,16.54,11.96c12.4,6.76,26.91,11.09,41.92,13.7c15.06,2.6,30.71,3.52,46.45,3.32
								c15.68-0.27,31.78-1.54,47.2-3.93c15.54-2.36,31-6.03,46.31-10.47c15.31-4.52,30.48-9.84,45.52-15.78
								c7.52-2.97,15.02-6.05,22.51-9.28c7.43-3.26,14.64-6.68,21.99-10c58.11-27.96,112.09-65.21,162.95-106.1
								c12.77-10.19,25.14-20.89,37.38-31.75c6.13-5.4,12.1-11.01,18.09-16.58l17.93-16.78c11.95-11.2,24.09-22.21,36.18-33.3
								c12.24-10.95,24.28-22.14,36.22-33.45c23.97-22.55,47.53-45.63,70.78-69.11C1265.19,1997.11,1288.28,1973.36,1310.9,1948.99"
								/>
						</g>
						<g>
							<path class="st5" d="M2590.61,1916.05c23.06,11.35,47.84,18.79,72.3,20.91c12.13,1,24.4,0.55,34.74-2.47
								c5.08-1.52,9.72-3.61,12.72-6.29c3.14-2.62,4.45-5.4,5.07-8.25l29.86,13.1c-2.39,4.36-5.35,8.45-8.91,11.78
								c-3.56,3.26-7.45,6.04-11.46,7.91c-8,3.99-15.97,5.33-23.46,5.9c-15.04,0.91-28.71-1.84-41.66-5.69
								C2633.98,1945,2610.84,1931.99,2590.61,1916.05"/>
						</g>
						<g>
							<path class="st5" d="M2543.42,1979.13c11.23,8.18,23.25,15.03,35.73,20.38c12.46,5.34,25.43,9.15,38.35,10.77
								c12.89,1.64,25.7,0.99,37.34-2.28c11.67-3.23,22.07-9.05,31.01-16.61l18.32,26.97c-14.07,7.8-29.8,12.7-45.45,13.78
								c-15.66,1.15-30.96-1.31-44.94-5.99c-14.02-4.69-26.86-11.5-38.58-19.51C2563.5,1998.61,2552.84,1989.34,2543.42,1979.13"/>
						</g>
						<g>
							<path class="st5" d="M686.75,2242.04c-6.79,11.64-11.82,24.12-15.53,36.76c-3.63,12.65-5.86,25.57-6.01,38.27
								c-0.24,12.69,1.52,25.1,5.3,36.58c3.67,11.51,9.56,21.98,16.63,31.38l-27.96,16.78c-6.51-13.71-11.06-28.39-12.63-43.23
								c-1.68-14.82-0.66-29.6,2.48-43.53c3.05-13.97,8.25-27.1,14.63-39.32C670.12,2263.54,677.74,2252.11,686.75,2242.04"/>
						</g>
						<g>
							<path class="st5" d="M604.28,2222.41c-9.24,10.9-16.49,23.24-21.86,36.04c-5.33,12.82-8.49,26.28-8.87,39.48
								c-0.15,6.6,0.4,13.12,1.54,19.44c1.16,6.33,3.16,12.43,5.49,18.3c5.01,11.69,12.1,22.35,20.64,31.91l-26.44,19.09
								c-8.09-13.55-14.35-28.47-17.66-44.05c-1.49-7.83-2.43-15.73-2.35-23.62c0.1-7.87,0.97-15.66,2.61-23.19
								c3.38-15.06,9.74-28.93,17.84-41.21C583.39,2242.36,593.12,2231.39,604.28,2222.41"/>
						</g>
						<g class="st7">
							<g>
								<g>
									<path class="st3" d="M2206.28,1416.54c-375.63-327.31-864.78,0.06-864.78,0.06l-13.06-56.21l37.8-7.63
										C1744.14,1105.91,2102.36,1221.44,2206.28,1416.54"/>
								</g>
							</g>
						</g>
						<g>
							<path class="st1" d="M601.17,1397.47c-226.26-104.58-465.39,10.2-494.26-77.8c-13-22.65-88.45-31.98-88-76.53
								c0.29-27.55,29.84-63.84,71.78-84.23c-51.91-49.57-52.13-107.73-32.44-133.57c16.84-22.09,83.45-1.83,98.16-27.56
								c58.53-102.44,154.58,138.11,293.19,29.92"/>
						</g>
						<g>
							<path class="st5" d="M601.17,1397.47c-21.28-5.07-42.03-9.96-62.84-13.88c-20.78-3.97-41.53-7.14-62.32-9.59
								c-20.79-2.48-41.63-4.21-62.55-5.36c-20.93-1.09-41.95-1.14-63.03-0.7c-42.22,0.83-84.42,4.61-127.98,6.68
								c-21.86,0.83-43.99,1.63-67.87-1.71c-11.9-1.84-24.62-4.61-37.46-11.78c-6.36-3.59-12.66-8.52-17.79-14.71
								c-5.16-6.16-8.95-13.41-11.29-20.57l1.65,3.69c0.38,0.57-1.31-1.63-4.39-3.53c-2.99-2-6.82-4.11-10.89-6.2
								c-8.2-4.21-17.48-8.41-26.88-13.53c-9.4-5.14-19.28-11.06-28.65-20.06c-4.63-4.53-9.1-9.99-12.54-16.57
								c-3.47-6.54-5.69-14.19-6.19-21.67c-0.57-7.52,0.51-14.62,2.25-20.95c1.77-6.35,4.21-12.15,7.03-17.48
								c5.68-10.66,12.79-19.69,20.51-27.81c15.48-16.17,33.79-28.56,53.62-37.52l-4.13,26.45c-9.83-8.99-18.94-19.02-26.78-30.24
								c-7.77-11.25-14.25-23.67-18.68-37.07c-4.45-13.38-6.92-27.74-6.33-42.55c0.73-14.75,4.05-30.17,13.55-44.53l1.89-2.68
								c0.97-1.26,1.99-2.45,3.08-3.55c2.16-2.2,4.47-4.02,6.76-5.53c4.61-3,9.05-4.76,13.14-6.06c8.2-2.53,15.34-3.29,22.09-3.94
								c13.36-1.14,25.53-1.12,36.01-2.39c5.14-0.6,9.85-1.61,12.61-2.8c1.4-0.57,2.15-1.14,2.38-1.34
								c0.11-0.11,0.09-0.13,0.07-0.11c0.02-0.02-0.1,0.11,0.03-0.05l1.41-2.39c3.76-6.36,8.36-12.79,14.82-18.72
								c6.35-5.87,15.01-11.31,24.86-13.44c9.81-2.34,19.43-1.35,27.44,0.66c8.12,2.04,14.93,5.08,21.22,8.35
								c12.46,6.66,22.89,14.14,33.04,21.42c10.07,7.33,19.77,14.51,29.42,21.32c9.59,6.88,19.23,13.28,29.08,18.73
								c9.84,5.45,19.91,9.97,30.16,12.93c10.26,2.97,20.55,4.67,31.14,5.01c10.58,0.32,21.48-0.91,32.75-3.4
								c2.76-0.76,5.68-1.27,8.49-2.16c2.88-0.73,5.78-1.54,8.66-2.51l8.8-2.88c2.93-1.04,5.92-2.09,9.04-3.07
								c-3.57,5.37-7.62,10.46-12.27,14.99c-4.56,4.65-9.68,8.82-15.22,12.55c-11.09,7.36-24.1,12.72-37.93,15
								c-6.9,1.17-13.94,1.51-20.96,1.31c-6.99-0.42-13.92-1.32-20.64-2.89c-13.48-3.07-26.16-7.98-38.05-13.7
								c-11.91-5.73-23.07-12.31-33.76-19.08c-10.67-6.83-20.77-14.01-30.72-20.74c-9.9-6.69-19.7-13.12-28.99-17.68
								c-4.6-2.24-9.06-4.19-12.84-5.04c-3.82-0.91-6.75-1-8.87-0.42c-2.17,0.44-4.28,1.67-6.89,4.04c-2.55,2.37-5.26,5.9-7.82,9.99
								l-0.97,1.52c-0.68,1.13-1.57,2.6-2.48,3.79c-1.83,2.49-3.94,4.72-6.14,6.62c-4.43,3.77-9.07,6.24-13.34,7.95
								c-8.61,3.39-16.08,4.46-23.06,5.28c-13.85,1.46-26.21,1.26-37.22,2.14c-5.42,0.4-10.5,1.15-14.03,2.16
								c-1.74,0.48-3.03,1.06-3.56,1.39c-0.27,0.16-0.37,0.24-0.37,0.21c0,0,0.03-0.05,0.05-0.11l-0.77,1.05
								c-4.34,5.96-7.14,15.17-7.78,24.74c-0.6,9.65,0.65,19.85,3.51,29.79c5.82,19.94,17.89,38.7,33.5,54.57l15.6,15.86
								l-19.73,10.59c-15.71,8.44-30.13,19.52-41.53,32.45c-5.67,6.45-10.48,13.45-13.88,20.41c-3.41,6.91-5.03,13.93-4.43,18.59
								c0.27,2.39,0.93,4.42,2.15,6.6c1.21,2.16,3.08,4.46,5.58,6.78c4.99,4.69,12.19,9.2,20.23,13.34
								c8.07,4.2,16.85,8.15,26.33,12.87c4.74,2.4,9.66,4.96,14.94,8.4c5.14,3.51,11.34,7.73,16.92,16.78l0.82,1.32l0.83,2.38
								c2.11,6.01,5.05,9.64,11.01,13.1c5.95,3.34,14.43,5.78,23.67,7.16c18.65,2.75,39.63,2.56,60.59,2.03
								c42.17-1.32,85.58-4.05,129.19-3.48c21.82,0.2,43.71,1.26,65.57,3.22c21.87,1.91,43.7,5.1,65.17,10.06
								c21.47,4.9,42.57,11.54,62.82,20.1C564.06,1374.17,583.45,1384.67,601.17,1397.47"/>
						</g>
						<g>
							<path class="st8" d="M281.48,795.38c-41.94-230.19,31.43-501.25,96.73-518.86c82.3-22.19,263.83,138.58,353.59,286.02"/>
						</g>
						<g>
							<path class="st1" d="M731.79,562.54l-85.08,43.97L281.49,795.38c-33.62-184.42,6.79-395.03,57.78-480.58
								c12.67-21.23,25.96-34.76,38.96-38.26C460.51,254.34,642.02,415.09,731.79,562.54"/>
						</g>
						<g>
							<path class="st2" d="M646.71,606.5L281.49,795.38c-33.62-184.42,6.8-395.03,57.78-480.58
								C380.84,316.22,536.03,350.03,646.71,606.5"/>
						</g>
						<g>
							<path class="st5" d="M281.47,812.96c-8.33,0-15.73-5.94-17.28-14.43c-19.3-105.91-16.28-232.02,8.26-346
								c8.89-41.27,42.45-177.14,101.19-192.98C473.91,232.49,664.69,418.5,746.82,553.4c5.05,8.29,2.42,19.11-5.87,24.16
								c-8.29,5.04-19.11,2.42-24.16-5.87C625,420.91,450.21,275.3,382.79,293.5c-46.69,12.59-127.38,260.69-84,498.73
								c1.74,9.55-4.59,18.7-14.15,20.44C283.57,812.87,282.51,812.96,281.47,812.96z"/>
						</g>
						<g>
							<path class="st9" d="M383.16,372.92c21.45-13.88,81.77,15.33,141.16,92.08c37.07,47.91,66.67,98.24,70.03,129.91
								c-48.83,20.84-163.32,75.68-278.04,138.83C300.5,578.3,348.13,395.59,383.16,372.92"/>
						</g>
						<g>
							<path class="st3" d="M594.36,594.89c-48.85,20.84-163.33,75.69-278.04,138.83c-0.26-2.37-0.48-4.74-0.66-7.1
								c-3.64-40.47-3.05-82.56,0.36-123.06c9.46-111.54,40.66-210.79,65.86-229.72c0.4-0.35,0.84-0.66,1.28-0.93
								c21.46-13.89,81.79,15.33,141.17,92.07C561.36,512.9,590.97,563.26,594.36,594.89"/>
						</g>
						<g>
							<path class="st4" d="M594.36,594.89c-48.85,20.84-163.33,75.69-278.04,138.83c-0.26-2.37-0.48-4.74-0.66-7.1
								c-0.46-5.17-0.86-10.36-1.19-15.57c-2.65-35.03-3.51-71.41-2.54-107.26c1.3-0.04,2.69-0.11,4.09-0.23
								c31.04-2,78.28-14.47,105.63-66.82c35.05-67.03-6.85-126.4-39.77-162.91c0.4-0.35,0.84-0.66,1.28-0.93
								c21.46-13.89,81.79,15.33,141.17,92.07C561.36,512.9,590.97,563.26,594.36,594.89"/>
						</g>
						<g>
							<path class="st5" d="M301.49,761.96l-2.69-26.44c-15.55-153.12,30.41-348.63,74.8-377.36
								c34.86-22.57,104.09,17.85,164.61,96.08c25.49,32.95,68.95,94.79,73.61,138.82l1.37,12.92l-11.95,5.1
								c-44.14,18.83-158.22,72.97-276.47,138.06L301.49,761.96z M392.7,387.68c-22.77,14.76-69.2,168.61-61,317.63
								c100.37-54.3,194.74-99.58,242.57-120.82c-7.77-26.4-31.13-66.41-63.87-108.74C452,400.27,400.96,382.89,392.7,387.68z
								 M383.16,372.92h0.05H383.16z"/>
						</g>
						<g>
							<path class="st8" d="M894.87,519.15c153.74-164.65,347.6-270.59,431.31-234.8c66.5,28.43,93.81,265.7,5.89,657.13"/>
						</g>
						<g>
							<path class="st8" d="M1332.08,941.49L894.85,519.16c1.29-1.35,2.54-2.73,3.82-4.08
								c153.13-162.33,344.48-266.22,427.52-230.74c10.26,4.4,19.56,13.73,27.69,27.87
								C1398.38,389.63,1406.42,610.41,1332.08,941.49"/>
						</g>
						<g>
							<path class="st1" d="M1335.52,925.96c-1.12,5.12-2.29,10.32-3.45,15.53L1195.9,809.94L894.85,519.16
								c1.29-1.35,2.53-2.73,3.82-4.08c153.13-162.34,344.48-266.23,427.52-230.74c10.26,4.39,19.57,13.72,27.69,27.86
								c0.14,0.21,0.24,0.47,0.39,0.68C1397.72,389.67,1405.97,604.46,1335.52,925.96"/>
						</g>
						<g class="st6">
							<g>
								<g>
									<path class="st3" d="M1353.88,312.2c-0.54-0.19-0.98-0.34-1.35-0.54c-83.01-42.86-281.41,49.69-426.79,229.69l-27.08-26.28
										c153.13-162.33,344.48-266.22,427.52-230.74C1336.46,288.74,1345.76,298.06,1353.88,312.2"/>
								</g>
							</g>
						</g>
						<g>
							<path class="st2" d="M1335.52,925.96L1195.9,809.94c-15.8-63.86-29.71-159.6-4.02-248.12
								c37.5-129.04,91.34-261.53,162.4-248.94C1397.72,389.67,1405.97,604.46,1335.52,925.96"/>
						</g>
						<g>
							<path class="st5" d="M1332.09,959.36c-1.29,0-2.61-0.14-3.93-0.44c-9.63-2.16-15.69-11.73-13.53-21.36
								c50.79-226.16,57.69-375.04,54.53-460.11c-4.32-116.46-29.64-167.96-50.01-176.67c-67.66-28.93-249.01,56.84-411.23,230.56
								c-6.73,7.21-18.05,7.6-25.27,0.87c-7.22-6.74-7.6-18.05-0.86-25.27c161.67-173.14,359.96-278.14,451.41-239.04
								c53.72,22.97,68.63,125.91,71.69,208.22c3.23,87.18-3.74,239.36-55.38,469.27C1347.65,953.71,1340.27,959.36,1332.09,959.36z
								"/>
						</g>
						<g>
							<path class="st4" d="M1152.62,1622.2c-13.46,25.17-33.61,46.45-61.73,60.68c-294.91,73.57-449.94,35.43-449.94,35.43
								c-180.35-13.39-317.65-66.74-412.13-136.11c-11.04-12.9-21.07-26.81-30.1-41.36
								C380.66,1652.56,715.13,1738.31,1152.62,1622.2"/>
						</g>
						<g>
							<path class="st0" d="M1338.43,720.33c99.9,144.7,135.48,292.92,141.02,463.56c0.96,29.62,61.79,21.93,71.25,48.05
								c11.06,30.54-6.55,85.97-70.9,117.75c33.92,32,51.26,75.47,43.29,101.85c-12.88,42.65-87.68,29-106.85,46.71
								c-59.9,82.14-230.73,193.83-474.34,220.19l-88.2,8.96c-514.3,30.66-738.02-200.29-774.92-347.91
								c-33.11-132.46,40.03-241.17,40.02-241.34c39.24-261.03,105.35-551.08,406.3-631.92c31.13-8.36,64.51-14.86,100.29-19.35
								c36.65-4.6,220.23-23.91,375.54,24.14L1338.43,720.33z"/>
						</g>
						<g>
							<path class="st0" d="M1479.81,1349.68c33.9,32.02,51.24,75.47,43.28,101.86c-12.88,42.65-87.67,29-106.85,46.69
								c-48.92,67.11-171.8,153.85-347.91,197.79h-0.04c-39.53,9.88-81.76,17.6-126.41,22.41l-88.17,8.97
								c-301.41,17.96-503-53.94-625.68-146.21c-86.68-65.21-133.98-140.63-149.25-201.73c-33.09-132.45,40.04-241.14,40.04-241.34
								c39.21-261,105.34-551.07,406.27-631.89c31.15-8.38,64.51-14.89,100.28-19.38c36.66-4.59,220.24-23.89,375.55,24.17
								l337.53,209.31c99.87,144.67,135.46,292.9,140.98,463.56c0.99,29.64,61.8,21.92,71.28,48.03
								C1561.77,1262.49,1544.13,1317.93,1479.81,1349.68"/>
						</g>
						<g>
							<path class="st1" d="M1524.71,1431.61c0.65,7.3,0.16,14.03-1.62,19.91c-12.9,42.66-87.68,29.04-106.86,46.72
								c-48.91,67.11-171.79,153.86-347.91,197.78h-0.04c-39.54,9.9-81.76,17.6-126.41,22.43l-88.17,8.96
								c-293.65,17.52-492.52-50.28-616.01-139.06c-3.28-2.39-6.53-4.74-9.69-7.14C141.35,1516,94.02,1440.57,78.78,1379.45
								c-33.09-132.45,40.03-241.13,40.03-241.33c39.21-261.01,105.36-551.04,406.27-631.87c31.19-8.4,64.52-14.89,100.29-19.39
								c36.66-4.58,220.24-23.88,375.56,24.17l337.53,209.3c99.88,144.65,135.45,292.92,140.97,463.57
								c1.02,29.64,61.8,21.9,71.29,48.01c11.07,30.58-6.57,86.01-70.89,117.77C1506.18,1374.51,1522.48,1406.34,1524.71,1431.61"/>
						</g>
						<g>
							<path class="st2" d="M1523.09,1451.52c-12.9,42.66-87.68,29.04-106.86,46.72c-48.91,67.12-171.78,153.86-347.91,197.78h-0.04
								c-39.54,9.9-81.76,17.6-126.41,22.43l-88.17,8.96c-293.65,17.52-492.52-50.28-616.01-139.06
								c126.4,44.73,533.48,161.61,961.65-6.16c184.72-72.35,149.12-140.56,242.07-128.27c33.42,4.42,61-5.8,83.3-22.3
								C1525.36,1438.9,1524.88,1445.64,1523.09,1451.52"/>
						</g>
						<g>
							<path class="st4" d="M1151.74,1599.7c-14.84,40.55-41.61,75.67-83.42,96.31h-0.04c-39.54,9.9-81.75,17.6-126.4,22.43
								l-88.17,8.96c-293.65,17.52-492.52-50.28-616.01-139.06C359.41,1631.41,741.34,1741.36,1151.74,1599.7"/>
						</g>
						<g>
							<path class="st3" d="M1068.33,1696.02h-0.04c-39.53,9.88-81.76,17.6-126.41,22.41l-88.17,8.97
								c-301.41,17.96-503-53.94-625.68-146.21c-78.65-92.9-107.73-235.32-55.14-309.51c74.34-104.8,184.76-14.42,246.68-43.11
								c41.44-19.19,68.78-46.31,139.96-41.06c79.06,5.83,102.2,41.03,163.55,72.28c117.45,59.87,235.36-30.28,381.35,84.09
								C1180.5,1403.51,1205.9,1628.05,1068.33,1696.02"/>
						</g>
						<g>
							<path class="st4" d="M1151.74,1599.7c-14.84,40.55-41.61,75.67-83.42,96.31h-0.04c-39.54,9.9-81.75,17.6-126.4,22.43
								l-88.17,8.96c-293.65,17.52-492.52-50.28-616.01-139.06c197.22-265.21,276.83,86.82,519.66,80.99
								C879.81,1666.4,1014.18,1647.18,1151.74,1599.7"/>
						</g>
						<g>
							<path class="st5" d="M1000.93,511.02c-52.5-11.16-105.38-16.89-158.35-18.56c-52.93-1.86-105.91-0.22-158.53,4.18
								c-26.37,2.26-52.42,5.08-78.26,9.41c-25.86,4.19-51.46,9.63-76.56,16.61c-49.93,13.88-97.5,35.18-139.72,64.28
								c-42.19,29.17-78.58,66.24-108.39,108.29c-29.8,42.11-53.22,88.92-71.98,137.69c-18.72,48.84-33,99.64-44.63,151.19
								c-11.63,51.58-20.64,103.93-28.78,156.58l0.12-4.13c0.21,2.6-0.24,5.71-1.37,8.36c-1.71,3.56-1.54,2.77-1.53,2.9l-0.28,0.43
								l-0.54,0.86l-1.08,1.74l-2.14,3.59c-1.41,2.44-2.8,4.92-4.15,7.43c-2.7,5.01-5.27,10.16-7.68,15.37
								c-4.85,10.43-9.15,21.15-12.88,32.04c-7.47,21.81-12.72,44.35-15.38,67.12c-2.55,22.78-2.64,45.79,0.34,68.41
								c1.32,11.31,3.73,22.56,6.44,33.53c2.82,10.84,6.51,21.59,10.96,32.09c8.96,21,20.82,40.97,34.34,59.78
								c13.54,18.82,28.89,36.45,45.54,52.82c33.37,32.75,71.91,60.19,112.72,83.56c82.14,46.31,173.63,75.5,267.27,93.65
								c93.87,18.18,190.21,24.81,287.28,27.13c-96.17,13.66-194.67,15.05-292.04,1.82c-24.31-3.43-48.57-7.63-72.64-12.91
								c-24.03-5.42-47.92-11.72-71.49-19.18c-47.1-15.04-92.91-34.81-136.05-59.65c-43.18-24.73-83.46-54.98-118.83-90.52
								c-35.37-35.43-65.88-76.6-86.17-123.66c-5.12-11.73-9.45-23.9-12.86-36.46c-3.21-12.5-5.86-24.98-7.43-37.71
								c-3.44-25.39-3.44-51.15-0.71-76.48c2.85-25.34,8.56-50.24,16.68-74.27c4.06-12.02,8.73-23.82,14.05-35.37
								c2.65-5.78,5.43-11.51,8.42-17.17c1.49-2.83,3.04-5.65,4.64-8.47l2.48-4.23l1.29-2.13l0.66-1.06l0.33-0.53
								c0.11-0.03,0.38-0.98-1.23,2.41c-1.04,2.49-1.38,5.44-1.07,7.89l0.11-4.14c7.77-53.1,16.48-106.3,27.96-159.17
								c11.47-52.85,25.74-105.44,45.14-156.56c9.67-25.56,20.67-50.72,33.22-75.22c12.65-24.43,26.85-48.19,42.91-70.76
								c31.93-45.24,71.97-85.35,118.1-116.62c46.08-31.42,97.95-53.46,151.24-67.32c26.55-6.92,53.43-12.2,80.43-16.1
								c27.01-3.86,54.25-6.1,81.25-7.28c54.11-2.34,108.36-0.69,162.06,5.9C897.76,479.3,951.08,490.88,1000.93,511.02"/>
						</g>
						<g>
							<path class="st3" d="M997.34,832.65c5.45-25.96-77.03-113.1-128.11-92.61c-51.08,20.49-44.25,76.77-13.86,93.61
								C899.53,858.12,991.89,858.62,997.34,832.65"/>
						</g>
						<g>
							<path class="st3" d="M323.06,794.29c-4.35-26.17,74.17-108.46,120.81-85.24c46.63,23.22,38.83,78.93,10.3,94.04
								C412.73,825.03,327.4,820.45,323.06,794.29"/>
						</g>
						<g>
							<path class="st9" d="M1306.61,340.71c-58.58-8.82-201.7,105.83-224.38,169.95c-17.4,49.19,80.07,47.47,225.28,173.77
								C1356.39,574.58,1332.14,344.55,1306.61,340.71"/>
						</g>
						<g>
							<path class="st3" d="M1307.51,684.4c-0.69-0.62-1.39-1.2-2.07-1.78c-144.05-124.48-240.52-123-223.19-171.95
								c22.64-64.14,165.76-178.77,224.34-169.97c3.28,0.48,6.55,4.74,9.63,11.95C1337.17,401.68,1350.07,588.7,1307.51,684.4"/>
						</g>
						<g>
							<path class="st4" d="M1313.15,659.22c-2.32,8.17-4.87,16.05-7.72,23.41c-144.05-124.48-240.52-123.01-223.19-171.96
								c22.64-64.14,165.76-178.77,224.34-169.97c3.28,0.48,6.55,4.74,9.63,11.95c1.81,5.7,3.21,10.32,3.98,13.18
								c-39.29,10.26-103.47,36.98-114.09,103.13C1192.16,556.01,1273.07,586.95,1313.15,659.22"/>
						</g>
						<g>
							<path class="st10" d="M1307.51,702c-4.2,0-8.31-1.5-11.53-4.31c-67.92-59.07-124-88.89-164.94-110.67
								c-46.16-24.55-79.51-42.28-65.38-82.23c25.23-71.32,175.01-191.76,243.57-181.47l0,0c8.16,1.23,14.97,6.7,20.21,16.26
								c25.99,47.43,40.15,248.6-5.86,351.99c-2.27,5.09-6.81,8.81-12.26,10.01C1310.06,701.87,1308.78,702,1307.51,702z
								 M1299.05,357.74c-51.47,0-179.56,100.28-200.24,158.78c-3.43,9.69,3.86,15.59,48.75,39.47
								c36.38,19.35,89.65,47.68,152.29,98.97c32-100.99,15.66-267.64-0.38-297.21C1299.32,357.74,1299.19,357.74,1299.05,357.74z"
								/>
						</g>
						<g>
							<path class="st5" d="M1307.51,701.98c-4.2,0-8.31-1.5-11.54-4.32c-56.83-49.43-106.31-78.85-143.08-98.96
								c-7.68-4.18-14.9-8.02-21.61-11.58c-46.3-24.58-79.76-42.35-65.61-82.32c5.94-16.88,18.62-36.48,37.66-58.23
								c50.04-57.11,149.31-131.75,205.86-123.25c8.19,1.24,14.99,6.71,20.23,16.29c25.98,47.43,40.13,248.58-5.85,351.94
								c-2.27,5.09-6.81,8.81-12.26,10.01C1310.06,701.84,1308.78,701.98,1307.51,701.98z M1299.47,357.77
								c-36.25,0.04-119.06,54.18-169.68,111.96c-20.02,22.88-27.89,38.07-30.95,46.78c-3.44,9.73,3.88,15.64,48.94,39.57
								c6.82,3.62,14.16,7.51,21.97,11.77c34.15,18.67,78.8,45.05,130.1,87.07C1331.83,553.95,1315.51,387.41,1299.47,357.77z"/>
						</g>
						<g>
							<path class="st5" d="M941.89,1718.44c21.92-4.79,43.69-9.66,65.25-15.09c21.52-5.65,42.85-11.62,63.96-18.21
								c42.15-13.3,83.33-29.01,123.08-47.4c39.7-18.46,78.01-39.7,113.52-64.52c17.69-12.47,34.74-25.71,50.59-40.04
								c15.79-14.31,30.46-29.73,42.54-46.17l1.27-1.73l1.19-1.04c7.86-6.83,14.93-9.03,20.83-10.86
								c6.02-1.74,11.46-2.71,16.68-3.61c10.42-1.7,19.99-2.88,28.96-4.53c8.93-1.57,17.18-3.75,23.4-6.77
								c3.1-1.5,5.59-3.19,7.41-4.94c1.83-1.76,3.07-3.56,4.02-5.81c1.98-4.34,2.5-11.56,1.29-19.2
								c-1.16-7.69-3.84-15.75-7.29-23.62c-7.01-15.77-17.54-30.6-29.98-43.36l-16.45-16.86l20.42-9.62l0,0
								c12.25-6.55,23.49-14.52,33.02-23.84c9.56-9.24,17.44-19.92,22.56-31.4c5.2-11.32,7.77-23.81,6.29-34.15
								c-0.34-2.56-0.91-4.95-1.7-6.99c-0.19-0.45-0.06-0.09-0.2-0.29c-0.1-0.09-0.33-0.34-0.8-0.71
								c-1.85-1.61-7.47-4.23-13.88-6.21c-6.51-2.13-13.97-4.04-22.29-6.95c-4.18-1.49-8.62-3.22-13.44-5.88
								c-4.76-2.67-10.21-6.36-14.95-12.58c-2.33-3.09-4.32-6.79-5.6-10.66c-0.64-1.94-1.12-3.89-1.44-5.82
								c-0.31-1.8-0.47-4.07-0.52-5.36l-0.51-11.25l-1.1-22.49c-0.83-14.98-2.01-29.91-3.4-44.81c-1.44-14.89-3.24-29.73-5.1-44.55
								c-3.93-29.6-9.26-58.97-16.18-87.93c-6.71-29.01-15.04-57.65-25.18-85.66c-4.99-14.04-10.65-27.83-16.29-41.64
								c-5.54-13.87-11.56-27.55-17.41-41.4l-18.04-41.62c-6.06-13.98-12.39-27.92-18-42.56c45.52,42.74,78.35,97.24,101.23,155.15
								c11.72,28.89,21.61,58.55,29.81,88.64c7.96,30.16,14.1,60.74,18.84,91.48c4.74,30.74,7.5,61.69,9.43,92.58
								c0.44,7.72,0.9,15.45,1.15,23.18l0.36,11.59c0.03,0.62,0.01,0.25,0,0.33c-0.01-0.05-0.04-0.15-0.09-0.27
								c-0.09-0.26-0.27-0.55-0.32-0.58c-0.15-0.1,0.68,0.83,2.54,1.88c1.83,1.06,4.48,2.22,7.47,3.31
								c6.03,2.22,13.32,4.21,21.28,6.87c4,1.36,8.2,2.89,12.68,4.97c4.46,2.1,9.28,4.75,14.16,8.98c2.42,2.12,4.83,4.66,6.94,7.66
								c2.09,2.89,3.96,6.69,5,9.85c1.78,5.14,2.8,10.26,3.33,15.26c2.03,20.09-2.99,38.4-10.81,54.47
								c-7.98,16.08-19.22,29.86-32,41.29c-12.86,11.4-27.36,20.32-42.39,27.33l-0.01,0l3.97-26.48
								c16.26,14.47,29.94,31.83,39.88,51.87c4.97,10.04,8.88,20.84,11.1,32.67c1.09,5.92,1.67,12.17,1.45,18.73
								c-0.24,6.54-1.33,13.61-4.12,20.58c-2.73,6.94-7.13,13.52-12.38,18.67c-5.25,5.19-11.12,9.02-16.87,11.92
								c-11.57,5.74-22.75,8.41-33.23,10.48c-10.49,2.03-20.59,3.22-29.71,4.75c-4.53,0.76-8.83,1.62-12.34,2.61
								c-3.57,0.87-5.94,2.44-5.59,2.14l2.46-2.77c-29.11,38.77-65.66,67.84-103.85,93.36c-38.42,25.25-79.33,45.97-121.54,62.93
								c-42.29,16.78-85.97,29.59-130.27,38.47C1031.68,1713.09,986.74,1717.96,941.89,1718.44"/>
						</g>
						<g>
							<path class="st5" d="M981.2,1245.7c-5.91-18.03-11.58-35-18.81-50.62c-7.07-15.62-15.63-29.71-25.49-41.23
								c-9.94-11.51-21.31-20.04-33.98-25.74c-6.43-2.81-12.98-4.9-20.25-6.53c-7.25-1.61-14.53-2.58-21.83-2.84
								c-29.16-1.35-58.53,9.68-84.87,29.26c-13.19,9.73-25.67,21.39-37.46,34.32c-11.82,12.95-22.8,27.2-34.14,42.09
								c2.29-18.57,7.57-36.76,15.28-54.23c7.83-17.38,18.08-34.19,31.48-48.98c6.62-7.46,14.07-14.34,22.12-20.67
								c8.16-6.17,16.95-11.84,26.47-16.36c18.91-9.19,40.49-14.24,62.06-14.05c10.78,0.08,21.51,1.42,31.86,3.87
								c10.34,2.35,20.98,6.22,30.7,11.53c19.82,10.32,35.81,27.16,46.18,45.47c10.37,18.49,15.53,38.45,17.01,57.89
								C988.97,1208.37,987.04,1227.62,981.2,1245.7"/>
						</g>
						<g>
							<path class="st5" d="M211.91,1188.09c-1.12-15.85,0.15-31.65,3.32-47.43c3.26-15.74,8.78-31.45,17.75-46.23
								c8.84-14.73,21.9-28.53,38.81-37.45c8.45-4.32,17.58-7.56,26.86-9.19c9.35-1.57,18.4-2.12,27.85-1.23
								c9.37,0.93,18.99,3.04,27.89,7.01c8.91,3.9,17.21,9.18,24.15,15.58c7.02,6.31,12.85,13.5,17.55,21.03
								c4.81,7.48,8.4,15.37,11.41,23.23c5.78,15.85,8.8,31.93,9.82,47.85c1,15.93,0.28,31.72-2.62,47.27
								c-5.7-14.76-10.69-29.18-16.47-42.94c-5.65-13.76-11.89-26.89-19.19-38.55c-7.18-11.69-15.68-21.66-25.01-28.53
								c-9.41-6.82-19.57-10.55-31.1-11.45c-5.71-0.37-11.98-0.35-17.64,0.54c-5.72,0.86-11.26,2.21-16.52,4.51
								c-10.68,4.2-20.5,11.89-29.63,21.6c-9.1,9.76-17.2,21.6-24.82,34.26C226.64,1160.65,219.7,1174.25,211.91,1188.09"/>
						</g>
						<g>
							<path class="st11" d="M343.74,1603.42l0.48-0.16C344.22,1603.26,344.06,1603.32,343.74,1603.42"/>
						</g>
						<g>
							<path class="st12" d="M800.74,1756.11c-77.68,26.35-153.09-14.44-208.67-86.67c-54.92-71.36-90.65-88.28-137.32-101.02
								c-30.74-8.43-80.41-20.5-168.89,21.97c-45.71,21.95-58.54,32.53-73.92,27.34c-1.49-0.5-3.02-1.14-4.6-1.96
								c-17.08-8.74-15.37-83.15,27.94-150.33c111.26-172.48,389.26-244.38,559.26-36.14c16.11,19.73,29.4,40.51,40.06,61.62
								C892.84,1606.13,872.5,1731.75,800.74,1756.11"/>
						</g>
						<g>
							<path class="st12" d="M800.75,1756.12c-77.7,26.36-153.09-14.44-208.69-86.67c-54.91-71.37-90.64-88.28-137.32-101.02
								c-30.74-8.43-80.41-20.52-168.86,21.94c-45.74,21.98-58.56,32.52-73.93,27.33c-1.5-0.49-3.04-1.1-4.63-1.95
								c-17.07-8.72-15.37-83.13,27.94-150.33c41.85-64.89,107.31-115.54,181.72-142.34c88.28-31.92,189.22-30.3,278.36,20.8
								c35.44,20.32,69.02,48.42,99.19,85.41c16.1,19.75,29.4,40.51,40.07,61.64C892.85,1606.11,872.49,1731.75,800.75,1756.12"/>
						</g>
						<g>
							<path class="st13" d="M695.35,1343.89c-8.56,30.9-25.63,64.52-59.45,80.83c-64.08,30.86-91.81-27.25-91.81-27.25
								s-13.75,29.52-53.13,25.26c-43.27-4.66-66.95-74.86-73.97-99.64C505.28,1291.17,606.22,1292.79,695.35,1343.89"/>
						</g>
						<g>
							<path class="st3" d="M800.74,1756.11c-77.68,26.35-153.09-14.44-208.67-86.67c-54.92-71.36-90.65-88.28-137.32-101.02
								c-30.74-8.43-80.41-20.5-168.89,21.97c-45.71,21.95-58.54,32.53-73.92,27.34c-0.11-2.09,0.05-4.5,0.54-7.23
								c5.55-31.87,107.98-125.1,235.33-124.1c114.66,0.88,157.36,72.63,205.67,56.87c34.83-11.38,121.23-88.99,181.13-52.33
								C892.84,1606.13,872.5,1731.75,800.74,1756.11"/>
						</g>
						<g>
							<path class="st14" d="M752.78,1731.72c-46.34,0-94.28-29.14-135-82.06c-57.63-74.87-98.75-97.31-154.48-112.53
								c-16.63-4.56-116.65-19.7-199.54,33.03c134.67-114.91,273.83-32.36,305-16.01c23.37,12.26,45.44,23.83,70.48,23.83
								c8.27,0,114.37,14.14,155.26,81.3c16.32,26.8,14.56,59.77-4.19,66.12C777.93,1729.59,765.3,1731.72,752.78,1731.72"/>
						</g>
						<g>
							<path class="st5" d="M845.67,1574.61c4.95,16.65-2.45,33.53-16.51,37.71c-14.06,4.18-29.47-5.93-34.42-22.57
								c-4.95-16.65,2.44-33.53,16.51-37.71C825.31,1547.86,840.72,1557.96,845.67,1574.61"/>
						</g>
						<g>
							<path class="st5" d="M752.62,1781.76c-61.9,0-123.37-35.21-174.48-101.61c-54.09-70.27-87.18-83.61-128.02-94.78
								c-26.98-7.38-72.14-19.73-156.65,20.85c-10.74,5.16-19.51,9.61-27.25,13.54c-29.02,14.74-45,22.86-66.88,11.66
								c-8.02-4.1-13.67-12.06-16.79-23.66c-8.56-31.83,1.84-95.86,37.95-151.85v0c63.82-98.93,177.3-164.5,296.17-171.14
								c112.67-6.27,216.13,41.09,291.49,133.41c75.29,92.24,89.28,202.14,69.76,270.16c-12.33,42.97-37.73,72.95-71.5,84.41
								C788.6,1778.79,770.59,1781.76,752.62,1781.76z M400.53,1542.5c26.08,0,45.19,5.22,58.86,8.96
								c53.81,14.72,91.26,35.34,146.6,107.24c56.21,73.02,125.14,102.45,189.12,80.76c22.54-7.65,39.95-29.25,49.01-60.82
								c17-59.21,4.05-155.83-63.2-238.23c-68.06-83.38-161.22-126.13-262.29-120.54c-107.83,6.03-210.75,65.47-268.59,155.1l0,0
								c-36.53,56.63-38.66,113.52-32.88,125.96c4.36,1.53,9.2-0.35,33.14-12.51c7.51-3.82,16.86-8.57,27.95-13.89
								C330.14,1549.62,370.09,1542.5,400.53,1542.5z M217.77,1602.03h0.05H217.77z"/>
						</g>
						<g>
							<path class="st15" d="M295.36,1585.95c-25.32,50.25,33.12,162.47-20.4,191.52c-52.6,28.55-94.37-21.78-110.33-93.49
								c-22.37,15.59-58.21,51.18-93.22,28.62c-30.19-19.45-23.88-66.19-5.32-100.59c31.91-59.11,102.62-90.12,143.98-95.53
								C198.72,1549.18,185.19,1630.63,295.36,1585.95"/>
						</g>
						<g>
							<path class="st16" d="M245.57,1761.27c-23.2,0-46.18-33.19-57.18-82.58l-7.89-35.44l-29.78,20.77
								c-3.65,2.55-7.39,5.38-11.34,8.38c-12.84,9.78-30.44,23.16-43.93,23.16c-3.8,0-7.25-1.09-10.86-3.42
								c-15.84-10.2-10.96-42.88,2.91-68.58c-2.25,43.38,53.51,35.69,116.93-50.92c9.07,44.61,49.54,25.56,57.58,23.99
								c-0.06,17.88,4.86,61.22,7.42,79.85c4.57,33.29,9.75,71.02-6.08,79.61C257.03,1759.53,251.04,1761.27,245.57,1761.27"/>
						</g>
						<g>
							<path class="st5" d="M245.54,1803.18c-9.74,0-19.31-2.08-28.5-6.27c-26.78-12.19-48.89-42-62.55-83.48
								c-23.69,17.13-57.71,36.41-92.6,13.95c-39.78-25.63-33.73-82.1-11.27-123.72c32.4-60.03,102.27-96.03,153.48-104.08
								c6.8-1.07,13.49,1.43,17.93,6.64c4.45,5.21,5.85,12.23,3.75,18.75c-7.5,23.37-7.39,44.77,0.26,52
								c7.97,7.51,29.8,5.43,58.43-5.61c7.25-2.78,15.44-1.06,20.93,4.4c5.47,5.46,7.21,13.65,4.44,20.87
								c-6.68,17.26-2.72,46.18,1.12,74.15c6.42,46.75,13.69,99.73-27.61,122.14C270.77,1799.76,258.02,1803.18,245.54,1803.18z
								 M176.1,1654.55l5.7,25.61c9.48,42.61,28.57,75.08,49.81,84.76c10.85,4.93,22.29,3.99,34.97-2.89
								c18.54-10.06,15.82-40.77,9.55-86.46c-2.93-21.39-5.94-43.26-4.77-63.05c-31.17,7.9-54.01,4.58-69.45-9.98
								c-17.44-16.46-18.54-41.93-15.6-62.54c-35.69,11.45-81.69,37.64-104.75,80.37c-15.12,28.01-20.47,64.68-0.62,77.47
								c18.15,11.69,38.21-1.54,62.54-20.04c3.96-3.02,7.69-5.84,11.1-8.22L176.1,1654.55z M290.79,1587.76h0.05H290.79z
								 M192.31,1514.2c-0.01,0.02-0.01,0.04-0.02,0.07C192.29,1514.25,192.3,1514.22,192.31,1514.2z"/>
						</g>
						<g>
							<path class="st15" d="M695.46,1489.78c0,0,4.39-71.09-40.8-96.32c-51.73-28.88-104.12,36.42-79.53,65.38
								c22.59,26.6,61.01,26.68,88.48,53.48c0,0,11.03,3.65,20.78-1.43C696.71,1504.45,695.46,1489.78,695.46,1489.78"/>
						</g>
						<g>
							<path class="st16" d="M672.6,1497.36c-0.46,0-0.9-0.02-1.31-0.06c-14.68-12.95-31.29-19.94-46.07-26.18
								c-15.35-6.47-28.6-12.06-37.72-22.79c-4.93-5.81-0.9-15.79,0.44-18.71c6.24-13.5,21.99-27.15,40.01-27.15
								c-77.27,49.56,12.12,59.19,48.95,94.03C678.02,1497.56,673.81,1497.36,672.6,1497.36"/>
						</g>
						<g>
							<path class="st5" d="M695.45,1489.78c-3.48-14.61-6.97-28.44-11.54-41.52c-4.6-12.96-10.21-25.4-18.96-34.65
								c-8.48-9.23-20.02-15.57-31.64-16.82c-11.61-1.37-23.6,2.43-33.52,9.73c-9.81,7.22-17.8,18.17-20.07,29.08
								c-1.12,5.41-0.64,10.44,1.5,14.18c0.54,1.01,1.1,1.75,1.97,2.78c1,1.15,2.03,2.28,3.12,3.36c2.19,2.16,4.58,4.14,7.08,6.11
								c10.04,7.77,22.83,14.42,35.77,21.77c12.86,7.4,25.78,16.45,34.45,28.52c-12.2-8.46-25.54-13.21-39.33-17.3
								c-13.67-4.28-28.6-7.59-42.43-16.73c-3.43-2.25-6.68-4.9-9.72-7.81c-1.52-1.46-2.98-2.99-4.37-4.59
								c-1.5-1.73-3.15-3.9-4.35-6.1c-5.15-9.02-5.63-19.48-3.85-28.23c1.79-8.9,5.6-16.76,10.39-23.71
								c4.82-6.94,10.71-13,17.46-18.03c6.74-5.01,14.38-9.04,22.69-11.39c8.28-2.36,17.2-3.15,25.83-1.84
								c17.41,2.5,32.37,12.33,42.89,25c10.33,12.88,16.54,27.95,19.09,43.1c1.27,7.59,1.76,15.23,1.34,22.79
								C698.9,1475.04,697.82,1482.56,695.45,1489.78"/>
						</g>
						<g>
							<path class="st5" d="M804.51,1643c6.66,9.72,12.3,20.2,16.85,31.27c4.51,11.07,7.9,22.88,8.47,35.5
								c0.25,6.29-0.2,12.8-1.96,19.21c-1.74,6.41-4.77,12.65-8.9,18.12c-2,2.82-4.45,5.19-6.88,7.63c-2.6,2.13-5.19,4.45-8.05,6.17
								c-5.58,3.86-11.64,6.47-17.72,8.92c-5.24,2.12-11.2-0.42-13.31-5.66c-2.11-5.25,0.42-11.2,5.66-13.32
								c0.43-0.18,0.87-0.31,1.3-0.43l0.53-0.13c5.04-1.25,10.14-2.58,14.62-4.83c2.38-0.96,4.37-2.37,6.57-3.61
								c1.92-1.5,3.99-2.91,5.66-4.7c3.51-3.44,6.38-7.56,8.45-12.27c2.08-4.7,3.26-9.96,3.83-15.39
								c1.11-10.9-0.33-22.44-3.12-33.63C813.7,1664.63,809.69,1653.56,804.51,1643"/>
						</g>
						<g>
							<path class="st5" d="M590.74,1393.13c11.44-2.59,22.19-0.36,31.67,3.43c9.5,3.92,17.97,9.58,25.32,16.31
								c14.8,13.44,24.31,31.7,27.95,50.57c-5.63-18.42-16.78-34.85-31.85-45.87c-7.48-5.52-15.79-9.82-24.44-12.35
								c-8.58-2.51-17.79-2.93-25.02-0.41l-0.25,0.09c-3.2,1.11-6.69-0.57-7.81-3.77c-1.11-3.2,0.57-6.7,3.77-7.81
								C590.29,1393.24,590.51,1393.18,590.74,1393.13"/>
						</g>
						<g>
							<path class="st5" d="M568.11,1427.82c10.49-1.86,20.18-0.09,29.2,2.57c9.02,2.76,17.45,6.7,25.36,11.42
								c7.87,4.75,15.2,10.36,21.64,16.83c6.37,6.47,12.02,13.96,14.85,22.53c-3.8-8.18-10.08-14.73-16.9-20.27
								c-6.89-5.51-14.49-10.05-22.45-13.69c-7.97-3.6-16.29-6.37-24.68-7.92c-8.31-1.52-16.94-1.79-24.02,0.38l-0.13,0.04
								c-3.24,0.99-6.66-0.83-7.65-4.06c-0.99-3.24,0.83-6.66,4.06-7.65C567.62,1427.92,567.88,1427.86,568.11,1427.82"/>
						</g>
						<g>
							<path class="st3" d="M692.69,1295.52c-14.05,37.3-36.34,59.97-75.6,66.37c-42.57,6.94-70.27-26.4-85.94-51.26
								c-6.45,21.66-30.18,38.73-54.49,36.72c-49.3-4.07-61.96-70.46-61.96-70.46s39.45-70.79,139.07-63.68
								C653.39,1220.32,692.69,1295.52,692.69,1295.52"/>
						</g>
						<g>
							<path class="st5" d="M692.69,1295.52c-2.87,17.75-9.59,35.74-22.56,50.65c-6.47,7.37-14.44,13.73-23.24,18.52
								c-8.81,4.82-18.29,8.12-27.88,10.38c-10.12,2.79-21.41,3.37-32.16,0.92c-10.78-2.36-20.5-7.73-28.78-13.92
								c-16.54-12.61-28.93-27.83-39.53-43.48l26.92-3.69c-2.57,9.25-7.11,17.69-13.12,24.65c-6.02,6.93-13.47,12.48-21.77,16.22
								c-8.21,3.89-17.5,5.69-26.66,5.34c-2.28,0.02-4.57-0.4-6.82-0.74c-2.27-0.36-4.37-0.72-6.54-1.14
								c-4.29-1.02-8.51-2.33-12.48-4.18c-7.99-3.63-14.93-8.93-20.43-15.01c-5.59-6.04-9.79-12.84-13.12-19.78
								c-3.32-6.96-5.63-14.18-7.28-21.43c-1.63-7.25-2.58-14.6-2.52-21.92c6.1,13.17,13.39,25.4,22,35.62
								c8.62,10.16,18.86,17.96,29.65,20.6c5.25,1.38,11.11,2.05,16.08,0.57c5.05-1.18,9.87-3.04,14.36-5.63
								c8.89-5.18,16.73-12.86,20.05-21.68l11.42-30.23l15.5,26.54c8.29,14.2,18.42,27.36,31.1,35.11
								c6.27,3.91,12.8,6.37,19.27,8.17c6.5,1.76,13.26,2.8,20.64,2.81c15.81-1.28,30.97-5.49,44.19-14.76
								C672.28,1324.8,683.06,1310.78,692.69,1295.52"/>
						</g>
						<g>
							<path class="st5" d="M529.85,1247.53c-13.01-1.29-4.16,30.52-14,58.58c-3.79,10.83,42.63,21.04,33.04,3.26
								C527.59,1269.88,548.33,1249.36,529.85,1247.53"/>
						</g>
						<g>
							<path class="st4" d="M595.35,1336.86c-23.9-3.3-51.15-48.27-45.96-70.44c3.87-16.55,32.11-28.3,31.86-14.92
								c-1.74,93.31,88.11,54.03,88.11,54.03S629.97,1341.65,595.35,1336.86"/>
						</g>
						<g>
							<path class="st4" d="M471.22,1322.34c30.43,7.67,43.4-41.92,46.49-64.48c2.31-16.83-10.61-22.46-13.84-9.48
								c-22.53,90.73-75.28,30.3-75.28,30.3S441.81,1314.92,471.22,1322.34"/>
						</g>
						<g>
							<path class="st5" d="M466.96,1213.62c-0.95,23.14,23.99,44.63,43.31,57.74c13.37,9.08,30.77,9.79,44.85,1.85
								c20.33-11.47,46.96-30.85,47.92-53.98C604.58,1181.66,468.51,1176.05,466.96,1213.62"/>
						</g>
						<g class="st17">
							<g>
								<g>
									<path class="st3" d="M499.57,1206.82c-0.18,4.28,9.21,8.45,16.45,11.03c5.01,1.79,11.45,2.05,16.59,0.68
										c7.43-1.97,17.13-5.36,17.31-9.64C550.2,1201.94,499.85,1199.87,499.57,1206.82"/>
								</g>
							</g>
						</g>
						<g>
							<path class="st5" d="M260.13,1645.31l4.56,19.24c1.28,6.47,2.79,12.92,3.87,19.45c2.36,13.04,4.02,26.27,4.55,39.81
								c0.35,13.47-0.34,27.64-6.72,41.64c-1.4,3.53-3.81,6.79-6.12,10.03l-4.19,4.45c-1.46,1.43-3.19,2.55-4.81,3.82
								c-6.76,4.68-14.48,7.31-21.92,8.79c-5.53,1.1-10.91-2.48-12.02-8.02c-1.1-5.53,2.49-10.91,8.02-12.01
								c0.42-0.09,0.84-0.14,1.25-0.17l0.1,0c11.12-0.76,20.51-4.45,26.25-14.16c6.01-9.36,8.78-22.08,9.97-34.71
								c1.15-12.75,1.23-25.82,0.57-38.88c-0.23-6.55-0.9-13.07-1.32-19.63L260.13,1645.31z"/>
						</g>
						<g>
							<path class="st5" d="M220.17,1628.05c0.47,11.36-1.27,22.83-3.62,34c-2.36,11.2-5.33,22.2-7.73,33.13
								c-2.41,10.91-4.25,21.79-4.51,32.42c-0.29,10.62,1.1,20.91,4.3,30.45c1.8,5.35-1.08,11.14-6.44,12.94
								c-5.35,1.8-11.14-1.08-12.95-6.44c-0.16-0.47-0.28-0.95-0.37-1.43l-0.02-0.18c-2.19-12.46-1.86-25.1,0.27-36.95
								c2.11-11.89,5.84-23.05,9.95-33.77c4.12-10.73,8.67-21.07,12.6-31.6C215.57,1650.11,218.93,1639.34,220.17,1628.05"/>
						</g>
						<g>
							<path class="st5" d="M176.82,1609.74c-9.62,8.89-16.97,19.67-24.17,30.48c-7.16,10.87-13.98,22.03-21.67,32.88
								c-7.74,10.78-16.17,21.6-27.89,30.26c-5.85,4.28-12.67,7.9-20.31,9.86c-7.61,2-15.9,2.14-23.59,0.63l-0.46-0.09
								c-5.54-1.08-9.15-6.46-8.06-12.01c1.08-5.54,6.46-9.15,12.01-8.06c0.47,0.09,0.98,0.23,1.42,0.38
								c9.86,3.46,20.47,2.12,30.73-3.57c10.24-5.6,19.54-14.45,28.24-23.82c8.73-9.43,16.95-19.61,25.53-29.55
								C157.2,1627.27,166.11,1617.31,176.82,1609.74"/>
						</g>
						<g>
							<path class="st5" d="M160.52,1570.13c-12.06,7.96-24.28,15.66-35.56,24.46c-11.31,8.73-21.89,18.33-30.93,29
								c-9.07,10.63-16.42,22.48-21.1,35.03c-4.81,12.52-6.42,25.78-5.49,38.73v0.03c0.4,5.62-3.83,10.5-9.45,10.9
								c-5.62,0.4-10.51-3.83-10.91-9.46c-0.03-0.4-0.03-0.79-0.02-1.18c0.71-15.85,4.69-31.54,11.91-45.26
								c7.11-13.78,16.78-25.73,27.69-35.84c10.91-10.16,22.94-18.69,35.43-26.18C134.56,1582.82,147.64,1576.6,160.52,1570.13"/>
						</g>
					</g>
				</g>
			</g>
		</g>
		<g>
			<g>
				<path class="st3" d="M1608.38,814.01c-15.96-26.12-23.83-57.47-20.47-90.27c8.17-79.61,79.34-137.53,158.95-129.35
					c79.61,8.17,137.53,79.34,129.35,158.95c-8.17,79.61-79.34,137.53-158.95,129.35c-22.14-2.27-42.6-9.43-60.43-20.28
					l-67.06,15.04L1608.38,814.01z"/>
			</g>
			<g class="st6">
				<g>
					<path class="st3" d="M1744.02,622.11c-74.37-7.64-141.35,42.4-156.52,113.92c-0.02-5.11,0.2-10.26,0.74-15.46
						c8.17-79.61,79.34-137.53,158.95-129.35c79.61,8.17,137.53,79.34,129.35,158.95c-0.54,5.22-1.36,10.34-2.42,15.36
						C1873.84,692.39,1818.41,629.75,1744.02,622.11z"/>
				</g>
			</g>
			<g>
				<path class="st5" d="M1732.18,896.2c-5.37,0-10.77-0.27-16.22-0.83c-21.77-2.24-42.35-8.76-61.24-19.43l-62.16,13.94
					c-4.38,0.99-8.99-0.43-12.09-3.72c-3.09-3.29-4.2-7.97-2.93-12.3l17.06-58.15c-16.04-28.45-22.73-60.58-19.37-93.27
					c8.88-86.48,86.43-149.59,172.94-140.73c41.89,4.3,79.6,24.66,106.18,57.32c26.58,32.66,38.85,73.72,34.55,115.61
					C1880.58,835.66,1811.94,896.19,1732.18,896.2z M1656.83,849.66c2.32,0,4.61,0.63,6.63,1.86
					c16.84,10.24,35.38,16.46,55.11,18.49c72.55,7.51,137.53-45.48,144.97-117.97c3.61-35.12-6.68-69.54-28.96-96.92
					c-22.28-27.38-53.89-44.45-89.01-48.05c-72.5-7.45-137.53,45.48-144.97,117.97c-2.98,29.01,3.47,57.47,18.66,82.32
					c1.88,3.07,2.37,6.78,1.36,10.23l-12.52,42.68l45.95-10.31C1654.97,849.76,1655.9,849.66,1656.83,849.66z"/>
			</g>
			<g class="st7">
				<path class="st5" d="M1607.57,812.62c39.69,33.57,94.37,48.27,148.67,34.76c60.22-14.99,104.59-60.84,120.55-116.5
					c0.38,7.38,0.21,14.88-0.57,22.46c-8.17,79.61-79.34,137.53-158.95,129.35c-22.14-2.27-42.6-9.43-60.43-20.28l-67.06,15.04
					l18.61-63.44C1608.1,813.55,1607.84,813.08,1607.57,812.62z"/>
			</g>
			<g>
				<path class="st18" d="M1685.73,697.84L1685.73,697.84c12.54-12.54,32.87-10.29,45.41,2.25l1.95,1.95l1.95-1.95
					c12.54-12.54,32.87-14.79,45.41-2.25l0,0c12.54,12.54,12.54,32.87,0,45.41l-1.95,1.95l-39.43,39.43
					c-3.31,3.31-8.67,3.31-11.97,0l-39.43-39.43l-1.95-1.95C1673.19,730.72,1673.19,710.39,1685.73,697.84z"/>
			</g>
		</g>
	</g>
</g>
</svg>
