<?xml version="1.0" encoding="utf-8"?>
<!-- Generator: Adobe Illustrator 28.2.0, SVG Export Plug-In . SVG Version: 6.00 Build 0)  -->
<svg version="1.1" id="Layer_1" xmlns="http://www.w3.org/2000/svg" xmlns:xlink="http://www.w3.org/1999/xlink" x="0px" y="0px"
	 viewBox="0 0 230.71 129.84" style="enable-background:new 0 0 230.71 129.84;" xml:space="preserve">
<style type="text/css">
	.st0{fill:#8DE971;}
	.st1{opacity:0.49;}
	.st2{fill:#606060;}
	.st3{fill:#FFFFFF;}
	.st4{fill:#5E2C00;}
	.st5{fill:#F6EED4;}
	.st6{fill:#67686B;}
	.st7{fill:#CDCFD0;}
	.st8{fill:#F3777A;}
	.st9{fill:#EE2939;}
	.st10{fill:#A91925;}
	.st11{fill:#EE2560;}
	.st12{fill:#A11722;}
	.st13{fill:#D69992;}
</style>
<g class="st1">
	<g>
		<path class="st2" d="M65.39,85.34c0.49-0.6,0.9-1.21,1.27-1.78c0.72,0.15,1.43,0.29,2.13,0.41c5.22,0.91,10.36,1.27,15.36,1.08
			c-2.03,3.33-4.33,6.57-6.89,8.45c-0.09,0.07-0.18,0.13-0.28,0.2c-0.13-0.21-0.28-0.4-0.44-0.57c-1.83-2.72-6.33-5.4-11.23-7.69
			C65.34,85.41,65.37,85.38,65.39,85.34z M225.62,83.38c-3.53-1.08-7.76,0.46-10.85,1.59c-0.48,0.18-0.93,0.34-1.32,0.47
			c-1.39,0.47-2.65,0.52-3.85,0.15c-3.18-0.97-6.25-4.91-8.89-11.39c-1.92-4.72-3.45-9.73-4.92-14.57c-0.82-2.71-1.67-5.5-2.59-8.26
			c-1.56-4.67-3.66-8.72-6.42-12.4c-0.62-0.82-2.17-2.74-4.21-4.38c-2.06-5.06-5.51-9.41-10.02-12.63c-1.96-1.4-4.3-2.5-7.15-3.38
			c-2.36-0.73-4.79-1.2-6.86-1.57l-0.2-0.03c-4.55-0.81-9.71-1.72-14.82-0.85c-4.31,0.74-8.43,2.3-12.59,4.77
			c-0.07-1.72-0.37-3.35-0.92-4.89c-0.52-1.49-1.79-3.47-4.85-4.41c-3.24-0.99-7.22-0.36-9.36-0.02l-0.09,0.01
			c-2.9,0.46-5.66,1.39-8.01,2.26c-5.97-4.93-14.57-7.46-24.54-7.26c-0.7,0.01-1.4,0.05-2.08,0.09c-0.1,0.01-0.21,0.02-0.31,0.03
			l-0.14,0.01c-0.57,0.04-1.13,0.09-1.71,0.16l-0.3,0.04C77.99,7,77.38,7.08,76.78,7.18l-0.19,0.03c-0.63,0.1-1.27,0.22-1.85,0.35
			c-0.03,0.01-0.1,0.02-0.14,0.03c-0.04,0.01-0.09,0.02-0.13,0.03c-2.16,0.47-4.28,1.09-6.3,1.85c-0.56,0.2-2.06,0.89-3.64,1.7
			c-1.3-1.76-2.71-3.34-4.08-4.83c-0.16-0.18-0.34-0.38-0.54-0.6c-1.59-1.79-3.99-4.5-6.96-5.41c-1.4-0.43-2.82-0.42-4.11,0.03
			c-0.37,0.13-0.73,0.29-1.06,0.48C47.63,0.9,47.49,1,47.37,1.08C47.18,1.2,47,1.33,46.83,1.47c-0.11,0.09-0.21,0.18-0.35,0.31
			c-0.14,0.13-0.28,0.26-0.43,0.41c-0.09,0.1-0.18,0.2-0.3,0.34c-0.12,0.14-0.23,0.28-0.34,0.42c-0.09,0.12-0.18,0.24-0.24,0.34
			c-0.1,0.15-0.2,0.3-0.29,0.45c-0.06,0.1-0.12,0.2-0.21,0.35c-0.09,0.16-0.18,0.32-0.28,0.52l-0.12,0.24
			C44.17,5.02,44.09,5.21,44,5.42l-0.09,0.19c-0.1,0.23-0.19,0.46-0.28,0.7c-0.01,0.02-0.01,0.03-0.02,0.05
			c-0.48,1.29-0.81,2.55-1.07,3.56l-0.17,0.66c-1.21,4.52-1.29,9.2-0.25,13.67c-0.85,0.63-1.7,1.29-2.52,2.01
			c-2.93,2.63-5.32,5.98-7.52,10.54c-1.19,2.46-1.99,5.11-2.38,7.88c0,0.02,0,0.04-0.01,0.05c-0.25,1.8-0.32,3.63-0.22,5.46
			l0.02,0.27c0.04,0.53,0.09,1.05,0.15,1.6l0.02,0.19c0.08,0.6,0.17,1.2,0.29,1.77L30,54.23c0.1,0.48,0.21,0.96,0.33,1.44
			c0.05,0.18,0.09,0.36,0.14,0.52c0.11,0.39,0.22,0.78,0.35,1.16l0.03,0.11c0.05,0.14,0.09,0.29,0.14,0.41
			c0.2,0.59,0.4,1.12,0.59,1.6c0.25,0.62,0.53,1.24,0.84,1.85c-0.55,0.29-1.1,0.62-1.64,1.03c-1.13,0.86-1.69,2.25-1.44,3.62
			c0.27,1.53,1.4,2.53,2.52,3.03c-0.52,0.91-0.63,2.01-0.3,3.02c0.4,1.22,1.41,2.18,2.69,2.58c0.45,0.14,0.9,0.2,1.35,0.18
			c-0.06,0.34-0.07,0.68-0.03,1.01c-2.79-0.57-5.4-0.99-7.75-1.25c-4.87-0.53-10.54-0.67-12.55,2.6c-1.08,0.99-3.8,3.48-6.52,5.98
			c-1.75,1.61-3.5,3.22-4.81,4.43c-0.89,0.82-1.55,1.43-2.03,1.92l0,0c-0.83,0.68-1.4,1.51-1.69,2.46c-0.13,0.42-0.2,0.86-0.21,1.31
			C0,93.4,0,93.57,0.02,93.74c0.01,0.18,0.03,0.44,0.09,0.72c0.03,0.14,0.06,0.29,0.11,0.45c0.06,0.21,0.12,0.43,0.22,0.67
			c0.04,0.11,0.09,0.23,0.14,0.34c0.09,0.2,0.18,0.39,0.29,0.58c0.06,0.11,0.12,0.22,0.2,0.35c0.11,0.18,0.23,0.36,0.35,0.55
			c0.01,0.01,0.04,0.06,0.05,0.07c0.05,0.07,0.1,0.15,0.15,0.22c0.15,0.2,0.31,0.41,0.48,0.61c0.05,0.06,0.1,0.13,0.15,0.19
			c3.05,3.61,9.5,7.91,17.64,11.78c0.03,0.02,0.08,0.04,0.12,0.06c5.28,2.51,10.91,4.68,16.75,6.48
			c11.64,3.57,23.85,5.46,32.68,5.06c0.88-0.04,1.73-0.1,2.54-0.2l0.11-0.01c0.23-0.03,0.45-0.06,0.66-0.08l0.28-0.04
			c0.65-0.09,1.26-0.21,1.84-0.34c0.13-0.03,0.26-0.06,0.37-0.09c0.14-0.04,0.29-0.07,0.44-0.12c0.16-0.05,0.31-0.09,0.49-0.15
			c0.09-0.03,0.18-0.06,0.3-0.1c0.25-0.09,0.48-0.18,0.72-0.28c0.08-0.03,0.16-0.07,0.26-0.12c0.17-0.08,0.34-0.16,0.53-0.26
			c0.09-0.05,0.18-0.1,0.26-0.14c0.19-0.11,0.38-0.23,0.55-0.35c0.06-0.04,0.13-0.09,0.18-0.12c0.25-0.19,0.49-0.4,0.67-0.58
			c0.09-0.09,0.16-0.17,0.23-0.24c0.18-0.2,0.34-0.41,0.45-0.58c0.07-0.1,0.13-0.2,0.21-0.33c0.2-0.35,0.35-0.68,0.45-1.03
			c0.21-0.68,0.26-1.41,0.17-2.14c0.01,0.01,0.03,0.02,0.04,0.02c1.66,0.84,3.65,1.15,5.54,0.87c7.22,0.38,13.9-5.16,18.27-9.92
			c3.26-3.55,6.24-7.36,8.86-11.33c-1.19,6.07-3.99,11.93-6.32,16.04c-0.64,1.13-1.26,2.06-2.16,2.85c-0.07,0.05-0.13,0.1-0.19,0.15
			c-0.07,0.06-0.14,0.12-0.21,0.19c-0.21,0.16-0.53,0.33-0.86,0.52c-0.65,0.37-1.47,0.83-2.24,1.53c-1.12,1.02-3.76,3.39-2.9,6.82
			c0.61,2.46,2.33,4.3,4.72,5.03c0.85,0.26,1.74,0.37,2.63,0.32c0.01,0,0.01,0.01,0.01,0.01c0.8,0.77,1.76,1.33,2.87,1.67
			c1.49,0.46,3.13,0.46,4.67,0.06c0.72,0.31,1.57,0.46,2.48,0.44c6.55-0.1,11.49-5.61,14.44-8.9c3.87-4.32,6.7-9.44,9.14-14.46
			c1.96-0.53,3.92-1.49,5.68-2.78c2.64-1.94,4.55-4.21,6.02-7.14c0.94-1.86,1.56-3.4,2.03-4.98c0.01-0.04,0.02-0.08,0.03-0.12
			c0.09-0.37,0.18-0.74,0.26-1.12c0.04,0.15,0.09,0.31,0.14,0.46c1.3,4.28,3.87,7.44,6.66,9.87c-0.78,0.52-1.54,1.13-2.2,1.86
			c-0.02,0.02-0.04,0.04-0.06,0.06c-0.02,0.02-0.04,0.04-0.06,0.06c-0.27,0.3-0.5,0.6-0.71,0.92c-1.29,1.94-1.61,4.21-0.89,6.25
			c0.8,2.23,2.75,3.84,5.15,4.21c0.74,0.8,1.75,1.41,2.94,1.78c0.93,0.29,1.96,0.41,2.97,0.38c0.2,0.09,0.41,0.17,0.62,0.23
			c4.28,1.31,12.11-2.45,12.18-2.48c1.25-0.66,2.34-1.39,3.33-2.21c4.01-2.75,4.98-5.98,5.07-8.21c0.09-2.21-0.18-5.42-3.57-7.82
			c-0.03-0.02-0.06-0.04-0.09-0.06c-0.41-2.96-1.31-6.27-2.73-10.05c-2.33-6.19-1.97-12.43-1.59-19.02c0.04-0.61,0.07-1.22,0.1-1.83
			c0.24,1.25,0.48,2.55,0.76,3.81c1.67,7.68,4.27,16.58,10.94,24.32c2.71,3.14,7.24,7.28,13.5,9.2l0,0
			c2.89,0.89,5.83,1.18,8.72,0.87c4.95-0.54,15.75-4.28,15.57-11.88C230.59,85.7,227.47,83.95,225.62,83.38z M43.95,77.54
			c0.09-0.08,0.18-0.17,0.27-0.27c0.49-0.55,1.04-1.17,1.6-1.84c2.2,1.39,4.59,2.66,7.16,3.79c-0.08,0.41-0.13,0.84-0.15,1.29
			c-1.84-0.63-3.31-1.09-4.13-1.34c-1.67-0.51-3.33-0.99-4.96-1.43C43.8,77.67,43.88,77.61,43.95,77.54z"/>
	</g>
	<path class="st3" d="M225.62,83.38c-3.53-1.08-7.76,0.46-10.85,1.59c-0.48,0.18-0.93,0.34-1.32,0.47
		c-1.39,0.47-2.65,0.52-3.85,0.15c-3.18-0.97-6.25-4.91-8.89-11.39c-1.92-4.72-3.45-9.73-4.92-14.57c-0.82-2.71-1.67-5.5-2.59-8.26
		c-1.56-4.67-3.66-8.72-6.42-12.4c-0.62-0.82-2.17-2.74-4.21-4.38c-2.06-5.06-5.51-9.41-10.02-12.63c-1.96-1.4-4.3-2.5-7.15-3.38
		c-2.36-0.73-4.79-1.2-6.86-1.57l-0.2-0.03c-4.55-0.81-9.71-1.72-14.82-0.85c-4.31,0.74-8.43,2.3-12.59,4.77
		c-0.07-1.72-0.37-3.35-0.92-4.89c-0.52-1.49-1.79-3.47-4.85-4.41c-3.24-0.99-7.22-0.36-9.36-0.02l-0.09,0.01
		c-2.9,0.46-5.66,1.39-8.01,2.26c-5.97-4.93-14.57-7.46-24.54-7.26c-0.7,0.01-1.4,0.05-2.08,0.09c-0.1,0.01-0.21,0.02-0.31,0.03
		l-0.14,0.01c-0.57,0.04-1.13,0.09-1.71,0.16l-0.3,0.04C77.99,7,77.38,7.08,76.78,7.18l-0.19,0.03c-0.63,0.1-1.27,0.22-1.85,0.35
		c-0.03,0.01-0.1,0.02-0.14,0.03c-0.04,0.01-0.09,0.02-0.13,0.03c-2.16,0.47-4.28,1.09-6.3,1.85c-0.56,0.2-2.06,0.89-3.64,1.7
		c-1.3-1.76-2.71-3.34-4.08-4.83c-0.16-0.18-0.34-0.38-0.54-0.6c-1.59-1.79-3.99-4.5-6.96-5.41c-1.4-0.43-2.82-0.42-4.11,0.03
		c-0.37,0.13-0.73,0.29-1.06,0.48C47.63,0.9,47.49,1,47.37,1.08C47.18,1.2,47,1.33,46.83,1.47c-0.11,0.09-0.21,0.18-0.35,0.31
		c-0.14,0.13-0.28,0.26-0.43,0.41c-0.09,0.1-0.18,0.2-0.3,0.34c-0.12,0.14-0.23,0.28-0.34,0.42c-0.09,0.12-0.18,0.24-0.24,0.34
		c-0.1,0.15-0.2,0.3-0.29,0.45c-0.06,0.1-0.12,0.2-0.21,0.35c-0.09,0.16-0.18,0.32-0.28,0.52l-0.12,0.24
		C44.17,5.02,44.09,5.21,44,5.42l-0.09,0.19c-0.1,0.23-0.19,0.46-0.28,0.7c-0.01,0.02-0.01,0.03-0.02,0.05
		c-0.48,1.29-0.81,2.55-1.07,3.56l-0.17,0.66c-1.21,4.52-1.29,9.2-0.25,13.67c-0.85,0.63-1.7,1.29-2.52,2.01
		c-2.93,2.63-5.32,5.98-7.52,10.54c-1.19,2.46-1.99,5.11-2.38,7.88c0,0.02,0,0.04-0.01,0.05c-0.25,1.8-0.32,3.63-0.22,5.46
		l0.02,0.27c0.04,0.53,0.09,1.05,0.15,1.6l0.02,0.19c0.08,0.6,0.17,1.2,0.29,1.77L30,54.23c0.1,0.48,0.21,0.96,0.33,1.44
		c0.05,0.18,0.09,0.36,0.14,0.52c0.11,0.39,0.22,0.78,0.35,1.16l0.03,0.11c0.05,0.14,0.09,0.29,0.14,0.41
		c0.2,0.59,0.4,1.12,0.59,1.6c0.25,0.62,0.53,1.24,0.84,1.85c-0.55,0.29-1.1,0.62-1.64,1.03c-1.13,0.86-1.69,2.25-1.44,3.62
		c0.27,1.53,1.4,2.53,2.52,3.03c-0.52,0.91-0.63,2.01-0.3,3.02c0.4,1.22,1.41,2.18,2.69,2.58c0.45,0.14,0.9,0.2,1.35,0.18
		c-0.06,0.34-0.07,0.68-0.03,1.01c-2.79-0.57-5.4-0.99-7.75-1.25c-4.87-0.53-10.54-0.67-12.55,2.6c-1.08,0.99-3.8,3.48-6.52,5.98
		c-1.75,1.61-3.5,3.22-4.81,4.43c-0.89,0.82-1.55,1.43-2.03,1.92l0,0c-0.83,0.68-1.4,1.51-1.69,2.46c-0.13,0.42-0.2,0.86-0.21,1.31
		C0,93.4,0,93.57,0.02,93.74c0.01,0.18,0.03,0.44,0.09,0.72c0.03,0.14,0.06,0.29,0.11,0.45c0.06,0.21,0.12,0.43,0.22,0.67
		c0.04,0.11,0.09,0.23,0.14,0.34c0.09,0.2,0.18,0.39,0.29,0.58c0.06,0.11,0.12,0.22,0.2,0.35c0.11,0.18,0.23,0.36,0.35,0.55
		c0.01,0.01,0.04,0.06,0.05,0.07c0.05,0.07,0.1,0.15,0.15,0.22c0.15,0.2,0.31,0.41,0.48,0.61c0.05,0.06,0.1,0.13,0.15,0.19
		c3.05,3.61,9.5,7.91,17.64,11.78c0.03,0.02,0.08,0.04,0.12,0.06c5.28,2.51,10.91,4.68,16.75,6.48c11.64,3.57,23.85,5.46,32.68,5.06
		c0.88-0.04,1.73-0.1,2.54-0.2l0.11-0.01c0.23-0.03,0.45-0.06,0.66-0.08l0.28-0.04c0.65-0.09,1.26-0.21,1.84-0.34
		c0.13-0.03,0.26-0.06,0.37-0.09c0.14-0.04,0.29-0.07,0.44-0.12c0.16-0.05,0.31-0.09,0.49-0.15c0.09-0.03,0.18-0.06,0.3-0.1
		c0.25-0.09,0.48-0.18,0.72-0.28c0.08-0.03,0.16-0.07,0.26-0.12c0.17-0.08,0.34-0.16,0.53-0.26c0.09-0.05,0.18-0.1,0.26-0.14
		c0.19-0.11,0.38-0.23,0.55-0.35c0.06-0.04,0.13-0.09,0.18-0.12c0.25-0.19,0.49-0.4,0.67-0.58c0.09-0.09,0.16-0.17,0.23-0.24
		c0.18-0.2,0.34-0.41,0.45-0.58c0.07-0.1,0.13-0.2,0.21-0.33c0.2-0.35,0.35-0.68,0.45-1.03c0.21-0.68,0.26-1.41,0.17-2.14
		c0.01,0.01,0.03,0.02,0.04,0.02c1.66,0.84,3.65,1.15,5.54,0.87c7.22,0.38,13.9-5.16,18.27-9.92c3.26-3.55,6.24-7.36,8.86-11.33
		c-1.19,6.07-3.99,11.93-6.32,16.04c-0.64,1.13-1.26,2.06-2.16,2.85c-0.07,0.05-0.13,0.1-0.19,0.15c-0.07,0.06-0.14,0.12-0.21,0.19
		c-0.21,0.16-0.53,0.33-0.86,0.52c-0.65,0.37-1.47,0.83-2.24,1.53c-1.12,1.02-3.76,3.39-2.9,6.82c0.61,2.46,2.33,4.3,4.72,5.03
		c0.85,0.26,1.74,0.37,2.63,0.32c0.01,0,0.01,0.01,0.01,0.01c0.8,0.77,1.76,1.33,2.87,1.67c1.49,0.46,3.13,0.46,4.67,0.06
		c0.72,0.31,1.57,0.46,2.48,0.44c6.55-0.1,11.49-5.61,14.44-8.9c3.87-4.32,6.7-9.44,9.14-14.46c1.96-0.53,3.92-1.49,5.68-2.78
		c2.64-1.94,4.55-4.21,6.02-7.14c0.94-1.86,1.56-3.4,2.03-4.98c0.01-0.04,0.02-0.08,0.03-0.12c0.09-0.37,0.18-0.74,0.26-1.12
		c0.04,0.15,0.09,0.31,0.14,0.46c1.3,4.28,3.87,7.44,6.66,9.87c-0.78,0.52-1.54,1.13-2.2,1.86c-0.02,0.02-0.04,0.04-0.06,0.06
		c-0.02,0.02-0.04,0.04-0.06,0.06c-0.27,0.3-0.5,0.6-0.71,0.92c-1.29,1.94-1.61,4.21-0.89,6.25c0.8,2.23,2.75,3.84,5.15,4.21
		c0.74,0.8,1.75,1.41,2.94,1.78c0.93,0.29,1.96,0.41,2.97,0.38c0.2,0.09,0.41,0.17,0.62,0.23c4.28,1.31,12.11-2.45,12.18-2.48
		c1.25-0.66,2.34-1.39,3.33-2.21c4.01-2.75,4.98-5.98,5.07-8.21c0.09-2.21-0.18-5.42-3.57-7.82c-0.03-0.02-0.06-0.04-0.09-0.06
		c-0.41-2.96-1.31-6.27-2.73-10.05c-2.33-6.19-1.97-12.43-1.59-19.02c0.04-0.61,0.07-1.22,0.1-1.83c0.24,1.25,0.48,2.55,0.76,3.81
		c1.67,7.68,4.27,16.58,10.94,24.32c2.71,3.14,7.24,7.28,13.5,9.2l0,0c2.89,0.89,5.83,1.18,8.72,0.87
		c4.95-0.54,15.75-4.28,15.57-11.88C230.59,85.7,227.47,83.95,225.62,83.38z M65.39,85.34c0.49-0.6,0.9-1.21,1.27-1.78
		c0.72,0.15,1.43,0.29,2.13,0.41c5.22,0.91,10.36,1.27,15.36,1.08c-2.03,3.33-4.33,6.57-6.89,8.45c-0.09,0.07-0.18,0.13-0.28,0.2
		c-0.13-0.21-0.28-0.4-0.44-0.57c-1.83-2.72-6.33-5.4-11.23-7.69C65.34,85.41,65.37,85.38,65.39,85.34z M43.95,77.54
		c0.09-0.08,0.18-0.17,0.27-0.27c0.49-0.55,1.04-1.17,1.6-1.84c2.2,1.39,4.59,2.66,7.16,3.79c-0.08,0.41-0.13,0.84-0.15,1.29
		c-1.84-0.63-3.31-1.09-4.13-1.34c-1.67-0.51-3.33-0.99-4.96-1.43C43.8,77.67,43.88,77.61,43.95,77.54z"/>
	<g>
		<g>
			<g>
				<g>
					<path class="st4" d="M227.23,91.13c-0.18-7.77-8.64-3.75-12.66-2.39c-8.96,3.03-14.34-6.5-17.08-13.23
						c-3.06-7.52-5.02-15.36-7.59-23.04c-1.38-4.13-3.28-7.92-5.9-11.4c-1-1.33-2.59-3.08-4.32-4.3c-1.73-4.73-4.82-8.88-9.16-11.98
						c-3.59-2.56-8.34-3.59-12.6-4.35c-4.51-0.8-9.24-1.66-13.82-0.88c-4.37,0.75-8.35,2.43-12.11,4.76
						c-1.75,1.08-3.32,2.4-4.8,3.82c-0.95,0.9-1.79,1.93-2.68,2.9c-0.28,0.3-1.46,1.5-1.95,1.98c-2.64,0.19-5.32,0.29-7.99,0.72
						c-5.93,0.95-11.5,2.9-16.34,6.5c-4.56,3.38-7.45,8.27-8.83,13.71c-0.5,1.97-0.75,4.01-0.51,6c0.02,0.17,0.05,0.33,0.08,0.5
						c0.08,0.49,0.18,0.97,0.32,1.45c0.3,0.99,1.14,3.79,2.32,4.19c0.43,0.64,0.86,1.25,1.24,1.8c0.24,0.34,0.5,0.66,0.75,0.99
						c-0.76,5.16-2,10.25-4.6,14.8c-2.44,4.27-5.65,9.66-9.66,12.61c-2.21,1.63-4.85,2.01-7.07,3.49c-0.2,0.13-0.41,0.28-0.61,0.44
						c-0.69,1.5-0.51,3.05,0.27,4.69c0.59,0.35,1.31,0.54,1.97,0.54c0,0.01,0,0.02,0,0.03c-0.45,2.67,3.86,4.66,6.1,3.55
						c0.56,1.08,1.77,1.93,2.75,2.43c1.14,0.58,2.52,0.73,3.79,0.47c6.08,0.55,12.15-4.71,15.88-8.78
						c3.17-3.45,6.04-7.13,8.62-11.04c1.56-2.36,3.25-5.72,3.02-8.7c1.25,0.44,2.53,0.76,3.67,0.7c0.17,2.23,0.27,4.46,0.1,6.68
						c-0.55,7.27-3.7,14.86-7.27,21.16c-0.92,1.62-1.86,2.97-3.38,4.17c-0.93,0.73-2.09,1.14-2.98,1.94
						c-0.91,0.82-2.2,1.99-1.85,3.39c0.64,2.57,3.33,3.26,5.5,2.31c0.13,0.46,0.42,0.92,0.9,1.38c1.48,1.42,4.1,1.31,5.78,0.18
						c0.12,0.61,0.63,1.03,1.77,1.01c4.85-0.08,8.92-4.42,11.9-7.74c3.96-4.42,6.82-9.87,9.37-15.23c0.03,0.01,0.09,0.02,0.18,0.01
						c2.07-0.29,4.12-1.25,5.81-2.49c2.2-1.62,3.75-3.45,4.97-5.89c0.72-1.44,1.34-2.86,1.8-4.41c0.18-0.7,0.32-1.41,0.43-2.14
						c0.01-0.06-0.01-1.01-0.12-1.28c0.23-0.36,0.19-0.28,0.35-0.66c0.01,0,0.01,0,0.02,0c1.84-0.54,3.57-1.31,5.17-2.31
						c0.27,1.89,0.7,3.77,1.25,5.58c1.61,5.31,5.61,8.68,10.04,11.47c-0.75,0.43-1.81,0.7-2.53,1.05c-1.53,0.74-3.34,1.74-4.31,3.2
						c-1.82,2.74,0.24,5.75,3.4,5.03c0.05,0.21,0.08,0.42,0.17,0.63c0.59,1.33,2.87,1.81,4.58,1.42c1.35,1.98,9.24-1.16,10.29-1.72
						c1.05-0.56,2.01-1.19,2.86-1.92c1.97-1.32,3.59-3.13,3.69-5.58c0.09-2.09-0.35-3.59-2.11-4.83c-0.31-0.22-0.8-0.44-1.34-0.6
						c-0.24-3.93-1.56-8.03-2.72-11.12c-2.93-7.77-2.06-15.28-1.66-23.12c0.28-0.64,0.54-1.29,0.79-1.95
						c1.26-3.36,2.04-6.73,2.44-10.19c2.55,4.88,3.19,10.82,4.37,16.25c1.84,8.47,4.45,16.13,10.18,22.79
						c4.78,5.54,11.72,9.69,19.2,8.88C218.48,99.07,227.34,96.04,227.23,91.13z"/>
					<path class="st5" d="M102.95,100.75c-4.62,5.33-9.89,10.13-17.17,10.07c-1.46-0.27-2.83-0.96-3.88-2.03
						c-1.74-1.77-0.37-4.18,1.91-4.55c0.67-0.11,1.42,0.04,2.09,0.14c0.19-0.16,0.39-0.31,0.6-0.45c-1.16-0.23-2.39-0.33-3.44-0.09
						c-1.81,0.41-3.29,2.03-3.4,3.86c-0.01,0.19,0.01,0.37,0.04,0.55c-1.51-0.28-3.23-0.73-4.02-2.07c-1.12-1.9,0.99-4.47,2.94-5.43
						c0.31-0.24,0.65-0.44,0.99-0.62c-2.46-0.25-4.72,2.19-5.51,4.46c-0.66-0.5-1.47-0.78-1.83-1.62c-0.27-0.63-0.1-1.43,0.27-2.14
						c1.57-1.44,5.31-2.56,6.53-3.3c2.78-1.66,4.64-4.28,6.53-6.85c4.76-6.49,8.29-13.15,8.41-21.23c1.94,2.49,4.18,4.76,6.56,6.82
						c2.84,2.45,6.32,4.24,9.77,5.63c0.91,0.37,2.02,0.88,3.19,1.31C112.68,89.66,106.96,96.13,102.95,100.75z"/>
					<path class="st5" d="M85.45,90.93c4.18,4.96,10.91,8.17,16.98,10.42c0.18-0.2,0.35-0.4,0.52-0.6
						c4.01-4.63,9.73-11.09,10.59-17.51c-1.17-0.43-2.28-0.94-3.19-1.31c-3.45-1.39-6.93-3.18-9.77-5.63
						c-2.38-2.07-4.62-4.33-6.56-6.82c-0.11,8.08-3.65,14.74-8.41,21.23C85.56,90.78,85.51,90.86,85.45,90.93z"/>
					<path class="st6" d="M84.52,92.19c-1.54,2.06-3.18,4.02-5.42,5.36c-1.22,0.73-4.96,1.85-6.53,3.3
						c-0.37,0.71-0.54,1.52-0.27,2.14c0.36,0.84,1.17,1.12,1.83,1.62c0.78-2.27,3.04-4.71,5.51-4.46c-0.35,0.18-0.69,0.38-0.99,0.62
						c-1.95,0.96-4.06,3.53-2.94,5.43c0.79,1.34,2.51,1.79,4.02,2.07c-0.03-0.18-0.05-0.36-0.04-0.55c0.1-1.83,1.59-3.45,3.4-3.86
						c1.05-0.24,2.28-0.14,3.44,0.09c-0.21,0.14-0.41,0.29-0.6,0.45c-0.67-0.09-1.41-0.25-2.09-0.14c-2.29,0.37-3.65,2.78-1.91,4.55
						c1.05,1.07,2.42,1.76,3.88,2.03c6.45,0.05,11.32-3.71,15.56-8.28C95.43,100.23,88.82,97.07,84.52,92.19z"/>
					<path class="st5" d="M147,94.96c-1.49,2.7-5.13,6.99-8.81,7.03c0.03-0.06,0.05-0.11,0.08-0.17c2.06-4.42,3.73-8.97,4.26-13.7
						c0.05,0,0.11-0.01,0.16-0.04c0.38-0.21,0.49-0.26,0.6-0.34c0.02,0.48,2.45-0.07,3.08-0.19c1.37-0.27,2.72-0.54,4.06-0.91
						C149.27,89.46,148.49,92.27,147,94.96z"/>
					<path class="st5" d="M175.68,80.17c0.7,2.7,1.68,5.33,2.44,8.11c0.16,0.59,0.31,1.18,0.47,1.77c0.24,0.65,0.48,1.3,0.68,1.95
						c0.5,1.59,0.91,3.54,1.09,5.57c0.01,0.05,0.02,0.09,0.03,0.14c-0.14,0.01-0.26,0.04-0.38,0.07c1.82,0.48,3.61,2.25,3.97,3.79
						c0.23,1,0.02,1.94-0.45,2.82c-0.44,1.95-1.91,3.41-3.49,4.68c-2.12,1.41-5.51,3.1-7.95,3.25c-0.76,0.25-1.52,0.31-2.1-0.17
						c-0.81-0.67-0.69-1.85-0.32-2.72c0.3-0.71,0.78-1.33,1.3-1.91c-0.08,0.04-0.16,0.06-0.25,0.1c-0.93,0.47-1.63,1.31-2.14,2.21
						c-0.32,0.56-0.37,1.14-0.26,1.63c-1.45-0.07-2.83-0.67-2.89-2.33c0-0.1,0.01-0.21,0.02-0.31c-0.13-0.78,0.14-1.71,0.59-2.53
						c-0.45,0.33-0.87,0.71-1.22,1.12c-0.63,0.72-0.93,1.59-0.9,2.47c-0.98-0.59-1.83-0.71-2.4-2.08c-0.86-2.04,1.96-3.73,3.34-4.6
						c0.72-0.45,2.18-1.01,2.93-1.73c0.25,0.15,0.5,0.3,0.75,0.45c-0.04-0.47-0.11-0.93-0.14-1.41c-3.9-3.16-7.29-6.46-9.19-11.54
						c0-0.01-0.01-0.03-0.01-0.04c-0.91-1.76-1.6-3.62-1.93-5.61c-0.62-3.7-0.05-7.58-0.04-11.34c-0.5,2.15-1.18,4.33-1.32,6.46
						c-0.11,1.57-0.02,3.17,0.15,4.75c-2.64,1.36-5.41,2.38-8.31,3.04c-1.65,0.37-3.77,0.28-5.15,1.39
						c0.18-1.94,0.18-3.91-0.09-5.92c-0.13,0.25-0.26,0.51-0.39,0.76c-0.54,7.12-2.83,13.71-5.85,20.07
						c-0.09,0.11-0.15,0.23-0.17,0.36c-0.78,1.62-1.59,3.24-2.43,4.84c-1.94,3.66-4.1,7.2-6.78,10.37
						c-1.18,1.39-2.48,2.69-3.84,3.91c-0.95,0.83-1.99,1.53-3.11,2.1c-0.43,0.36-0.87,0.68-1.35,0.88
						c-0.97,0.39-2.18,0.17-2.37-1.05c-0.17-1.07,0.46-2.1,1.22-2.97c-0.07,0.01-0.14,0.01-0.2,0.04c-0.89,0.43-2.19,1.97-2.61,3.29
						c-1.61,0.46-3.12,0.7-4.55-0.43c-1.53-1.21-0.97-2.98,0.18-4.22c0.12-0.14-0.1-0.15-0.18-0.08c-1.17,0.97-2.27,2.18-2.34,3.45
						c-1,0-1.86-0.27-2.72-0.9c-1.95-1.43,0.64-3.72,2-4.69c1.29-0.92,2.13-1.92,2.98-3.26c2.67-4.21,4.96-8.59,7.08-13.1
						c1.48-3.16,2.38-6.87,2.6-10.5c-0.17-2.99-0.46-5.98-1.2-8.89c-0.43-1.66-1.19-3.07-1.97-4.46c0.42,1.22,0.84,2.45,0.96,3.79
						c0.07,0.8,0.15,1.6,0.21,2.41c-2.15-0.32-4.53-1.53-6.46-2.26c-3.48-1.32-6.69-3.2-9.61-5.49c-2.66-2.07-4.99-4.66-7.14-7.24
						c-1.19-1.43-2.97-3.51-4.14-5.67c-0.35-1.35-0.58-2.71-0.64-3.16c-0.39-2.91,0.84-6.31,1.88-9c2.5-6.42,8.03-10.83,14.24-13.39
						c5.41-2.23,11.24-2.55,17-2.8c1.07-0.04,2.12-0.13,3.15-0.26c1.31-0.73,2.62-1.45,3.93-2.18c-2.29,0.63-4.63,0.9-7,1.07
						c3.15-2.25,5.73-5.11,8.94-7.33c3.9-2.7,8.55-4.47,13.26-4.97c4.4-0.46,8.93,0.56,13.24,1.34c4.79,0.86,9.37,2.61,13.09,5.8
						c2.45,2.1,4.19,4.58,5.43,7.28c3.3,5.63,3.38,11.94,2.21,18.44c-0.18,1.11-0.41,2.21-0.68,3.29c-1.06,4.54-2.55,9.13-3.8,13.59
						c0.56-1.13,1.13-2.26,1.68-3.39C175.55,71.41,175.12,75.76,175.68,80.17z"/>
					<path class="st6" d="M114.36,106.47c-1.36,2.61-2.8,5.17-4.38,7.67c-0.85,1.34-1.69,2.33-2.98,3.26
						c-1.35,0.97-3.95,3.27-2,4.69c0.86,0.63,1.72,0.9,2.72,0.9c0.07-1.28,1.17-2.48,2.34-3.45c0.08-0.07,0.3-0.06,0.18,0.08
						c-1.15,1.25-1.71,3.01-0.18,4.22c1.43,1.14,2.94,0.9,4.55,0.43c0.42-1.32,1.72-2.86,2.61-3.29c0.06-0.03,0.13-0.03,0.2-0.04
						c-0.76,0.87-1.39,1.9-1.22,2.97c0.19,1.22,1.4,1.44,2.37,1.05c0.48-0.2,0.93-0.52,1.35-0.88c1.12-0.57,2.16-1.27,3.11-2.1
						c1.36-1.22,2.65-2.52,3.84-3.91c2.68-3.16,4.84-6.71,6.78-10.37c0.01-0.01,0.01-0.03,0.02-0.04
						C127.14,108.18,120.73,107.78,114.36,106.47z"/>
					<path class="st6" d="M138.28,39.51c5.04,3.44,10.9,5.12,17.02,4.53c6.22-0.6,12.13-2.79,16.57-7.29
						c1.13-1.14,2.44-2.58,3.56-4.16c-1.07-1.71-2.38-3.31-4.03-4.73c-3.72-3.2-8.3-4.94-13.09-5.8c-4.31-0.77-8.84-1.8-13.24-1.34
						c-4.71,0.5-9.36,2.27-13.26,4.97c-0.68,0.47-1.33,0.99-1.96,1.5C130,32.22,134.21,36.73,138.28,39.51z"/>
					<path class="st6" d="M128.41,28.39c-1.82,1.58-3.57,3.21-5.54,4.62c2.24-0.16,4.47-0.43,6.64-0.99
						C128.96,30.86,128.58,29.64,128.41,28.39z"/>
					<path class="st5" d="M222.91,95.22c-3.43,2.49-8.2,3.55-12.3,3c-8.31-1.11-15.24-9.24-18.94-16.16
						c-3.53-6.6-4.7-14.47-6.15-21.72c-0.79-3.92-2.07-7.55-4.34-10.5c0.09-1.19,0.14-2.38,0.14-3.6c0-2.21-0.25-4.37-0.74-6.44
						c1.39,1.48,2.59,3.16,3.4,4.33c2.13,3.1,3.45,6.74,4.64,10.29c2.13,6.4,3.86,12.88,6.18,19.22
						c3.21,8.77,9.64,20.62,21.02,15.85c2.04-0.86,4.15-2.09,6.46-1.96c1.52,0.2,2.56,0.97,3.12,2.32
						C226.52,92.05,224.45,94.09,222.91,95.22z"/>
				</g>
				<path class="st7" d="M227.23,91.13c-0.18-7.77-8.64-3.75-12.66-2.39c-8.96,3.03-14.34-6.5-17.08-13.23
					c-3.06-7.52-5.02-15.36-7.59-23.04c-1.38-4.13-3.28-7.92-5.9-11.4c-1-1.33-2.59-3.08-4.32-4.3c-1.73-4.73-4.82-8.88-9.16-11.98
					c-3.59-2.56-8.34-3.59-12.6-4.35c-4.51-0.8-9.24-1.66-13.82-0.88c-4.37,0.75-8.35,2.43-12.11,4.76c-1.75,1.08-3.32,2.4-4.8,3.82
					c-0.95,0.9-1.79,1.93-2.68,2.9c-0.28,0.3-1.46,1.5-1.95,1.98c-2.64,0.19-5.32,0.29-7.99,0.72c-5.93,0.95-11.5,2.9-16.34,6.5
					c-4.56,3.38-7.45,8.27-8.83,13.71c-0.5,1.97-0.75,4.01-0.51,6c0.02,0.17,0.05,0.33,0.08,0.5c0.08,0.49,0.18,0.97,0.32,1.45
					c0.3,0.99,1.14,3.79,2.32,4.19c0.43,0.64,0.86,1.25,1.24,1.8c0.24,0.34,0.5,0.66,0.75,0.99c-0.59,3.99-1.47,7.94-3.05,11.64
					c2.17-0.96,4.47-1.46,6.78-1.2c6.48,0.74,5.93,7.76,3.72,12.07c-2.84,5.51-8.5,14.67-15.92,13.75c-4.41-0.54-7.8-3.22-9.32-7.06
					c-1.21,0.49-2.43,0.95-3.54,1.69c-0.2,0.13-0.41,0.28-0.61,0.44c-0.69,1.5-0.51,3.05,0.27,4.69c0.59,0.35,1.31,0.54,1.97,0.54
					c0,0.01,0,0.02,0,0.03c-0.45,2.67,3.86,4.66,6.1,3.55c0.56,1.08,1.77,1.93,2.75,2.43c1.14,0.58,2.52,0.73,3.79,0.47
					c6.08,0.55,12.15-4.71,15.88-8.78c3.17-3.45,6.04-7.13,8.62-11.04c1.56-2.36,3.25-5.72,3.02-8.7c1.25,0.44,2.53,0.76,3.67,0.7
					c0.17,2.23,0.27,4.46,0.1,6.68c-0.01,0.08-0.02,0.17-0.03,0.26c1.22-4.78,1.7-10.09,5.47-13.36c2.19-1.9,4.54-1.56,6.79,0.09
					c2.86,2.09,3.56,5.85,3.39,9.19c-0.26,4.89-1.55,9.72-3.32,14.26c-1.79,4.58-3.94,10.34-7.98,13.39
					c-4.27,3.23-10.75,4.08-14.73,1.28c-0.08,0.07-0.15,0.15-0.24,0.21c-0.93,0.73-2.09,1.14-2.98,1.94
					c-0.91,0.82-2.2,1.99-1.85,3.39c0.64,2.57,3.33,3.26,5.5,2.31c0.13,0.46,0.42,0.92,0.9,1.38c1.48,1.42,4.1,1.31,5.78,0.18
					c0.12,0.61,0.63,1.03,1.77,1.01c4.85-0.08,8.92-4.42,11.9-7.74c3.96-4.42,6.82-9.87,9.37-15.23c0.03,0.01,0.09,0.02,0.18,0.01
					c2.07-0.29,4.12-1.25,5.81-2.49c2.2-1.62,3.75-3.45,4.97-5.89c0.72-1.44,1.34-2.86,1.8-4.41c0.18-0.7,0.32-1.41,0.43-2.14
					c0.01-0.06-0.01-1.01-0.12-1.28c0.23-0.36,0.19-0.28,0.35-0.66c0.01,0,0.01,0,0.02,0c1.74-0.51,3.37-1.24,4.89-2.16
					c0.04-4.26,0.9-8.57,2.94-12.03c1.88-3.19,6.11-8.61,10.43-6.97c0.43,0.16,0.59,0.53,0.51,0.96
					c-0.94,5.15-2.41,10.53-1.35,15.78c1.06,5.23,3.44,9.87,6.01,14.5c2.19,3.96,7.92,6.97,3.62,11.9
					c-4.57,5.24-13.09,1.41-16.48-4.06c-0.36,0.33-0.68,0.68-0.94,1.07c-1.82,2.74,0.24,5.75,3.4,5.03
					c0.05,0.21,0.08,0.42,0.17,0.63c0.59,1.33,2.87,1.81,4.58,1.42c1.35,1.98,9.24-1.16,10.29-1.72c1.05-0.56,2.01-1.19,2.86-1.92
					c1.97-1.32,3.59-3.13,3.69-5.58c0.09-2.09-0.35-3.59-2.11-4.83c-0.31-0.22-0.8-0.44-1.34-0.6c-0.24-3.93-1.56-8.03-2.72-11.12
					c-2.93-7.77-2.06-15.28-1.66-23.12c0.28-0.64,0.54-1.29,0.79-1.95c1.26-3.36,2.04-6.73,2.44-10.19
					c2.55,4.88,3.19,10.82,4.37,16.25c1.84,8.47,4.45,16.13,10.18,22.79c4.78,5.54,11.72,9.69,19.2,8.88
					C218.48,99.07,227.34,96.04,227.23,91.13z M142.43,70.03c-8.19-0.12-14.32-2.88-15.88-11.46c-0.86-4.76-0.8-9.72,0.44-14.34
					c0.18-1.53,0.51-3.03,1.02-4.42c5.11-13.96,19.08-17.76,32.65-16.87c0.42,0.03,0.64,0.32,0.7,0.65c2.52,0.56,4.92,1.81,7.11,4.1
					c3.32,3.46,4.87,7.95,4.9,12.6c0.1,0.12,0.17,0.27,0.16,0.48C172.69,56.88,158.52,70.27,142.43,70.03z"/>
				<g>
					<g>
						<path class="st4" d="M32.89,65.12c1.89-1.43,4.27-1.77,6.56-2.16c1.04-0.18,2.09-0.28,3.14-0.35c1.52,0.1,3,0.34,4.38,0.77
							c-1.69,0.63-3.85,0.55-5.63,0.85c-2.58,0.44-5.08,1.22-7.66,1.67C33.4,65.96,32.44,65.47,32.89,65.12z"/>
						<path class="st4" d="M40.96,68.25c-0.86,0.53-1.73,1.08-2.59,1.62c-0.92,0.46-1.84,0.92-2.75,1.39
							c-0.29,0.15-0.96-0.23-0.7-0.57c1.37-1.83,3.9-2.56,5.94-3.39c1.4-0.57,2.82-1.16,4.28-1.54
							C43.8,66.66,42.34,67.39,40.96,68.25z"/>
						<path class="st4" d="M43.83,72.36c-0.7,0.89-1.45,1.75-2.2,2.59c-0.41,0.37-0.85,0.71-1.31,1c-0.42,0.26-1.45-0.08-1.25-0.7
							c0.53-1.63,1.95-2.69,3.19-3.8c1.23-1.11,2.58-2.57,4.12-3.26C45.95,69.7,44.62,71.35,43.83,72.36z"/>
					</g>
					<path class="st4" d="M122.48,37.04c3.33-6.23,6.4-13.68,4.23-19.86c-1.28-3.63-7.75-2.56-10.47-2.13
						c-2.6,0.41-5.2,1.28-7.65,2.2c-0.53,0.2-1.06,0.44-1.59,0.69c-6.15-6.12-15.33-8.02-23.78-7.86c-4.82,0.1-9.35,0.97-13.87,2.65
						c-0.64,0.23-3.97,1.77-5.94,3.05c-1.52-2.62-3.4-4.78-5.53-7.1c-1.63-1.78-4.98-6.07-7.9-5.05c-2.68,0.93-3.63,5.55-4.24,7.84
						c-1.25,4.66-1.12,9.62,0.39,14.17c-1.45,1.04-2.91,2.06-4.2,3.21c-2.93,2.62-5.01,5.94-6.7,9.46
						c-3.02,6.27-3.01,13.48-0.41,19.85c5.38,13.16,21.6,20.12,34.58,22.39c15.29,2.67,31.97,0.7,44.38-9.32
						C122.77,63.96,126.2,48.51,122.48,37.04z"/>
					<path class="st5" d="M111.51,71.2c-12.12,9.77-29.72,10.23-44.18,6.87c-11.79-2.74-23.84-9.03-29.79-20.03
						c-3.58-6.62-2.78-14.41,0.23-21.06c1.7-3.74,4.41-6.86,7.38-9.64c0.28-0.25,0.58-0.51,0.87-0.75c0.81-0.88,1.62-1.76,2.41-2.66
						c-0.27,0.22-0.54,0.43-0.82,0.65c-0.17-2.55-0.28-5.09-0.25-7.65c0.01-1.21,0.99-13.51,4.82-11.17
						c4.03,2.46,7.38,6.82,10.45,10.59c-0.38,0.3-0.63,0.57-0.67,0.79c0.73-0.31,1.48-0.58,2.24-0.85c2.46-1.41,5.75-2.18,8.14-2.92
						c4.14-1.27,8.58-1.41,12.87-1.34c7.26,0.1,15.07,1.89,20.92,6.36c-0.17,0.09-0.35,0.17-0.51,0.26c-0.65,0.32-0.91,0.66-1.14,1
						c1.28-0.22,2.59-0.68,3.84-0.82l0.08-0.01c2.39-0.78,4.84-1.35,7.35-1.77c4.83-0.82,8.77-0.38,8.81,4.98
						c0.03,4.39-1.19,8.83-2.79,13.08c-0.49-1.19-1.07-2.31-1.73-3.37c0.45,1.83,0.59,3.79,0.78,5.57c0.08,0.77,0.17,1.54,0.26,2.31
						c0.01-0.02,0.03-0.05,0.04-0.07C123.35,50.86,120.37,64.05,111.51,71.2z"/>
					<path class="st5" d="M72.33,13.36c-2.39,0.74-5.68,1.5-8.14,2.92c-0.75,0.26-1.5,0.54-2.24,0.85c0.02-0.11,0.11-0.24,0.23-0.37
						c-2.78,1.21-5.3,2.61-8.02,4.15c-1.04,0.59-3.72,2.23-4.79,0.77c-1.12-1.53-0.9-3.7-0.78-5.5c0.19-3.02,0.6-5.87,2.18-8.5
						c0.14-0.23,0.41-0.37,0.67-0.36c0,0,0.01,0,0.01,0c0.07-0.04,0.15-0.06,0.23-0.07c0.39-0.41,0.84-0.73,1.32-0.94
						c-0.27-0.19-0.55-0.39-0.83-0.56c-3.84-2.35-4.81,9.95-4.82,11.17c-0.03,2.56,0.08,5.1,0.25,7.65
						c0.28-0.21,0.55-0.43,0.82-0.65c-0.79,0.9-1.6,1.78-2.41,2.66c-0.29,0.25-0.59,0.5-0.87,0.75c-2.97,2.78-5.68,5.9-7.38,9.64
						c-2.65,5.85-3.58,12.56-1.35,18.6C35.65,45.59,39.66,35.12,47,28.35c7.66-7.07,16.72-11.94,26.39-15.27
						C73.03,13.16,72.68,13.25,72.33,13.36z"/>
					<path class="st6" d="M105.61,18.63c0.17-0.09,0.34-0.17,0.51-0.26c-3.44-2.62-7.55-4.32-11.84-5.29
						c-7.54,3.69-14.37,9.14-18.13,16.5c-5.56,10.86-3.2,25.15,6.56,32.96c9.96,7.98,23.44,7.42,34.54,1.94
						c4.3-7.21,5.51-16.59,3.85-24.97c-0.02,0.02-0.03,0.05-0.04,0.07c-0.09-0.77-0.17-1.54-0.26-2.31
						c-0.19-1.78-0.33-3.74-0.78-5.57c0.66,1.06,1.24,2.19,1.73,3.37c1.6-4.25,2.82-8.69,2.79-13.08c-0.04-5.36-3.98-5.8-8.81-4.98
						c-2.51,0.42-4.96,0.99-7.35,1.77l-0.08,0.01c-1.25,0.14-2.56,0.61-3.84,0.82C104.7,19.29,104.96,18.96,105.61,18.63z"/>
					<path class="st4" d="M65.53,67.61c-1.05-1.09-3.05-1.41-4.41-1.83c-2.07-0.63-3.91-1.04-6.08-1.17
						c-0.99-0.06-5.4-0.51-5.81,1.24c-0.55,2.33,2.99,4.69,4.83,5.36C60.51,73.57,67.64,69.79,65.53,67.61z"/>
					<g>
						<g>
							<path class="st4" d="M77.78,57.04c0.25,1.73-0.6,3.28-1.9,3.47c-1.3,0.19-2.55-1.07-2.8-2.8c-0.25-1.73,0.6-3.29,1.9-3.47
								C76.28,54.06,77.53,55.32,77.78,57.04z"/>
						</g>
						<g>
							<path class="st3" d="M75.25,56.16c0.08,0.53-0.18,1-0.58,1.06c-0.39,0.06-0.77-0.32-0.85-0.85c-0.07-0.53,0.18-1,0.58-1.06
								C74.79,55.25,75.17,55.63,75.25,56.16z"/>
						</g>
					</g>
					<g>
						<g>
							<path class="st4" d="M45.49,55.13c0.25,1.73-0.6,3.29-1.89,3.47c-1.3,0.19-2.55-1.06-2.8-2.79c-0.25-1.74,0.6-3.29,1.9-3.47
								C43.99,52.15,45.24,53.4,45.49,55.13z"/>
						</g>
						<g>
							<path class="st3" d="M42.96,54.25c0.08,0.53-0.18,1-0.58,1.06c-0.39,0.06-0.78-0.32-0.85-0.85c-0.07-0.53,0.18-1,0.58-1.06
								C42.5,53.34,42.88,53.72,42.96,54.25z"/>
						</g>
					</g>
					<g>
						<path class="st4" d="M88.98,64.76c-2.24-0.79-4.61-0.39-6.9-0.06c-1.05,0.16-2.08,0.38-3.11,0.63
							c-1.42,0.56-2.76,1.24-3.94,2.06c1.79,0.08,3.83-0.65,5.62-0.91c2.6-0.37,5.21-0.38,7.8-0.74
							C88.74,65.71,89.51,64.96,88.98,64.76z"/>
						<path class="st4" d="M82.24,70.19c0.98,0.25,1.97,0.5,2.96,0.76c1.02,0.15,2.03,0.31,3.05,0.49c0.33,0.06,0.84-0.51,0.49-0.76
							c-1.86-1.32-4.49-1.25-6.69-1.42c-1.51-0.12-3.04-0.24-4.55-0.16C79.05,69.55,80.66,69.8,82.24,70.19z"/>
						<path class="st4" d="M80.76,74.98c0.94,0.64,1.91,1.22,2.88,1.8c0.51,0.23,1.02,0.42,1.55,0.55c0.48,0.12,1.36-0.52,0.98-1.05
							c-1-1.39-2.68-1.96-4.19-2.64c-1.51-0.68-3.24-1.66-4.92-1.85C77.92,73.1,79.7,74.26,80.76,74.98z"/>
					</g>
					<path class="st4" d="M60.22,18.08c-0.92-2.3-2.3-4.47-4.08-6.19c-1.25-1.21-3.06-2.6-4.8-1.49c-1.6,1.02-1.81,2.99-1.94,4.7
						c-0.19,2.47,0.12,4.95,1,7.26c0.08,0.23,0.42-0.08,0.39-0.25c-0.28-1.77-0.22-3.48-0.02-5.25c0.08-0.8,0.19-5.37,1.94-4.56
						c2.81,1.31,4.83,4.08,6.96,6.21C59.87,18.7,60.31,18.32,60.22,18.08z"/>
					<path class="st4" d="M122.16,20.57c-2.85-4.26-10.08-0.12-13.25,1.6c-0.27,0.15-0.21,0.55,0.12,0.37
						c0.09-0.06,0.19-0.11,0.28-0.17c0.06-0.04,0.17-0.21,0.04-0.22c3.2,0.38,9.25-4.12,11.22,0.47c1.53,3.56-2.05,8.23-3.46,11.26
						c-0.16,0.34,0.27,0.31,0.42,0.1C119.55,31.18,124.67,24.33,122.16,20.57z"/>
					<path class="st7" d="M49.46,6.5c4.52,1.17,8.16,7.79,9.78,12.49c1.11-1.35,2.44-2.58,3.9-3.61c-1.47-2.43-3.25-4.5-5.27-6.69
						c-1.63-1.78-4.98-6.07-7.9-5.05c-1.49,0.51-2.44,2.18-3.1,3.94C47.58,6.69,48.43,6.23,49.46,6.5z"/>
					<path class="st7" d="M126.71,17.17c-1.28-3.63-7.75-2.56-10.47-2.13c-2.6,0.41-5.2,1.28-7.65,2.2
						c-0.53,0.2-1.06,0.44-1.59,0.69c-6.15-6.12-15.33-8.02-23.78-7.86c-2.71,0.06-5.32,0.36-7.89,0.91
						c6.15,0.33,12.21,1.22,17.94,3.8c7.42,3.33,14.11,9.36,17.82,16.69c6.54,12.92-1.66,28.16-12.71,35.74
						c-12.94,8.89-30.46,11.88-45.31,6.3c-7.09-2.66-12.63-7.96-16.11-14.62c-1.74-3.33-3.34-6.73-3.66-10.53
						c-0.09-1.07-0.13-2.13-0.15-3.2c-0.62,4.36-0.03,8.85,1.66,12.99c5.38,13.16,21.6,20.12,34.58,22.39
						c15.29,2.67,31.97,0.7,44.38-9.32c9-7.26,12.43-22.71,8.71-34.19C125.81,30.8,128.88,23.35,126.71,17.17z M115.72,29.56
						c-2.32-0.76-4.36-2.32-5.17-4.68c-0.13-0.39-0.19-0.75-0.21-1.09c-1.03,0.39-1.89-1.12-0.85-1.67
						c0.85-0.46,1.79-0.92,2.76-1.35c1.01-0.6,2.31-1.01,3.64-1.28c1.3-0.33,2.6-0.54,3.85-0.51c0.14,0,0.26,0.02,0.4,0.03
						c0.43-0.01,0.81-0.01,1.12,0c0.47,0.02,0.76,0.31,0.88,0.66c1.81,1.26,1.67,4.01,0.13,6.33
						C120.95,27.98,118.42,30.44,115.72,29.56z"/>
					<path class="st4" d="M67.51,76.91c-3.47,1-6.7-0.81-8.34-3.9c-1.01-1.92-2.41-5.03-2.26-7.2c0.01-0.14-0.27-0.05-0.28,0.07
						c-0.01,0.06-0.02,0.12-0.02,0.19c-0.01,0.1,0.18,0.02,0.2-0.04c-1.23,2.52,0.33,6.75,2.08,9.07c-0.17,0.09-0.34,0.18-0.5,0.25
						c-0.23,0.1-1.75,0.8-1.72,0.37c0.01-0.08-0.13-0.03-0.14,0.01c-0.03,0.07-0.07,0.13-0.12,0.19c-0.02,0.03-0.02,0.07,0,0.1
						c0.44,0.5,1.09,0.27,1.64,0.11c0.34-0.11,0.89-0.22,1.32-0.44c2.13,2.36,5.46,3.06,8.21,1.54
						C67.78,77.11,67.81,76.82,67.51,76.91z"/>
					<g>
						<path class="st4" d="M66.41,77.99c-1.01-0.42-2.08-0.28-3.12-0.64c-1.03-0.35-2.38-0.83-3.05-1.72
							c-0.38-0.5-0.8-0.54-1.18-0.35c0.02-0.16-0.25-0.08-0.31,0.01c-1.36,1.94-2.57,3.63-2.45,6.09c0.06,1.41,1.58,3.11,3.02,3.23
							c1.36,0.11,2.51-0.41,3.39-1.47c0.56-0.68,1.01-1.42,1.48-2.16c0.65-1.01,1.53-1.79,2.29-2.7
							C66.55,78.17,66.52,78.03,66.41,77.99z"/>
						<path class="st8" d="M65.09,78.85c-0.74,0.55-1.3,1.25-1.82,2c-0.48,0.69-0.88,1.42-1.43,2.06c-1.36,1.61-3.15,0.56-4.12-0.82
							c-0.6-0.86-0.37-2.47-0.17-3.38c0.15-0.66,0.74-1.73,1.03-2.45c0.01-0.01,0.02-0.01,0.03-0.02c0.77-0.7,1.18,0.02,1.77,0.48
							c-1.25,0.52-1.95,3.85-1.59,4.72c0.06,0.14,0.34,0,0.34-0.12c0-0.9,0.57-1.72,0.89-2.53c0.16-0.42,0.39-0.78,0.64-1.15
							c0.13-0.19,0.36-0.32,0.47-0.51c0.7,0.36,1.47,0.65,2.18,0.89c0.41,0.14,0.76,0.16,1.18,0.19
							C65.75,78.3,66.06,78.13,65.09,78.85z"/>
					</g>
				</g>
			</g>
			<g>
				<g>
					<g>
						<path class="st9" d="M77.55,114.57l-3.52-19.04L18.1,79.26c0,0-14.03,12.85-13.98,12.89c-0.28,0.23-0.48,0.5-0.57,0.8
							c-1.2,3.91,13.77,14.25,34.22,20.53c20.45,6.28,38.65,6.11,39.85,2.2C77.72,115.34,77.69,114.97,77.55,114.57z"/>
						<path class="st4" d="M37.67,113.81C20.84,108.65,1.64,97.96,3.21,92.84c0.11-0.36,0.34-0.68,0.68-0.96l0.02,0.02
							c0.52-0.59,2.94-2.81,13.95-12.9l0.14-0.13l0.19,0.05l56.14,16.33l3.56,19.25c0.15,0.43,0.18,0.87,0.06,1.27
							C76.38,120.9,54.49,118.97,37.67,113.81z M4.48,92.28l0,0.02l-0.14,0.11c-0.24,0.2-0.39,0.4-0.46,0.63
							c-1.07,3.47,13.05,13.67,33.99,20.1c20.94,6.43,38.35,5.91,39.42,2.43c0.08-0.25,0.06-0.55-0.06-0.89l-3.5-18.88L18.19,79.65
							C14.49,83.05,5.52,91.27,4.48,92.28z"/>
					</g>
					<path class="st10" d="M6.17,97.57c1.68-1.71,3.33-3.47,4.98-5.22c3.79-4.02,7.95-7.68,11.73-11.7l-4.78-1.39
						c0,0-14.03,12.85-13.98,12.89c-0.28,0.23-0.48,0.5-0.57,0.8C3.21,94.05,4.16,95.68,6.17,97.57z"/>
					<path class="st11" d="M39.38,85.46l-3.03-0.88C31.25,92,26.3,99.53,21.46,107.12c-0.01,0.01-0.02,0.02-0.02,0.04
						c1.83,0.87,3.8,1.72,5.83,2.56C31.38,101.67,34.83,93.27,39.38,85.46z"/>
					<path class="st10" d="M77.55,114.57l-3.52-19.04l-18.38-5.34c-0.71,5.74-1.44,11.48-1.79,17.25c-0.2,3.22-0.34,6.48-0.73,9.69
						c13.46,2.27,23.6,1.43,24.48-1.45C77.72,115.34,77.69,114.97,77.55,114.57z"/>
					<g>
						<path class="st9" d="M73.96,96.41c-0.9,2.94-14.14,1.5-29.57-3.23C28.97,88.44,17.2,82.21,18.1,79.26
							c0.9-2.95,14.14-1.5,29.57,3.23C63.1,87.23,74.87,93.46,73.96,96.41z"/>
						<path class="st4" d="M44.29,93.5c-18.36-5.63-27.37-11.59-26.52-14.34c1.13-3.68,16.3-1.2,30,3
							c13.7,4.2,27.65,10.66,26.52,14.34C73.45,99.26,62.65,99.14,44.29,93.5z M47.57,82.83C31.3,77.84,19.16,77,18.43,79.37
							c-0.73,2.37,9.8,8.48,26.06,13.47c16.26,4.99,28.41,5.83,29.13,3.47C74.35,93.94,63.83,87.82,47.57,82.83z"/>
					</g>
					<g>
						<path class="st12" d="M71.1,97.81c-3.67-3.21-13.17-7.6-24.71-11.14c-11.55-3.54-21.87-5.24-26.71-4.64
							c3.67,3.22,13.17,7.6,24.71,11.14C55.94,96.71,66.26,98.42,71.1,97.81z"/>
					</g>
				</g>
				<path class="st4" d="M63.1,94.64c-1.48-1.91-2.08-4.02-4.27-4.82c-1.28-0.47-2.69-0.64-3.98-1.03
					c-0.73-0.22-1.08-0.67-1.82-0.66c-2.51,0.04-5.05,3.72-7.3,1.23c-1.6-1.78-3.69-2.47-5.53-3.78c-0.5-0.35-1.09-0.9-1.77-0.82
					c-2.05,0.25-3.37-0.29-4.96-1.48c-0.65-0.49-1.63-1.81-2.6-1.32c-0.92,0.47-2.85,2.57-4.01,2.96c0,0,0,0,0-0.01
					c-0.22,0.23-0.43,0.48-0.62,0.74c5.56,2.73,11.23,4.96,17.1,6.92c3.28,1.1,6.56,2.36,9.92,3.18c3.03,0.74,6.64,1.64,9.86,1.35
					c0.17-0.01,0.41-0.18,0.51-0.37C64.14,95.73,63.62,95.32,63.1,94.64z"/>
				<path class="st13" d="M61.95,96.18c-4.99-0.48-9.59-1.57-14.32-3.07c-3.81-1.2-7.7-2.29-11.32-4.03
					c-1.65-0.79-3.5-1.09-5.18-1.79c-1.08-0.45-3.5-2.46-4.6-1.98c0.02-0.01,0.04-0.03,0.06-0.04c0.92-0.02,2.29-1.29,2.94-1.76
					c1.64-1.17,3.18,0.3,4.3,1.32c0.89,0.81,1.75,0.79,2.91,0.6c2.01-0.33,4.52,1.53,6.16,2.74c0.89,0.66,2.38,2.96,3.46,3
					c0.99,0.04,1.81-0.31,2.78-0.76c2.41-1.1,3.73-1.29,6.03-0.58c2.39,0.74,4.25,0.67,5.65,3.27
					C61.14,93.66,63.49,96.33,61.95,96.18z"/>
				<g>
					<path class="st13" d="M32.77,84.85c-0.53-0.87-1.62-0.09-1.73,0.53c-0.12,0.21-0.15,0.48-0.06,0.7
						C31.32,86.91,33.26,85.65,32.77,84.85z"/>
					<path class="st13" d="M41.4,89.19c-0.02-0.36-0.23-0.53-0.49-0.57c-0.21-0.1-0.46-0.04-0.69,0.12
						c-0.17,0.09-0.32,0.21-0.41,0.35c-0.02,0.03-0.01,0.05-0.02,0.07c-0.21,0.33-0.24,0.7,0.15,0.86
						C40.47,90.24,41.43,89.8,41.4,89.19z"/>
					<path class="st13" d="M56.26,90.57c-1-0.85-2.91-0.67-3.7,0.39c-0.33,0.44-0.48,1.04-0.03,1.45c0.04,0.04,0.09,0.05,0.13,0.07
						c0.04,0.16,0.11,0.31,0.23,0.47C54.1,94.5,58.17,92.18,56.26,90.57z"/>
					<path class="st13" d="M58.09,93.34c-0.06-0.13-0.21-0.13-0.35-0.08c-0.01,0-0.01,0-0.02,0c-0.03,0-0.07,0.02-0.11,0.03
						c-0.01,0-0.02,0.01-0.03,0.01c-0.05,0.02-0.1,0.03-0.15,0.06c-0.17,0.08-0.28,0.2-0.25,0.31c0,0.02,0.01,0.04,0.02,0.06
						c0.01,0.01,0,0.02,0.01,0.03c0.08,0.05,0.14,0.07,0.23,0.1c0.25,0.08,0.65-0.07,0.67-0.37C58.12,93.43,58.11,93.38,58.09,93.34
						z"/>
				</g>
			</g>
		</g>
	</g>
</g>
</svg>
