<?xml version="1.0" encoding="utf-8"?>
<!-- Generator: Adobe Illustrator 28.2.0, SVG Export Plug-In . SVG Version: 6.00 Build 0)  -->
<svg version="1.1" id="Layer_1" xmlns="http://www.w3.org/2000/svg" xmlns:xlink="http://www.w3.org/1999/xlink" x="0px" y="0px"
	 viewBox="0 0 438.72 201.85" style="enable-background:new 0 0 438.72 201.85;" xml:space="preserve">
<style type="text/css">
	.st0{fill:#534EA0;}
	.st1{fill:#9BD2AC;}
	.st2{fill:#80C793;}
	.st3{fill:#22204C;}
	.st4{fill:none;}
	.st5{fill:#A19D9A;}
	.st6{fill:#2E8CCB;}
	.st7{fill:#EB008B;}
	.st8{fill:#FCDAAD;}
	.st9{fill:none;stroke:#231F20;stroke-width:4.252;stroke-miterlimit:10;}
	.st10{fill:#231F20;}
	.st11{fill:#B7B1AD;}
	.st12{fill:#FFFFFF;}
	.st13{fill:#7A7877;}
	.st14{opacity:0.31;fill:#7A7877;}
	.st15{clip-path:url(#SVGID_00000051352605930128370610000012650258343156087204_);}
	.st16{clip-path:url(#SVGID_00000124157292803854819540000017559111202586390145_);}
	.st17{clip-path:url(#SVGID_00000109732787984083241960000008402157664687519901_);}
	.st18{clip-path:url(#SVGID_00000114051414493080529730000001651835123949771168_);}
	.st19{fill:#FAAF40;}
	.st20{fill:#F7C474;}
	.st21{fill:#090A34;}
	.st22{opacity:0.31;fill:url(#SVGID_00000103955823232584383010000005310263101423775379_);}
	.st23{opacity:0.31;fill:url(#SVGID_00000006677752986577515150000009595438779894656423_);}
	.st24{clip-path:url(#SVGID_00000025429052184112986030000000685594285281065134_);}
	.st25{clip-path:url(#SVGID_00000052099276500745732600000004918402059301842830_);}
	.st26{opacity:0.31;fill:url(#SVGID_00000006669383727425266260000008599552027848905604_);}
	.st27{opacity:0.31;fill:url(#SVGID_00000096748890359187668860000015751627612012321435_);}
	.st28{clip-path:url(#SVGID_00000063620319599643057780000002082614512085234331_);}
	.st29{clip-path:url(#SVGID_00000086685495077190989280000007277195218033381279_);}
	.st30{opacity:0.53;fill:#111216;}
	.st31{opacity:0.69;fill:#231F20;}
	.st32{opacity:0.31;fill:#FAF6BD;}
	.st33{opacity:0.4;}
	.st34{fill:#D37C69;}
	.st35{fill:#CF4359;}
	.st36{fill:#2354A4;}
	.st37{opacity:0.57;fill:#122346;}
	.st38{fill:#224191;}
	.st39{clip-path:url(#SVGID_00000021800466667549858420000018206721329850487198_);}
	.st40{fill:url(#SVGID_00000020394108232965971560000016546418675053100983_);}
	.st41{opacity:0.75;clip-path:url(#SVGID_00000046316089209205351740000018231660896966901408_);fill:#FBC4A5;}
	.st42{fill:#2E3191;}
	.st43{opacity:0.47;}
	.st44{clip-path:url(#XMLID_00000065767475888336328320000004432622507930186631_);}
	.st45{opacity:0.75;fill:#FBC4A5;}
	.st46{clip-path:url(#XMLID_00000065767475888336328320000004432622507930186631_);fill:#652D90;}
	.st47{clip-path:url(#XMLID_00000058588701149802800260000011202233254162903944_);fill:#EBB126;}
	.st48{fill:none;stroke:#000000;stroke-width:2.8346;stroke-miterlimit:10;}
	.st49{fill:#161A45;}
	.st50{opacity:0.36;}
	.st51{fill:#83C3EB;}
	.st52{fill:#9A1649;}
	.st53{fill:#EC84B5;}
	.st54{fill:none;stroke:#F6902B;stroke-width:5.6693;stroke-linecap:round;stroke-linejoin:round;stroke-miterlimit:10;}
	.st55{fill:none;stroke:#F6902B;stroke-width:2.8346;stroke-miterlimit:10;}
	.st56{fill:none;stroke:#EBB126;stroke-width:5.6693;stroke-linecap:round;stroke-linejoin:round;stroke-miterlimit:10;}
	.st57{fill:#EBB126;}
	.st58{fill:#FDDD81;}
	.st59{fill:#2E68AE;}
	.st60{opacity:0.39;fill:#722315;}
	.st61{fill:none;stroke:#231F20;stroke-width:3.2176;stroke-miterlimit:10;}
	.st62{clip-path:url(#SVGID_00000003102145948289576490000011221223649008833417_);}
	.st63{clip-path:url(#SVGID_00000162331826218395682580000009336203737760913832_);}
	.st64{clip-path:url(#SVGID_00000145049046095788222490000013163159398283900801_);}
	.st65{clip-path:url(#SVGID_00000074424479206217427550000014757599185730435736_);}
	.st66{opacity:0.31;fill:url(#SVGID_00000021840083431918334770000018203494585491216777_);}
	.st67{opacity:0.31;fill:url(#SVGID_00000141425870005228454630000001324943586264667045_);}
	.st68{clip-path:url(#SVGID_00000005953096838649291340000002357446291347122316_);}
	.st69{clip-path:url(#SVGID_00000143604516704278133460000009750443068592131006_);}
	.st70{opacity:0.31;fill:url(#SVGID_00000042737476117607408380000003767093805825992854_);}
	.st71{opacity:0.31;fill:url(#SVGID_00000034062987154342483770000011513000949463178382_);}
	.st72{clip-path:url(#SVGID_00000124848948504139415900000013537175854010913691_);}
	.st73{clip-path:url(#SVGID_00000029020555907761644240000002458777924679434631_);}
	.st74{clip-path:url(#SVGID_00000159441108351930216900000007984988098796832404_);}
	.st75{fill:url(#SVGID_00000163058393372037172750000018167568463690215860_);}
	.st76{opacity:0.75;clip-path:url(#SVGID_00000103949498657158129120000005813749750766314664_);fill:#FBC4A5;}
	.st77{clip-path:url(#XMLID_00000065047012652257555240000007100872409022711205_);}
	.st78{clip-path:url(#XMLID_00000065047012652257555240000007100872409022711205_);fill:#652D90;}
	.st79{clip-path:url(#XMLID_00000134248428206166088270000017324138846462743442_);fill:#EBB126;}
	.st80{fill:none;stroke:#000000;stroke-width:2.1451;stroke-miterlimit:10;}
	.st81{fill:none;stroke:#F6902B;stroke-width:4.2901;stroke-linecap:round;stroke-linejoin:round;stroke-miterlimit:10;}
	.st82{fill:none;stroke:#F6902B;stroke-width:2.1451;stroke-miterlimit:10;}
	.st83{fill:none;stroke:#EBB126;stroke-width:4.2901;stroke-linecap:round;stroke-linejoin:round;stroke-miterlimit:10;}
</style>
<g>
	<path class="st12" d="M92.5,111.54V46.91L69.12,93.97H55.37L31.99,46.91v64.63H6.93V3.06h27.2l28.11,56.69L90.51,3.06h27.05v108.49
		H92.5z"/>
	<path class="st12" d="M167.84,113.07c-6.83,0-12.89-1.08-18.18-3.25c-5.3-2.17-9.81-5.11-13.52-8.84
		c-3.72-3.73-6.55-8.03-8.48-12.92c-1.94-4.88-2.9-10-2.9-15.33c0-7.6,1.7-14.53,5.12-20.78c3.41-6.25,8.33-11.3,14.75-15.15
		c6.42-3.85,14.16-5.78,23.23-5.78c9.06,0,16.78,1.91,23.15,5.72c6.36,3.81,11.23,8.8,14.59,14.97c3.36,6.17,5.04,12.86,5.04,20.08
		c0,1.4-0.08,2.78-0.23,4.14s-0.28,2.53-0.38,3.53h-59.29c0.31,3.47,1.3,6.39,2.98,8.76c1.68,2.38,3.84,4.18,6.49,5.42
		c2.65,1.24,5.45,1.86,8.4,1.86c3.67,0,7.11-0.86,10.31-2.6c3.21-1.73,5.42-4.07,6.65-7.03l20.78,5.81
		c-2.04,4.18-4.92,7.87-8.63,11.08c-3.72,3.21-8.1,5.73-13.14,7.56C179.53,112.15,173.95,113.07,167.84,113.07z M150.12,64.48h34.84
		c-0.41-3.21-1.38-6-2.9-8.38c-1.53-2.38-3.57-4.23-6.11-5.54c-2.55-1.31-5.35-1.97-8.4-1.97c-3.16,0-5.99,0.66-8.48,1.97
		c-2.5,1.31-4.51,3.16-6.04,5.54C151.49,58.48,150.52,61.27,150.12,64.48z"/>
	<path class="st12" d="M269.47,52.26c-5.91,0-11.26,0.94-16.04,2.83c-4.79,1.89-8.25,4.66-10.39,8.33v48.13h-24.45v-79.3h22.46
		v15.28c2.75-5.4,6.31-9.63,10.7-12.68c4.38-3.06,8.96-4.63,13.75-4.74c1.12,0,1.96,0,2.52,0c0.56,0,1.04,0.05,1.45,0.15V52.26z"/>
	<path class="st12" d="M276.97,0h24.45v83.11c0,3.37,0.61,5.77,1.83,7.19c1.22,1.43,2.95,2.14,5.2,2.14c1.53,0,3.08-0.23,4.66-0.69
		c1.58-0.46,2.98-0.99,4.2-1.6l3.21,18.34c-3.06,1.43-6.57,2.55-10.54,3.36c-3.97,0.81-7.69,1.22-11.15,1.22
		c-6.93,0-12.3-1.86-16.12-5.58c-3.82-3.72-5.73-9-5.73-15.84V0z"/>
	<path class="st12" d="M327.9,22.16V0h24.45v22.16H327.9z M327.9,111.54V31.32h24.45v80.22H327.9z"/>
	<path class="st12" d="M438.72,111.54h-24.45V67.38c0-5.19-0.99-8.96-2.98-11.3c-1.99-2.34-4.61-3.52-7.87-3.52
		c-2.24,0-4.53,0.59-6.88,1.76c-2.34,1.18-4.46,2.8-6.34,4.85c-1.89,2.06-3.34,4.41-4.35,7.06v45.3h-24.45v-79.3h22v13.53
		c2.04-3.11,4.58-5.77,7.64-7.98c3.06-2.21,6.57-3.89,10.54-5.04c3.97-1.15,8.3-1.73,12.99-1.73c5.2,0,9.4,0.93,12.61,2.79
		c3.21,1.86,5.65,4.29,7.33,7.3c1.68,3.01,2.8,6.25,3.36,9.71c0.56,3.46,0.84,6.85,0.84,10.16V111.54z"/>
	<path class="st12" d="M21.16,201.85c-4.21,0-8.11-0.71-11.7-2.14c-3.6-1.42-6.75-3.59-9.46-6.51l2.34-3.56
		c2.92,2.78,5.87,4.8,8.85,6.05c2.98,1.26,6.24,1.88,9.77,1.88c4.54,0,8.22-0.94,11.04-2.83c2.81-1.89,4.22-4.52,4.22-7.89
		c0-2.3-0.66-4.07-1.98-5.32c-1.32-1.25-3.22-2.26-5.7-3.04c-2.48-0.78-5.48-1.61-9-2.48c-3.6-0.94-6.63-1.92-9.11-2.94
		c-2.48-1.01-4.32-2.33-5.55-3.95c-1.22-1.62-1.83-3.82-1.83-6.59c0-3.45,0.87-6.3,2.59-8.56c1.73-2.26,4.07-3.95,7.02-5.07
		c2.95-1.11,6.22-1.67,9.82-1.67c4.14,0,7.75,0.68,10.84,2.04c3.09,1.36,5.44,3.15,7.07,5.39l-2.75,3.26
		c-1.7-2.17-3.9-3.78-6.61-4.83c-2.71-1.05-5.7-1.58-8.95-1.58c-2.44,0-4.75,0.34-6.92,1.01c-2.17,0.68-3.92,1.77-5.24,3.29
		c-1.32,1.52-1.98,3.56-1.98,6.13c0,2.03,0.49,3.62,1.48,4.76c0.98,1.15,2.46,2.08,4.43,2.79c1.97,0.71,4.41,1.47,7.33,2.28
		c4.14,1.01,7.7,2.06,10.68,3.14c2.98,1.08,5.29,2.48,6.92,4.2c1.63,1.72,2.44,4.14,2.44,7.24c0,4.8-1.83,8.58-5.49,11.35
		C32.05,200.47,27.2,201.85,21.16,201.85z"/>
	<path class="st12" d="M75.61,198.7c-0.34,0.14-1.02,0.48-2.04,1.02c-1.02,0.54-2.31,1.03-3.87,1.48c-1.56,0.44-3.29,0.66-5.19,0.66
		c-1.83,0-3.54-0.36-5.14-1.08c-1.59-0.72-2.87-1.79-3.82-3.22c-0.95-1.43-1.42-3.17-1.42-5.22V152.2h-7.43v-4.17h7.43v-18.11h5.09
		v18.11h12.31v4.17H59.23v38.93c0.14,1.98,0.85,3.47,2.14,4.46c1.29,0.99,2.78,1.48,4.48,1.48c2.1,0,3.93-0.36,5.49-1.07
		c1.56-0.71,2.48-1.17,2.75-1.37L75.61,198.7z"/>
	<path class="st12" d="M104.21,201.85c-3.73,0-7.17-0.71-10.33-2.13c-3.15-1.42-5.89-3.39-8.19-5.93c-2.31-2.53-4.1-5.46-5.39-8.77
		c-1.29-3.31-1.93-6.79-1.93-10.44c0-3.72,0.64-7.21,1.93-10.49c1.29-3.28,3.1-6.18,5.44-8.72c2.34-2.53,5.09-4.53,8.24-5.98
		s6.56-2.18,10.22-2.18c3.66,0,7.05,0.73,10.17,2.18c3.12,1.45,5.87,3.45,8.24,5.98c2.37,2.53,4.2,5.44,5.49,8.72
		c1.29,3.28,1.93,6.77,1.93,10.49c0,3.65-0.65,7.13-1.93,10.44c-1.29,3.31-3.1,6.23-5.44,8.77c-2.34,2.53-5.09,4.51-8.24,5.93
		C111.28,201.14,107.87,201.85,104.21,201.85z M83.45,174.79c0,4.12,0.93,7.89,2.8,11.3c1.87,3.41,4.36,6.13,7.48,8.15
		c3.12,2.03,6.58,3.04,10.38,3.04c3.8,0,7.27-1.03,10.43-3.09c3.15-2.06,5.66-4.83,7.53-8.31c1.87-3.48,2.8-7.27,2.8-11.4
		c0-4.12-0.93-7.9-2.8-11.34c-1.87-3.44-4.37-6.19-7.53-8.26c-3.15-2.06-6.6-3.09-10.33-3.09c-3.8,0-7.26,1.05-10.38,3.14
		c-3.12,2.09-5.63,4.86-7.53,8.31C84.4,166.69,83.45,170.53,83.45,174.79z"/>
	<path class="st12" d="M162.46,152.51c-4.75,0.14-8.9,1.54-12.46,4.22c-3.56,2.68-6.05,6.36-7.48,11.04v33.07h-5.09v-52.8h4.88
		v12.92c1.83-3.73,4.27-6.77,7.33-9.11c3.05-2.34,6.27-3.68,9.67-4.02c0.68-0.07,1.29-0.1,1.83-0.1c0.54,0,0.98,0,1.32,0V152.51z"/>
	<path class="st12" d="M188.61,201.85c-3.73,0-7.19-0.73-10.38-2.18c-3.19-1.45-5.95-3.45-8.29-5.98c-2.34-2.53-4.17-5.47-5.49-8.82
		s-1.98-6.88-1.98-10.59c0-5,1.12-9.53,3.36-13.58c2.24-4.05,5.32-7.31,9.26-9.78c3.93-2.47,8.34-3.7,13.23-3.7
		c5.02,0,9.46,1.25,13.33,3.75c3.87,2.5,6.93,5.8,9.21,9.89c2.27,4.09,3.41,8.57,3.41,13.43c0,0.41,0,0.81,0,1.22
		c0,0.41-0.04,0.74-0.1,1.01h-46.39c0.27,3.98,1.39,7.6,3.36,10.84c1.97,3.24,4.49,5.79,7.58,7.64c3.09,1.86,6.46,2.78,10.12,2.78
		c3.66,0,7.12-0.95,10.38-2.85c3.26-1.9,5.53-4.34,6.82-7.33l4.48,1.22c-1.02,2.51-2.63,4.75-4.83,6.72
		c-2.21,1.97-4.78,3.51-7.73,4.63C194.97,201.29,191.87,201.85,188.61,201.85z M167.55,172.55h41.82
		c-0.27-4.12-1.36-7.76-3.26-10.94c-1.9-3.17-4.39-5.67-7.48-7.49c-3.09-1.82-6.5-2.74-10.22-2.74c-3.73,0-7.12,0.91-10.17,2.74
		c-3.05,1.82-5.53,4.32-7.43,7.49C168.91,164.79,167.82,168.43,167.55,172.55z"/>
	<path class="st12" d="M221.28,199.99c-0.82-0.85-1.23-1.89-1.23-3.14c0-1.24,0.41-2.27,1.23-3.09c0.82-0.82,1.85-1.23,3.09-1.23
		c1.19,0,2.19,0.41,3.01,1.23c0.82,0.82,1.23,1.85,1.23,3.09c0,1.24-0.41,2.29-1.23,3.14c-0.82,0.85-1.82,1.27-3.01,1.27
		C223.13,201.26,222.1,200.84,221.28,199.99z"/>
</g>
</svg>
