<?xml version="1.0" encoding="utf-8"?>
<!-- Generator: Adobe Illustrator 28.2.0, SVG Export Plug-In . SVG Version: 6.00 Build 0)  -->
<svg version="1.1" id="Layer_1" xmlns="http://www.w3.org/2000/svg" xmlns:xlink="http://www.w3.org/1999/xlink" x="0px" y="0px"
	 viewBox="0 0 319.67 390.95" style="enable-background:new 0 0 319.67 390.95;" xml:space="preserve">
<style type="text/css">
	.st0{opacity:0.51;}
	.st1{fill:#010101;}
	.st2{fill:#B9B9B9;}
	.st3{fill:#747675;}
	.st4{fill:#575958;}
	.st5{fill:#F195BC;}
	.st6{fill:#BD6F99;}
	.st7{fill:#F9ED33;}
	.st8{fill:#C0B637;}
</style>
<g class="st0">
	<path class="st1" d="M107.64,223.34c0.05,0.33-0.03,1.13-0.24,2.38c-0.25,1.44-0.38,2.2-0.39,2.29
		c-6.85,59.27,24.57,117.97,64.74,159.7c2.4,2.48,6.77,3.18,10.6,3.19c16.32,0.04,26.71,0.05,31.18,0.04
		c6.33-0.03,9.44-3.19,9.35-9.5c-0.16-11.13-5.66-20.76-17.59-22.98c-0.71-0.13-1.17-0.55-1.38-1.24l-1.38-4.63
		c-0.21-0.71,0.04-0.99,0.77-0.83c8.91,2.02,18.38,2.73,28.41,2.12c0.35-0.02,0.56,0.15,0.61,0.5c1.65,10.94,5.63,21.22,11.92,30.85
		c3.18,4.86,6.98,5.65,12.95,5.61c11.11-0.07,22.23-0.16,33.34-0.26c4.71-0.04,7.75-2.58,9.12-7.63c0.24-0.88,0.25-3.07,0.02-6.58
		c-0.74-11.75-7.41-19.23-19.64-21.07c-0.52-0.08-0.88-0.36-1.08-0.85c-2.56-6.33-4.02-13.15-4.37-20.45
		c-0.02-0.34,0.13-0.58,0.44-0.73c16.01-7.45,27.41-19.42,34.2-35.91c7.29-17.7,4.21-36.67-3.18-54.63
		c-0.12-0.29-0.11-0.56,0.03-0.83c5.53-10.78,10.58-21.15,12.85-32.81c1.35-7,1.92-18.68-7.43-19.96
		c-3.06-0.42-7.61-0.03-13.66,1.18c-10.1,2.01-20.87,5.17-32.31,9.48c-0.31,0.12-0.6,0.1-0.89-0.05c-4.23-2.13-8.62-3.77-13.16-4.93
		c-0.33-0.09-0.54-0.29-0.63-0.61c-8.16-28.01-26.71-44.4-55.66-49.17c-0.33-0.05-0.52-0.25-0.55-0.59
		c-0.63-6.13,2.36-12.45,7.95-14.92c6.44-2.84,16.14-2.87,20.07-3.27c28.29-2.88,50.73-20.5,56-49.23
		c1.99-10.84,1.24-24.77-2.81-35.43c-7.47-19.72-21.51-35.12-42.02-40.73c-17.91-4.89-30.47,11.84-24.31,28.41
		c2.64,7.1,9.79,18.53,18.51,18.76c2.34,0.06,5.28-0.47,7.98,0.21c13.76,3.42,15.47,19.84,9.83,30.61
		c-1.41,2.69-3.79,5.45-7.16,8.29c-10.71,9.03-22.32,12.07-36.17,13.19c-2.59,0.21-5.93,1.07-10.02,2.57
		c-18.23,6.67-24.84,22.81-22.34,41.31c0.05,0.33-0.1,0.52-0.44,0.56c-9.29,1.14-17.75,3.82-25.38,8.04
		c-0.27,0.15-0.44,0.07-0.53-0.23c-1.83-6.45-5.8-11.18-11.93-14.19c-6.86-3.37-14.44-4.55-21.57-1.31
		c-5.36,2.44-7.56,6.39-9.85,12.35c-6.38,16.62-14.56,33.01-24.95,47.46c-8.36,11.6-2.99,22.75,8.67,28.7
		c7.91,4.03,16.03,3.74,22.88-2.47C107.37,222.81,107.57,222.89,107.64,223.34 M272.3,82.33c-7.26,23.36-27.22,36.97-51.06,39.09
		c-1.55,0.14-3.35,0.31-5.4,0.51c-1.85,0.18-3.67,0.29-5.45,0.32c-12.41,1.74-20.67,7.84-21.02,21.25
		c-0.01,0.29-0.24,0.52-0.53,0.53l-2.6,0.03l-4.37-0.05l-6.21,0.07c-0.34,0.01-0.54-0.16-0.6-0.5
		c-2.65-16.74,4.57-31.91,21.62-36.79c2.66-0.76,7.38-1.54,14.16-2.34c12.58-1.49,23.61-6.55,33.08-15.2
		c2.94-2.68,5.13-5.46,6.56-8.34c8.72-17.45,0.43-40-21.7-38.04c-1.53,0.13-2.8-0.17-3.81-0.9c-8.3-6.06-12.18-14.32-11.65-24.79
		c0.02-0.39,0.08-0.57,0.18-0.56c0.57-3.08,1.98-5.68,4.24-7.8c4.55-4.01,9.54-4.63,15.55-2.95c11.27,3.15,20.53,9.5,27.78,19.04
		C273.97,41.88,277.7,61.02,272.3,82.33 M138.49,152.53c1.23,4.23,3.52,5.93,6.86,5.1c0.52-0.13,1.63-0.67,3.34-1.62
		c1.25-0.69,2.42-1.13,3.52-1.32c4.05-2.09,8.64-3.54,13.77-4.35c10.17-1.63,19.79-1.72,28.88-0.28
		c25.64,4.05,42.46,18.33,50.45,42.84c0.08,0.24-0.12,0.49-0.37,0.45l-5.22-0.73c-14.02-1.07-27.29,1.2-39.82,6.83
		c-0.32,0.14-0.64,0.15-0.97,0.04c-11.3-3.94-22.92-7.64-34.89-9.6c-3.77-0.62-7.42-0.67-10.96-0.15
		c-7.02,1.03-7.81,8.87-7.28,14.86l0.96,7.13c0.03,0.24-0.09,0.48-0.3,0.59c-7.27,3.84-15.79,4.81-23.47,1.92
		c-9.08-3.41-12.81-11.13-11.2-23.18l0.5-6.31c0.11-1.31-0.24-1.44-1.03-0.39c-2.47,3.28-3.93,7.11-4.36,11.49
		c-0.33,5.13,0.58,9.93,2.73,14.38c0.15,0.32,0.15,0.64,0,0.95c-3.3,7.09-9.16,13.31-17.76,11.9c-0.23-0.04-0.32-0.31-0.16-0.48
		c2.2-2.27,3.43-4.95,3.68-8.04c0.11-1.41-0.17-1.49-0.86-0.26c-1.53,2.76-4.15,4.97-7.87,6.62c-0.31,0.13-0.62,0.12-0.91-0.05
		l-2.38-1.37c-0.2-0.12-0.22-0.41-0.04-0.56c3.29-2.71,5.07-5.98,5.33-9.8c0.09-1.31-0.18-1.38-0.81-0.23
		c-1.72,3.14-4.44,5.39-8.17,6.76c-0.32,0.12-0.58,0.04-0.79-0.23c-2.11-2.79-2.89-5.71-2.33-8.77c0.68-3.69,2.35-6.91,5.01-9.65
		c10.43-15.94,18.86-32.76,25.28-50.45c2.32-3.46,5.24-5.5,8.76-6.11C124.44,138.91,135.4,143.63,138.49,152.53 M314.27,197.34
		c0.68,5.87-0.12,12.27-2.39,19.2c-2.89,8.8-6.77,17.2-11.64,25.2c-0.22,0.37-0.22,0.83,0.01,1.2c1.53,2.47,2.76,5.08,3.68,7.84
		c4.26,12.73,6.47,27.34,2.21,40.38c-3.55,11.61-11.78,23.78-21.63,30.87c-10.13,7.31-22.47,12.46-35.5,14.39
		c-27.07,3.99-55.76,0.77-76.09-19.14c-5.43-5.32-9.3-11.31-11.61-17.98c-7.76-17.28-3.75-39.55,4.03-56.14
		c0.2-0.42,0.17-0.92-0.08-1.33c-6.21-10.05-10.77-20.62-13.66-31.73c-1.13-4.35-1.26-8.69-0.37-13.04
		c0.49-1.54,1.35-2.37,2.57-2.49c3.97-0.38,7.89-0.18,11.76,0.61c11.39,2.31,22.55,5.57,33.49,9.8c0.32,0.13,0.63,0.12,0.93-0.03
		c18.85-8.98,37.91-10.04,57.17-3.17c12.01,6.05,22.23,14.29,30.67,24.72c0.06,0.07,0.14,0.08,0.24,0.03
		c0.1-0.05,0.12-0.13,0.06-0.24c-4.5-7.61-10.03-14.39-16.6-20.32l-2.25-1.67c-0.24-0.18-0.19-0.57,0.1-0.67
		c11.44-4.18,24.34-8.17,36.89-9.51C309.86,193.74,313.23,193.25,314.27,197.34 M132.57,221.67c5.43-0.46,10.48-2.01,15.16-4.66
		c0.29-0.17,0.49-0.09,0.6,0.24c2.85,8.54,6.64,16.82,11.35,24.85c0.18,0.31,0.21,0.63,0.1,0.96c-0.51,1.54-1.05,3.04-1.62,4.49
		c-3.57,9.11-5.55,18.64-5.93,28.6c-0.48,12.72,2.65,24.45,9.39,35.2c18.89,27.38,53.58,34.7,84.6,30.46
		c8.36-1.14,15.56-2.59,22.81-5.92c0.38-0.17,0.82,0.09,0.84,0.5c0.39,6.69,1.79,13.02,4.2,18.97c0.12,0.3-0.04,0.64-0.35,0.74
		c-7.23,2.19-12.69,6.57-16.36,13.13c-1.15,2.06-0.95,2.2,0.62,0.43c5.27-5.95,13.27-10.24,21.64-9.29
		c8.69,0.99,13.66,5.82,14.9,14.51c0.61,4.32,1.32,8.77-2.49,10.69c-0.42,0.21-0.93-0.04-1.01-0.5c-0.85-4.64-3-7.93-6.45-9.88
		c-1.69-0.95-1.93-0.67-0.72,0.84c1.73,2.18,2.61,5.2,2.66,9.06c0,0.44-0.22,0.66-0.66,0.66h-2.69c-0.39,0-0.62-0.19-0.69-0.58
		c-0.84-4.77-3.13-8.18-6.86-10.22c-1.21-0.67-1.4-0.45-0.57,0.66c1.95,2.57,2.93,5.78,2.94,9.64c0,0.29-0.24,0.53-0.53,0.53
		c-14.55,0.11-22.37,0.13-23.47,0.07c-4.89-0.24-6.73-4.99-8.68-8.48c-4.13-7.4-6.84-15.28-8.11-23.63
		c-0.06-0.4,0.22-0.78,0.63-0.84c4.59-0.67,8.44-1.81,11.54-3.4c2.63-1.34,2.47-1.88-0.47-1.62c-7.74,0.69-15.94,1.09-24.61,1.22
		c-9.35,0.14-18.2-1.23-26.53-4.12c-0.47-0.16-0.7,0-0.7,0.49c-0.03,4.39,0.68,8.68,2.12,12.85c0.08,0.23-0.06,0.48-0.3,0.53
		c-6.85,1.61-12.26,5.13-16.22,10.55c-1.28,1.75-1.09,1.93,0.56,0.53c5.27-4.44,11.66-6.65,19.19-6.62
		c11.3,0.04,15.51,9.67,15.53,19.49c0.01,1.04-0.4,1.88-1.21,2.53l-0.27,0.22c-0.76,0.6-1.21,0.43-1.36-0.51
		c-0.78-4.83-3.19-8.28-7.22-10.36c-0.54-0.28-0.65-0.16-0.33,0.35c2.49,4.08,3.49,7.61,2.99,10.58c-0.05,0.31-0.23,0.47-0.55,0.47
		h-2.64c-0.41,0-0.65-0.21-0.72-0.62c-0.79-4.79-2.97-8.22-6.56-10.29c-1.37-0.79-1.6-0.55-0.67,0.74c1.95,2.69,2.81,5.89,2.57,9.58
		c-0.03,0.35-0.22,0.53-0.58,0.53c-5.53,0-12.19-0.01-19.98-0.04c-5.26-0.01-7.52-2.79-11.09-6.82
		c-29.91-33.71-54.2-75.74-58.63-120.36c-1.41-14.16-0.64-28.28,2.32-42.36c0.07-0.34,0.25-0.41,0.53-0.21
		C119.91,220.02,125.92,221.83,132.57,221.67L132.57,221.67z"/>
	<path class="st2" d="M217.74,8.82l1.14,3.08c0.18,0.51,0.79,0.71,1.25,0.42c2.14-1.37,4.53-2.24,7.18-2.61
		c5.93-0.83,15.5,4.67,19.87,8.07c16.32,12.68,24.79,29.35,25.41,50c0.03,1.1-0.05,3.52-0.25,7.27c-0.13,2.41-0.14,4.83-0.04,7.28
		c5.41-21.31,1.67-40.45-11.23-57.42c-7.25-9.54-16.51-15.89-27.78-19.04C227.28,4.19,222.29,4.81,217.74,8.82L217.74,8.82z"/>
	<path class="st3" d="M213.5,16.62c0.1,0.45,0.33,0.64,0.69,0.59c0.1-0.02,0.18-0.07,0.24-0.14c1.21-1.51,2.53-2.69,3.98-3.54
		c0.55-0.32,0.95-0.19,1.21,0.38c4.01,8.71,10.25,15.78,18.71,21.22c3.98,2.55,9.18,4.65,12.41,7.36c8.3,6.98,10.41,19.18,8.6,29.5
		c-2.68,15.21-11.33,25.81-25.96,31.8c-7.57,3.1-15.15,4.62-22.83,6.07c-3.55,0.67-6.32,1.43-8.29,2.27
		c-11.19,4.73-19.95,11.62-20.42,24.79c-0.09,2.37-0.08,4.74,0.03,7.09l4.37,0.05c-0.24-7.76,1.71-14.35,8.7-18.5
		c4.87-2.89,10.02-3.99,15.45-3.31c1.78-0.03,3.6-0.14,5.45-0.32c2.05-0.2,3.85-0.37,5.4-0.51c23.84-2.12,43.8-15.73,51.06-39.09
		c-0.1-2.45-0.09-4.87,0.04-7.28c0.2-3.75,0.28-6.17,0.25-7.27c-0.62-20.65-9.09-37.32-25.41-50c-4.37-3.4-13.94-8.9-19.87-8.07
		c-2.65,0.37-5.04,1.24-7.18,2.61c-0.46,0.29-1.07,0.09-1.25-0.42l-1.14-3.08C215.48,10.94,214.07,13.54,213.5,16.62L213.5,16.62z"
		/>
	<path class="st4" d="M213.5,16.62c-0.1-0.01-0.16,0.17-0.18,0.56c-0.53,10.47,3.35,18.73,11.65,24.79c1.01,0.73,2.28,1.03,3.81,0.9
		c22.13-1.96,30.42,20.59,21.7,38.04c-1.43,2.88-3.62,5.66-6.56,8.34c-9.47,8.65-20.5,13.71-33.08,15.2
		c-6.78,0.8-11.5,1.58-14.16,2.34c-17.05,4.88-24.27,20.05-21.62,36.79c0.06,0.34,0.26,0.51,0.6,0.5l6.21-0.07
		c-0.11-2.35-0.12-4.72-0.03-7.09c0.47-13.17,9.23-20.06,20.42-24.79c1.97-0.84,4.74-1.6,8.29-2.27c7.68-1.45,15.26-2.97,22.83-6.07
		c14.63-5.99,23.28-16.59,25.96-31.8c1.81-10.32-0.3-22.52-8.6-29.5c-3.23-2.71-8.43-4.81-12.41-7.36
		c-8.46-5.44-14.7-12.51-18.71-21.22c-0.26-0.57-0.66-0.7-1.21-0.38c-1.45,0.85-2.77,2.03-3.98,3.54c-0.06,0.07-0.14,0.12-0.24,0.14
		C213.83,17.26,213.6,17.07,213.5,16.62L213.5,16.62z"/>
	<path class="st2" d="M186.24,144.06l2.6-0.03c0.29-0.01,0.52-0.24,0.53-0.53c0.35-13.41,8.61-19.51,21.02-21.25
		c-5.43-0.68-10.58,0.42-15.45,3.31C187.95,129.71,186,136.3,186.24,144.06L186.24,144.06z"/>
	<path class="st2" d="M106.85,146.57c0.49,0.05,0.86-0.04,1.11-0.27c3.24-2.99,7.1-4.38,11.58-4.19
		c7.83,0.33,14.15,3.81,18.95,10.42c-3.09-8.9-14.05-13.62-22.88-12.07C112.09,141.07,109.17,143.11,106.85,146.57L106.85,146.57z"
		/>
	<path class="st3" d="M106.85,146.57c-6.42,17.69-14.85,34.51-25.28,50.45c2.41,1.79,4.87,3.12,7.37,3.99
		c4.12,1.45,8.08,1.21,11.88-0.72c1.99-1,3.89-3.07,6.08-4.44c0.43-4.38,1.89-8.21,4.36-11.49c0.79-1.05,1.14-0.92,1.03,0.39
		l-0.5,6.31c1.55,3.59,3.29,6.73,5.23,9.4c1.95,2.67,4.15,4.58,6.6,5.73c2.74,1.27,5.72,1.85,8.93,1.72
		c4.8-0.18,9.22-1.28,13.25-3.31c-0.53-5.99,0.26-13.83,7.28-14.86c3.54-0.52,7.19-0.47,10.96,0.15c11.97,1.96,23.59,5.66,34.89,9.6
		c0.33,0.11,0.65,0.1,0.97-0.04c12.53-5.63,25.8-7.9,39.82-6.83c-4.01-10.65-9.97-19.58-17.86-26.78
		c-10.59-9.67-23.29-14.78-38.09-15.32c-9.77-0.36-20.29,1.03-31.56,4.17c-1.1,0.19-2.27,0.63-3.52,1.32
		c-1.71,0.95-2.82,1.49-3.34,1.62c-3.34,0.83-5.63-0.87-6.86-5.1c-4.8-6.61-11.12-10.09-18.95-10.42c-4.48-0.19-8.34,1.2-11.58,4.19
		C107.71,146.53,107.34,146.62,106.85,146.57L106.85,146.57z"/>
	<path class="st2" d="M152.21,154.69c11.27-3.14,21.79-4.53,31.56-4.17c14.8,0.54,27.5,5.65,38.09,15.32
		c7.89,7.2,13.85,16.13,17.86,26.78l5.22,0.73c0.25,0.04,0.45-0.21,0.37-0.45c-7.99-24.51-24.81-38.79-50.45-42.84
		c-9.09-1.44-18.71-1.35-28.88,0.28C160.85,151.15,156.26,152.6,152.21,154.69L152.21,154.69z"/>
	<path class="st4" d="M111.79,191.06c-1.61,12.05,2.12,19.77,11.2,23.18c7.68,2.89,16.2,1.92,23.47-1.92
		c0.21-0.11,0.33-0.35,0.3-0.59l-0.96-7.13c-4.03,2.03-8.45,3.13-13.25,3.31c-3.21,0.13-6.19-0.45-8.93-1.72
		c-2.45-1.15-4.65-3.06-6.6-5.73C115.08,197.79,113.34,194.65,111.79,191.06L111.79,191.06z"/>
	<path class="st2" d="M271.52,205.97c6.94-2.25,13.78-4.33,20.52-6.24c3.31-0.94,6.64-1.77,10-2.49c4.03-0.87,8.11-0.83,12.23,0.1
		c-1.04-4.09-4.4-3.6-8.01-3.22c-12.55,1.34-25.45,5.33-36.89,9.51c-0.29,0.1-0.34,0.49-0.1,0.67L271.52,205.97L271.52,205.97z"/>
	<path class="st2" d="M151.23,197.06c2.27-0.17,4.45-0.26,6.55-0.29c2.1-0.03,4.26,0.21,6.48,0.7c10.18,2.27,19.73,5.22,28.65,8.87
		c3.11,1.27,5.16,2.09,6.17,2.48c0.31,0.13,0.62,0.12,0.93-0.03c16.89-8.03,34.71-10.46,53.46-7.29c0.66,0.11,1.77,0.44,3.34,0.98
		c0.44,0.15,0.55-0.08,0.34-0.7c-19.26-6.87-38.32-5.81-57.17,3.17c-0.3,0.15-0.61,0.16-0.93,0.03c-10.94-4.23-22.1-7.49-33.49-9.8
		c-3.87-0.79-7.79-0.99-11.76-0.61C152.58,194.69,151.71,195.52,151.23,197.06L151.23,197.06z"/>
	<path class="st4" d="M81.57,197.02c-2.66,2.74-4.33,5.96-5.01,9.65c-0.56,3.06,0.22,5.98,2.33,8.77c0.21,0.27,0.47,0.35,0.79,0.23
		c3.73-1.37,6.45-3.62,8.17-6.76c0.63-1.15,0.9-1.08,0.81,0.23c-0.26,3.82-2.04,7.09-5.33,9.8c-0.18,0.15-0.16,0.44,0.04,0.56
		l2.38,1.37c0.29,0.17,0.6,0.18,0.91,0.05c3.72-1.65,6.34-3.86,7.87-6.62c0.69-1.23,0.97-1.15,0.86,0.26
		c-0.25,3.09-1.48,5.77-3.68,8.04c-0.16,0.17-0.07,0.44,0.16,0.48c8.6,1.41,14.46-4.81,17.76-11.9c0.15-0.31,0.15-0.63,0-0.95
		c-2.15-4.45-3.06-9.25-2.73-14.38c-2.19,1.37-4.09,3.44-6.08,4.44c-3.8,1.93-7.76,2.17-11.88,0.72
		C86.44,200.14,83.98,198.81,81.57,197.02L81.57,197.02z"/>
	<path class="st3" d="M271.52,205.97c6.57,5.93,12.1,12.71,16.6,20.32c0.06,0.11,0.04,0.19-0.06,0.24c-0.1,0.05-0.18,0.04-0.24-0.03
		c-8.44-10.43-18.66-18.67-30.67-24.72c0.21,0.62,0.1,0.85-0.34,0.7c-1.57-0.54-2.68-0.87-3.34-0.98
		c-18.75-3.17-36.57-0.74-53.46,7.29c-0.31,0.15-0.62,0.16-0.93,0.03c-1.01-0.39-3.06-1.21-6.17-2.48
		c-8.92-3.65-18.47-6.6-28.65-8.87c-2.22-0.49-4.38-0.73-6.48-0.7c-2.1,0.03-4.28,0.12-6.55,0.29c-0.89,4.35-0.76,8.69,0.37,13.04
		c2.89,11.11,7.45,21.68,13.66,31.73c0.25,0.41,0.28,0.91,0.08,1.33c-7.78,16.59-11.79,38.86-4.03,56.14
		c6.06,9.07,12.86,15.97,20.4,20.7c9.35,5.87,20.79,9.92,34.33,12.15c3.13,0.51,7,0.81,11.59,0.9c6.23,0.11,10.12,0.08,11.67-0.11
		c21.89-2.67,43.52-11.44,57.65-28.98c2.84-3.52,5.99-8.59,9.19-12.8c4.26-13.04,2.05-27.65-2.21-40.38
		c-0.92-2.76-2.15-5.37-3.68-7.84c-0.23-0.37-0.23-0.83-0.01-1.2c4.87-8,8.75-16.4,11.64-25.2c2.27-6.93,3.07-13.33,2.39-19.2
		c-4.12-0.93-8.2-0.97-12.23-0.1c-3.36,0.72-6.69,1.55-10,2.49C285.3,201.64,278.45,203.72,271.52,205.97 M284.35,215.11
		c-2.32-2.72-2.04-6.79,0.82-8.96c3.56-2.72,8.58-4.82,15.06-6.3c16.4-3.73,7.72,20.31,4.42,26.37c-1.4,2.55-2.8,4.11-4.21,4.65
		c-3.54,1.37-6.51-0.48-8.28-3.91C289.8,222.4,287.41,218.68,284.35,215.11 M183.04,217.79c-3.21,3.43-5.76,7.05-8.31,11.51
		c-1.92,3.35-4.97,5.07-8.45,3.55c-1.38-0.61-2.71-2.22-4-4.83c-3.04-6.2-10.68-30.59,5.54-26.16c6.41,1.75,11.34,4.07,14.79,6.94
		C185.37,211.09,185.48,215.17,183.04,217.79 M220.07,286.43c-4.41,0.05-8.65-2.73-10.26-6.85c-0.37-0.93-0.1-1.18,0.8-0.73
		c2.79,1.39,6.32,2.54,9.39,2.5c3.08-0.04,6.58-1.27,9.34-2.73c0.89-0.46,1.16-0.22,0.82,0.72
		C228.64,283.5,224.47,286.38,220.07,286.43 M266.18,288.19c-4.11,0.02-8.04-2.59-9.52-6.44c-0.34-0.87-0.09-1.1,0.75-0.68
		c2.59,1.31,5.87,2.4,8.74,2.38s6.13-1.15,8.71-2.49c0.83-0.43,1.08-0.2,0.76,0.67C274.2,285.5,270.29,288.16,266.18,288.19
		 M244.49,308.37c-0.13,0-0.22,0.02-0.26,0.06c-4.6,4.38-12.37,3.98-15.07-2.3c-0.54-1.25-0.26-1.47,0.84-0.66
		c3.52,2.6,6.87,3.36,10.66,0.64c0.33-0.24,0.27-0.74-0.11-0.89c-2.44-0.94-4.29-2.49-5.55-4.65c-3-5.16,6.92-5.97,9.45-5.98
		c2.53,0,12.45,0.75,9.48,5.92c-1.24,2.17-3.08,3.73-5.52,4.69c-0.38,0.15-0.44,0.65-0.1,0.89c3.8,2.7,7.15,1.92,10.65-0.71
		c1.1-0.81,1.38-0.6,0.85,0.66c-2.67,6.3-10.43,6.74-15.06,2.39C244.71,308.39,244.62,308.37,244.49,308.37L244.49,308.37z"/>
	<path class="st1" d="M284.35,215.11c3.06,3.57,5.45,7.29,7.81,11.85c1.77,3.43,4.74,5.28,8.28,3.91c1.41-0.54,2.81-2.1,4.21-4.65
		c3.3-6.06,11.98-30.1-4.42-26.37c-6.48,1.48-11.5,3.58-15.06,6.3C282.31,208.32,282.03,212.39,284.35,215.11 M294.74,221.22
		l-6.86-9.7c-0.36-0.51-0.23-1.21,0.29-1.56c3.29-2.19,6.92-3.76,10.91-4.71l4.47-0.91c0.7-0.14,1.35,0.39,1.36,1.1
		c0.02,7.66-1.95,14.52-5.91,20.57c-0.42,0.64-1.36,0.6-1.72-0.07L294.74,221.22L294.74,221.22z"/>
	<path class="st1" d="M174.73,229.3c2.55-4.46,5.1-8.08,8.31-11.51c2.44-2.62,2.33-6.7-0.43-8.99c-3.45-2.87-8.38-5.19-14.79-6.94
		c-16.22-4.43-8.58,19.96-5.54,26.16c1.29,2.61,2.62,4.22,4,4.83C169.76,234.37,172.81,232.65,174.73,229.3 M168.18,207.11
		c4.15,1.11,7.89,2.92,11.23,5.41c0.5,0.37,0.59,1.08,0.21,1.57l-7.02,9.08l-2.96,4.89c-0.41,0.67-1.38,0.66-1.77-0.02
		c-3.61-6.22-5.28-13.1-5.01-20.64c0.03-0.83,0.81-1.42,1.61-1.22L168.18,207.11L168.18,207.11z"/>
	<path class="st5" d="M299.08,205.25c0.02,4.99-0.88,11.88-4.34,15.97l2.54,4.72c0.36,0.67,1.3,0.71,1.72,0.07
		c3.96-6.05,5.93-12.91,5.91-20.57c-0.01-0.71-0.66-1.24-1.36-1.1L299.08,205.25L299.08,205.25z"/>
	<path class="st6" d="M294.74,221.22c3.46-4.09,4.36-10.98,4.34-15.97c-3.99,0.95-7.62,2.52-10.91,4.71
		c-0.52,0.35-0.65,1.05-0.29,1.56L294.74,221.22L294.74,221.22z"/>
	<path class="st5" d="M172.6,223.17c-2.13-2.56-3.38-5.58-3.76-9.07c-0.25-2.31-0.47-4.64-0.66-6.99l-3.71-0.93
		c-0.8-0.2-1.58,0.39-1.61,1.22c-0.27,7.54,1.4,14.42,5.01,20.64c0.39,0.68,1.36,0.69,1.77,0.02L172.6,223.17L172.6,223.17z"/>
	<path class="st6" d="M168.18,207.11c0.19,2.35,0.41,4.68,0.66,6.99c0.38,3.49,1.63,6.51,3.76,9.07l7.02-9.08
		c0.38-0.49,0.29-1.2-0.21-1.57C176.07,210.03,172.32,208.22,168.18,207.11L168.18,207.11z"/>
	<path class="st4" d="M161.62,311.35c-11.5-3.49-20.55-9.62-27.14-18.39c-4.53-6.03-7.99-12.15-10.36-18.34
		c-5.31-13.82-7.96-29.06-7.95-45.72c0-2.55,0.96-4.38,2.89-5.49c0.95-0.55,2.65-0.79,5.1-0.73c2.84,0.07,5.64-0.27,8.41-1.01
		c-6.65,0.16-12.66-1.65-18.04-5.44c-0.28-0.2-0.46-0.13-0.53,0.21c-2.96,14.08-3.73,28.2-2.32,42.36
		c4.43,44.62,28.72,86.65,58.63,120.36c3.57,4.03,5.83,6.81,11.09,6.82c7.79,0.03,14.45,0.04,19.98,0.04c0.36,0,0.55-0.18,0.58-0.53
		c0.24-3.69-0.62-6.89-2.57-9.58c-0.93-1.29-0.7-1.53,0.67-0.74c3.59,2.07,5.77,5.5,6.56,10.29c0.07,0.41,0.31,0.62,0.72,0.62h2.64
		c0.32,0,0.5-0.16,0.55-0.47c0.5-2.97-0.5-6.5-2.99-10.58c-0.32-0.51-0.21-0.63,0.33-0.35c4.03,2.08,6.44,5.53,7.22,10.36
		c0.15,0.94,0.6,1.11,1.36,0.51l0.27-0.22c0.81-0.65,1.22-1.49,1.21-2.53c-0.02-9.82-4.23-19.45-15.53-19.49
		c-7.53-0.03-13.92,2.18-19.19,6.62c-1.65,1.4-1.84,1.22-0.56-0.53c3.96-5.42,9.37-8.94,16.22-10.55c0.24-0.05,0.38-0.3,0.3-0.53
		c-1.44-4.17-2.15-8.46-2.12-12.85c0-0.49,0.23-0.65,0.7-0.49c8.33,2.89,17.18,4.26,26.53,4.12c8.67-0.13,16.87-0.53,24.61-1.22
		c2.94-0.26,3.1,0.28,0.47,1.62c-3.1,1.59-6.95,2.73-11.54,3.4c-0.41,0.06-0.69,0.44-0.63,0.84c1.27,8.35,3.98,16.23,8.11,23.63
		c1.95,3.49,3.79,8.24,8.68,8.48c1.1,0.06,8.92,0.04,23.47-0.07c0.29,0,0.53-0.24,0.53-0.53c-0.01-3.86-0.99-7.07-2.94-9.64
		c-0.83-1.11-0.64-1.33,0.57-0.66c3.73,2.04,6.02,5.45,6.86,10.22c0.07,0.39,0.3,0.58,0.69,0.58h2.69c0.44,0,0.66-0.22,0.66-0.66
		c-0.05-3.86-0.93-6.88-2.66-9.06c-1.21-1.51-0.97-1.79,0.72-0.84c3.45,1.95,5.6,5.24,6.45,9.88c0.08,0.46,0.59,0.71,1.01,0.5
		c3.81-1.92,3.1-6.37,2.49-10.69c-1.24-8.69-6.21-13.52-14.9-14.51c-8.37-0.95-16.37,3.34-21.64,9.29
		c-1.57,1.77-1.77,1.63-0.62-0.43c3.67-6.56,9.13-10.94,16.36-13.13c0.31-0.1,0.47-0.44,0.35-0.74c-2.41-5.95-3.81-12.28-4.2-18.97
		c-0.02-0.41-0.46-0.67-0.84-0.5c-7.25,3.33-14.45,4.78-22.81,5.92C215.2,346.05,180.51,338.73,161.62,311.35L161.62,311.35z"/>
	<path class="st3" d="M132.57,221.67c-2.77,0.74-5.57,1.08-8.41,1.01c-2.45-0.06-4.15,0.18-5.1,0.73c-1.93,1.11-2.89,2.94-2.89,5.49
		c-0.01,16.66,2.64,31.9,7.95,45.72c2.37,6.19,5.83,12.31,10.36,18.34c6.59,8.77,15.64,14.9,27.14,18.39
		c-6.74-10.75-9.87-22.48-9.39-35.2c0.38-9.96,2.36-19.49,5.93-28.6c0.57-1.45,1.11-2.95,1.62-4.49c0.11-0.33,0.08-0.65-0.1-0.96
		c-4.71-8.03-8.5-16.31-11.35-24.85c-0.11-0.33-0.31-0.41-0.6-0.24C143.05,219.66,138,221.21,132.57,221.67L132.57,221.67z"/>
	<path class="st7" d="M49.26,301.55c-0.01,0.06,0.01,0.11,0.05,0.15c0.15,0.16,0.3,0.06,0.45-0.3c7.57-18.33,17.9-35.5,30.99-51.53
		c3.5-4.28,7.53-8.95,12.09-14.02c2.33-2.58,2.08-2.86-0.75-0.84C70.51,250.46,52.88,274.78,49.26,301.55L49.26,301.55z"/>
	<path class="st1" d="M220,281.35c-3.07,0.04-6.6-1.11-9.39-2.5c-0.9-0.45-1.17-0.2-0.8,0.73c1.61,4.12,5.85,6.9,10.26,6.85
		c4.4-0.05,8.57-2.93,10.09-7.09c0.34-0.94,0.07-1.18-0.82-0.72C226.58,280.08,223.08,281.31,220,281.35L220,281.35z"/>
	<path class="st1" d="M266.18,288.19c4.11-0.03,8.01-2.69,9.44-6.56c0.32-0.87,0.07-1.1-0.76-0.67c-2.58,1.34-5.84,2.47-8.71,2.49
		s-6.15-1.07-8.74-2.38c-0.84-0.42-1.09-0.19-0.75,0.68C258.15,285.6,262.08,288.21,266.18,288.19L266.18,288.19z"/>
	<path class="st4" d="M161.31,299.3c2.31,6.67,6.18,12.66,11.61,17.98c20.33,19.91,49.02,23.13,76.09,19.14
		c13.03-1.93,25.37-7.08,35.5-14.39c9.85-7.09,18.08-19.26,21.63-30.87c-3.2,4.21-6.35,9.28-9.19,12.8
		c-14.13,17.54-35.76,26.31-57.65,28.98c-1.55,0.19-5.44,0.22-11.67,0.11c-4.59-0.09-8.46-0.39-11.59-0.9
		c-13.54-2.23-24.98-6.28-34.33-12.15C174.17,315.27,167.37,308.37,161.31,299.3L161.31,299.3z"/>
	<path class="st1" d="M244.45,294.59c-2.53,0.01-12.45,0.82-9.45,5.98c1.26,2.16,3.11,3.71,5.55,4.65c0.38,0.15,0.44,0.65,0.11,0.89
		c-3.79,2.72-7.14,1.96-10.66-0.64c-1.1-0.81-1.38-0.59-0.84,0.66c2.7,6.28,10.47,6.68,15.07,2.3c0.04-0.04,0.13-0.06,0.26-0.06
		c0.13,0,0.22,0.02,0.26,0.06c4.63,4.35,12.39,3.91,15.06-2.39c0.53-1.26,0.25-1.47-0.85-0.66c-3.5,2.63-6.85,3.41-10.65,0.71
		c-0.34-0.24-0.28-0.74,0.1-0.89c2.44-0.96,4.28-2.52,5.52-4.69C256.9,295.34,246.98,294.59,244.45,294.59 M244.94,297.67
		c-0.01-0.6,1.27-1.11,2.86-1.13c1.6-0.02,2.89,0.45,2.89,1.05c0.01,0.6-1.27,1.11-2.86,1.13
		C246.24,298.74,244.95,298.27,244.94,297.67L244.94,297.67z"/>
	<path class="st2" d="M244.94,297.67c0.01,0.6,1.3,1.07,2.89,1.05c1.59-0.02,2.87-0.53,2.86-1.13c-0.01-0.6-1.3-1.07-2.89-1.05
		C246.21,296.56,244.93,297.07,244.94,297.67L244.94,297.67z"/>
	<path class="st7" d="M41.47,328.31c-0.62,6.79,0.1,13.53,2.14,20.25c0.07,0.25,0.19,0.41,0.36,0.48c0.17,0.07,0.36-0.03,0.39-0.22
		c0.82-6.72,1.54-13.41,2.14-20.05c0.61-6.64,1.11-13.34,1.52-20.11c0.01-0.19-0.16-0.33-0.34-0.28c-0.18,0.04-0.33,0.17-0.44,0.4
		C44.01,315.02,42.08,321.53,41.47,328.31L41.47,328.31z"/>
	<path class="st7" d="M21.18,329.13c1.92,1.35,4.13,3.33,6.64,5.92c0.26,0.27,0.71,0.16,0.83-0.2c0.9-2.88-3.04-7.67-5.08-9.1
		c-2.03-1.44-7.87-3.56-10.27-1.74c-0.31,0.22-0.25,0.69,0.09,0.84C16.67,326.35,19.27,327.78,21.18,329.13L21.18,329.13z"/>
	<path class="st7" d="M67.73,327.67c-1.78,1.78-4.89,7.23-3.5,9.94c0.18,0.34,0.65,0.36,0.86,0.05c2.06-3.01,3.93-5.35,5.61-7.03
		c1.67-1.67,4.02-3.54,7.03-5.6c0.31-0.21,0.28-0.68-0.05-0.86C74.96,322.78,69.51,325.88,67.73,327.67L67.73,327.67z"/>
	<path class="st7" d="M2.36,366.55c-0.05,0.35,0.08,0.59,0.37,0.72c0.18,0.07,0.41,0.05,0.69-0.06c18.13-7.48,39.2-8.3,58.34-4.69
		c1.65,0.31,4.48,1.11,8.51,2.41c2.8,0.9,5.67,1.61,8.61,2.12c-5.35-3.12-11.04-5.3-17.07-6.55c-4.64-0.96-10.64-1.54-18.01-1.73
		c-7.1-0.19-14.36,0.24-21.79,1.29C14.6,361.1,8.05,363.26,2.36,366.55L2.36,366.55z"/>
	<path class="st7" d="M2.36,366.55c-0.85,0.93-1.51,1.75-1.99,2.44c-0.47,0.67-0.5,1.49-0.08,2.44c8.25,2.75,16.54,4.71,24.87,5.9
		c3.28,0.46,7.04,0.71,11.29,0.75c5.53,0.05,9.31-0.01,11.33-0.16c9.7-0.75,19.22-2.48,28.56-5.17c1.25-0.36,2.26-0.32,3.05,0.11
		c1.21-0.97,1.73-1.96,1.56-2.95c-0.19-1.11-0.88-2.06-2.07-2.86c-2.94-0.51-5.81-1.22-8.61-2.12c-4.03-1.3-6.86-2.1-8.51-2.41
		c-19.14-3.61-40.21-2.79-58.34,4.69c-0.28,0.11-0.51,0.13-0.69,0.06C2.45,367.14,2.32,366.9,2.36,366.55L2.36,366.55z"/>
	<path class="st8" d="M0.3,371.43c3.33,3.57,7.61,5.98,12.84,7.23c17.21,4.12,34.47,4.33,51.78,0.62
		c4.73-1.02,11.07-2.78,14.48-6.42c-0.79-0.43-1.8-0.47-3.05-0.11c-9.34,2.69-18.86,4.42-28.56,5.17c-2.02,0.15-5.8,0.21-11.33,0.16
		c-4.25-0.04-8.01-0.29-11.29-0.75C16.84,376.14,8.55,374.18,0.3,371.43L0.3,371.43z"/>
</g>
</svg>
