<?xml version="1.0" encoding="utf-8"?>
<!-- Generator: Adobe Illustrator 28.2.0, SVG Export Plug-In . SVG Version: 6.00 Build 0)  -->
<svg version="1.1" id="Layer_1" xmlns="http://www.w3.org/2000/svg" xmlns:xlink="http://www.w3.org/1999/xlink" x="0px" y="0px"
	 viewBox="0 0 167.56 135.99" style="enable-background:new 0 0 167.56 135.99;" xml:space="preserve">
<style type="text/css">
	.st0{fill:#2DA541;}
	.st1{fill:#8DE971;}
	.st2{fill:#7289C5;}
	.st3{fill-rule:evenodd;clip-rule:evenodd;fill:#F2441D;}
	.st4{opacity:0.3;}
	.st5{fill-rule:evenodd;clip-rule:evenodd;fill:#531250;}
	.st6{fill:#531250;}
	.st7{fill-rule:evenodd;clip-rule:evenodd;fill:#FFFFFF;}
	.st8{opacity:0.25;}
	.st9{fill-rule:evenodd;clip-rule:evenodd;fill:#F8A121;}
	.st10{opacity:0.21;}
	.st11{opacity:0.5;}
	.st12{fill:#65BC46;}
	.st13{fill:#4F9437;}
	.st14{fill:#3B5F2D;}
	.st15{fill:#253B1E;}
	.st16{fill:#D6D6D6;}
	.st17{fill:url(#SVGID_1_);}
	.st18{fill:#8D8C8C;}
	.st19{fill:#7E3142;}
	.st20{fill:#FFFFFF;}
	.st21{fill:#141414;}
	.st22{opacity:0.29;}
	.st23{fill:#0B0B0B;}
	.st24{fill:#609C42;}
	.st25{fill:#0D0D0D;}
	.st26{fill:url(#SVGID_00000055681055279408332930000017796055313935879820_);}
	.st27{fill:url(#SVGID_00000103230633564016743850000017810631722450045592_);}
	.st28{fill:url(#SVGID_00000178197572188289338170000012014797305501829286_);}
	.st29{fill:url(#SVGID_00000039116952522418213090000004728771015904243135_);}
	.st30{fill:url(#SVGID_00000062186820405538752160000007334097451822447255_);}
</style>
<g>
	<g>
		<g>
			<g>
				<path class="st2" d="M8.16,79.99c-12.95,16.21-7.7,32.79,16.96,44.78c29.34,13.35,64.02,13.11,93.44-0.07
					c22.17-9.93,26.91-22.34,16.17-33.27l-0.01,0.22c1.96,11.36-7.26,18.83-16.56,23.43C86.43,129.94,2.66,127.87,8.18,80.05
					L8.16,79.99z"/>
			</g>
			<g>
				<path class="st3" d="M73.03,39.65c43.92,2.63,53.82,18.27,56.2,29.35c0,0,0.01,0.07,0.05,0.19c2.22,7.94,4.5,15.87,5.5,22.53
					l-0.05-0.07c1.27,9.53-4.25,17.35-16.56,23.43C85.88,130.2-0.26,127.79,8.54,77.53c1.55-4.56,3.84-9.52,6.94-14.66
					C15.48,62.88,29.11,37.02,73.03,39.65z"/>
			</g>
			<g>
				<path class="st2" d="M71.76,60.53c19.5,0.32,45.29,9.31,44.97,18.93c-0.32,9.61-26.62,16.21-46.13,15.89
					c-19.5-0.32-44.4-10.85-44.09-20.47C26.85,65.26,52.26,60.21,71.76,60.53z"/>
			</g>
			<g class="st4">
				<path class="st5" d="M71.76,60.53c19.5,0.32,45.29,9.31,44.97,18.93c-0.29,8.89-22.82,15.2-41.63,15.84
					c14.51-1.39,33.07-7.22,33.27-13.4c0.24-7.21-22.89-14.88-37.52-15.11c-14.62-0.24-38.85,3.52-39.09,10.73
					c-0.17,5.12,10.96,11.98,22.66,15.6c-14.81-3.65-28.14-11.19-27.9-18.24C26.85,65.26,52.26,60.21,71.76,60.53"/>
			</g>
			<g>
				<path class="st6" d="M107.11,120.38c-10.88,2.92-24.25,4.44-37.44,4.11c-21.04-0.52-38.7-5.46-49.74-13.9
					c-5.13-3.92-8.83-8.6-11-13.9c-2.36-5.75-2.92-12.27-1.67-19.38l0.02-0.1l0.03-0.09c1.66-4.88,4.03-9.88,7.04-14.88
					c0.32-0.6,3.89-6.95,12.69-13.03c8.29-5.71,23-12.23,46.06-10.85c34.2,2.05,53.51,12.27,57.39,30.37l0.01,0.05
					c0,0,0.01,0.04,0.02,0.08l0.43,1.54c2.04,7.29,4.15,14.83,5.1,21.14l0.75,4.96l-0.65-0.85c-0.57,8.25-6.41,15.17-17.41,20.61
					C115.37,117.83,111.44,119.22,107.11,120.38z M9.8,77.86c-2.2,12.73,1.74,23.04,11.71,30.67c23.7,18.13,73.86,15.8,96.11,5.39
					c11.84-5.85,17.02-13.08,15.82-22.09l-0.18-1.37c-1.01-5.85-2.93-12.71-4.8-19.37l-0.43-1.55c-0.04-0.14-0.06-0.24-0.07-0.29
					c-3.62-16.81-22.12-26.34-55-28.31c-22.23-1.33-36.36,4.87-44.3,10.31c-8.59,5.88-11.99,12.17-12.03,12.23l-0.04,0.06
					C13.68,68.36,11.4,73.18,9.8,77.86z"/>
			</g>
			<g class="st4">
				<path class="st7" d="M72.65,40.59c0.72,0.02,1.43,0.05,2.13,0.08c4.24,0.59,8.3,1.67,12.18,3.24l0,0
					c20.94,5.12,32.46,12.19,34.56,21.22c-5.58-6.88-13.5-11.97-23.75-15.27l0.22,0.16c-1.85-0.63-3.73-1.19-5.64-1.68
					c-1.68-0.41-3.42-0.78-5.21-1.11l-0.16-0.09c-11.43-2.14-23.79-1.93-37.07,0.62C27.29,52.61,17.76,61.32,21.33,73.9
					c24.44,23.74,61.09,27.92,89.86,11.91c-0.6,0.61-1.21,1.25-1.85,1.92c-11.82,7.41-25.82,11.04-42,10.88
					c-14.28-1.23-28.6-5.71-39.69-13.45l0,0c-2.56-1.75-4.81-1.14-6.77,1.82c-2.89,5.9-3.64,12.69-2.01,19.17
					c1.18,1.54,2.63,3.01,4.33,4.4l-0.03-0.02l-3.74-2.61l0,0l-0.01,0l-2.67-1.87c-3.15-2.5-5.47-5.56-6.96-9.18
					c-1.92-9.97,1.49-23.12,10.25-39.45C27.05,50.52,42.91,39.65,72.65,40.59"/>
			</g>
			<g>
				<path class="st6" d="M95.84,93.96c-8.42,2.26-17.11,3.18-25.3,2.67c-12.31-0.76-25.26-4.29-35.52-9.66
					c-10.7-5.6-16.71-12.4-16.51-18.65c0.21-6.39,6.43-12.73,17.07-17.37c10.5-4.59,24.14-6.98,37.41-6.57l0,0
					c19.26,0.59,38.21,7.4,47.16,16.93c3.32,3.54,5.01,7.28,4.89,10.83c-0.11,3.4-2.1,6.95-5.76,10.27
					c-4.78,4.35-12.2,8.19-20.89,10.82C97.54,93.49,96.69,93.73,95.84,93.96z M46.31,49.98c-3.44,0.92-6.71,2.05-9.71,3.36
					c-9.54,4.16-15.34,9.8-15.51,15.08c-0.17,5.14,5.48,11.22,15.12,16.26c9.96,5.21,22.52,8.63,34.48,9.37
					c19.41,1.21,38.61-6.08,46.83-13.55c3.12-2.84,4.82-5.76,4.91-8.44c0.09-2.84-1.36-5.94-4.19-8.97
					c-7.07-7.54-23.84-15.45-45.34-16.11C63.8,46.7,54.54,47.77,46.31,49.98z"/>
			</g>
			<g>
				<path class="st6" d="M98.32,93.21c-8.6,2.31-18.73,3.58-27.73,3.43c-15.72-0.26-34.6-6.85-42.07-14.7
					c-2.26-2.38-3.37-4.77-3.29-7.1c0.17-5.02,5.83-9.21,16.38-12.11c8.58-2.35,19.87-3.66,30.18-3.49l0,0
					c7.74,0.13,16.8,1.63,24.86,4.14c8.47,2.63,15.03,6.07,18.48,9.7c2,2.1,2.98,4.26,2.91,6.43c-0.21,6.39-9.24,10.53-16.78,12.86
					C100.3,92.66,99.32,92.94,98.32,93.21z M42.75,65.13c-8.68,2.33-14.79,5.75-14.93,9.79c-0.05,1.61,0.81,3.37,2.58,5.23
					c6.94,7.29,25.36,13.65,40.23,13.9c9.64,0.16,21.08-1.44,29.85-4.16c9.38-2.91,14.83-6.73,14.95-10.47
					c0.05-1.44-0.69-2.97-2.19-4.55c-6.47-6.8-25.48-12.77-41.5-13.03l0,0C61.71,61.66,51.06,62.9,42.75,65.13z"/>
			</g>
			<g class="st4">
				<path class="st5" d="M27.06,61.48c2.55,3.56,6.36,4.74,11.43,3.55c9.21-3.14,22.2-4.69,33.27-4.5
					c16.56,0.27,37.65,6.79,43.44,14.64l0,0c0.05,0.07,0.1,0.14,0.15,0.21c0.16,0.23,0.31,0.47,0.46,0.71
					c0.48,0.83,0.78,1.66,0.89,2.51l0.21-0.2c0.41,1.1,0.7,2.3,0.88,3.59c3.73-6.4,4.89-9.79-3.54-19.93
					c-2.35-1.92-4.93-3.51-6.87-4.55c-10.27-5.51-22.94-8.23-34.54-8.59c-11.7-0.36-24.68,1.49-35.45,6.2
					C34.54,56.36,30.22,58.61,27.06,61.48"/>
			</g>
			<g class="st4">
				<path class="st5" d="M31.72,68.06c-3-0.67-5.35-1.97-7.07-3.91c-0.6,0.86-1.07,1.75-1.34,2.67c1.48,1.51,3.38,2.59,5.7,3.26
					C29.77,69.37,30.68,68.7,31.72,68.06"/>
			</g>
			<g class="st4">
				<path class="st7" d="M23.5,66.26c0.05-0.13,0.1-0.26,0.16-0.39c0.26-0.59,0.59-1.17,0.99-1.73c0.66-0.94,1.48-1.83,2.41-2.67
					c2.44-2.53,5.32-4.39,8.64-5.59c0.6-0.29,1.17-0.55,1.69-0.78c10.78-4.7,23.75-6.56,35.45-6.2c11.6,0.36,24.27,3.07,34.54,8.59
					c1.94,1.04,4.52,2.62,6.87,4.55c0.65,0.52,1.25,1.05,1.81,1.6l0.05,0.04l0,0l0.01,0.01c0.37,0.36,0.74,0.73,1.08,1.11l0.01,0.01
					c1.94,1.95,3.68,4.09,5.22,6.41c-0.43-6.79-8.85-12.61-14.12-15.44c-10.53-5.65-23.53-8.45-35.4-8.82
					c-11.96-0.37-25.27,1.54-36.29,6.36c-5.65,2.47-15.28,7.94-15.51,15.08c-0.02,0.69,0.05,1.37,0.21,2.05
					c0.49,2.06,1.75,4.03,3.38,5.83c-1.04-2.99-1.58-5.41-1.63-7.26c-0.01-0.18-0.02-0.36-0.01-0.55c0.01-0.16,0.02-0.33,0.04-0.49
					C23.13,67.31,23.27,66.74,23.5,66.26"/>
			</g>
			<g class="st4">
				<path class="st7" d="M25.19,88.69c-2.9-4.68-6.13,10.23-1.9,9.13C24.99,97.38,25.82,89.7,25.19,88.69"/>
			</g>
			<g class="st4">
				<path class="st7" d="M23.93,102.11c-2.9-4.68-5.12,4.29-0.9,3.19C24.74,104.86,24.56,103.12,23.93,102.11"/>
			</g>
			<g class="st8">
				<path class="st5" d="M124.39,76.92c-4.15,8.21-12.28,14.1-22.41,17.65c16.65,33.67-41.43,25.84-58.18,23.51
					c26.01,6.43,48.97,6.16,68.89-0.79l0.07-0.02c2.27-0.77,4.38-1.6,6.29-2.5c0.61-0.3,1.2-0.61,1.78-0.92
					c2.81-1.51,5.22-3.12,7.24-4.83c5.25-5.91,6.45-15.1,2.69-27.3c-1.31-4.23-2.59-8.03-3.84-11.38c-0.81-1.83-1.86-3.82-3.15-5.96
					l0,0c0.44,1.87,0.7,3.78,0.76,5.72c0.08,0.56,0.11,1.12,0.09,1.68c-0.02,0.47-0.07,0.93-0.16,1.4c-0.48,2.4-1.98,4.8-4.25,7.08
					C121.62,79.2,123.02,78.09,124.39,76.92z"/>
			</g>
			<g>
				<path class="st6" d="M107.11,120.38c-10.88,2.92-24.25,4.44-37.44,4.11c-21.04-0.52-38.7-5.46-49.74-13.9
					c-5.13-3.92-8.83-8.6-11-13.9c-2.36-5.75-2.92-12.27-1.67-19.38l0.02-0.1l0.03-0.09c1.66-4.88,4.03-9.88,7.04-14.88
					c0.32-0.6,3.89-6.95,12.69-13.03c8.29-5.71,23-12.23,46.06-10.85c34.2,2.05,53.51,12.27,57.39,30.37l0.01,0.05
					c0,0,0.01,0.04,0.02,0.08c0.6,2.13,2.09,7.7,3.4,12.83c0.72,2.83,1.27,5.1,1.64,6.73c0.43,1.9,0.67,2.96,0.51,3.62
					c1.07,9.85-4.76,18-17.33,24.21C115.37,117.83,111.44,119.22,107.11,120.38z M9.8,77.86c-2.2,12.73,1.74,23.04,11.71,30.67
					c23.7,18.13,73.86,15.8,96.11,5.39c11.84-5.85,17.02-13.08,15.82-22.09l-0.34-2.58c-1.06-4.72-3.77-15.07-5.07-19.71
					c-0.04-0.14-0.06-0.24-0.07-0.29c-3.62-16.81-22.12-26.34-55-28.31c-22.23-1.33-36.36,4.87-44.3,10.31
					c-8.59,5.88-11.99,12.17-12.03,12.23l-0.04,0.06C13.68,68.36,11.4,73.18,9.8,77.86z"/>
			</g>
			<g class="st4">
				<path class="st5" d="M138.03,95.6c-4.93,39.71-93.55,37.51-120.8,24.76c2.36,1.53,5,3,7.89,4.41
					c29.34,13.35,64.02,13.11,93.44-0.07C137.95,116.02,144.01,105.44,138.03,95.6"/>
			</g>
			<g class="st4">
				<path class="st7" d="M7.17,85.73c3.39,29.63,34.23,41.36,92.5,35.2c-37.71,10.42-75.28,2.96-89.42-16.19l0,0
					c-2.82-3.78-4.28-3.24-4.38,1.61c0.64,3.72,3.33,7.85,8.07,12.41C0.06,110.35-2.2,99.34,7.17,85.73"/>
			</g>
			<g>
				<path class="st6" d="M102,131.96c-9.81,2.63-20.01,4.01-30.19,4.03c-16.39,0.04-32.72-3.43-47.23-10.03l-0.03-0.01
					c-13.63-6.64-21.94-15.01-24.02-24.22c-1.67-7.38,0.56-14.97,6.61-22.55l1.69-2.12l0.65,2.91L9.47,80.2
					c-1.39,12.05,2.99,21.83,13.02,29.04c10.8,7.78,27.85,12.28,48.01,12.67c17.78,0.35,35.84-2.72,47.12-8
					c11.99-5.93,17.33-13.35,15.83-22.04l-0.02-0.13l0.1-3.39l2.13,2.17c4.65,4.73,6.6,9.9,5.64,14.95
					c-1.41,7.48-9.09,14.55-22.21,20.42C113.6,128.35,107.87,130.38,102,131.96z M25.67,123.6c28.64,13.02,63.16,13,92.36-0.08
					c12.31-5.51,19.47-11.92,20.72-18.53c0.61-3.25-0.22-6.5-2.47-9.71c-0.28,8.21-6.27,15.41-17.53,20.98
					c-11.64,5.45-30.14,8.61-48.3,8.25c-20.68-0.4-38.25-5.08-49.48-13.16C11.39,104.46,6.58,95.4,6.61,84.4
					c-3.58,5.7-4.77,11.33-3.55,16.76C4.96,109.56,12.78,117.33,25.67,123.6z"/>
			</g>
			<g class="st4">
				<path class="st5" d="M89.87,100.57c3.27-0.88,6.63,1.06,7.51,4.33c0.88,3.27-1.06,6.63-4.33,7.51
					c-3.27,0.88-6.63-1.06-7.51-4.33C84.66,104.81,86.6,101.45,89.87,100.57"/>
			</g>
			<g>
				<path class="st9" d="M78.97,85.24c3.58-0.96,7.27,1.16,8.23,4.74c0.4,1.49,0.26,3-0.29,4.33c-3.89,0.63-7.88,0.99-11.86,1.02
					c-0.36-0.56-0.64-1.19-0.82-1.87C73.26,89.89,75.38,86.2,78.97,85.24z"/>
			</g>
			<g>
				<path class="st6" d="M87.83,95.48l-0.71,0.12c-4.05,0.66-8.11,1.01-12.06,1.04l-0.72,0.01l-0.39-0.61
					c-0.44-0.69-0.77-1.44-0.98-2.23c-1.15-4.27,1.39-8.67,5.66-9.82c4.27-1.15,8.67,1.39,9.82,5.66c0.46,1.73,0.35,3.51-0.34,5.16
					L87.83,95.48z M75.8,94.03c3.33-0.06,6.73-0.36,10.13-0.88c0.25-0.92,0.26-1.89,0-2.83c-0.77-2.89-3.75-4.6-6.64-3.83
					c-2.89,0.77-4.6,3.75-3.83,6.64C75.56,93.44,75.67,93.74,75.8,94.03z"/>
			</g>
			<g class="st10">
				<path class="st5" d="M86.91,94.31c0.12-0.28,0.22-0.57,0.3-0.87c-0.35,0.38-0.73,0.71-1.14,1
					C86.34,94.4,86.63,94.36,86.91,94.31 M74.23,89.97c-0.5,1.84-0.19,3.79,0.82,5.37c1.18-0.01,2.35-0.05,3.52-0.11
					C76.39,94.27,74.77,92.33,74.23,89.97z"/>
			</g>
			<g class="st11">
				<path class="st7" d="M74.12,91.62c-0.06-2.87,1.7-5.47,4.39-6.47c2.69-1,5.72-0.19,7.56,2.02c1.67,2.02,2.01,4.79,0.93,7.12
					l-0.36,0.06c-0.13-2.56-1.72-4.81-4.06-5.79c0.29,0.28,0.44,0.6,0.34,0.89c-0.16,0.49-0.94,0.67-1.74,0.41
					c-0.8-0.26-1.32-0.87-1.17-1.36c0.07-0.2,0.24-0.35,0.48-0.44C77.89,87.88,75.36,89.24,74.12,91.62"/>
			</g>
			<g>
				<path class="st6" d="M87.83,95.48l-0.71,0.12c-4.05,0.66-8.11,1.01-12.06,1.04l-0.72,0.01l-0.39-0.61
					c-0.44-0.69-0.77-1.44-0.98-2.23c-1.15-4.27,1.39-8.67,5.66-9.82c4.27-1.15,8.67,1.39,9.82,5.66c0.46,1.73,0.35,3.51-0.34,5.16
					L87.83,95.48z M75.8,94.03c3.33-0.06,6.73-0.36,10.13-0.88c0.25-0.92,0.26-1.89,0-2.83c-0.77-2.89-3.75-4.6-6.64-3.83
					c-2.89,0.77-4.6,3.75-3.83,6.64C75.56,93.44,75.67,93.74,75.8,94.03z"/>
			</g>
			<g>
				<path class="st9" d="M73.96,71.88c3.45-0.93,6.99,1.12,7.92,4.57c0.93,3.45-1.12,6.99-4.57,7.92c-3.45,0.93-6.99-1.12-7.92-4.57
					S70.51,72.8,73.96,71.88z"/>
			</g>
			<g>
				<path class="st6" d="M77.65,85.62c-4.13,1.11-8.4-1.35-9.51-5.48c-1.11-4.13,1.35-8.4,5.48-9.51s8.4,1.35,9.51,5.48
					C84.25,80.24,81.79,84.51,77.65,85.62z M74.3,73.13c-2.75,0.74-4.39,3.58-3.65,6.33c0.74,2.75,3.58,4.39,6.33,3.65
					c2.75-0.74,4.39-3.58,3.65-6.33C79.89,74.03,77.05,72.39,74.3,73.13z"/>
			</g>
			<g class="st10">
				<path class="st5" d="M69.4,76.43c-0.61,2.23,0.03,4.62,1.66,6.26c1.64,1.64,4.02,2.28,6.26,1.67c2.24-0.6,3.98-2.36,4.57-4.59
					c-1.84,1.99-4.63,2.79-7.25,2.09C72.02,81.16,70.01,79.07,69.4,76.43"/>
			</g>
			<g class="st11">
				<path class="st7" d="M69.3,78.02c-0.06-2.76,1.64-5.26,4.23-6.23c2.59-0.97,5.51-0.19,7.27,1.95c1.76,2.13,1.99,5.14,0.55,7.51
					c0.12-2.7-1.48-5.15-3.91-6.17c0.28,0.26,0.42,0.58,0.33,0.85c-0.15,0.47-0.9,0.65-1.68,0.39c-0.77-0.25-1.28-0.84-1.12-1.3
					c0.06-0.19,0.23-0.34,0.46-0.42C72.92,74.42,70.49,75.73,69.3,78.02"/>
			</g>
			<g>
				<path class="st6" d="M77.65,85.62c-4.13,1.11-8.4-1.35-9.51-5.48c-1.11-4.13,1.35-8.4,5.48-9.51s8.4,1.35,9.51,5.48
					C84.25,80.24,81.79,84.51,77.65,85.62z M74.3,73.13c-2.75,0.74-4.39,3.58-3.65,6.33c0.74,2.75,3.58,4.39,6.33,3.65
					c2.75-0.74,4.39-3.58,3.65-6.33C79.89,74.03,77.05,72.39,74.3,73.13z"/>
			</g>
			<g>
				
					<ellipse transform="matrix(0.9655 -0.2604 0.2604 0.9655 -14.644 27.7834)" class="st9" cx="97.52" cy="69.15" rx="6.72" ry="6.71"/>
			</g>
			<g>
				<path class="st6" d="M99.6,76.89c-4.27,1.15-8.67-1.39-9.82-5.66c-1.15-4.27,1.39-8.67,5.66-9.82c4.27-1.15,8.67,1.39,9.82,5.66
					C106.41,71.34,103.87,75.74,99.6,76.89z M96.12,63.92c-2.89,0.77-4.6,3.75-3.83,6.64c0.77,2.88,3.75,4.6,6.64,3.83
					c2.89-0.77,4.6-3.75,3.83-6.64C101.98,64.86,99,63.15,96.12,63.92z"/>
			</g>
			<g class="st10">
				<path class="st5" d="M91.04,67.39c-0.63,2.32,0.03,4.8,1.73,6.5c1.7,1.7,4.18,2.37,6.5,1.74c2.32-0.63,4.13-2.45,4.74-4.77
					c-1.91,2.06-4.81,2.9-7.53,2.17C93.76,72.31,91.67,70.14,91.04,67.39"/>
			</g>
			<g class="st11">
				<path class="st7" d="M90.93,69.05c-0.06-2.87,1.7-5.47,4.39-6.47c2.69-1,5.72-0.19,7.56,2.02c1.83,2.21,2.06,5.34,0.57,7.8
					c0.12-2.81-1.53-5.35-4.07-6.41c0.29,0.28,0.44,0.6,0.34,0.89c-0.16,0.49-0.94,0.67-1.74,0.41c-0.8-0.26-1.32-0.87-1.17-1.36
					c0.07-0.2,0.24-0.35,0.48-0.44C94.7,65.3,92.18,66.67,90.93,69.05"/>
			</g>
			<g>
				<path class="st6" d="M99.6,76.89c-4.27,1.15-8.67-1.39-9.82-5.66c-1.15-4.27,1.39-8.67,5.66-9.82c4.27-1.15,8.67,1.39,9.82,5.66
					C106.41,71.34,103.87,75.74,99.6,76.89z M96.12,63.92c-2.89,0.77-4.6,3.75-3.83,6.64c0.77,2.88,3.75,4.6,6.64,3.83
					c2.89-0.77,4.6-3.75,3.83-6.64C101.98,64.86,99,63.15,96.12,63.92z"/>
			</g>
			<g>
				<path class="st9" d="M37.47,67.15c3.03-0.81,6.14,0.98,6.96,4.01c0.81,3.03-0.98,6.14-4.01,6.96c-3.03,0.81-6.14-0.98-6.96-4.01
					C32.65,71.08,34.44,67.97,37.47,67.15z"/>
			</g>
			<g>
				<path class="st6" d="M40.75,79.37c-3.71,1-7.55-1.21-8.55-4.93c-1-3.72,1.21-7.55,4.93-8.55c3.71-1,7.55,1.21,8.55,4.93
					C46.68,74.54,44.47,78.38,40.75,79.37z M37.81,68.41c-2.33,0.63-3.72,3.03-3.09,5.37c0.63,2.33,3.03,3.72,5.37,3.09
					c2.33-0.63,3.72-3.03,3.09-5.37C42.55,69.17,40.14,67.78,37.81,68.41z"/>
			</g>
			<g class="st10">
				<path class="st5" d="M33.46,71.15c-0.53,1.96,0.03,4.06,1.46,5.5c1.44,1.44,3.53,2,5.5,1.47c1.96-0.53,3.49-2.07,4.01-4.04
					c-1.62,1.74-4.07,2.45-6.37,1.84C35.77,75.31,34,73.47,33.46,71.15"/>
			</g>
			<g class="st11">
				<path class="st7" d="M33.38,72.55c-0.05-2.43,1.44-4.62,3.71-5.47c2.28-0.85,4.84-0.16,6.39,1.71c1.55,1.87,1.74,4.52,0.49,6.6
					c0.1-2.37-1.3-4.52-3.44-5.42c0.25,0.23,0.37,0.51,0.29,0.75c-0.13,0.41-0.79,0.57-1.47,0.35c-0.68-0.22-1.12-0.74-0.99-1.15
					c0.06-0.17,0.2-0.3,0.4-0.37C36.56,69.38,34.43,70.53,33.38,72.55"/>
			</g>
			<g>
				<path class="st6" d="M40.75,79.37c-3.71,1-7.55-1.21-8.55-4.93c-1-3.72,1.21-7.55,4.93-8.55c3.71-1,7.55,1.21,8.55,4.93
					C46.68,74.54,44.47,78.38,40.75,79.37z M37.81,68.41c-2.33,0.63-3.72,3.03-3.09,5.37c0.63,2.33,3.03,3.72,5.37,3.09
					c2.33-0.63,3.72-3.03,3.09-5.37C42.55,69.17,40.14,67.78,37.81,68.41z"/>
			</g>
			<g>
				<path class="st9" d="M50.42,61.82c4.7-1.26,9.52,1.52,10.79,6.22c1.26,4.7-1.52,9.52-6.22,10.79c-4.7,1.26-9.52-1.52-10.78-6.22
					C42.94,67.91,45.72,63.08,50.42,61.82z"/>
			</g>
			<g>
				<path class="st6" d="M55.32,80.07c-5.38,1.44-10.93-1.76-12.37-7.14c-1.44-5.38,1.76-10.93,7.14-12.38
					c5.38-1.44,10.93,1.76,12.38,7.14C63.9,73.08,60.7,78.63,55.32,80.07z M50.76,63.07c-4,1.07-6.38,5.2-5.3,9.2s5.2,6.38,9.19,5.3
					c4-1.07,6.38-5.2,5.3-9.2S54.75,62,50.76,63.07z"/>
			</g>
			<g class="st10">
				<path class="st5" d="M44.2,68.01c-0.83,3.04,0.04,6.3,2.27,8.53c2.23,2.23,5.48,3.1,8.52,2.28c3.04-0.82,5.42-3.21,6.22-6.26
					c-2.51,2.7-6.31,3.8-9.88,2.85C47.78,74.46,45.03,71.61,44.2,68.01"/>
			</g>
			<g class="st11">
				<path class="st7" d="M44.07,70.18c-0.08-3.77,2.23-7.17,5.76-8.49c3.53-1.32,7.5-0.25,9.91,2.65c2.4,2.9,2.7,7,0.75,10.23
					c0.16-3.68-2.01-7.01-5.33-8.4c0.39,0.36,0.57,0.79,0.45,1.16c-0.21,0.64-1.23,0.88-2.28,0.54c-1.05-0.34-1.74-1.14-1.53-1.78
					c0.09-0.27,0.31-0.46,0.62-0.58C49,65.27,45.69,67.06,44.07,70.18"/>
			</g>
			<g>
				<path class="st6" d="M55.32,80.07c-5.38,1.44-10.93-1.76-12.37-7.14c-1.44-5.38,1.76-10.93,7.14-12.38
					c5.38-1.44,10.93,1.76,12.38,7.14C63.9,73.08,60.7,78.63,55.32,80.07z M50.76,63.07c-4,1.07-6.38,5.2-5.3,9.2s5.2,6.38,9.19,5.3
					c4-1.07,6.38-5.2,5.3-9.2S54.75,62,50.76,63.07z"/>
			</g>
			<g>
				<path class="st9" d="M70.31,90.88c2.36-0.63,4.79,0.77,5.43,3.13c0.12,0.44,0.17,0.88,0.15,1.31c-1.92,0.04-3.84,0-5.75-0.12
					c-1.03-0.06-2.07-0.15-3.1-0.25C67.11,93.08,68.4,91.39,70.31,90.88z"/>
			</g>
			<g>
				<path class="st6" d="M77.13,96.6l-1.22,0.02c-1.98,0.04-3.95,0-5.86-0.12c-1-0.06-2.06-0.15-3.15-0.26l-1.23-0.12l0.06-1.23
					c0.11-2.5,1.82-4.62,4.24-5.27c3.05-0.82,6.2,1,7.02,4.05c0.15,0.56,0.21,1.13,0.19,1.7L77.13,96.6z M68.63,93.8
					c0.54,0.04,1.07,0.08,1.58,0.11c1.36,0.08,2.76,0.13,4.17,0.13c-0.56-1.48-2.18-2.33-3.74-1.91
					C69.74,92.38,69.02,92.99,68.63,93.8z"/>
			</g>
			<g class="st10">
				<path class="st5" d="M67.18,94c-0.09,0.32-0.13,0.64-0.15,0.96l0.5,0.05C67.37,94.69,67.26,94.35,67.18,94"/>
			</g>
			<g class="st11">
				<path class="st7" d="M67.11,94.96c0.01-1.84,1.16-3.5,2.9-4.14c1.78-0.66,3.78-0.13,4.99,1.33c0.75,0.91,1.09,2.05,1.01,3.17
					c-0.33,0.01-0.67,0.01-1,0.02c-0.45-1.01-1.27-1.83-2.31-2.27c0.19,0.18,0.29,0.4,0.23,0.59c-0.1,0.32-0.62,0.44-1.15,0.27
					c-0.53-0.17-0.87-0.57-0.77-0.9c0.04-0.13,0.16-0.23,0.31-0.29c-1.67-0.12-3.3,0.73-4.14,2.23L67.11,94.96z"/>
			</g>
			<g>
				<path class="st6" d="M77.13,96.6l-1.22,0.02c-1.98,0.04-3.95,0-5.86-0.12c-1-0.06-2.06-0.15-3.15-0.26l-1.23-0.12l0.06-1.23
					c0.11-2.5,1.82-4.62,4.24-5.27c3.05-0.82,6.2,1,7.02,4.05c0.15,0.56,0.21,1.13,0.19,1.7L77.13,96.6z M68.63,93.8
					c0.54,0.04,1.07,0.08,1.58,0.11c1.36,0.08,2.76,0.13,4.17,0.13c-0.56-1.48-2.18-2.33-3.74-1.91
					C69.74,92.38,69.02,92.99,68.63,93.8z"/>
			</g>
			<g>
				<path class="st9" d="M48.06,72.53c3.58-0.96,7.26,1.16,8.22,4.74c0.96,3.58-1.16,7.26-4.74,8.22c-3.58,0.96-7.26-1.16-8.22-4.74
					C42.35,77.17,44.48,73.49,48.06,72.53z"/>
			</g>
			<g>
				<path class="st6" d="M51.87,86.74c-4.27,1.15-8.67-1.39-9.81-5.66c-1.15-4.26,1.39-8.67,5.66-9.81
					c4.26-1.15,8.67,1.39,9.81,5.66C58.67,81.2,56.14,85.6,51.87,86.74z M48.39,73.78c-2.88,0.77-4.6,3.75-3.83,6.63
					c0.77,2.88,3.75,4.6,6.63,3.82c2.88-0.77,4.6-3.75,3.82-6.63C54.25,74.72,51.27,73.01,48.39,73.78z"/>
			</g>
			<g class="st10">
				<path class="st5" d="M43.32,77.25c-0.63,2.32,0.03,4.8,1.73,6.5c1.7,1.7,4.18,2.36,6.5,1.74c2.32-0.63,4.13-2.45,4.74-4.77
					c-1.91,2.06-4.81,2.9-7.53,2.17C46.04,82.16,43.95,79.99,43.32,77.25"/>
			</g>
			<g class="st11">
				<path class="st7" d="M43.21,78.9c-0.06-2.87,1.7-5.47,4.39-6.47c2.69-1,5.72-0.19,7.55,2.02c1.83,2.21,2.06,5.34,0.57,7.8
					c0.12-2.8-1.53-5.34-4.06-6.4c0.29,0.27,0.43,0.6,0.34,0.89c-0.16,0.49-0.94,0.67-1.74,0.41c-0.8-0.26-1.32-0.87-1.17-1.36
					c0.07-0.2,0.24-0.35,0.48-0.44C46.98,75.16,44.45,76.52,43.21,78.9"/>
			</g>
			<g>
				<path class="st6" d="M51.87,86.74c-4.27,1.15-8.67-1.39-9.81-5.66c-1.15-4.26,1.39-8.67,5.66-9.81
					c4.26-1.15,8.67,1.39,9.81,5.66C58.67,81.2,56.14,85.6,51.87,86.74z M48.39,73.78c-2.88,0.77-4.6,3.75-3.83,6.63
					c0.77,2.88,3.75,4.6,6.63,3.82c2.88-0.77,4.6-3.75,3.82-6.63C54.25,74.72,51.27,73.01,48.39,73.78z"/>
			</g>
			<g>
				<path class="st9" d="M60.83,87.65c2.88-0.77,5.85,0.94,6.63,3.82c0.32,1.21,0.21,2.43-0.24,3.5c-3.49-0.34-6.97-0.89-10.37-1.62
					C56.62,90.78,58.26,88.34,60.83,87.65z"/>
			</g>
			<g>
				<path class="st6" d="M68.04,96.36l-0.95-0.09c-3.47-0.34-7-0.89-10.52-1.65l-0.93-0.2l-0.09-0.95
					c-0.29-3.25,1.79-6.22,4.94-7.07c3.57-0.96,7.26,1.17,8.22,4.74c0.39,1.45,0.29,2.96-0.3,4.34L68.04,96.36z M58.16,92.3
					c2.72,0.55,5.44,0.98,8.13,1.27c0.1-0.58,0.07-1.18-0.08-1.77c-0.59-2.19-2.85-3.49-5.04-2.9C59.54,89.34,58.38,90.7,58.16,92.3
					z"/>
			</g>
			<g class="st10">
				<path class="st5" d="M67.22,94.97c0.1-0.23,0.18-0.47,0.25-0.72c-0.23,0.25-0.48,0.47-0.74,0.67L67.22,94.97z M57.01,91.46
					c-0.17,0.63-0.22,1.27-0.17,1.89c0.37,0.08,0.74,0.16,1.11,0.23C57.52,92.95,57.19,92.23,57.01,91.46z"/>
			</g>
			<g class="st11">
				<path class="st7" d="M56.93,92.79c-0.05-2.31,1.37-4.41,3.54-5.21c2.17-0.81,4.61-0.15,6.09,1.63c1.35,1.63,1.62,3.89,0.73,5.78
					l-0.27-0.03c-0.12-2.04-1.39-3.84-3.27-4.63c0.24,0.22,0.35,0.49,0.27,0.72c-0.13,0.39-0.76,0.54-1.4,0.33
					c-0.65-0.21-1.07-0.7-0.94-1.09c0.05-0.16,0.19-0.28,0.38-0.35C59.96,89.77,57.93,90.87,56.93,92.79"/>
			</g>
			<g>
				<path class="st6" d="M68.04,96.36l-0.95-0.09c-3.47-0.34-7-0.89-10.52-1.65l-0.93-0.2l-0.09-0.95
					c-0.29-3.25,1.79-6.22,4.94-7.07c3.57-0.96,7.26,1.17,8.22,4.74c0.39,1.45,0.29,2.96-0.3,4.34L68.04,96.36z M58.16,92.3
					c2.72,0.55,5.44,0.98,8.13,1.27c0.1-0.58,0.07-1.18-0.08-1.77c-0.59-2.19-2.85-3.49-5.04-2.9C59.54,89.34,58.38,90.7,58.16,92.3
					z"/>
			</g>
			<g>
				<path class="st9" d="M49.88,83.59c3.19-0.86,6.47,1.04,7.33,4.23c0.52,1.94,0.02,3.92-1.17,5.36
					c-3.64-0.82-7.18-1.84-10.55-3.02C45.11,87.22,46.95,84.38,49.88,83.59z"/>
			</g>
			<g>
				<path class="st6" d="M56.54,94.62l-0.78-0.17c-3.64-0.82-7.24-1.85-10.69-3.06l-0.75-0.26l-0.11-0.79
					c-0.49-3.61,1.8-7.05,5.33-8c3.88-1.04,7.88,1.27,8.92,5.14c0.61,2.27,0.08,4.71-1.42,6.53L56.54,94.62z M46.75,89.22
					c2.84,0.97,5.77,1.81,8.74,2.5c0.62-1.07,0.8-2.36,0.47-3.57c-0.67-2.5-3.25-3.98-5.74-3.31C48.2,85.38,46.82,87.19,46.75,89.22
					z"/>
			</g>
			<g class="st10">
				<path class="st5" d="M56.05,93.18c0.54-0.66,0.95-1.43,1.17-2.28c-0.82,0.89-1.85,1.52-2.97,1.86
					C54.85,92.9,55.45,93.04,56.05,93.18 M45.66,87.8c-0.21,0.78-0.26,1.58-0.16,2.36c0.54,0.19,1.09,0.38,1.64,0.56
					C46.43,89.9,45.91,88.9,45.66,87.8z"/>
			</g>
			<g class="st11">
				<path class="st7" d="M45.57,89.28c-0.06-2.56,1.51-4.87,3.91-5.77c2.4-0.89,5.1-0.17,6.73,1.8c1.63,1.97,1.84,4.76,0.51,6.95
					c0.11-2.5-1.37-4.76-3.62-5.71c0.26,0.25,0.39,0.54,0.31,0.79c-0.14,0.43-0.84,0.6-1.55,0.36c-0.72-0.23-1.18-0.77-1.04-1.21
					c0.06-0.18,0.21-0.31,0.42-0.39C48.92,85.94,46.67,87.15,45.57,89.28"/>
			</g>
			<g>
				<path class="st6" d="M56.54,94.62l-0.78-0.17c-3.64-0.82-7.24-1.85-10.69-3.06l-0.75-0.26l-0.11-0.79
					c-0.49-3.61,1.8-7.05,5.33-8c3.88-1.04,7.88,1.27,8.92,5.14c0.61,2.27,0.08,4.71-1.42,6.53L56.54,94.62z M46.75,89.22
					c2.84,0.97,5.77,1.81,8.74,2.5c0.62-1.07,0.8-2.36,0.47-3.57c-0.67-2.5-3.25-3.98-5.74-3.31C48.2,85.38,46.82,87.19,46.75,89.22
					z"/>
			</g>
			<g>
				<path class="st9" d="M68.57,81.69c2.88-0.77,5.85,0.94,6.63,3.82c0.77,2.88-0.94,5.85-3.82,6.63c-2.88,0.77-5.85-0.94-6.63-3.82
					C63.98,85.43,65.69,82.46,68.57,81.69z"/>
			</g>
			<g>
				<path class="st6" d="M71.72,93.39c-3.57,0.96-7.26-1.17-8.22-4.74c-0.96-3.57,1.17-7.26,4.74-8.22
					c3.57-0.96,7.26,1.17,8.22,4.74C77.41,88.74,75.29,92.43,71.72,93.39z M68.91,82.94c-2.19,0.59-3.49,2.85-2.9,5.04
					c0.59,2.19,2.85,3.49,5.04,2.9c2.19-0.59,3.49-2.85,2.9-5.04C73.36,83.65,71.1,82.35,68.91,82.94z"/>
			</g>
			<g class="st10">
				<path class="st5" d="M64.76,85.49c-0.51,1.87,0.02,3.87,1.39,5.24c1.37,1.37,3.37,1.91,5.24,1.4c1.87-0.5,3.33-1.97,3.82-3.84
					c-1.54,1.66-3.88,2.33-6.07,1.75C66.95,89.45,65.26,87.7,64.76,85.49"/>
			</g>
			<g class="st11">
				<path class="st7" d="M64.67,86.83c-0.05-2.31,1.37-4.41,3.54-5.21c2.17-0.81,4.61-0.16,6.09,1.63c1.48,1.78,1.66,4.3,0.46,6.28
					c0.1-2.26-1.24-4.31-3.28-5.16c0.24,0.22,0.35,0.48,0.28,0.71c-0.13,0.39-0.76,0.54-1.4,0.33c-0.65-0.21-1.07-0.7-0.94-1.09
					c0.05-0.16,0.19-0.28,0.38-0.35C67.71,83.81,65.67,84.91,64.67,86.83"/>
			</g>
			<g>
				<path class="st6" d="M71.72,93.39c-3.57,0.96-7.26-1.17-8.22-4.74c-0.96-3.57,1.17-7.26,4.74-8.22
					c3.57-0.96,7.26,1.17,8.22,4.74C77.41,88.74,75.29,92.43,71.72,93.39z M68.91,82.94c-2.19,0.59-3.49,2.85-2.9,5.04
					c0.59,2.19,2.85,3.49,5.04,2.9c2.19-0.59,3.49-2.85,2.9-5.04C73.36,83.65,71.1,82.35,68.91,82.94z"/>
			</g>
			<g>
				<path class="st9" d="M59.28,77.81c3.45-0.93,6.99,1.12,7.92,4.57s-1.12,6.99-4.57,7.92c-3.45,0.93-6.99-1.12-7.92-4.57
					C53.79,82.29,55.84,78.74,59.28,77.81z"/>
			</g>
			<g>
				<path class="st6" d="M62.97,91.55c-4.13,1.11-8.4-1.35-9.51-5.48c-1.11-4.13,1.35-8.4,5.48-9.51c4.13-1.11,8.4,1.35,9.51,5.48
					C69.57,86.18,67.11,90.44,62.97,91.55z M59.62,79.07c-2.75,0.74-4.39,3.58-3.65,6.33c0.74,2.75,3.58,4.39,6.33,3.65
					c2.75-0.74,4.39-3.58,3.65-6.33C65.21,79.97,62.37,78.33,59.62,79.07z"/>
			</g>
			<g class="st10">
				<path class="st5" d="M54.72,82.37c-0.61,2.23,0.03,4.62,1.66,6.26c1.64,1.64,4.02,2.28,6.26,1.67c2.24-0.6,3.98-2.36,4.57-4.59
					c-1.84,1.99-4.63,2.79-7.25,2.09C57.34,87.1,55.33,85.01,54.72,82.37"/>
			</g>
			<g class="st11">
				<path class="st7" d="M54.62,83.96c-0.06-2.76,1.64-5.26,4.23-6.23c2.59-0.97,5.51-0.19,7.27,1.94c1.76,2.13,1.99,5.14,0.55,7.51
					c0.12-2.7-1.48-5.15-3.91-6.17c0.28,0.26,0.42,0.58,0.33,0.85c-0.15,0.47-0.9,0.65-1.68,0.4c-0.77-0.25-1.28-0.84-1.12-1.31
					c0.06-0.19,0.23-0.34,0.46-0.42C58.24,80.35,55.81,81.66,54.62,83.96"/>
			</g>
			<g>
				<path class="st6" d="M62.97,91.55c-4.13,1.11-8.4-1.35-9.51-5.48c-1.11-4.13,1.35-8.4,5.48-9.51c4.13-1.11,8.4,1.35,9.51,5.48
					C69.57,86.18,67.11,90.44,62.97,91.55z M59.62,79.07c-2.75,0.74-4.39,3.58-3.65,6.33c0.74,2.75,3.58,4.39,6.33,3.65
					c2.75-0.74,4.39-3.58,3.65-6.33C65.21,79.97,62.37,78.33,59.62,79.07z"/>
			</g>
			<g>
				
					<ellipse transform="matrix(0.9658 -0.2593 0.2593 0.9658 -17.1967 26.1598)" class="st9" cx="90.55" cy="78.25" rx="6.72" ry="6.71"/>
			</g>
			<g>
				<path class="st6" d="M92.62,85.99c-4.27,1.15-8.67-1.39-9.82-5.66c-1.15-4.27,1.39-8.67,5.66-9.82
					c4.27-1.15,8.67,1.39,9.82,5.66C99.43,80.44,96.89,84.85,92.62,85.99z M89.14,73.02c-2.89,0.77-4.6,3.75-3.83,6.64
					c0.77,2.88,3.75,4.6,6.64,3.83s4.6-3.75,3.83-6.64C95,73.96,92.03,72.25,89.14,73.02z"/>
			</g>
			<g class="st10">
				<path class="st5" d="M84.06,76.5c-0.63,2.32,0.03,4.8,1.73,6.5c1.7,1.7,4.18,2.37,6.5,1.74c2.32-0.63,4.13-2.45,4.74-4.77
					c-1.91,2.06-4.81,2.9-7.53,2.17C86.79,81.41,84.69,79.24,84.06,76.5"/>
			</g>
			<g class="st11">
				<path class="st7" d="M83.96,78.15c-0.06-2.87,1.7-5.47,4.39-6.47c2.69-1,5.72-0.19,7.56,2.02c1.83,2.21,2.06,5.34,0.58,7.8
					c0.12-2.81-1.53-5.35-4.07-6.41c0.29,0.28,0.44,0.6,0.34,0.89c-0.16,0.49-0.94,0.67-1.74,0.41c-0.8-0.26-1.32-0.87-1.17-1.36
					c0.07-0.2,0.24-0.35,0.48-0.44C87.73,74.4,85.2,75.77,83.96,78.15"/>
			</g>
			<g>
				<path class="st6" d="M92.62,85.99c-4.27,1.15-8.67-1.39-9.82-5.66c-1.15-4.27,1.39-8.67,5.66-9.82
					c4.27-1.15,8.67,1.39,9.82,5.66C99.43,80.44,96.89,84.85,92.62,85.99z M89.14,73.02c-2.89,0.77-4.6,3.75-3.83,6.64
					c0.77,2.88,3.75,4.6,6.64,3.83s4.6-3.75,3.83-6.64C95,73.96,92.03,72.25,89.14,73.02z"/>
			</g>
			<g>
				<path class="st9" d="M63.24,67.51c3.45-0.93,6.99,1.12,7.92,4.57c0.93,3.45-1.12,6.99-4.57,7.92c-3.45,0.93-6.99-1.12-7.92-4.57
					C57.74,71.98,59.79,68.44,63.24,67.51z"/>
			</g>
			<g>
				<path class="st6" d="M66.93,81.25c-4.13,1.11-8.4-1.35-9.51-5.48c-1.11-4.13,1.35-8.4,5.48-9.51c4.13-1.11,8.4,1.35,9.51,5.48
					C73.52,75.88,71.06,80.14,66.93,81.25z M63.57,68.77c-2.75,0.74-4.39,3.58-3.65,6.33c0.74,2.75,3.58,4.39,6.33,3.65
					c2.75-0.74,4.39-3.58,3.65-6.33C69.16,69.67,66.32,68.03,63.57,68.77z"/>
			</g>
			<g class="st10">
				<path class="st5" d="M58.67,72.06c-0.61,2.23,0.03,4.62,1.67,6.26c1.64,1.64,4.02,2.28,6.26,1.67c2.24-0.6,3.98-2.36,4.57-4.59
					c-1.84,1.99-4.63,2.79-7.25,2.09C61.3,76.79,59.28,74.71,58.67,72.06"/>
			</g>
			<g class="st11">
				<path class="st7" d="M58.57,73.66c-0.06-2.77,1.64-5.27,4.23-6.23c2.59-0.96,5.51-0.18,7.27,1.95c1.76,2.13,1.99,5.14,0.55,7.51
					c0.12-2.7-1.48-5.15-3.91-6.17c0.28,0.26,0.42,0.58,0.33,0.85c-0.15,0.47-0.9,0.65-1.68,0.4c-0.77-0.25-1.27-0.84-1.12-1.31
					c0.06-0.19,0.23-0.34,0.46-0.42C62.2,70.05,59.77,71.36,58.57,73.66"/>
			</g>
			<g>
				<path class="st6" d="M66.93,81.25c-4.13,1.11-8.4-1.35-9.51-5.48c-1.11-4.13,1.35-8.4,5.48-9.51c4.13-1.11,8.4,1.35,9.51,5.48
					C73.52,75.88,71.06,80.14,66.93,81.25z M63.57,68.77c-2.75,0.74-4.39,3.58-3.65,6.33c0.74,2.75,3.58,4.39,6.33,3.65
					c2.75-0.74,4.39-3.58,3.65-6.33C69.16,69.67,66.32,68.03,63.57,68.77z"/>
			</g>
			<g>
				<path class="st9" d="M71.65,60.05c3.25-0.87,6.6,1.06,7.48,4.31c0.87,3.25-1.06,6.6-4.31,7.48c-3.25,0.87-6.6-1.06-7.48-4.31
					C66.47,64.27,68.4,60.93,71.65,60.05z"/>
			</g>
			<g>
				<path class="st6" d="M75.15,73.09c-3.94,1.06-8.01-1.29-9.07-5.23s1.29-8.01,5.23-9.07c3.94-1.06,8.01,1.29,9.07,5.23
					S79.1,72.03,75.15,73.09z M71.99,61.3c-2.56,0.69-4.08,3.33-3.39,5.89c0.69,2.56,3.33,4.08,5.89,3.39
					c2.56-0.69,4.08-3.33,3.39-5.89C77.19,62.14,74.55,60.62,71.99,61.3z"/>
			</g>
			<g class="st10">
				<path class="st5" d="M67.34,64.35c-0.57,2.11,0.03,4.36,1.57,5.91c1.54,1.55,3.8,2.15,5.91,1.58c2.11-0.57,3.76-2.23,4.31-4.34
					c-1.74,1.87-4.37,2.63-6.84,1.97C69.82,68.81,67.92,66.84,67.34,64.35"/>
			</g>
			<g class="st11">
				<path class="st7" d="M67.25,65.85c-0.06-2.61,1.55-4.97,3.99-5.88c2.45-0.91,5.2-0.17,6.87,1.84c1.67,2.01,1.87,4.86,0.52,7.09
					c0.11-2.55-1.39-4.86-3.69-5.82c0.27,0.25,0.39,0.55,0.31,0.81c-0.14,0.44-0.85,0.61-1.58,0.37c-0.73-0.24-1.2-0.79-1.06-1.23
					c0.06-0.18,0.22-0.32,0.43-0.4C70.67,62.45,68.38,63.69,67.25,65.85"/>
			</g>
			<g>
				<path class="st6" d="M75.15,73.09c-3.94,1.06-8.01-1.29-9.07-5.23s1.29-8.01,5.23-9.07c3.94-1.06,8.01,1.29,9.07,5.23
					S79.1,72.03,75.15,73.09z M71.99,61.3c-2.56,0.69-4.08,3.33-3.39,5.89c0.69,2.56,3.33,4.08,5.89,3.39
					c2.56-0.69,4.08-3.33,3.39-5.89C77.19,62.14,74.55,60.62,71.99,61.3z"/>
			</g>
			<g>
				<path class="st9" d="M59.64,55.67c3.45-0.93,6.99,1.12,7.92,4.57c0.93,3.45-1.12,6.99-4.57,7.92c-3.45,0.93-6.99-1.12-7.92-4.57
					C54.14,60.14,56.19,56.6,59.64,55.67z"/>
			</g>
			<g>
				<path class="st6" d="M63.33,69.41c-4.13,1.11-8.4-1.35-9.51-5.48c-1.11-4.13,1.35-8.4,5.48-9.51c4.13-1.11,8.4,1.35,9.51,5.48
					C69.92,64.04,67.46,68.3,63.33,69.41z M59.97,56.93c-2.75,0.74-4.39,3.58-3.65,6.33c0.74,2.75,3.58,4.39,6.33,3.65
					c2.75-0.74,4.39-3.58,3.65-6.33C65.56,57.82,62.72,56.19,59.97,56.93z"/>
			</g>
			<g class="st10">
				<path class="st5" d="M55.07,60.22c-0.61,2.23,0.03,4.62,1.66,6.26c1.64,1.64,4.02,2.28,6.26,1.67c2.24-0.6,3.98-2.36,4.57-4.59
					c-1.84,1.99-4.63,2.79-7.25,2.09C57.7,64.95,55.68,62.86,55.07,60.22"/>
			</g>
			<g class="st11">
				<path class="st7" d="M54.97,61.82c-0.06-2.76,1.64-5.26,4.23-6.23c2.59-0.97,5.51-0.19,7.27,1.94c1.76,2.13,1.99,5.14,0.55,7.51
					c0.12-2.7-1.48-5.15-3.91-6.17c0.28,0.26,0.42,0.58,0.33,0.85c-0.15,0.47-0.9,0.65-1.68,0.39c-0.77-0.25-1.28-0.84-1.12-1.3
					c0.06-0.19,0.23-0.34,0.46-0.42C58.6,58.21,56.17,59.52,54.97,61.82"/>
			</g>
			<g>
				<path class="st6" d="M63.33,69.41c-4.13,1.11-8.4-1.35-9.51-5.48c-1.11-4.13,1.35-8.4,5.48-9.51c4.13-1.11,8.4,1.35,9.51,5.48
					C69.92,64.04,67.46,68.3,63.33,69.41z M59.97,56.93c-2.75,0.74-4.39,3.58-3.65,6.33c0.74,2.75,3.58,4.39,6.33,3.65
					c2.75-0.74,4.39-3.58,3.65-6.33C65.56,57.82,62.72,56.19,59.97,56.93z"/>
			</g>
			<g>
				<path class="st9" d="M66.62,50.06c3.03-0.81,6.14,0.98,6.96,4.01c0.81,3.03-0.98,6.14-4.01,6.96c-3.03,0.81-6.14-0.98-6.96-4.01
					C61.79,53.99,63.59,50.87,66.62,50.06z"/>
			</g>
			<g>
				<path class="st6" d="M69.9,62.28c-3.71,1-7.55-1.21-8.55-4.93c-1-3.71,1.21-7.55,4.93-8.55c3.71-1,7.55,1.21,8.55,4.93
					C75.82,57.45,73.61,61.28,69.9,62.28z M66.95,51.32c-2.33,0.63-3.72,3.03-3.09,5.37c0.63,2.33,3.03,3.72,5.37,3.09
					c2.33-0.63,3.72-3.03,3.09-5.37C71.69,52.08,69.28,50.69,66.95,51.32z"/>
			</g>
			<g class="st10">
				<path class="st5" d="M62.61,54.06c-0.53,1.96,0.03,4.06,1.46,5.5c1.44,1.44,3.53,2,5.5,1.47c1.96-0.53,3.49-2.07,4.01-4.04
					c-1.62,1.75-4.07,2.45-6.37,1.84C64.91,58.21,63.14,56.38,62.61,54.06"/>
			</g>
			<g class="st11">
				<path class="st7" d="M62.52,55.46c-0.05-2.43,1.44-4.62,3.71-5.47c2.28-0.85,4.84-0.16,6.39,1.71c1.55,1.87,1.74,4.52,0.49,6.6
					c0.1-2.37-1.3-4.52-3.44-5.42c0.25,0.23,0.37,0.51,0.29,0.75c-0.13,0.41-0.79,0.57-1.47,0.35c-0.68-0.22-1.12-0.73-0.99-1.15
					c0.06-0.17,0.2-0.3,0.4-0.37C65.7,52.29,63.57,53.44,62.52,55.46"/>
			</g>
			<g>
				<path class="st6" d="M69.9,62.28c-3.71,1-7.55-1.21-8.55-4.93c-1-3.71,1.21-7.55,4.93-8.55c3.71-1,7.55,1.21,8.55,4.93
					C75.82,57.45,73.61,61.28,69.9,62.28z M66.95,51.32c-2.33,0.63-3.72,3.03-3.09,5.37c0.63,2.33,3.03,3.72,5.37,3.09
					c2.33-0.63,3.72-3.03,3.09-5.37C71.69,52.08,69.28,50.69,66.95,51.32z"/>
			</g>
			<g>
				<path class="st9" d="M93.08,82.24c3.58-0.96,7.27,1.16,8.23,4.74c0.33,1.24,0.3,2.49-0.04,3.63c-3.44,1.24-7.14,2.28-10.97,3.07
					c-0.92-0.84-1.61-1.93-1.96-3.22C87.38,86.89,89.5,83.21,93.08,82.24z"/>
			</g>
			<g>
				<path class="st6" d="M95.41,93.81c-1.6,0.43-3.22,0.81-4.85,1.15l-0.65,0.13l-0.49-0.44c-1.13-1.03-1.94-2.36-2.34-3.84
					c-1.15-4.27,1.39-8.67,5.66-9.82c4.27-1.15,8.67,1.39,9.82,5.66c0.38,1.43,0.37,2.93-0.05,4.34l-0.19,0.63l-0.62,0.22
					C99.67,92.58,97.56,93.24,95.41,93.81z M90.73,92.27c3.24-0.69,6.41-1.58,9.44-2.64c0.13-0.76,0.09-1.55-0.11-2.31
					c-0.77-2.88-3.75-4.6-6.64-3.83c-2.89,0.77-4.6,3.75-3.83,6.64C89.81,90.93,90.19,91.66,90.73,92.27z"/>
			</g>
			<g class="st10">
				<path class="st5" d="M101.27,90.62l0.05-0.18c-0.08,0.09-0.16,0.17-0.24,0.25L101.27,90.62z M88.34,86.97
					c-0.63,2.32,0.03,4.8,1.73,6.5c0.07,0.07,0.15,0.14,0.22,0.21c1.38-0.28,2.74-0.6,4.07-0.95c-0.2-0.04-0.39-0.08-0.59-0.13
					C91.07,91.88,88.97,89.71,88.34,86.97z"/>
			</g>
			<g class="st11">
				<path class="st7" d="M88.24,88.63c-0.06-2.87,1.7-5.47,4.39-6.47c2.69-1,5.72-0.19,7.56,2.02c1.5,1.81,1.92,4.23,1.22,6.4
					c-0.23,0.08-0.46,0.17-0.69,0.25c-0.31-2.33-1.84-4.34-4.02-5.25c0.29,0.28,0.44,0.6,0.34,0.89c-0.16,0.49-0.94,0.67-1.74,0.41
					c-0.8-0.26-1.32-0.87-1.17-1.36c0.07-0.2,0.24-0.35,0.48-0.44C92.01,84.88,89.48,86.24,88.24,88.63"/>
			</g>
			<g>
				<path class="st6" d="M95.41,93.81c-1.6,0.43-3.22,0.81-4.85,1.15l-0.65,0.13l-0.49-0.44c-1.13-1.03-1.94-2.36-2.34-3.84
					c-1.15-4.27,1.39-8.67,5.66-9.82c4.27-1.15,8.67,1.39,9.82,5.66c0.38,1.43,0.37,2.93-0.05,4.34l-0.19,0.63l-0.62,0.22
					C99.67,92.58,97.56,93.24,95.41,93.81z M90.73,92.27c3.24-0.69,6.41-1.58,9.44-2.64c0.13-0.76,0.09-1.55-0.11-2.31
					c-0.77-2.88-3.75-4.6-6.64-3.83c-2.89,0.77-4.6,3.75-3.83,6.64C89.81,90.93,90.19,91.66,90.73,92.27z"/>
			</g>
			<g>
				<path class="st9" d="M104.68,77.01c3.58-0.96,7.27,1.16,8.23,4.74c0.3,1.11,0.3,2.24,0.05,3.29c-2.68,1.69-5.78,3.26-9.18,4.62
					c-1.82-0.78-3.28-2.36-3.84-4.43C98.97,81.66,101.1,77.97,104.68,77.01z"/>
			</g>
			<g>
				<path class="st6" d="M103.76,91.07l-0.5-0.21c-2.27-0.97-3.94-2.9-4.58-5.29c-1.15-4.27,1.39-8.67,5.66-9.82
					c4.27-1.15,8.67,1.39,9.82,5.66c0.34,1.28,0.36,2.64,0.06,3.92l-0.12,0.51l-0.45,0.28c-2.75,1.74-5.91,3.33-9.39,4.73
					L103.76,91.07z M105.01,78.26c-2.89,0.77-4.6,3.75-3.83,6.64c0.39,1.44,1.33,2.64,2.63,3.35c2.93-1.21,5.61-2.55,7.97-4.01
					c0.1-0.71,0.05-1.45-0.13-2.15C110.88,79.21,107.9,77.49,105.01,78.26z"/>
			</g>
			<g class="st10">
				<path class="st5" d="M99.94,81.74c-0.63,2.32,0.03,4.8,1.73,6.5c0.61,0.61,1.33,1.09,2.1,1.42c1.64-0.66,3.22-1.37,4.71-2.12
					c-1.02,0.15-2.07,0.1-3.1-0.17C102.66,86.65,100.57,84.48,99.94,81.74"/>
			</g>
			<g class="st11">
				<path class="st7" d="M99.83,83.39c-0.06-2.87,1.7-5.47,4.39-6.47c2.69-1,5.72-0.19,7.56,2.02c1.41,1.7,1.87,3.94,1.34,6
					c-0.27,0.17-0.55,0.35-0.83,0.52c-0.35-2.27-1.86-4.23-4-5.12c0.29,0.28,0.44,0.6,0.34,0.89c-0.16,0.49-0.94,0.67-1.74,0.41
					c-0.8-0.26-1.32-0.87-1.17-1.36c0.07-0.2,0.24-0.35,0.48-0.44C103.6,79.65,101.07,81.01,99.83,83.39"/>
			</g>
			<g>
				<path class="st6" d="M103.76,91.07l-0.5-0.21c-2.27-0.97-3.94-2.9-4.58-5.29c-1.15-4.27,1.39-8.67,5.66-9.82
					c4.27-1.15,8.67,1.39,9.82,5.66c0.34,1.28,0.36,2.64,0.06,3.92l-0.12,0.51l-0.45,0.28c-2.75,1.74-5.91,3.33-9.39,4.73
					L103.76,91.07z M105.01,78.26c-2.89,0.77-4.6,3.75-3.83,6.64c0.39,1.44,1.33,2.64,2.63,3.35c2.93-1.21,5.61-2.55,7.97-4.01
					c0.1-0.71,0.05-1.45-0.13-2.15C110.88,79.21,107.9,77.49,105.01,78.26z"/>
			</g>
			<g>
				<path class="st9" d="M84.3,80.79c2.36-0.63,4.79,0.77,5.43,3.13c0.63,2.36-0.77,4.79-3.13,5.43c-2.36,0.63-4.79-0.77-5.43-3.13
					C80.54,83.85,81.94,81.42,84.3,80.79z"/>
			</g>
			<g>
				<path class="st6" d="M86.94,90.6c-3.05,0.82-6.2-1-7.02-4.05c-0.82-3.05,1-6.2,4.05-7.02c3.05-0.82,6.2,1,7.02,4.05
					C91.8,86.63,89.99,89.78,86.94,90.6z M84.64,82.04c-1.67,0.45-2.66,2.17-2.21,3.84c0.45,1.67,2.17,2.66,3.84,2.21
					c1.67-0.45,2.66-2.17,2.21-3.84C88.03,82.59,86.31,81.59,84.64,82.04z"/>
			</g>
			<g class="st10">
				<path class="st5" d="M81.17,83.91c-0.42,1.53,0.02,3.17,1.14,4.29c1.12,1.12,2.76,1.56,4.29,1.15c1.53-0.41,2.73-1.62,3.13-3.15
					c-1.26,1.36-3.18,1.91-4.97,1.43C82.97,87.15,81.59,85.72,81.17,83.91"/>
			</g>
			<g class="st11">
				<path class="st7" d="M81.11,85c-0.04-1.89,1.12-3.61,2.9-4.27c1.78-0.66,3.78-0.13,4.99,1.33c1.21,1.46,1.36,3.53,0.38,5.15
					c0.08-1.85-1.01-3.53-2.68-4.23c0.19,0.18,0.29,0.4,0.22,0.58c-0.1,0.32-0.62,0.44-1.15,0.27c-0.53-0.17-0.87-0.57-0.77-0.9
					c0.04-0.13,0.16-0.23,0.31-0.29C83.59,82.53,81.92,83.43,81.11,85"/>
			</g>
			<g>
				<path class="st6" d="M86.94,90.6c-3.05,0.82-6.2-1-7.02-4.05c-0.82-3.05,1-6.2,4.05-7.02c3.05-0.82,6.2,1,7.02,4.05
					C91.8,86.63,89.99,89.78,86.94,90.6z M84.64,82.04c-1.67,0.45-2.66,2.17-2.21,3.84c0.45,1.67,2.17,2.66,3.84,2.21
					c1.67-0.45,2.66-2.17,2.21-3.84C88.03,82.59,86.31,81.59,84.64,82.04z"/>
			</g>
			<g>
				<path class="st9" d="M97.67,74.12c2.5-0.67,5.08,0.81,5.75,3.32c0.67,2.5-0.81,5.08-3.32,5.75c-2.5,0.67-5.08-0.81-5.75-3.32
					C93.69,77.37,95.17,74.79,97.67,74.12z"/>
			</g>
			<g>
				<path class="st6" d="M100.45,84.44c-3.19,0.86-6.48-1.04-7.34-4.23s1.04-6.48,4.23-7.34c3.19-0.86,6.48,1.04,7.34,4.23
					C105.53,80.29,103.64,83.58,100.45,84.44z M98.01,75.38c-1.81,0.49-2.89,2.35-2.4,4.16s2.35,2.88,4.16,2.4
					c1.81-0.49,2.88-2.35,2.4-4.16C101.69,75.97,99.82,74.89,98.01,75.38z"/>
			</g>
			<g class="st10">
				<path class="st5" d="M94.36,77.43c-0.44,1.62,0.02,3.36,1.21,4.55c1.19,1.19,2.92,1.65,4.54,1.22c1.62-0.44,2.89-1.71,3.32-3.34
					c-1.34,1.44-3.36,2.03-5.26,1.52C96.26,80.86,94.8,79.34,94.36,77.43"/>
			</g>
			<g class="st11">
				<path class="st7" d="M94.29,78.58c-0.04-2.01,1.19-3.82,3.07-4.53c1.88-0.7,4-0.13,5.28,1.41c1.28,1.55,1.44,3.73,0.4,5.45
					c0.08-1.96-1.07-3.74-2.84-4.48c0.2,0.19,0.3,0.42,0.24,0.62c-0.11,0.34-0.66,0.47-1.22,0.29c-0.56-0.18-0.93-0.61-0.82-0.95
					c0.05-0.14,0.17-0.25,0.33-0.31C96.92,75.96,95.15,76.92,94.29,78.58"/>
			</g>
			<g>
				<path class="st6" d="M100.45,84.44c-3.19,0.86-6.48-1.04-7.34-4.23s1.04-6.48,4.23-7.34c3.19-0.86,6.48,1.04,7.34,4.23
					C105.53,80.29,103.64,83.58,100.45,84.44z M98.01,75.38c-1.81,0.49-2.89,2.35-2.4,4.16s2.35,2.88,4.16,2.4
					c1.81-0.49,2.88-2.35,2.4-4.16C101.69,75.97,99.82,74.89,98.01,75.38z"/>
			</g>
			<g>
				<path class="st9" d="M84.33,62.96c3.22-0.86,6.52,1.04,7.39,4.26c0.86,3.22-1.04,6.52-4.26,7.39c-3.22,0.86-6.52-1.04-7.39-4.26
					C79.2,67.13,81.11,63.82,84.33,62.96z"/>
			</g>
			<g>
				<path class="st6" d="M87.79,75.86c-3.9,1.05-7.93-1.27-8.98-5.18c-1.05-3.9,1.27-7.93,5.18-8.98c3.9-1.05,7.93,1.27,8.98,5.18
					C94.02,70.79,91.7,74.81,87.79,75.86z M84.67,64.21c-2.52,0.68-4.02,3.28-3.34,5.8c0.68,2.52,3.28,4.02,5.8,3.34
					c2.52-0.68,4.02-3.28,3.34-5.8C89.79,65.04,87.19,63.54,84.67,64.21z"/>
			</g>
			<g class="st10">
				<path class="st5" d="M80.07,67.21c-0.57,2.08,0.03,4.31,1.55,5.84c1.53,1.53,3.75,2.12,5.84,1.56c2.08-0.56,3.71-2.2,4.26-4.29
					c-1.72,1.85-4.32,2.6-6.76,1.95C82.52,71.62,80.64,69.67,80.07,67.21"/>
			</g>
			<g class="st11">
				<path class="st7" d="M79.98,68.69c-0.06-2.58,1.53-4.91,3.94-5.81c2.42-0.9,5.14-0.17,6.79,1.81c1.65,1.99,1.85,4.8,0.52,7.01
					c0.11-2.52-1.38-4.8-3.65-5.75c0.26,0.25,0.39,0.54,0.31,0.8c-0.14,0.44-0.84,0.6-1.56,0.37c-0.72-0.23-1.19-0.78-1.05-1.22
					c0.06-0.18,0.21-0.32,0.43-0.4C83.36,65.33,81.09,66.55,79.98,68.69"/>
			</g>
			<g>
				<path class="st6" d="M87.79,75.86c-3.9,1.05-7.93-1.27-8.98-5.18c-1.05-3.9,1.27-7.93,5.18-8.98c3.9-1.05,7.93,1.27,8.98,5.18
					C94.02,70.79,91.7,74.81,87.79,75.86z M84.67,64.21c-2.52,0.68-4.02,3.28-3.34,5.8c0.68,2.52,3.28,4.02,5.8,3.34
					c2.52-0.68,4.02-3.28,3.34-5.8C89.79,65.04,87.19,63.54,84.67,64.21z"/>
			</g>
			<g>
				<path class="st9" d="M112.84,71.85c2.89-0.78,5.86,0.94,6.63,3.83c0.78,2.89-0.94,5.86-3.83,6.63
					c-2.89,0.78-5.86-0.94-6.63-3.82C108.24,75.6,109.95,72.63,112.84,71.85z"/>
			</g>
			<g>
				<path class="st6" d="M115.98,83.57c-3.57,0.96-7.26-1.17-8.22-4.74c-0.96-3.58,1.17-7.26,4.74-8.22
					c3.58-0.96,7.26,1.17,8.22,4.74C121.69,78.92,119.56,82.61,115.98,83.57z M113.18,73.11c-2.19,0.59-3.5,2.85-2.91,5.04
					c0.59,2.19,2.85,3.5,5.04,2.91c2.19-0.59,3.5-2.85,2.91-5.04C117.63,73.82,115.37,72.52,113.18,73.11z"/>
			</g>
			<g class="st10">
				<path class="st5" d="M109.02,75.67c-0.51,1.87,0.02,3.87,1.39,5.24c1.37,1.37,3.37,1.91,5.24,1.4c1.87-0.5,3.33-1.97,3.83-3.85
					c-1.54,1.66-3.88,2.34-6.07,1.75C111.21,79.63,109.52,77.88,109.02,75.67"/>
			</g>
			<g class="st11">
				<path class="st7" d="M108.93,77c-0.05-2.32,1.37-4.41,3.54-5.22c2.17-0.81,4.62-0.15,6.09,1.63c1.48,1.79,1.66,4.31,0.46,6.29
					c0.1-2.26-1.24-4.31-3.28-5.17c0.24,0.22,0.35,0.49,0.28,0.72c-0.13,0.39-0.76,0.54-1.4,0.33c-0.65-0.21-1.07-0.7-0.94-1.09
					c0.05-0.16,0.19-0.28,0.38-0.35C111.97,73.98,109.93,75.08,108.93,77"/>
			</g>
			<g>
				<path class="st6" d="M115.98,83.57c-3.57,0.96-7.26-1.17-8.22-4.74c-0.96-3.58,1.17-7.26,4.74-8.22
					c3.58-0.96,7.26,1.17,8.22,4.74C121.69,78.92,119.56,82.61,115.98,83.57z M113.18,73.11c-2.19,0.59-3.5,2.85-2.91,5.04
					c0.59,2.19,2.85,3.5,5.04,2.91c2.19-0.59,3.5-2.85,2.91-5.04C117.63,73.82,115.37,72.52,113.18,73.11z"/>
			</g>
			<g>
				<path class="st9" d="M104.13,64.43c2.89-0.78,5.86,0.94,6.63,3.82c0.78,2.89-0.94,5.86-3.83,6.64
					c-2.89,0.78-5.86-0.94-6.63-3.83C99.52,68.18,101.24,65.21,104.13,64.43z"/>
			</g>
			<g>
				<path class="st6" d="M107.27,76.14c-3.57,0.96-7.26-1.17-8.22-4.74c-0.96-3.57,1.17-7.26,4.74-8.22
					c3.58-0.96,7.26,1.17,8.22,4.74C112.97,71.49,110.85,75.18,107.27,76.14z M104.46,65.68c-2.19,0.59-3.5,2.85-2.91,5.04
					c0.59,2.19,2.85,3.5,5.04,2.91c2.19-0.59,3.5-2.85,2.91-5.04C108.92,66.4,106.66,65.09,104.46,65.68z"/>
			</g>
			<g class="st10">
				<path class="st5" d="M100.3,68.24c-0.51,1.87,0.02,3.87,1.39,5.24c1.37,1.37,3.37,1.91,5.24,1.4c1.87-0.51,3.33-1.97,3.83-3.85
					c-1.54,1.66-3.88,2.34-6.07,1.75C102.5,72.2,100.81,70.45,100.3,68.24"/>
			</g>
			<g class="st11">
				<path class="st7" d="M100.22,69.58c-0.05-2.32,1.37-4.41,3.54-5.22c2.17-0.81,4.62-0.16,6.09,1.63
					c1.48,1.78,1.66,4.31,0.46,6.29c0.1-2.26-1.24-4.31-3.28-5.17c0.24,0.22,0.35,0.49,0.28,0.72c-0.13,0.39-0.76,0.54-1.4,0.33
					c-0.65-0.21-1.07-0.7-0.94-1.09c0.05-0.16,0.19-0.28,0.38-0.35C103.26,66.55,101.22,67.65,100.22,69.58"/>
			</g>
			<g>
				<path class="st6" d="M107.27,76.14c-3.57,0.96-7.26-1.17-8.22-4.74c-0.96-3.57,1.17-7.26,4.74-8.22
					c3.58-0.96,7.26,1.17,8.22,4.74C112.97,71.49,110.85,75.18,107.27,76.14z M104.46,65.68c-2.19,0.59-3.5,2.85-2.91,5.04
					c0.59,2.19,2.85,3.5,5.04,2.91c2.19-0.59,3.5-2.85,2.91-5.04C108.92,66.4,106.66,65.09,104.46,65.68z"/>
			</g>
			<g>
				<path class="st9" d="M87.22,49.5c2.7-0.72,5.47,0.87,6.2,3.57c0.72,2.7-0.88,5.48-3.57,6.2c-2.7,0.72-5.48-0.88-6.2-3.57
					C82.92,53,84.52,50.22,87.22,49.5z"/>
			</g>
			<g>
				<path class="st6" d="M90.18,60.52c-3.39,0.91-6.88-1.11-7.79-4.49c-0.91-3.39,1.11-6.88,4.49-7.79
					c3.39-0.91,6.88,1.11,7.79,4.49C95.58,56.12,93.56,59.61,90.18,60.52z M87.55,50.75c-2,0.54-3.2,2.61-2.66,4.61
					c0.54,2,2.61,3.2,4.61,2.66c2-0.54,3.2-2.61,2.66-4.61C91.62,51.4,89.56,50.21,87.55,50.75z"/>
			</g>
			<g class="st10">
				<path class="st5" d="M83.64,53.06c-0.47,1.75,0.02,3.62,1.3,4.9c1.28,1.28,3.15,1.78,4.9,1.31c1.75-0.47,3.11-1.85,3.58-3.6
					c-1.44,1.55-3.63,2.18-5.68,1.64C85.7,56.76,84.12,55.13,83.64,53.06"/>
			</g>
			<g class="st11">
				<path class="st7" d="M83.56,54.3c-0.05-2.16,1.28-4.12,3.31-4.88c2.03-0.76,4.31-0.15,5.69,1.52c1.38,1.67,1.55,4.03,0.43,5.88
					c0.09-2.11-1.16-4.03-3.06-4.83c0.22,0.21,0.33,0.45,0.26,0.67c-0.12,0.37-0.71,0.51-1.31,0.31c-0.61-0.2-1-0.65-0.88-1.02
					c0.05-0.15,0.18-0.26,0.36-0.33C86.4,51.48,84.5,52.51,83.56,54.3"/>
			</g>
			<g>
				<path class="st6" d="M90.18,60.52c-3.39,0.91-6.88-1.11-7.79-4.49c-0.91-3.39,1.11-6.88,4.49-7.79
					c3.39-0.91,6.88,1.11,7.79,4.49C95.58,56.12,93.56,59.61,90.18,60.52z M87.55,50.75c-2,0.54-3.2,2.61-2.66,4.61
					c0.54,2,2.61,3.2,4.61,2.66c2-0.54,3.2-2.61,2.66-4.61C91.62,51.4,89.56,50.21,87.55,50.75z"/>
			</g>
			<g>
				<path class="st9" d="M153.05,55.79c3.99-1.07,8.08,1.29,9.15,5.28c1.07,3.99-1.29,8.08-5.28,9.15
					c-3.99,1.07-8.08-1.29-9.15-5.28C146.7,60.96,149.07,56.86,153.05,55.79z"/>
			</g>
			<g>
				<path class="st6" d="M157.27,71.48c-4.67,1.25-9.49-1.53-10.74-6.2c-1.25-4.67,1.53-9.49,6.2-10.74
					c4.67-1.25,9.49,1.52,10.74,6.19C164.71,65.4,161.94,70.22,157.27,71.48z M153.39,57.05c-3.29,0.88-5.24,4.28-4.36,7.56
					c0.88,3.29,4.28,5.25,7.56,4.36c3.29-0.88,5.24-4.28,4.36-7.56C160.07,58.12,156.68,56.16,153.39,57.05z"/>
			</g>
			<g class="st10">
				<path class="st5" d="M147.78,61.05c-0.7,2.58,0.03,5.34,1.92,7.24c1.89,1.89,4.65,2.63,7.23,1.93c2.58-0.7,4.6-2.72,5.28-5.31
					c-2.13,2.3-5.36,3.23-8.38,2.42C150.81,66.52,148.48,64.1,147.78,61.05"/>
			</g>
			<g class="st11">
				<path class="st7" d="M147.66,62.89c-0.07-3.2,1.89-6.09,4.89-7.2c3-1.12,6.37-0.21,8.41,2.25c2.04,2.46,2.29,5.95,0.64,8.68
					c0.13-3.12-1.71-5.95-4.52-7.13c0.33,0.31,0.48,0.67,0.38,0.99c-0.18,0.54-1.04,0.75-1.94,0.46c-0.89-0.29-1.47-0.97-1.3-1.51
					c0.07-0.23,0.27-0.39,0.53-0.49C151.85,58.72,149.04,60.24,147.66,62.89"/>
			</g>
			<g>
				<path class="st6" d="M157.27,71.48c-4.67,1.25-9.49-1.53-10.74-6.2c-1.25-4.67,1.53-9.49,6.2-10.74
					c4.67-1.25,9.49,1.52,10.74,6.19C164.71,65.4,161.94,70.22,157.27,71.48z M153.39,57.05c-3.29,0.88-5.24,4.28-4.36,7.56
					c0.88,3.29,4.28,5.25,7.56,4.36c3.29-0.88,5.24-4.28,4.36-7.56C160.07,58.12,156.68,56.16,153.39,57.05z"/>
			</g>
			<g>
				<path class="st9" d="M138.65,44.17c3-0.81,6.08,0.97,6.89,3.97c0.81,3-0.97,6.08-3.97,6.89c-3,0.81-6.08-0.97-6.89-3.97
					C133.87,48.06,135.65,44.97,138.65,44.17z"/>
			</g>
			<g>
				<path class="st6" d="M141.9,56.28c-3.69,0.99-7.49-1.2-8.48-4.89c-0.99-3.69,1.2-7.49,4.89-8.48c3.69-0.99,7.49,1.2,8.48,4.89
					C147.78,51.49,145.59,55.29,141.9,56.28z M138.99,45.42c-2.3,0.62-3.67,3-3.06,5.3c0.62,2.3,3,3.67,5.3,3.06
					c2.3-0.62,3.67-3,3.06-5.3C143.67,46.17,141.29,44.8,138.99,45.42z"/>
			</g>
			<g class="st10">
				<path class="st5" d="M134.68,48.12c-0.53,1.94,0.03,4.02,1.45,5.45c1.42,1.43,3.5,1.98,5.45,1.46c1.94-0.52,3.46-2.05,3.97-4
					c-1.6,1.73-4.03,2.43-6.31,1.82C136.96,52.24,135.21,50.42,134.68,48.12"/>
			</g>
			<g class="st11">
				<path class="st7" d="M134.59,49.51c-0.05-2.41,1.42-4.58,3.68-5.42c2.25-0.84,4.79-0.16,6.33,1.69
					c1.53,1.85,1.73,4.47,0.48,6.53c0.1-2.35-1.28-4.48-3.41-5.37c0.25,0.23,0.36,0.5,0.29,0.74c-0.13,0.41-0.79,0.56-1.46,0.34
					c-0.67-0.22-1.11-0.73-0.98-1.14c0.06-0.17,0.2-0.3,0.4-0.37C137.75,46.37,135.63,47.51,134.59,49.51"/>
			</g>
			<g>
				<path class="st6" d="M141.9,56.28c-3.69,0.99-7.49-1.2-8.48-4.89c-0.99-3.69,1.2-7.49,4.89-8.48c3.69-0.99,7.49,1.2,8.48,4.89
					C147.78,51.49,145.59,55.29,141.9,56.28z M138.99,45.42c-2.3,0.62-3.67,3-3.06,5.3c0.62,2.3,3,3.67,5.3,3.06
					c2.3-0.62,3.67-3,3.06-5.3C143.67,46.17,141.29,44.8,138.99,45.42z"/>
			</g>
			<g>
				<path class="st9" d="M106.45,26.33c3-0.81,6.08,0.97,6.89,3.97c0.81,3-0.97,6.08-3.97,6.89c-3,0.81-6.08-0.97-6.89-3.97
					C101.67,30.22,103.45,27.13,106.45,26.33z"/>
			</g>
			<g>
				<path class="st6" d="M109.7,38.44c-3.69,0.99-7.49-1.2-8.48-4.89c-0.99-3.69,1.2-7.49,4.89-8.48c3.69-0.99,7.49,1.2,8.48,4.89
					C115.58,33.65,113.39,37.45,109.7,38.44z M106.78,27.58c-2.3,0.62-3.67,3-3.06,5.3c0.62,2.3,3,3.68,5.3,3.06
					c2.3-0.62,3.67-3,3.06-5.3C111.46,28.33,109.09,26.96,106.78,27.58z"/>
			</g>
			<g class="st10">
				<path class="st5" d="M102.48,30.29c-0.53,1.94,0.03,4.02,1.45,5.45c1.42,1.42,3.5,1.98,5.45,1.46c1.94-0.52,3.46-2.05,3.97-4
					c-1.6,1.73-4.03,2.43-6.31,1.82C104.76,34.4,103,32.58,102.48,30.29"/>
			</g>
			<g class="st11">
				<path class="st7" d="M102.39,31.67c-0.05-2.41,1.42-4.58,3.68-5.42c2.26-0.84,4.79-0.16,6.33,1.69
					c1.53,1.85,1.73,4.48,0.48,6.53c0.1-2.35-1.28-4.48-3.41-5.37c0.25,0.23,0.36,0.5,0.29,0.74c-0.13,0.41-0.79,0.56-1.46,0.34
					c-0.67-0.22-1.11-0.73-0.98-1.14c0.06-0.17,0.2-0.3,0.4-0.37C105.54,28.53,103.43,29.67,102.39,31.67"/>
			</g>
			<g>
				<path class="st6" d="M109.7,38.44c-3.69,0.99-7.49-1.2-8.48-4.89c-0.99-3.69,1.2-7.49,4.89-8.48c3.69-0.99,7.49,1.2,8.48,4.89
					C115.58,33.65,113.39,37.45,109.7,38.44z M106.78,27.58c-2.3,0.62-3.67,3-3.06,5.3c0.62,2.3,3,3.68,5.3,3.06
					c2.3-0.62,3.67-3,3.06-5.3C111.46,28.33,109.09,26.96,106.78,27.58z"/>
			</g>
			<g>
				<path class="st9" d="M91.21,99.88c2.61-0.7,5.29,0.85,5.99,3.46c0.7,2.61-0.85,5.29-3.45,5.99c-2.61,0.7-5.29-0.85-5.99-3.45
					C87.06,103.26,88.6,100.58,91.21,99.88z"/>
			</g>
			<g>
				<path class="st6" d="M94.08,110.58c-3.3,0.89-6.7-1.08-7.58-4.37c-0.89-3.3,1.08-6.7,4.37-7.58c3.3-0.88,6.7,1.08,7.58,4.37
					C99.34,106.29,97.38,109.69,94.08,110.58z M91.55,101.13c-1.91,0.51-3.05,2.49-2.54,4.4c0.51,1.91,2.49,3.05,4.4,2.54
					c1.91-0.51,3.05-2.49,2.54-4.4C95.44,101.76,93.46,100.62,91.55,101.13z"/>
			</g>
			<g class="st10">
				<path class="st5" d="M87.76,103.32c-0.46,1.69,0.02,3.5,1.26,4.74c1.24,1.24,3.04,1.72,4.74,1.27c1.69-0.46,3.01-1.78,3.46-3.48
					c-1.39,1.5-3.51,2.11-5.49,1.58C89.74,106.9,88.22,105.32,87.76,103.32"/>
			</g>
			<g class="st11">
				<path class="st7" d="M87.68,104.53c-0.05-2.09,1.24-3.98,3.2-4.71c1.96-0.73,4.17-0.14,5.5,1.47c1.33,1.61,1.5,3.89,0.42,5.68
					c0.09-2.04-1.12-3.89-2.96-4.67c0.21,0.2,0.32,0.44,0.25,0.65c-0.12,0.36-0.68,0.49-1.27,0.3c-0.58-0.19-0.97-0.63-0.85-0.99
					c0.05-0.15,0.17-0.26,0.35-0.32C90.43,101.8,88.59,102.79,87.68,104.53"/>
			</g>
			<g>
				<path class="st6" d="M94.08,110.58c-3.3,0.89-6.7-1.08-7.58-4.37c-0.89-3.3,1.08-6.7,4.37-7.58c3.3-0.88,6.7,1.08,7.58,4.37
					C99.34,106.29,97.38,109.69,94.08,110.58z M91.55,101.13c-1.91,0.51-3.05,2.49-2.54,4.4c0.51,1.91,2.49,3.05,4.4,2.54
					c1.91-0.51,3.05-2.49,2.54-4.4C95.44,101.76,93.46,100.62,91.55,101.13z"/>
			</g>
			<g>
				<path class="st9" d="M119.84,86.32c2.61-0.7,5.29,0.85,5.99,3.45c0.7,2.61-0.85,5.29-3.46,5.99c-2.61,0.7-5.29-0.85-5.99-3.45
					C115.68,89.7,117.23,87.02,119.84,86.32z"/>
			</g>
			<g>
				<path class="st6" d="M122.71,97.02c-3.3,0.88-6.7-1.08-7.58-4.37c-0.88-3.3,1.08-6.7,4.37-7.58c3.3-0.88,6.7,1.08,7.58,4.37
					C127.97,92.73,126.01,96.13,122.71,97.02z M120.18,87.57c-1.91,0.51-3.05,2.49-2.54,4.4c0.51,1.91,2.49,3.05,4.4,2.54
					c1.91-0.51,3.05-2.49,2.54-4.4C124.06,88.2,122.09,87.06,120.18,87.57z"/>
			</g>
			<g class="st10">
				<path class="st5" d="M116.39,89.76c-0.46,1.69,0.02,3.5,1.26,4.74c1.24,1.24,3.04,1.72,4.73,1.27c1.69-0.46,3.01-1.78,3.46-3.48
					c-1.39,1.5-3.51,2.11-5.49,1.58C118.37,93.34,116.85,91.76,116.39,89.76"/>
			</g>
			<g class="st11">
				<path class="st7" d="M116.31,90.97c-0.05-2.09,1.24-3.98,3.2-4.72c1.96-0.73,4.17-0.14,5.5,1.47c1.34,1.61,1.5,3.89,0.42,5.68
					c0.09-2.04-1.12-3.89-2.96-4.67c0.21,0.2,0.32,0.44,0.25,0.65c-0.12,0.36-0.68,0.49-1.27,0.3c-0.59-0.19-0.97-0.63-0.85-0.99
					c0.05-0.15,0.17-0.26,0.35-0.32C119.05,88.24,117.21,89.23,116.31,90.97"/>
			</g>
			<g>
				<path class="st6" d="M122.71,97.02c-3.3,0.88-6.7-1.08-7.58-4.37c-0.88-3.3,1.08-6.7,4.37-7.58c3.3-0.88,6.7,1.08,7.58,4.37
					C127.97,92.73,126.01,96.13,122.71,97.02z M120.18,87.57c-1.91,0.51-3.05,2.49-2.54,4.4c0.51,1.91,2.49,3.05,4.4,2.54
					c1.91-0.51,3.05-2.49,2.54-4.4C124.06,88.2,122.09,87.06,120.18,87.57z"/>
			</g>
			<g>
				<path class="st9" d="M121.24,1.5c3.07-0.83,6.23,1,7.06,4.07c0.83,3.07-1,6.23-4.07,7.06c-3.07,0.83-6.23-1-7.06-4.07
					C116.34,5.48,118.17,2.32,121.24,1.5z"/>
			</g>
			<g>
				<path class="st6" d="M124.56,13.88c-3.76,1.01-7.64-1.23-8.65-4.99c-1.01-3.76,1.23-7.64,4.99-8.65
					c3.76-1.01,7.64,1.23,8.65,4.99S128.32,12.87,124.56,13.88z M121.57,2.75c-2.38,0.64-3.79,3.09-3.15,5.47
					c0.64,2.38,3.09,3.79,5.47,3.15c2.38-0.64,3.79-3.09,3.15-5.47C126.4,3.53,123.95,2.11,121.57,2.75z"/>
			</g>
			<g class="st10">
				<path class="st5" d="M117.17,5.55c-0.54,1.99,0.03,4.12,1.48,5.58c1.46,1.46,3.59,2.03,5.58,1.49c1.99-0.54,3.54-2.1,4.07-4.09
					c-1.64,1.77-4.13,2.49-6.46,1.86C119.51,9.77,117.71,7.91,117.17,5.55"/>
			</g>
			<g class="st11">
				<path class="st7" d="M117.08,6.97c-0.05-2.46,1.46-4.69,3.77-5.55c2.31-0.86,4.91-0.17,6.48,1.73c1.57,1.9,1.77,4.58,0.49,6.69
					c0.1-2.41-1.32-4.59-3.49-5.5c0.25,0.23,0.37,0.51,0.29,0.76c-0.14,0.42-0.8,0.58-1.49,0.35c-0.69-0.22-1.14-0.74-1-1.16
					c0.06-0.18,0.21-0.3,0.41-0.38C120.31,3.76,118.15,4.93,117.08,6.97"/>
			</g>
			<g>
				<path class="st6" d="M124.56,13.88c-3.76,1.01-7.64-1.23-8.65-4.99c-1.01-3.76,1.23-7.64,4.99-8.65
					c3.76-1.01,7.64,1.23,8.65,4.99S128.32,12.87,124.56,13.88z M121.57,2.75c-2.38,0.64-3.79,3.09-3.15,5.47
					c0.64,2.38,3.09,3.79,5.47,3.15c2.38-0.64,3.79-3.09,3.15-5.47C126.4,3.53,123.95,2.11,121.57,2.75z"/>
			</g>
			<g>
				<path class="st9" d="M131.12,105.79c3.07-0.83,6.23,1,7.06,4.07c0.83,3.07-1,6.23-4.07,7.06c-3.07,0.83-6.23-1-7.06-4.07
					C126.22,109.78,128.04,106.62,131.12,105.79z"/>
			</g>
			<g>
				<path class="st6" d="M134.44,118.17c-3.76,1.01-7.64-1.23-8.65-4.99c-1.01-3.76,1.23-7.64,4.99-8.65
					c3.76-1.01,7.64,1.23,8.65,4.99C140.44,113.28,138.2,117.16,134.44,118.17z M131.45,107.04c-2.38,0.64-3.79,3.09-3.15,5.47
					c0.64,2.38,3.09,3.79,5.47,3.15c2.38-0.64,3.79-3.09,3.15-5.47C136.28,107.82,133.83,106.41,131.45,107.04z"/>
			</g>
			<g class="st10">
				<path class="st5" d="M127.05,109.85c-0.54,1.99,0.03,4.12,1.48,5.58c1.46,1.46,3.59,2.03,5.58,1.49c1.99-0.54,3.54-2.1,4.07-4.1
					c-1.64,1.77-4.13,2.49-6.46,1.86C129.39,114.06,127.59,112.2,127.05,109.85"/>
			</g>
			<g class="st11">
				<path class="st7" d="M126.96,111.27c-0.05-2.47,1.46-4.69,3.77-5.55c2.31-0.86,4.91-0.16,6.48,1.73
					c1.57,1.9,1.77,4.58,0.49,6.69c0.1-2.41-1.32-4.59-3.49-5.5c0.25,0.24,0.37,0.52,0.29,0.76c-0.14,0.42-0.8,0.58-1.49,0.35
					c-0.69-0.22-1.14-0.74-1-1.16c0.06-0.17,0.21-0.3,0.41-0.38C130.19,108.05,128.02,109.22,126.96,111.27"/>
			</g>
			<g>
				<path class="st6" d="M134.44,118.17c-3.76,1.01-7.64-1.23-8.65-4.99c-1.01-3.76,1.23-7.64,4.99-8.65
					c3.76-1.01,7.64,1.23,8.65,4.99C140.44,113.28,138.2,117.16,134.44,118.17z M131.45,107.04c-2.38,0.64-3.79,3.09-3.15,5.47
					c0.64,2.38,3.09,3.79,5.47,3.15c2.38-0.64,3.79-3.09,3.15-5.47C136.28,107.82,133.83,106.41,131.45,107.04z"/>
			</g>
			<g>
				<path class="st9" d="M119.85,40.75c3-0.81,6.08,0.97,6.89,3.97c0.81,3-0.97,6.08-3.97,6.89c-3,0.81-6.08-0.97-6.89-3.97
					C115.07,44.64,116.85,41.55,119.85,40.75z"/>
			</g>
			<g>
				<path class="st6" d="M123.1,52.86c-3.69,0.99-7.49-1.2-8.48-4.89c-0.99-3.69,1.2-7.49,4.89-8.48c3.69-0.99,7.49,1.2,8.48,4.89
					C128.98,48.07,126.79,51.87,123.1,52.86z M120.19,42c-2.3,0.62-3.67,3-3.06,5.3c0.62,2.3,3,3.67,5.3,3.06
					c2.3-0.62,3.67-3,3.06-5.3C124.87,42.75,122.49,41.38,120.19,42z"/>
			</g>
			<g class="st10">
				<path class="st5" d="M115.88,44.71c-0.53,1.94,0.03,4.02,1.45,5.45c1.42,1.42,3.5,1.98,5.45,1.46c1.94-0.52,3.46-2.05,3.97-4
					c-1.6,1.73-4.03,2.43-6.31,1.82C118.16,48.82,116.41,47,115.88,44.71"/>
			</g>
			<g class="st11">
				<path class="st7" d="M115.79,46.09c-0.05-2.41,1.42-4.58,3.68-5.42c2.25-0.84,4.79-0.16,6.33,1.69
					c1.53,1.85,1.73,4.47,0.48,6.53c0.1-2.35-1.28-4.48-3.41-5.37c0.25,0.23,0.36,0.5,0.29,0.74c-0.13,0.41-0.79,0.56-1.46,0.34
					c-0.67-0.22-1.11-0.73-0.98-1.14c0.06-0.17,0.2-0.3,0.4-0.37C118.95,42.95,116.83,44.1,115.79,46.09"/>
			</g>
			<g>
				<path class="st6" d="M123.1,52.86c-3.69,0.99-7.49-1.2-8.48-4.89c-0.99-3.69,1.2-7.49,4.89-8.48c3.69-0.99,7.49,1.2,8.48,4.89
					C128.98,48.07,126.79,51.87,123.1,52.86z M120.19,42c-2.3,0.62-3.67,3-3.06,5.3c0.62,2.3,3,3.67,5.3,3.06
					c2.3-0.62,3.67-3,3.06-5.3C124.87,42.75,122.49,41.38,120.19,42z"/>
			</g>
			<g>
				<path class="st9" d="M132.56,24.17c3.07-0.83,6.23,1,7.06,4.07c0.83,3.07-1,6.23-4.07,7.06c-3.07,0.83-6.23-1-7.06-4.07
					C127.66,28.16,129.48,25,132.56,24.17z"/>
			</g>
			<g>
				<path class="st6" d="M135.88,36.55c-3.76,1.01-7.64-1.23-8.65-4.99c-1.01-3.76,1.23-7.64,4.99-8.65
					c3.76-1.01,7.64,1.23,8.65,4.99C141.88,31.66,139.64,35.54,135.88,36.55z M132.89,25.43c-2.38,0.64-3.79,3.09-3.15,5.47
					c0.64,2.38,3.09,3.79,5.47,3.15c2.38-0.64,3.79-3.09,3.15-5.47C137.72,26.2,135.27,24.79,132.89,25.43z"/>
			</g>
			<g class="st10">
				<path class="st5" d="M128.49,28.23c-0.54,1.99,0.03,4.12,1.48,5.58c1.46,1.46,3.59,2.03,5.58,1.49c1.99-0.54,3.54-2.1,4.07-4.09
					c-1.64,1.77-4.13,2.49-6.46,1.86C130.83,32.44,129.03,30.58,128.49,28.23"/>
			</g>
			<g class="st11">
				<path class="st7" d="M128.4,29.65c-0.05-2.47,1.46-4.69,3.77-5.55c2.31-0.86,4.91-0.17,6.48,1.73c1.57,1.9,1.77,4.58,0.49,6.69
					c0.1-2.41-1.32-4.59-3.49-5.5c0.25,0.24,0.37,0.52,0.29,0.76c-0.14,0.42-0.81,0.58-1.49,0.35c-0.69-0.22-1.14-0.75-1-1.16
					c0.06-0.17,0.21-0.3,0.41-0.38C131.63,26.43,129.47,27.6,128.4,29.65"/>
			</g>
			<g>
				<path class="st6" d="M135.88,36.55c-3.76,1.01-7.64-1.23-8.65-4.99c-1.01-3.76,1.23-7.64,4.99-8.65
					c3.76-1.01,7.64,1.23,8.65,4.99C141.88,31.66,139.64,35.54,135.88,36.55z M132.89,25.43c-2.38,0.64-3.79,3.09-3.15,5.47
					c0.64,2.38,3.09,3.79,5.47,3.15c2.38-0.64,3.79-3.09,3.15-5.47C137.72,26.2,135.27,24.79,132.89,25.43z"/>
			</g>
			<g>
				<path class="st9" d="M159.01,88.15c3.07-0.83,6.23,1,7.06,4.07c0.83,3.07-1,6.23-4.07,7.06c-3.07,0.83-6.23-1-7.06-4.07
					C154.11,92.14,155.93,88.98,159.01,88.15z"/>
			</g>
			<g>
				<path class="st6" d="M162.33,100.53c-3.76,1.01-7.64-1.23-8.65-4.99c-1.01-3.76,1.23-7.64,4.99-8.65
					c3.76-1.01,7.64,1.23,8.65,4.99C168.33,95.64,166.09,99.52,162.33,100.53z M159.34,89.41c-2.38,0.64-3.79,3.09-3.15,5.47
					c0.64,2.38,3.09,3.79,5.47,3.15c2.38-0.64,3.79-3.09,3.15-5.47C164.17,90.18,161.72,88.77,159.34,89.41z"/>
			</g>
			<g class="st10">
				<path class="st5" d="M154.94,92.21c-0.54,1.99,0.03,4.12,1.48,5.58c1.46,1.46,3.59,2.03,5.58,1.49c1.99-0.54,3.54-2.1,4.07-4.09
					c-1.64,1.77-4.13,2.49-6.46,1.86C157.28,96.42,155.48,94.56,154.94,92.21"/>
			</g>
			<g class="st11">
				<path class="st7" d="M154.85,93.63c-0.05-2.47,1.46-4.69,3.77-5.55c2.31-0.86,4.91-0.16,6.48,1.73c1.57,1.9,1.77,4.58,0.49,6.69
					c0.1-2.41-1.32-4.59-3.49-5.5c0.25,0.24,0.37,0.52,0.29,0.76c-0.14,0.42-0.8,0.58-1.49,0.35c-0.69-0.22-1.14-0.74-1-1.16
					c0.06-0.17,0.21-0.3,0.41-0.38C158.08,90.41,155.91,91.58,154.85,93.63"/>
			</g>
			<g>
				<path class="st6" d="M162.33,100.53c-3.76,1.01-7.64-1.23-8.65-4.99c-1.01-3.76,1.23-7.64,4.99-8.65
					c3.76-1.01,7.64,1.23,8.65,4.99C168.33,95.64,166.09,99.52,162.33,100.53z M159.34,89.41c-2.38,0.64-3.79,3.09-3.15,5.47
					c0.64,2.38,3.09,3.79,5.47,3.15c2.38-0.64,3.79-3.09,3.15-5.47C164.17,90.18,161.72,88.77,159.34,89.41z"/>
			</g>
			<g class="st4">
				<path class="st5" d="M31.77,77.51c-0.03-1.67,0.72-2.34,2.27-2.01c26.8,20.66,64.53,19.22,89.69-3.41
					c-7.11,16.35-27.68,23.75-61.72,22.22C43.37,90.09,33.29,84.49,31.77,77.51"/>
			</g>
		</g>
	</g>
	<g>
		<g>
			<path class="st12" d="M52.66,118.04c-1.31-0.42-2.5-1.09-3.54-1.99c-1-0.86-1.81-1.9-2.42-3.08c-0.6-1.18-0.97-2.45-1.08-3.76
				c-0.12-1.36,0.03-2.72,0.46-4.03c0.42-1.31,1.09-2.5,1.99-3.54c0.86-1,1.9-1.81,3.08-2.42c1.18-0.6,2.45-0.97,3.76-1.08
				c1.36-0.12,2.72,0.03,4.03,0.46c1.31,0.42,2.5,1.09,3.54,1.99c1,0.86,1.81,1.9,2.42,3.08c0.6,1.18,0.97,2.45,1.08,3.76
				c0.12,1.36-0.03,2.72-0.46,4.03c-0.42,1.31-1.09,2.5-1.99,3.54c-0.86,1-1.9,1.81-3.08,2.42c-1.18,0.6-2.45,0.97-3.76,1.08
				C55.33,118.62,53.98,118.47,52.66,118.04z"/>
			<path d="M58.88,98.8c5.26,1.7,8.15,7.34,6.45,12.6c-1.7,5.26-7.34,8.15-12.6,6.45s-8.15-7.34-6.45-12.6S53.62,97.1,58.88,98.8
				 M59,98.42c-1.34-0.43-2.72-0.59-4.11-0.47c-1.34,0.12-2.63,0.49-3.83,1.11c-1.2,0.62-2.26,1.44-3.14,2.46
				c-0.91,1.05-1.59,2.27-2.02,3.6c-0.43,1.34-0.59,2.72-0.47,4.11c0.12,1.34,0.49,2.63,1.11,3.83c0.62,1.2,1.44,2.26,2.46,3.14
				c1.05,0.91,2.27,1.59,3.6,2.02c1.34,0.43,2.72,0.59,4.11,0.47c1.34-0.12,2.63-0.49,3.83-1.11c1.2-0.62,2.26-1.44,3.14-2.46
				c0.91-1.05,1.59-2.27,2.02-3.6c0.43-1.34,0.59-2.72,0.47-4.11c-0.12-1.34-0.49-2.63-1.11-3.83c-0.62-1.2-1.44-2.26-2.46-3.14
				C61.55,99.53,60.34,98.85,59,98.42L59,98.42z"/>
		</g>
		<circle class="st13" cx="55.8" cy="108.33" r="9.29"/>
		<circle class="st14" cx="55.8" cy="108.33" r="8.3"/>
		<circle class="st15" cx="55.8" cy="108.33" r="7.7"/>
		<g>
			<g>
				<g>
					<path d="M65.07,101.28c0.02,0.01,0.05,0.02,0.07,0.03c0.59,0.25,0.56,1.06,0.25,1.57c-0.31,0.51-0.71,1.82-1.04,2.31
						s-0.57,1.44-0.83,1.73s-0.49,0.47-0.68,0.66c-0.02,0.02-0.04,0.05-0.06,0.08c-0.14,0.29-0.19,1-0.23,1.12
						c-0.03,0.09-0.22,0.92-0.34,1.43c0,0,0,0,0,0c-0.05,0.21-0.08,0.36-0.09,0.39c0,0,0,0,0,0c-0.03,0.1-0.06,0.2-0.09,0.3
						c-0.24,0.75-0.6,1.41-1.04,1.98c1.05,0.42,2.05,0.99,2.83,1.74c0.2,0.2,0.39,0.42,0.56,0.65c-0.18-0.23-0.38-0.44-0.59-0.63
						c-0.84-0.75-1.86-1.25-2.92-1.62c-0.14,0.16-0.28,0.32-0.44,0.47c1.1,0.55,2.13,1.26,2.88,2.16c0.18,0.22,0.35,0.46,0.49,0.71
						c-0.15-0.24-0.33-0.47-0.52-0.69c-0.82-0.91-1.89-1.55-3-2.05c-0.13,0.11-0.26,0.22-0.4,0.33c1.14,0.63,2.2,1.44,2.94,2.43
						c0.17,0.23,0.32,0.48,0.45,0.74c-0.14-0.25-0.3-0.49-0.48-0.72c-0.82-1.01-1.92-1.74-3.08-2.32c-0.81,0.57-1.78,0.95-2.86,1.14
						c-0.87,0.16-1.57,0.63-3.09,0.14c-0.05-0.01-0.09-0.03-0.14-0.05c-0.99-0.35-1.49-0.9-2.18-1.61
						c-0.03-0.03-0.06-0.06-0.09-0.09c-0.01-0.01-0.02-0.02-0.03-0.03c-0.02-0.02-0.04-0.04-0.06-0.07
						c-0.01-0.01-0.02-0.02-0.03-0.03c-0.02-0.02-0.04-0.05-0.06-0.07c-0.01-0.01-0.02-0.02-0.03-0.03
						c-0.03-0.03-0.05-0.06-0.08-0.09c0,0,0,0,0-0.01c-0.03-0.03-0.06-0.07-0.09-0.1c0,0-0.01-0.01-0.01-0.01
						c-0.02-0.03-0.05-0.06-0.07-0.09c-0.01-0.01-0.01-0.01-0.02-0.02c-0.02-0.03-0.05-0.06-0.07-0.09c0,0-0.01-0.01-0.01-0.01
						c-0.45-0.59-0.83-1.24-1.12-1.93c-1.23-0.18-2.49-0.19-3.63,0.12c-0.28,0.08-0.55,0.18-0.81,0.3c0.26-0.13,0.52-0.25,0.8-0.34
						c0.83-0.27,1.7-0.35,2.57-0.33c0.33,0.01,0.67,0.03,1,0.06c-0.01-0.03-0.03-0.07-0.04-0.1c0,0,0,0,0-0.01
						c-0.02-0.05-0.03-0.1-0.05-0.15c0,0,0-0.01,0-0.01c-0.01-0.04-0.03-0.09-0.04-0.13c0-0.01-0.01-0.02-0.01-0.03
						c-0.01-0.04-0.02-0.07-0.03-0.11c-1.13-0.21-2.28-0.26-3.35-0.04c-0.28,0.06-0.55,0.15-0.82,0.26
						c0.26-0.12,0.53-0.21,0.81-0.29c0.84-0.22,1.72-0.25,2.58-0.18c0.24,0.02,0.48,0.05,0.72,0.08c0-0.01,0-0.02-0.01-0.02
						c-0.01-0.04-0.02-0.07-0.03-0.11c0-0.01-0.01-0.02-0.01-0.03c-0.01-0.05-0.02-0.09-0.03-0.14c0-0.01,0-0.02,0-0.02
						c-0.01-0.04-0.02-0.08-0.02-0.11c0-0.01-0.01-0.03-0.01-0.04c-0.01-0.04-0.01-0.07-0.02-0.11c0-0.01,0-0.02-0.01-0.03
						c0-0.02-0.01-0.05-0.01-0.07c-0.98-0.26-1.99-0.39-2.95-0.29c-0.28,0.03-0.57,0.09-0.84,0.17c0.27-0.09,0.55-0.16,0.84-0.2
						c0.86-0.13,1.74-0.06,2.59,0.09c0.12,0.02,0.23,0.05,0.35,0.07c0-0.01,0-0.03,0-0.04c0-0.02,0-0.03-0.01-0.05
						c0-0.04-0.01-0.08-0.01-0.13c0-0.01,0-0.02,0-0.03c0-0.04-0.01-0.08-0.01-0.12c0-0.02,0-0.03,0-0.05c0-0.03,0-0.06-0.01-0.1
						c0-0.01,0-0.03,0-0.04c0-0.04,0-0.09,0-0.13c0-0.01,0-0.03,0-0.04c0-0.03,0-0.07,0-0.1c0-0.02,0-0.03,0-0.05
						c0-0.04,0-0.07,0-0.11c0-0.01,0-0.02,0-0.03c0-0.04,0-0.09,0.01-0.13c0-0.02,0-0.03,0-0.05c0-0.03,0-0.07,0.01-0.1
						c0-0.01,0-0.03,0-0.04c0-0.04,0.01-0.09,0.01-0.13c0-0.01,0-0.02,0-0.03c0-0.04,0.01-0.07,0.01-0.11c0-0.01,0-0.03,0.01-0.04
						c0.01-0.04,0.01-0.07,0.02-0.11c0-0.01,0-0.02,0.01-0.03c0.01-0.04,0.02-0.09,0.03-0.13c0-0.01,0.01-0.02,0.01-0.04
						c0.01-0.03,0.02-0.07,0.02-0.1c0-0.01,0.01-0.03,0.01-0.04c0.01-0.04,0.02-0.09,0.03-0.13l0,0c0,0-0.22-1.08-0.09-1.64
						c0.12-0.49,0.5-0.99,0.61-1.43c0.01-0.06,0.02-0.12,0.03-0.18c0.02-0.47-0.52-0.65,0.24-2.43c0.76-1.78,0.55-1.58,0.68-2.2
						c0-0.02,0.01-0.04,0.01-0.05c0-0.01,0-0.02,0.01-0.02c0-0.01,0-0.02,0.01-0.03c0-0.01,0-0.02,0.01-0.03
						c0-0.01,0-0.02,0.01-0.03c0-0.01,0-0.02,0.01-0.03c0-0.01,0.01-0.02,0.01-0.03c0-0.01,0.01-0.02,0.01-0.03
						c0-0.01,0.01-0.02,0.01-0.03c0.01-0.02,0.01-0.04,0.02-0.06c0-0.01,0.01-0.02,0.01-0.03c0-0.01,0.01-0.02,0.01-0.03
						c0-0.01,0.01-0.02,0.01-0.03c0-0.01,0.01-0.02,0.01-0.03c0-0.01,0.01-0.02,0.01-0.03c0-0.01,0.01-0.02,0.01-0.04
						c0-0.01,0.01-0.02,0.01-0.03c0-0.01,0.01-0.02,0.01-0.03c0-0.01,0.01-0.02,0.01-0.04c0.01-0.02,0.01-0.03,0.02-0.05
						c0.01-0.01,0.01-0.03,0.02-0.04c0-0.01,0.01-0.02,0.01-0.03c0.01-0.01,0.01-0.02,0.02-0.04c0-0.01,0.01-0.02,0.01-0.03
						c0.01-0.01,0.01-0.02,0.02-0.03c0.01-0.01,0.01-0.02,0.02-0.03c0.01-0.01,0.01-0.02,0.02-0.04c0.01-0.01,0.01-0.02,0.02-0.03
						c0.01-0.01,0.02-0.03,0.02-0.04c0-0.01,0.01-0.01,0.01-0.02c0.01-0.02,0.02-0.04,0.04-0.06c0-0.01,0.01-0.01,0.01-0.02
						c0.01-0.01,0.02-0.02,0.03-0.04c0.01-0.01,0.01-0.02,0.02-0.02c0.01-0.01,0.02-0.02,0.02-0.03c0.01-0.01,0.01-0.01,0.02-0.02
						c0.01-0.01,0.02-0.02,0.03-0.03c0.01-0.01,0.01-0.01,0.02-0.02c0.01-0.01,0.02-0.03,0.04-0.04c0,0,0.01-0.01,0.01-0.01
						c0.02-0.02,0.03-0.03,0.05-0.05c0,0,0.01-0.01,0.01-0.01c0.01-0.01,0.02-0.02,0.04-0.03c0.01,0,0.01-0.01,0.02-0.01
						c0.01-0.01,0.02-0.02,0.03-0.03c0.01,0,0.01-0.01,0.02-0.01c0.01-0.01,0.02-0.02,0.04-0.02c0.01,0,0.01-0.01,0.02-0.01
						c0.02-0.01,0.03-0.02,0.05-0.03c0,0,0,0,0.01,0c0.02-0.01,0.04-0.02,0.06-0.03c0,0,0,0,0.01,0c0.01,0,0.03-0.01,0.04-0.01
						c0,0,0,0,0,0c0.11-0.03,0.23-0.04,0.37-0.01c0.03,0.01,0.06,0.02,0.1,0.03c0.78,0.25,1.59,1.27,1.81,2.06
						c0.23,0.83,0.43,2.5,0.94,2.85c0,0,0,0,0,0l0,0c0.31-0.02,0.63-0.03,0.95-0.01c0,0,0,0,0,0c0.5,0.03,0.91,0.16,1.4,0.31
						c0.06,0.02,0.13,0.04,0.2,0.06c0.17,0.06,0.36,0.11,0.54,0.17c0.34,0.11,0.68,0.23,0.96,0.4c0,0,0.5-0.29,1.14-0.27
						c0.82-0.47,1.54-0.87,2.21-1.34C63.06,101.41,64.44,101.07,65.07,101.28 M65.2,100.88L65.2,100.88
						c-0.8-0.26-2.31,0.14-3.03,0.64c-0.6,0.42-1.22,0.77-1.95,1.19c-0.04,0.03-0.09,0.05-0.14,0.08c-0.43,0.01-0.8,0.13-1.02,0.22
						c-0.27-0.13-0.57-0.24-0.84-0.33c-0.1-0.03-0.19-0.06-0.28-0.09c-0.09-0.03-0.17-0.05-0.26-0.08l-0.1-0.03l-0.1-0.03
						c-0.52-0.17-0.95-0.3-1.49-0.33c0,0-0.01,0-0.01,0c-0.27-0.02-0.54-0.02-0.82,0c-0.05-0.08-0.13-0.23-0.22-0.51
						c-0.11-0.36-0.2-0.78-0.29-1.2c-0.06-0.31-0.13-0.59-0.19-0.83c-0.13-0.45-0.41-0.96-0.78-1.39c-0.4-0.48-0.87-0.82-1.3-0.96
						c-0.04-0.01-0.08-0.03-0.13-0.04c-0.19-0.05-0.37-0.04-0.55,0c-0.01,0-0.02,0-0.03,0.01c-0.02,0.01-0.04,0.01-0.06,0.02
						c-0.01,0-0.01,0-0.02,0.01c-0.03,0.01-0.06,0.03-0.09,0.04c0,0-0.01,0-0.01,0.01c-0.02,0.01-0.05,0.02-0.07,0.04
						c-0.01,0-0.01,0.01-0.02,0.01l0,0c-0.02,0.01-0.04,0.02-0.06,0.04c-0.01,0.01-0.02,0.01-0.03,0.02
						c-0.02,0.01-0.03,0.02-0.05,0.04l0,0c-0.01,0.01-0.01,0.01-0.02,0.02c-0.02,0.01-0.03,0.03-0.05,0.04l0,0
						c-0.01,0.01-0.01,0.01-0.02,0.02c-0.02,0.02-0.04,0.04-0.06,0.06c0,0-0.01,0.01-0.01,0.02l0,0c-0.02,0.02-0.03,0.04-0.05,0.05
						c-0.01,0.01-0.01,0.01-0.02,0.02l0,0c-0.01,0.01-0.02,0.03-0.03,0.04c-0.01,0.01-0.02,0.02-0.02,0.03
						c-0.01,0.01-0.02,0.03-0.03,0.04l0,0c-0.01,0.01-0.01,0.02-0.02,0.03c-0.01,0.01-0.02,0.03-0.03,0.05l0,0.01
						c0,0.01-0.01,0.01-0.01,0.02c-0.02,0.02-0.03,0.05-0.04,0.07c0,0.01-0.01,0.01-0.01,0.02l0,0.01
						c-0.01,0.02-0.02,0.03-0.03,0.05c-0.01,0.01-0.01,0.02-0.01,0.03l0,0.01c-0.01,0.01-0.01,0.03-0.02,0.04
						c-0.01,0.01-0.01,0.02-0.02,0.03c-0.01,0.01-0.01,0.03-0.02,0.04l0,0c-0.01,0.01-0.01,0.02-0.02,0.03
						c-0.01,0.01-0.01,0.03-0.02,0.04l0,0.01c0,0.01-0.01,0.02-0.01,0.03c-0.01,0.02-0.01,0.03-0.02,0.05
						c-0.01,0.02-0.01,0.04-0.02,0.05l0,0.01c0,0.01-0.01,0.02-0.01,0.03c0,0.01-0.01,0.02-0.01,0.03l0,0l0,0
						c0,0.01-0.01,0.02-0.01,0.03c0,0.01-0.01,0.03-0.01,0.04c0,0.01-0.01,0.02-0.01,0.04c0,0.01-0.01,0.03-0.01,0.04
						c0,0.01-0.01,0.02-0.01,0.03l0,0l0,0.01c0,0.01-0.01,0.02-0.01,0.03c0,0.01-0.01,0.02-0.01,0.03l0,0.01
						c-0.01,0.02-0.01,0.04-0.02,0.06l0,0.01c0,0.01-0.01,0.02-0.01,0.03c0,0.01-0.01,0.02-0.01,0.03l0,0.01
						c0,0.01-0.01,0.02-0.01,0.03c0,0.01-0.01,0.02-0.01,0.03c0,0.01-0.01,0.02-0.01,0.03c0,0.01,0,0.02-0.01,0.03
						c0,0.01-0.01,0.03-0.01,0.04l0,0.01c0,0.01,0,0.01,0,0.02c0,0.02-0.01,0.04-0.01,0.06c-0.03,0.17-0.05,0.29-0.05,0.38
						c-0.03,0.25-0.04,0.44-0.59,1.73c-0.27,0.63-0.41,1.13-0.44,1.55c-0.03,0.4,0.06,0.65,0.12,0.83c0.03,0.1,0.05,0.15,0.05,0.2
						c0,0.03-0.01,0.06-0.01,0.1c-0.04,0.16-0.14,0.36-0.25,0.58c-0.14,0.27-0.28,0.55-0.35,0.85c-0.13,0.55,0.01,1.44,0.07,1.73
						c0,0.01-0.01,0.02-0.01,0.04c0,0.01-0.01,0.02-0.01,0.04l0,0.01c-0.01,0.04-0.02,0.07-0.03,0.11l0,0.01
						c0,0.01,0,0.02-0.01,0.03c-0.01,0.05-0.02,0.1-0.03,0.14c0,0.01,0,0.02,0,0.02l0,0.01c-0.01,0.04-0.01,0.08-0.02,0.11
						c0,0.02,0,0.03-0.01,0.05c-0.01,0.04-0.01,0.08-0.02,0.12l0,0.01c0,0.01,0,0.01,0,0.02c-0.01,0.04-0.01,0.09-0.01,0.14
						c0,0.01,0,0.02,0,0.04l0,0.01c0,0.04-0.01,0.07-0.01,0.11l0,0.01c0,0.01,0,0.03,0,0.04c0,0.05-0.01,0.1-0.01,0.14
						c0,0.01,0,0.01,0,0.02l0,0.01c0,0.04,0,0.08,0,0.12c0,0.02,0,0.03,0,0.05c0,0.04,0,0.07,0,0.11l0,0.01c0,0.01,0,0.02,0,0.03
						c0,0.05,0,0.09,0,0.14c0,0,0,0.01,0,0.01c-0.93-0.15-1.76-0.18-2.53-0.06c0,0,0,0,0,0c-0.31,0.05-0.62,0.12-0.91,0.22
						c-0.22,0.07-0.34,0.3-0.27,0.52c0.04,0.14,0.15,0.23,0.27,0.28c0.08,0.02,0.16,0.03,0.24,0c0.24-0.07,0.5-0.12,0.77-0.15
						c0.52-0.05,1.08-0.04,1.68,0.05c-0.74-0.01-1.41,0.07-2.03,0.23c0,0,0,0,0,0c-0.31,0.08-0.6,0.19-0.88,0.31
						c-0.21,0.09-0.3,0.34-0.21,0.55c0.05,0.12,0.15,0.2,0.26,0.23c0.07,0.02,0.15,0.03,0.22,0.01c-0.1,0.05-0.2,0.09-0.3,0.15
						c-0.2,0.11-0.28,0.35-0.18,0.56c0.05,0.1,0.14,0.18,0.25,0.21c0.1,0.03,0.21,0.03,0.31-0.02c0.23-0.11,0.48-0.2,0.74-0.28
						c0.93-0.25,2.01-0.3,3.23-0.14c0.28,0.63,0.64,1.24,1.08,1.8l0.01,0.01l0,0.01c0.02,0.03,0.05,0.06,0.07,0.1l0,0.01l0.01,0.02
						c0.03,0.03,0.05,0.06,0.08,0.1l0,0l0.01,0.01c0.03,0.04,0.06,0.07,0.09,0.11l0.01,0.01c0.03,0.03,0.06,0.06,0.08,0.1
						c0.01,0.01,0.01,0.01,0.02,0.02l0.01,0.01c0.02,0.02,0.04,0.05,0.06,0.07c0.01,0.01,0.02,0.02,0.03,0.03
						c0.02,0.02,0.04,0.05,0.07,0.07l0.01,0.01c0.01,0.01,0.01,0.01,0.02,0.02c0.03,0.04,0.06,0.07,0.09,0.1
						c0.04,0.04,0.08,0.08,0.12,0.12c0.64,0.66,1.2,1.23,2.23,1.59c0.05,0.02,0.1,0.03,0.15,0.05c1.28,0.41,2.05,0.2,2.73,0.01
						c0.19-0.05,0.37-0.1,0.56-0.14c1.06-0.19,2-0.55,2.81-1.07c1.2,0.62,2.09,1.31,2.73,2.1c0.17,0.21,0.31,0.44,0.44,0.66
						c0.05,0.1,0.14,0.16,0.24,0.2c0.1,0.03,0.22,0.03,0.32-0.03c0.2-0.11,0.28-0.35,0.18-0.56c-0.05-0.1-0.1-0.2-0.16-0.29
						c0.05,0.06,0.12,0.1,0.19,0.12c0.11,0.04,0.24,0.03,0.34-0.04c0.2-0.12,0.26-0.37,0.15-0.57c-0.15-0.26-0.33-0.52-0.53-0.77
						c0,0,0,0,0-0.01c-0.41-0.49-0.92-0.95-1.51-1.37c0.53,0.28,0.99,0.59,1.39,0.94c0.2,0.18,0.38,0.38,0.54,0.58
						c0.05,0.07,0.12,0.11,0.2,0.14c0.13,0.04,0.27,0.02,0.38-0.06c0.18-0.14,0.22-0.39,0.09-0.58c-0.18-0.24-0.38-0.48-0.61-0.71
						c0,0,0,0-0.01,0c-0.65-0.62-1.48-1.17-2.47-1.61c0.33-0.5,0.6-1.06,0.79-1.67c0.03-0.11,0.07-0.21,0.09-0.31
						c0-0.01,0.01-0.02,0.01-0.03c0.01-0.04,0.04-0.18,0.09-0.38c0,0,0,0,0-0.01c0.22-0.94,0.32-1.34,0.34-1.4
						c0.02-0.07,0.03-0.15,0.06-0.33c0.03-0.19,0.08-0.59,0.14-0.73c0.06-0.06,0.12-0.12,0.19-0.18c0.14-0.13,0.3-0.28,0.48-0.47
						c0.18-0.21,0.32-0.55,0.48-0.94c0.12-0.31,0.25-0.63,0.39-0.84c0.2-0.29,0.39-0.78,0.59-1.29c0.16-0.41,0.33-0.82,0.46-1.04
						c0.27-0.44,0.35-1,0.21-1.44c-0.11-0.34-0.34-0.59-0.66-0.73C65.27,100.9,65.23,100.89,65.2,100.88L65.2,100.88z"/>
				</g>
				<g>
					<g>
						<path class="st16" d="M53.72,102.81c0,0-1.54,0.98-2.1,0.84c-0.56-0.14-1.46,0.02-1.76,0.33c0.01-0.06,0.02-0.12,0.03-0.18
							c0.02-0.47-0.52-0.65,0.24-2.43s0.55-1.58,0.68-2.2c0.12-0.62,0.54-1.77,1.35-1.58C53.53,98.31,53.72,102.81,53.72,102.81z"/>
					</g>
					<g>
						
							<linearGradient id="SVGID_1_" gradientUnits="userSpaceOnUse" x1="-668.2721" y1="2257.9937" x2="-681.9162" y2="2272.0513" gradientTransform="matrix(0.9516 0.3073 0.3073 -0.9516 2.3832 2471.9956)">
							<stop  offset="0" style="stop-color:#000000"/>
							<stop  offset="0.1659" style="stop-color:#0A0A0A"/>
							<stop  offset="0.6928" style="stop-color:#262626"/>
							<stop  offset="1" style="stop-color:#303030"/>
						</linearGradient>
						<path class="st17" d="M62.03,110.92c-0.78,2.42-2.68,3.87-5.17,4.32c-0.9,0.16-1.61,0.66-3.22,0.09
							c-0.99-0.35-1.49-0.9-2.18-1.61c-1.68-1.73-2.75-4.34-2.11-6.66l0,0c0,0-0.22-1.08-0.09-1.64c0.12-0.49,0.5-0.99,0.61-1.43
							c0.3-0.32,1.2-0.48,1.76-0.33c0.56,0.14,2.1-0.84,2.1-0.84s0.59-0.19,1.28-0.27c0,0,0,0,0,0l0,0
							c0.31-0.02,0.63-0.03,0.95-0.01c0,0,0,0,0,0c0.57,0.03,1.03,0.19,1.59,0.38c0.49,0.16,1.07,0.32,1.5,0.57
							c0.68,0.35,0.99,0.51,0.99,0.51l0,0c0.02,0.02,0.81,0.73,0.98,1.18c0.03,0.09,0.09,0.21,0.16,0.35l1.25,1.67
							c0.2,0.16,0.35,0.47,0.36,0.48c-0.14,0.29-0.19,1-0.23,1.12c-0.03,0.09-0.22,0.92-0.34,1.43c0,0,0,0,0,0
							c-0.05,0.21-0.08,0.36-0.09,0.39c0,0,0,0,0,0C62.09,110.72,62.06,110.82,62.03,110.92z"/>
					</g>
					<g>
						<path class="st18" d="M55,114.58c-0.51,0.09-1.11,0.09-1.97-0.21c-0.99-0.35-1.49-0.9-2.18-1.61
							c-0.26-0.27-0.51-0.56-0.73-0.86c-0.83-1.49-1.2-3.24-0.76-4.84l0,0c0,0-0.22-1.08-0.09-1.64c0.12-0.49,0.5-0.99,0.61-1.43
							c0.01-0.06,0.02-0.12,0.03-0.18c0.02-0.47-0.52-0.65,0.24-2.43c0.76-1.78,0.55-1.58,0.68-2.2c0.1-0.52,0.41-1.41,0.98-1.58
							c-0.1,0.24-0.16,0.48-0.2,0.67c-0.12,0.62,0.08,0.41-0.68,2.2c-0.76,1.78-0.22,1.96-0.24,2.43c0,0.06-0.01,0.12-0.03,0.18
							c-0.05,0.2-0.15,0.41-0.27,0.63c-0.13,0.26-0.28,0.53-0.34,0.79c-0.13,0.56,0.09,1.64,0.09,1.64l0,0
							c-0.64,2.32,0.43,4.93,2.11,6.66c0.7,0.71,1.19,1.26,2.18,1.61C54.63,114.49,54.82,114.54,55,114.58z"/>
					</g>
					<g>
						
							<ellipse transform="matrix(0.3073 -0.9516 0.9516 0.3073 -69.1495 130.0358)" class="st19" cx="54.75" cy="112.52" rx="0.37" ry="0.42"/>
					</g>
					<g>
						<path d="M56.68,111.21c0,0-0.89,0.23-0.93,0.36c-0.04,0.13-0.89,0.62-0.89,0.62s-0.4-0.89-0.36-1.02
							c0.04-0.13-0.55-0.84-0.55-0.84c0.51,0.03,0.99,0.11,1.43,0.24C55.81,110.71,56.25,110.93,56.68,111.21z"/>
					</g>
					<g>
						<path d="M55.65,113.1c-0.05-0.02-0.1-0.04-0.15-0.06c-0.57-0.26-0.76-0.79-0.77-0.81c-0.03-0.07,0.01-0.15,0.09-0.18
							c0.07-0.03,0.15,0.01,0.18,0.08l0,0c0,0,0.17,0.45,0.63,0.65c0.38,0.17,0.85,0.14,1.41-0.09c0.07-0.03,0.15,0.01,0.18,0.08
							c0.03,0.07-0.01,0.15-0.08,0.18C56.57,113.19,56.07,113.24,55.65,113.1z"/>
					</g>
					<g>
						<path d="M53.68,112.46c-0.42-0.14-0.8-0.46-1.12-0.98c-0.04-0.07-0.02-0.15,0.04-0.19c0.07-0.04,0.15-0.02,0.19,0.04
							c0.32,0.51,0.69,0.81,1.09,0.89c0.5,0.1,0.89-0.16,0.89-0.16c0.06-0.04,0.15-0.03,0.19,0.04c0.04,0.06,0.03,0.15-0.04,0.19
							c-0.02,0.01-0.49,0.33-1.1,0.21C53.78,112.49,53.73,112.48,53.68,112.46z"/>
					</g>
					<g>
						<path class="st20" d="M52.04,110.53c-1.7-0.87-3.83-1.57-5.76-1.38c-0.28,0.03-0.57,0.09-0.84,0.17
							c0.27-0.09,0.55-0.16,0.84-0.2c0.86-0.13,1.74-0.06,2.59,0.09c1.14,0.22,2.25,0.58,3.3,1.08
							C52.34,110.37,52.21,110.61,52.04,110.53L52.04,110.53z"/>
					</g>
					<g>
						<path class="st20" d="M51.96,111.03c-1.79-0.68-3.98-1.16-5.87-0.76c-0.28,0.06-0.55,0.15-0.82,0.26
							c0.26-0.12,0.53-0.21,0.81-0.29c0.84-0.22,1.72-0.25,2.58-0.18c1.16,0.09,2.3,0.34,3.4,0.72
							C52.24,110.84,52.14,111.1,51.96,111.03L51.96,111.03z"/>
					</g>
					<g>
						<path class="st20" d="M51.97,111.57c-1.82-0.58-4.04-0.92-5.91-0.42c-0.28,0.08-0.55,0.18-0.81,0.3
							c0.26-0.13,0.52-0.25,0.8-0.34c0.83-0.27,1.7-0.35,2.57-0.33c1.16,0.03,2.31,0.2,3.43,0.52
							C52.23,111.36,52.15,111.63,51.97,111.57L51.97,111.57z"/>
					</g>
					<g>
						<path class="st21" d="M65.14,101.3c0,0-2.48,1.13-2.85,1.7c-0.37,0.58-2.25,0.98-2.25,0.98s-0.31-0.16-0.99-0.51
							c0,0,0.5-0.29,1.14-0.27c0.82-0.47,1.54-0.87,2.21-1.34C63.08,101.39,64.54,101.05,65.14,101.3z"/>
					</g>
					<g>
						<path class="st21" d="M55,102.54c-0.69,0.08-1.28,0.27-1.28,0.27s-0.19-4.5-1.57-5.21c0.81,0.19,1.67,1.26,1.91,2.09
							C54.29,100.52,54.49,102.2,55,102.54z"/>
					</g>
					<g>
						<path class="st16" d="M65.39,102.87c-0.31,0.51-0.71,1.82-1.04,2.31c-0.33,0.49-0.57,1.44-0.83,1.73
							c-0.26,0.29-0.49,0.47-0.68,0.66c-0.02,0.02-0.04,0.05-0.06,0.08c-0.01-0.02-0.16-0.32-0.36-0.48l-1.25-1.67
							c-0.08-0.14-0.13-0.26-0.16-0.35c-0.16-0.45-0.95-1.16-0.98-1.18l0,0c0,0,1.88-0.4,2.25-0.98c0.37-0.58,2.85-1.7,2.85-1.7
							C65.73,101.56,65.7,102.37,65.39,102.87z"/>
					</g>
					<g class="st22">
						<path class="st23" d="M65.39,102.87c-0.31,0.51-0.71,1.82-1.04,2.31c-0.33,0.49-0.57,1.44-0.83,1.73
							c-0.26,0.29-0.49,0.47-0.68,0.66c-0.02,0.02-0.04,0.05-0.06,0.08c-0.14,0.29-0.19,1-0.23,1.12c-0.03,0.09-0.22,0.92-0.34,1.43
							c0,0,0,0,0,0c-0.05,0.21-0.08,0.36-0.09,0.39c0,0,0,0,0,0c-0.03,0.1-0.06,0.2-0.09,0.3c-0.78,2.42-2.68,3.87-5.17,4.32
							c-0.9,0.16-1.61,0.66-3.22,0.09c-0.99-0.35-1.49-0.9-2.18-1.61c-0.52-0.53-0.98-1.15-1.35-1.81c0.23,0.31,0.47,0.59,0.73,0.86
							c0.7,0.71,1.19,1.26,2.18,1.61c1.62,0.57,2.32,0.07,3.22-0.09c2.49-0.45,4.39-1.9,5.17-4.32c0.03-0.1,0.06-0.2,0.09-0.3
							c0,0,0,0,0,0c0.01-0.03,0.04-0.18,0.09-0.39c0,0,0,0,0,0c0.12-0.51,0.31-1.34,0.34-1.43c0.03-0.11,0.08-0.72,0.19-1.04
							c0.01-0.03,0.02-0.06,0.03-0.08c0.02-0.04,0.04-0.06,0.06-0.08c0.19-0.19,0.41-0.37,0.68-0.66c0.26-0.29,0.51-1.24,0.83-1.73
							c0.33-0.49,0.73-1.81,1.04-2.31c0.1-0.16,0.17-0.35,0.2-0.54c0.1-0.05,0.16-0.08,0.16-0.08
							C65.73,101.56,65.7,102.37,65.39,102.87z"/>
					</g>
					<g>
						<path class="st20" d="M58.36,112.13c1.9,0.37,4.04,1.14,5.46,2.5c0.2,0.2,0.39,0.42,0.56,0.65c-0.18-0.23-0.38-0.44-0.59-0.63
							c-1.07-0.95-2.44-1.51-3.81-1.9c-0.55-0.15-1.11-0.27-1.67-0.35C58.13,112.38,58.17,112.1,58.36,112.13L58.36,112.13z"/>
					</g>
					<g>
						<path class="st20" d="M58.16,112.59c1.85,0.57,3.9,1.56,5.16,3.07c0.18,0.22,0.35,0.46,0.49,0.71
							c-0.15-0.24-0.33-0.47-0.52-0.69c-0.97-1.06-2.26-1.76-3.58-2.29c-0.53-0.21-1.08-0.39-1.63-0.53
							C57.9,112.81,57.97,112.55,58.16,112.59L58.16,112.59z"/>
					</g>
					<g>
						<path class="st20" d="M57.85,113.03c1.82,0.68,3.8,1.79,4.98,3.36c0.17,0.23,0.32,0.48,0.45,0.74
							c-0.14-0.25-0.3-0.49-0.48-0.72c-0.9-1.12-2.16-1.89-3.44-2.5c-0.52-0.24-1.05-0.45-1.59-0.62
							C57.59,113.23,57.67,112.97,57.85,113.03L57.85,113.03z"/>
					</g>
					<g>
						<g>
							<g>
								<g>
									<path class="st24" d="M52.93,108.9c-0.02-0.01-0.05-0.02-0.07-0.03c-0.65-0.26-0.83-0.7-0.87-1.01
										c-0.07-0.57,0.26-1.13,0.39-1.22c0.3-0.22,0.82-0.11,1.21,0.01c0.61,0.2,0.95,0.86,0.75,1.47
										c-0.09,0.28-0.29,0.53-0.55,0.68C53.51,108.96,53.21,108.99,52.93,108.9L52.93,108.9z"/>
									<path class="st25" d="M53.55,106.74c0.57,0.18,0.88,0.79,0.7,1.36c-0.18,0.55-0.76,0.89-1.3,0.72
										c-0.02-0.01-0.04-0.01-0.06-0.02c-1.39-0.56-0.64-1.95-0.46-2.08C52.7,106.51,53.21,106.63,53.55,106.74 M53.61,106.57
										c-0.41-0.13-0.96-0.24-1.29,0c-0.09,0.07-0.21,0.26-0.3,0.48c-0.08,0.2-0.16,0.5-0.12,0.83c0.04,0.34,0.24,0.81,0.92,1.08
										c0.03,0.01,0.05,0.02,0.08,0.03c0.3,0.1,0.63,0.06,0.92-0.1c0.28-0.16,0.5-0.42,0.59-0.73
										C54.63,107.49,54.27,106.78,53.61,106.57L53.61,106.57z"/>
								</g>
							</g>
							<g>
								<ellipse transform="matrix(0.3073 -0.9516 0.9516 0.3073 -65.6834 125.2982)" cx="53.23" cy="107.77" rx="0.74" ry="0.74"/>
							</g>
						</g>
						
							<ellipse transform="matrix(0.3073 -0.9516 0.9516 0.3073 -65.4036 124.4648)" class="st20" cx="52.8" cy="107.16" rx="0.27" ry="0.28"/>
					</g>
					<g>
						<g>
							<g>
								<g>
									<path class="st24" d="M58.34,110.65c-0.57-0.18-0.88-0.85-0.69-1.45c0.2-0.61,0.86-0.95,1.47-0.75
										c0.39,0.12,0.87,0.35,0.99,0.69c0.05,0.15-0.01,0.8-0.4,1.22c-0.22,0.23-0.62,0.48-1.3,0.31
										C58.39,110.66,58.37,110.66,58.34,110.65z"/>
									<path class="st25" d="M59.1,108.53c0.34,0.11,0.82,0.32,0.93,0.64c0.07,0.21-0.14,1.77-1.59,1.42
										c-0.02-0.01-0.04-0.01-0.07-0.02c-0.54-0.17-0.81-0.8-0.63-1.34C57.92,108.66,58.53,108.35,59.1,108.53 M59.16,108.36
										c-0.66-0.21-1.37,0.15-1.58,0.81c-0.1,0.3-0.08,0.65,0.06,0.94c0.14,0.31,0.38,0.53,0.69,0.63
										c0.03,0.01,0.05,0.02,0.08,0.02c0.72,0.18,1.15-0.09,1.38-0.34c0.22-0.24,0.33-0.54,0.39-0.74
										c0.06-0.23,0.07-0.45,0.04-0.56C60.07,108.73,59.56,108.49,59.16,108.36L59.16,108.36z"/>
								</g>
							</g>
							<g>
								<ellipse transform="matrix(0.3073 -0.9516 0.9516 0.3073 -63.5896 131.6851)" cx="58.66" cy="109.52" rx="0.74" ry="0.7"/>
							</g>
						</g>
						<circle class="st20" cx="58.43" cy="108.97" r="0.28"/>
					</g>
				</g>
			</g>
		</g>
	</g>
</g>
</svg>
