<?xml version="1.0" encoding="utf-8"?>
<!-- Generator: Adobe Illustrator 28.2.0, SVG Export Plug-In . SVG Version: 6.00 Build 0)  -->
<svg version="1.1" id="Layer_1" xmlns="http://www.w3.org/2000/svg" xmlns:xlink="http://www.w3.org/1999/xlink" x="0px" y="0px"
	 viewBox="0 0 647.28 455.12" style="enable-background:new 0 0 647.28 455.12;" xml:space="preserve">
<style type="text/css">
	.st0{fill:#2C2C2C;}
	.st1{fill:#FFFFFF;}
	.st2{fill:#F9C47E;}
	.st3{fill:#7FB5A8;}
	.st4{fill:#F26A5C;}
	.st5{fill:#8CD8EB;}
</style>
<g>
	<path class="st0" d="M265.57,44.76c-1.5,0.1-2.2-0.28-2.09-1.13l0.55-29.16c0.01-0.39-0.18-0.61-0.55-0.67l-7.41-1.28
		c-0.19-0.04-0.37,0.11-0.36,0.31c0.17,10.03-0.67,20.13-2.52,30.3c-0.97,0.15-1.74-0.04-2.31-0.59c0.58-4.32,1.07-8.66,1.48-13.02
		c0.54-5.83,0.78-11.63,0.72-17.39c-0.01-0.23-0.17-0.43-0.4-0.47l-14.73-2.54c-0.57-0.1-0.85,0.14-0.84,0.72
		c0.26,11.23-0.02,22.27-0.83,33.1c-1.07,0.96-1.89,0.85-2.47-0.34l0.93-33.57c0.01-0.43-0.2-0.67-0.63-0.72l-13.26-1.29
		c-0.31-0.03-0.46,0.12-0.47,0.43l-0.69,34.89c0.05,0.92-0.37,1.43-1.26,1.54c-0.96,0.11-1.45-0.41-1.46-1.58l0.74-35.35
		c0.01-0.36-0.17-0.56-0.53-0.6l-15.23-1.48c-0.33-0.03-0.49,0.12-0.48,0.45c0.21,12.14-0.07,24.28-0.85,36.43
		c-0.19,0.71-0.75,1.02-1.69,0.91c-0.77-0.09-1.04-0.5-0.81-1.22c0.79-12.17,1.02-24.27,0.67-36.32c-0.01-0.39-0.21-0.6-0.6-0.62
		l-16.66-0.8c-0.15-0.01-0.28,0.12-0.27,0.27l1.99,37.16c-0.01,0.88-0.37,1.36-1.08,1.44c-0.91,0.11-1.39-0.34-1.44-1.35
		l-2.14-37.01c-0.02-0.34-0.2-0.52-0.53-0.53l-17.58-0.85c-0.47-0.02-0.69,0.2-0.66,0.67c0.82,12.53,0.84,24.87,0.07,37.02
		c-0.05,0.93-0.54,1.37-1.46,1.31c-0.93-0.05-1.27-0.55-1-1.5c0.79-12.63,0.74-25.01-0.16-37.14c-0.02-0.26-0.24-0.47-0.5-0.46
		l-16.28,0.45c-0.24,0.01-0.42,0.21-0.39,0.45l4.15,36.62c-0.02,0.74-0.14,1.2-0.37,1.38c-0.71,0.57-1.75,0.26-1.95-0.58l-0.38-1.65
		l-4.11-36.07c-0.05-0.45-0.44-0.78-0.89-0.77l-17.47,0.48c-0.2,0.01-0.35,0.19-0.3,0.39c2.54,10.41,4.89,20.89,7.04,31.42
		c0.32,1.56,0.47,2.92,0.46,4.07c-0.48,0.34-0.97,0.5-1.46,0.49c-0.17,0-0.33-0.06-0.48-0.18c-0.18-0.13-0.32-0.25-0.41-0.34
		l-7.95-35.68c-0.1-0.43-0.48-0.73-0.92-0.72L99.87,2.9c-0.31,0.01-0.52,0.31-0.42,0.6l12.4,35.37c3.88,6.81,7.4,13.55,10.55,20.22
		c10.05,21.25,18.25,43.32,24.6,66.21c0.12,0.44,0.53,0.75,0.99,0.75l151.4-0.24c0.27,0.05,0.46,0.19,0.57,0.41
		c9.23,18.75,16.33,37.42,21.3,56.03c5.65,21.16,3.53,44.72-1.68,66.12l-158.39-0.02c-0.35,0-0.64,0.28-0.66,0.63
		c-2.05,38.06-9.98,74.84-23.79,110.35c-0.89,2.3-3.01,7.36-6.36,15.17c-0.15,0.7-0.46,1.21-0.94,1.54
		c-0.61,0.41-1.34,0.14-2.19-0.8c3.95-8.91,6.95-16.12,9.01-21.65c26.45-70.9,28.72-148.24,9.91-221.3
		c-8.51-33.06-21-64.42-37.47-94.08L97.96,6.94c-0.52-1.53-0.79-1.48-0.81,0.13c-0.1,10.02-0.94,20.25-2.52,30.7
		c-0.06,0.41,0.31,0.75,0.71,0.66c1.18-0.26,2.16-0.18,2.93,0.25c-0.29,2.36-0.61,4.93-1.26,7.11C91.5,64.22,84.8,85.95,76.9,110.98
		c-8.8,27.92-15.25,56.23-14.34,83.78c0.35,10.55,1.45,21.68,3.31,33.37c0.03,0.19-0.12,0.36-0.31,0.37l-21.26,0.58
		c-0.47,0.01-0.86-0.36-0.88-0.83c-0.17-4.28-1.17-8.67-1.26-12.61c-0.17-7.01-0.2-14.04-0.09-21.08
		c1.26-14.58,4.12-28.85,8.58-42.8c2.5-7.81,6.06-18.01,10.68-30.59c8.9-24.25,17.91-48.15,27.03-71.7
		c0.47-1.19,1.21-3.35,2.23-6.46c0.75-2.29,1.28-4.49,1.59-6.6c1.43-9.96,2.27-20.15,2.5-30.58c0.04-1.79,0.68-3.45,1.92-4.98
		c0.21-0.26,0.47-0.4,0.8-0.43c3.42-0.29,5.51-0.43,6.28-0.42c8.32,0.02,24.26,0.13,47.83,0.32c38.84,0.32,76.75,3.14,114.18,11.48
		c0.51,0.12,0.88,0.57,0.9,1.09c0.36,10.4,0.15,20.69-0.64,30.88c-0.01,0.21-0.07,0.42-0.18,0.61L265.57,44.76 M165.06,175.49
		c0.93,6.71,1.42,14.23,1.49,22.56c0,0.6,0.1,1,0.3,1.21c0.44,0.48,0.99,0.5,1.64,0.06c0.34-0.23,0.56-0.62,0.57-1.03
		c0.23-7.46-0.21-15.19-1.31-23.17c-1.11-7.98-2.78-15.54-5.02-22.66c-0.12-0.39-0.43-0.71-0.82-0.84
		c-0.75-0.24-1.27-0.07-1.57,0.51c-0.13,0.25-0.11,0.66,0.05,1.24C162.58,161.41,164.14,168.78,165.06,175.49 M255.64,184.54
		c3.95,0.73,7.97-3.15,8.98-8.66c1.01-5.51-1.37-10.56-5.32-11.29c-3.95-0.73-7.97,3.15-8.98,8.66
		C249.31,178.77,251.69,183.82,255.64,184.54 M241.48,184.21c3.65-1.67,4.71-7.16,2.37-12.24c-2.33-5.08-7.19-7.84-10.84-6.17
		c-3.65,1.67-4.71,7.16-2.37,12.24C232.98,183.13,237.84,185.89,241.48,184.21 M302.58,172.21c0.7-0.34,0.63-1.93-0.17-3.56
		c-0.79-1.62-2-2.66-2.7-2.32c-0.7,0.34-0.63,1.93,0.17,3.56C300.67,171.51,301.88,172.55,302.58,172.21 M268.64,190.55
		c2.93,1.54,7.05-0.53,9.2-4.62c2.15-4.09,1.51-8.66-1.42-10.2c-2.93-1.54-7.05,0.53-9.2,4.62
		C265.07,184.44,265.71,189.01,268.64,190.55 M228.64,191.29c2.46-2.23,1.95-6.81-1.14-10.22c-3.09-3.42-7.6-4.39-10.06-2.17
		c-2.46,2.23-1.95,6.81,1.14,10.22C221.67,192.54,226.18,193.51,228.64,191.29 M309.77,210.79c-0.03,6.53-1,14.12-2.91,22.78
		c-0.22,0.99,0.1,1.53,0.95,1.62c0.64,0.07,1.23-0.34,1.39-0.96c1.99-7.52,3-15.34,3.03-23.43c0.03-8.09-0.92-15.91-2.84-23.46
		c-0.16-0.62-0.75-1.03-1.39-0.96c-0.85,0.08-1.17,0.61-0.96,1.61C308.88,196.66,309.79,204.26,309.77,210.79 M268.07,199.67
		c0.03-6.21-8.62-11.29-19.33-11.35c-10.71-0.06-19.42,4.94-19.45,11.15c-0.03,6.21,8.62,11.29,19.33,11.35
		C259.33,210.88,268.04,205.88,268.07,199.67L268.07,199.67z"/>
	<path class="st1" d="M123.93,38.89l-12.08-0.02L99.45,3.5c-0.1-0.29,0.11-0.59,0.42-0.6l15.19-0.41c0.44-0.01,0.82,0.29,0.92,0.72
		L123.93,38.89L123.93,38.89z"/>
	<path class="st1" d="M141.55,39.4l-15.27-0.48c0.01-1.15-0.14-2.51-0.46-4.07c-2.15-10.53-4.5-21.01-7.04-31.42
		c-0.05-0.2,0.1-0.38,0.3-0.39l17.47-0.48c0.45-0.01,0.84,0.32,0.89,0.77L141.55,39.4L141.55,39.4z"/>
	<path class="st1" d="M157.43,40.33c-4.59-0.92-8.99-0.95-13.18-0.08L140.1,3.63c-0.03-0.24,0.15-0.44,0.39-0.45l16.28-0.45
		c0.26-0.01,0.48,0.2,0.5,0.46C158.17,15.32,158.22,27.7,157.43,40.33L157.43,40.33z"/>
	<path class="st1" d="M180.73,41.22c-6.89-1.1-13.84-1.33-20.84-0.7c0.77-12.15,0.75-24.49-0.07-37.02
		c-0.03-0.47,0.19-0.69,0.66-0.67l17.58,0.85c0.33,0.01,0.51,0.19,0.53,0.53L180.73,41.22L180.73,41.22z"/>
	<path class="st1" d="M198.12,41.44l-14.87-0.31l-1.99-37.16c-0.01-0.15,0.12-0.28,0.27-0.27l16.66,0.8
		c0.39,0.02,0.59,0.23,0.6,0.62C199.14,17.17,198.91,29.27,198.12,41.44L198.12,41.44z"/>
	<path class="st1" d="M216.97,42.3c-5.37-0.76-10.82-0.94-16.35-0.55c0.78-12.15,1.06-24.29,0.85-36.43
		c-0.01-0.33,0.15-0.48,0.48-0.45l15.23,1.48c0.36,0.04,0.54,0.24,0.53,0.6L216.97,42.3L216.97,42.3z"/>
	<path class="st1" d="M108.7,38.21l-6.87,0.25c-0.06-0.81-0.4-1.32-1.03-1.53c-0.44-0.15-0.84-0.08-1.19,0.19
		c-0.36,0.29-0.53,0.71-0.52,1.26c-0.45,0.23-0.73,0.33-0.82,0.3c-0.77-0.43-1.75-0.51-2.93-0.25c-0.4,0.09-0.77-0.25-0.71-0.66
		c1.58-10.45,2.42-20.68,2.52-30.7c0.02-1.61,0.29-1.66,0.81-0.13L108.7,38.21L108.7,38.21z"/>
	<path class="st1" d="M233.81,42.6l-14.12-0.26l0.69-34.89c0.01-0.31,0.16-0.46,0.47-0.43l13.26,1.29c0.43,0.05,0.64,0.29,0.63,0.72
		L233.81,42.6L233.81,42.6z"/>
	<path class="st1" d="M250.88,42.54c-0.01,0.4-0.33,0.57-0.95,0.5c-4.63-0.49-9.18-0.53-13.65-0.1c0.81-10.83,1.09-21.87,0.83-33.1
		c-0.01-0.58,0.27-0.82,0.84-0.72l14.73,2.54c0.23,0.04,0.39,0.24,0.4,0.47c0.06,5.76-0.18,11.56-0.72,17.39
		C251.95,33.88,251.46,38.22,250.88,42.54L250.88,42.54z"/>
	<path class="st1" d="M263.48,43.63l-10.29-0.5c1.85-10.17,2.69-20.27,2.52-30.3c-0.01-0.2,0.17-0.35,0.36-0.31l7.41,1.28
		c0.37,0.06,0.56,0.28,0.55,0.67L263.48,43.63L263.48,43.63z"/>
	<path class="st0" d="M101.83,38.46c0.61,3.88,1.22,7.73,1.81,11.56c2.99,19.31,3.89,38.35,2.71,57.11
		c-1.43,22.77-7.41,44.62-6.24,66.41c0.29,5.38,1.48,16.22,3.59,32.51c0.97,7.48,1.54,16.42,1.71,26.82
		c0.01,0.65-0.31,0.91-0.94,0.8l-0.4-0.07c-0.69-0.12-1.04-0.53-1.04-1.23c-0.09-16.69-2.87-33.84-4.65-50.08
		c-1.35-12.3-1.15-24.71,0.61-37.24c2.13-15.24,4.12-26.75,4.85-38.74c1.37-22.78-0.21-45.42-4.75-67.93
		c-0.01-0.55,0.16-0.97,0.52-1.26c0.35-0.27,0.75-0.34,1.19-0.19C101.43,37.14,101.77,37.65,101.83,38.46L101.83,38.46z"/>
	<path class="st2" d="M108.7,38.21c16.47,29.66,28.96,61.02,37.47,94.08c18.81,73.06,16.54,150.4-9.91,221.3
		c-2.06,5.53-5.06,12.74-9.01,21.65l-3.55-0.42l0.51-9.19l2.05-73.68c0.47-14.97,0.37-30.31-0.31-46.04
		c-0.03-0.73-0.29-0.82-0.76-0.27c-1.95,2.26-4.52,3.66-7.69,4.2c-2.02,0.35-3.06,0.53-3.13,0.54c-9.51,1.97-17.32,3.2-23.44,3.68
		c-6.93,0.55-15.77,0.71-26.51,0.48c6.53-8.92,18.33-11.42,25.71-2c0.47,0.61,1.02,0.67,1.63,0.2l0.22-0.18
		c0.46-0.36,0.54-1.02,0.19-1.48c-3.06-3.95-6.35-6.21-9.87-6.77c-8.89-1.41-15.73,1.95-20.5,10.09
		c-10.56-0.21-21.62-0.99-33.18-2.34c-6.3-0.73-11.51-1.61-15.62-2.64c-3.1-0.77-6.1-2.56-9-5.39c-0.25-2.5,0.67-4.48,2.76-5.95
		c10.1-7.08,22.15-7.87,34.6-8.83c0.45-0.03,0.77-0.43,0.72-0.88c-0.58-4.62-0.31-9.67-0.55-14.1c-0.36-6.61-0.18-13.18,0.54-19.71
		c-0.11,7.04-0.08,14.07,0.09,21.08c0.09,3.94,1.09,8.33,1.26,12.61c0.02,0.47,0.41,0.84,0.88,0.83l21.26-0.58
		c0.19-0.01,0.34-0.18,0.31-0.37c-1.86-11.69-2.96-22.82-3.31-33.37c-0.91-27.55,5.54-55.86,14.34-83.78
		c7.9-25.03,14.6-46.76,20.11-65.19c0.65-2.18,0.97-4.75,1.26-7.11c0.09,0.03,0.37-0.07,0.82-0.3c4.54,22.51,6.12,45.15,4.75,67.93
		c-0.73,11.99-2.72,23.5-4.85,38.74c-1.76,12.53-1.96,24.94-0.61,37.24c1.78,16.24,4.56,33.39,4.65,50.08c0,0.7,0.35,1.11,1.04,1.23
		l0.4,0.07c0.63,0.11,0.95-0.15,0.94-0.8c-0.17-10.4-0.74-19.34-1.71-26.82c-2.11-16.29-3.3-27.13-3.59-32.51
		c-1.17-21.79,4.81-43.64,6.24-66.41c1.18-18.76,0.28-37.8-2.71-57.11c-0.59-3.83-1.2-7.68-1.81-11.56L108.7,38.21 M119.01,248.38
		l0.09-0.47c0.11-0.63-0.11-1.11-0.65-1.44c-5.59-3.47-11.99-5.9-19.2-7.27c-22.2-4.22-44.37-4.41-66.5-0.58
		c-8.49,1.47-15.62,3.78-21.41,6.91c-0.66,0.36-0.84,1.23-0.37,1.82l0.25,0.33c0.28,0.35,0.62,0.42,1.02,0.21
		c5.87-3.13,12.81-5.38,20.82-6.75c23.97-4.09,47.22-3.59,69.75,1.49c4.31,0.97,9.29,3.08,14.96,6.33
		C118.46,249.36,118.88,249.17,119.01,248.38L119.01,248.38z"/>
	<path class="st2" d="M123.93,38.89c0.09,0.09,0.23,0.21,0.41,0.34c0.15,0.12,0.31,0.18,0.48,0.18c0.49,0.01,0.98-0.15,1.46-0.49
		l15.27,0.48l0.38,1.65c0.2,0.84,1.24,1.15,1.95,0.58c0.23-0.18,0.35-0.64,0.37-1.38c4.19-0.87,8.59-0.84,13.18,0.08
		c-0.27,0.95,0.07,1.45,1,1.5c0.92,0.06,1.41-0.38,1.46-1.31c7-0.63,13.95-0.4,20.84,0.7c0.05,1.01,0.53,1.46,1.44,1.35
		c0.71-0.08,1.07-0.56,1.08-1.44l14.87,0.31c-0.23,0.72,0.04,1.13,0.81,1.22c0.94,0.11,1.5-0.2,1.69-0.91
		c5.53-0.39,10.98-0.21,16.35,0.55c0.01,1.17,0.5,1.69,1.46,1.58c0.89-0.11,1.31-0.62,1.26-1.54l14.12,0.26
		c0.58,1.19,1.4,1.3,2.47,0.34c4.47-0.43,9.02-0.39,13.65,0.1c0.62,0.07,0.94-0.1,0.95-0.5c0.57,0.55,1.34,0.74,2.31,0.59l10.29,0.5
		c-0.11,0.85,0.59,1.23,2.09,1.13c-0.03,0.21,0.09,0.63,0.36,1.24c9.39,21.07,20.43,46.95,33.12,77.66
		c0.23,0.56,0.34,1.28,0.34,2.15l-151.4,0.24c-0.46,0-0.87-0.31-0.99-0.75c-6.35-22.89-14.55-44.96-24.6-66.21
		c-3.15-6.67-6.67-13.41-10.55-20.22L123.93,38.89 M256.4,59.23c0-0.66-0.53-1.19-1.19-1.19s-1.19,0.53-1.19,1.19
		s0.53,1.19,1.19,1.19S256.4,59.89,256.4,59.23 M268.47,91.46c2,5.89,3.75,12.59,5.25,20.09c0.11,0.54,0.27,0.89,0.48,1.04
		c0.48,0.35,0.98,0.28,1.49-0.23c0.27-0.27,0.39-0.65,0.33-1.03c-1.08-6.77-2.82-13.66-5.2-20.66c-2.37-7.01-5.19-13.53-8.44-19.57
		c-0.18-0.33-0.51-0.56-0.89-0.61c-0.72-0.09-1.16,0.15-1.32,0.72c-0.08,0.25,0,0.63,0.25,1.12
		C263.79,79.2,266.47,85.58,268.47,91.46L268.47,91.46z"/>
	<path class="st0" d="M256.4,59.23c0,0.66-0.53,1.19-1.19,1.19s-1.19-0.53-1.19-1.19s0.53-1.19,1.19-1.19S256.4,58.57,256.4,59.23
		L256.4,59.23z"/>
	<path class="st0" d="M270.82,90.67c2.38,7,4.12,13.89,5.2,20.66c0.06,0.38-0.06,0.76-0.33,1.03c-0.51,0.51-1.01,0.58-1.49,0.23
		c-0.21-0.15-0.37-0.5-0.48-1.04c-1.5-7.5-3.25-14.2-5.25-20.09c-2-5.88-4.68-12.26-8.05-19.13c-0.25-0.49-0.33-0.87-0.25-1.12
		c0.16-0.57,0.6-0.81,1.32-0.72c0.38,0.05,0.71,0.28,0.89,0.61C265.63,77.14,268.45,83.66,270.82,90.67L270.82,90.67z"/>
	<path class="st0" d="M532.88,161.63c-5.36,3.64-12.3,6.08-20.83,7.31c-19.84,2.87-38.2,3.97-55.09,3.3
		c-7.47-0.3-18.9-1.18-34.28-2.63c-8.48-0.81-16.07-2.56-22.76-5.26c-1.17-0.47-3.1-1.79-5.79-3.97c-1.89-3.55-1.5-6.55,1.18-9
		c6.45-5.89,14.79-8.67,23.24-9.93c31.54-4.7,62.82-3.49,93.83,3.64c5.02,1.15,9.55,2.46,13.58,3.91c1.8,0.65,3.57,1.81,5.3,3.46
		C533.55,154.64,534.09,157.7,532.88,161.63 M523.2,161.13c0.26,0.16,0.54,0.21,0.84,0.14c1.41-0.35,2.71-1.01,3.9-1.98
		c0.7-0.58,0.94-1.54,0.6-2.38c-1.09-2.66-4.46-3.78-6.97-4.5c-32.47-9.4-66.88-11.28-100.54-6.78c-7.04,0.94-17.76,3.75-22.29,9.2
		c-0.65,0.78-0.68,1.9-0.09,2.72c0.77,1.05,1.94,1.93,3.5,2.62c0.31,0.13,0.61,0.12,0.91-0.04c6.09-3.32,12.8-5.7,20.14-7.13
		c26.95-5.27,53.79-5.18,80.53,0.28C510.84,154.73,517.33,157.35,523.2,161.13 M519.34,162.63c0.67-0.15,0.7-0.39,0.11-0.73
		c-8.85-5.09-19.05-6.95-29.93-8.35c-21.7-2.79-43.01-2.24-63.93,1.64c-6.73,1.25-12.95,3.2-18.66,5.85
		c-0.97,0.45-0.93,0.8,0.11,1.04c4.88,1.15,8.41,1.86,10.59,2.13c14.46,1.81,28.72,2.87,42.79,3.19c0.31,0.01,0.57-0.11,0.77-0.35
		c9.16-10.52,24.03-12.9,32.84-0.69c0.12,0.17,0.33,0.26,0.53,0.24C502.78,165.77,511.04,164.45,519.34,162.63 M490.64,167.11
		c0.25-0.01,0.37-0.3,0.21-0.49c-7.32-8.64-18.94-6.78-26.19,0.66c-0.19,0.2-0.04,0.54,0.24,0.53L490.64,167.11L490.64,167.11z"/>
	<path class="st1" d="M523.2,161.13c-5.87-3.78-12.36-6.4-19.47-7.85c-26.74-5.46-53.58-5.55-80.53-0.28
		c-7.34,1.43-14.05,3.81-20.14,7.13c-0.3,0.16-0.6,0.17-0.91,0.04c-1.56-0.69-2.73-1.57-3.5-2.62c-0.59-0.82-0.56-1.94,0.09-2.72
		c4.53-5.45,15.25-8.26,22.29-9.2c33.66-4.5,68.07-2.62,100.54,6.78c2.51,0.72,5.88,1.84,6.97,4.5c0.34,0.84,0.1,1.8-0.6,2.38
		c-1.19,0.97-2.49,1.63-3.9,1.98C523.74,161.34,523.46,161.29,523.2,161.13L523.2,161.13z"/>
	<path class="st1" d="M165.06,175.49c-0.92-6.71-2.48-14.08-4.67-22.12c-0.16-0.58-0.18-0.99-0.05-1.24
		c0.3-0.58,0.82-0.75,1.57-0.51c0.39,0.13,0.7,0.45,0.82,0.84c2.24,7.12,3.91,14.68,5.02,22.66c1.1,7.98,1.54,15.71,1.31,23.17
		c-0.01,0.41-0.23,0.8-0.57,1.03c-0.65,0.44-1.2,0.42-1.64-0.06c-0.2-0.21-0.3-0.61-0.3-1.21
		C166.48,189.72,165.99,182.2,165.06,175.49L165.06,175.49z"/>
	<path class="st1" d="M519.34,162.63c-8.3,1.82-16.56,3.14-24.78,3.97c-0.2,0.02-0.41-0.07-0.53-0.24
		c-8.81-12.21-23.68-9.83-32.84,0.69c-0.2,0.24-0.46,0.36-0.77,0.35c-14.07-0.32-28.33-1.38-42.79-3.19
		c-2.18-0.27-5.71-0.98-10.59-2.13c-1.04-0.24-1.08-0.59-0.11-1.04c5.71-2.65,11.93-4.6,18.66-5.85
		c20.92-3.88,42.23-4.43,63.93-1.64c10.88,1.4,21.08,3.26,29.93,8.35C520.04,162.24,520.01,162.48,519.34,162.63L519.34,162.63z"/>
	<path class="st2" d="M532.88,161.63c1.11,17.79,1.42,35.48,0.91,53.05l-2,0.66c-0.43,0.15-0.63-0.01-0.61-0.46l0.13-2.56
		c0.01-0.25-0.24-0.44-0.48-0.35c-10.93,3.98-22.14,6.43-33.65,7.34c-33.46,2.65-68.84-1.06-101.39-7.5
		c-0.3-0.06-0.58,0.16-0.6,0.47l-3.88,80.36c-0.04,0.76,0.45,1.45,1.18,1.66l11.61,3.37c0.35,0.1,0.52,0.33,0.49,0.7
		c-0.28,4.57-0.42,8.9-0.41,13.01c0.01,1.5-0.61,2.22-1.77,2.84c-0.33,0.18-0.61,0.11-0.82-0.2c-2.87-4.19-7.07-6.44-12.59-6.74
		c0.51-49.01,2.22-97.98,5.13-146.9c2.69,2.18,4.62,3.5,5.79,3.97c6.69,2.7,14.28,4.45,22.76,5.26c15.38,1.45,26.81,2.33,34.28,2.63
		c16.89,0.67,35.25-0.43,55.09-3.3C520.58,167.71,527.52,165.27,532.88,161.63 M518.99,188.26c-0.17,4.94-0.55,9.85-1.13,14.73
		c-0.09,0.71,0.22,1.13,0.91,1.27c0.34,0.07,0.68,0.01,1.03-0.16c0.29-0.14,0.49-0.42,0.55-0.74c0.91-5.01,1.17-10.14,1.33-15.01
		c0.17-4.86,0.28-10-0.28-15.06c-0.04-0.32-0.22-0.61-0.5-0.77c-0.33-0.2-0.67-0.28-1.02-0.24c-0.7,0.1-1.03,0.5-1,1.21
		C519.13,178.4,519.17,183.33,518.99,188.26 M408.86,193.21c-0.56,3.96-0.74,7.74-0.53,11.36c0.04,0.62,0.15,1.07,0.34,1.35
		c0.33,0.49,0.84,0.63,1.53,0.41c0.47-0.15,0.78-0.6,0.76-1.09c-0.16-3.93,0.03-7.81,0.57-11.65c0.54-3.85,1.43-7.63,2.67-11.36
		c0.15-0.47-0.02-0.98-0.43-1.26c-0.6-0.4-1.12-0.41-1.58-0.03c-0.26,0.22-0.49,0.62-0.7,1.2
		C410.29,185.56,409.41,189.25,408.86,193.21L408.86,193.21z"/>
	<path class="st1" d="M490.64,167.11l-25.74,0.7c-0.28,0.01-0.43-0.33-0.24-0.53c7.25-7.44,18.87-9.3,26.19-0.66
		C491.01,166.81,490.89,167.1,490.64,167.11L490.64,167.11z"/>
	<path class="st1" d="M255.64,184.54c-3.95-0.72-6.33-5.77-5.32-11.29c1.01-5.51,5.03-9.39,8.98-8.66
		c3.95,0.72,6.33,5.77,5.32,11.29C263.61,181.39,259.59,185.27,255.64,184.54L255.64,184.54z"/>
	<path class="st1" d="M241.48,184.21c-3.64,1.68-8.5-1.08-10.84-6.17c-2.34-5.08-1.28-10.57,2.37-12.24
		c3.64-1.68,8.5,1.08,10.84,6.17C246.19,177.05,245.13,182.54,241.48,184.21L241.48,184.21z"/>
	<path class="st1" d="M302.58,172.21c-0.7,0.34-1.91-0.7-2.7-2.32c-0.79-1.63-0.86-3.22-0.17-3.56c0.7-0.34,1.91,0.7,2.7,2.32
		C303.21,170.28,303.28,171.87,302.58,172.21L302.58,172.21z"/>
	<path class="st0" d="M521.68,188.35c-0.16,4.87-0.42,10-1.33,15.01c-0.06,0.32-0.26,0.6-0.55,0.74c-0.35,0.17-0.69,0.23-1.03,0.16
		c-0.69-0.14-1-0.56-0.91-1.27c0.58-4.88,0.96-9.79,1.13-14.73c0.18-4.93,0.14-9.86-0.11-14.77c-0.03-0.71,0.3-1.11,1-1.21
		c0.35-0.04,0.69,0.04,1.02,0.24c0.28,0.16,0.46,0.45,0.5,0.77C521.96,178.35,521.85,183.49,521.68,188.35L521.68,188.35z"/>
	<path class="st1" d="M268.64,190.55c-2.93-1.54-3.57-6.11-1.42-10.2c2.15-4.09,6.27-6.16,9.2-4.62c2.93,1.54,3.57,6.11,1.42,10.2
		C275.69,190.02,271.57,192.09,268.64,190.55L268.64,190.55z"/>
	<path class="st1" d="M228.64,191.29c-2.46,2.22-6.97,1.25-10.06-2.17c-3.09-3.42-3.6-8-1.14-10.22c2.46-2.22,6.97-1.25,10.06,2.17
		C230.59,184.48,231.1,189.06,228.64,191.29L228.64,191.29z"/>
	<path class="st0" d="M411.53,193.59c-0.54,3.84-0.73,7.72-0.57,11.65c0.02,0.49-0.29,0.94-0.76,1.09c-0.69,0.22-1.2,0.08-1.53-0.41
		c-0.19-0.28-0.3-0.73-0.34-1.35c-0.21-3.62-0.03-7.4,0.53-11.36c0.55-3.96,1.43-7.65,2.63-11.07c0.21-0.58,0.44-0.98,0.7-1.2
		c0.46-0.38,0.98-0.37,1.58,0.03c0.41,0.28,0.58,0.79,0.43,1.26C412.96,185.96,412.07,189.74,411.53,193.59L411.53,193.59z"/>
	<path class="st1" d="M312.23,210.8c-0.03,8.09-1.04,15.91-3.03,23.43c-0.16,0.62-0.75,1.03-1.39,0.96
		c-0.85-0.09-1.17-0.63-0.95-1.62c1.91-8.66,2.88-16.25,2.91-22.78c0.02-6.53-0.89-14.13-2.73-22.8c-0.21-1,0.11-1.53,0.96-1.61
		c0.64-0.07,1.23,0.34,1.39,0.96C311.31,194.89,312.26,202.71,312.23,210.8L312.23,210.8z"/>
	<path class="st1" d="M268.07,199.67c-0.03,6.21-8.74,11.21-19.45,11.15c-10.71-0.06-19.36-5.14-19.33-11.35
		c0.03-6.21,8.74-11.21,19.45-11.15C259.45,188.38,268.1,193.46,268.07,199.67L268.07,199.67z"/>
	<path class="st0" d="M646.24,231.35c-2.86,2.53-6.19,4.19-10,4.98c-15.53,3.25-30.05,4.9-43.54,4.95
		c-18.15,0.07-36.36-1.13-54.65-3.6c-6.52-0.87-12.32-3.13-17.4-6.77c-0.27-0.19-0.41-0.12-0.43,0.21
		c-1.13,18.99-2.13,40.63-3,64.92c-0.03,0.9-0.19,1.44-0.47,1.62c-36.21,9.18-72.83,9.8-109.1,1.05c-0.3-0.07-0.46,0.05-0.47,0.36
		l-0.55,11.45c-0.02,0.45,0.44,0.75,0.84,0.55c7.48-3.85,13.87,0.02,15.89,7.57c1.57,5.89,1.12,12.03-1.37,18.4
		c-0.13,0.31-0.04,0.55,0.26,0.71c4.39,2.33,8.17,5.21,7.43,10.82c-1.81,4.09-5.15,7.5-10,10.21c-10.99,6.15-23.66,8.27-36.49,8.92
		c-32.55,1.65-64.6,1.53-96.5-1.87c-11.81-1.25-23.33-4.25-34.55-8.99c-2.61-1.1-4.91-2.79-6.9-5.06c-1.74-3.49-1.2-6.4,1.63-8.72
		c0.26-0.21,0.35-0.48,0.26-0.8c-0.3-1.17-1.06-2.14-1.27-3.41c-0.8-4.71,1.02-7.77,5.45-9.18c0.29-0.09,0.39-0.28,0.3-0.57
		c-2.1-6.7-1.49-12.83,1.82-18.39c5.01-8.42,14.23-11.2,23.15-7.33c3.03,1.31,5.93,3,8.72,5.07c0.18,0.14,0.45,0.05,0.51-0.17
		l14.06-48.52c0.18-0.63,0.59-0.87,1.23-0.7c0.23,0.06,0.36,0.09,0.37,0.1c0.75,0.22,1.03,0.65,0.84,1.29l-13.51,46.74
		c-0.06,0.2,0.17,0.37,0.36,0.26c3.85-2.1,7.92-2.11,12.22-0.03c1.35,2.9,2.25,1.32,2.7-4.75c0.16-2.11,0.93-4.21,2.31-6.3
		c4.25-6.43,11.2-8.06,17.1-1.88c0.89,0.93,2.12,2.84,3.7,5.73c0.16,0.29,0.4,0.4,0.72,0.32c8.52-2.07,14.52,0.87,18.01,8.81
		c0.09,0.21,0.37,0.27,0.54,0.12c7.38-6.45,17.08-12.25,25.92-6.93c3.49,2.11,5.34,5.08,5.55,8.92c0.01,0.27,0.12,0.31,0.32,0.12
		c2.94-2.91,6.52-4.34,10.75-4.3c5.52,0.3,9.72,2.55,12.59,6.74c0.21,0.31,0.49,0.38,0.82,0.2c1.16-0.62,1.78-1.34,1.77-2.84
		c-0.01-4.11,0.13-8.44,0.41-13.01c0.03-0.37-0.14-0.6-0.49-0.7l-11.61-3.37c-0.73-0.21-1.22-0.9-1.18-1.66l3.88-80.36
		c0.02-0.31,0.3-0.53,0.6-0.47c32.55,6.44,67.93,10.15,101.39,7.5c11.51-0.91,22.72-3.36,33.65-7.34c0.24-0.09,0.49,0.1,0.48,0.35
		l-0.13,2.56c-0.02,0.45,0.18,0.61,0.61,0.46l2-0.66c5.75-1.51,13.24-2.67,22.46-3.5c23.56-2.11,46.86-0.57,69.91,4.62
		c5.57,1.25,10.24,2.57,14.02,3.94c1.63,0.59,3.21,1.7,4.72,3.31C647.07,225.36,647.51,228.13,646.24,231.35 M605.76,221.29
		c11.22,1.37,21.95,3.34,31.6,9.42c0.27,0.17,0.56,0.22,0.87,0.13c1.35-0.37,2.49-1.11,3.42-2.22c0.47-0.57,0.52-1.37,0.13-2
		c-1.83-2.9-7.9-4.08-13.08-5.36c-27.89-6.86-56.47-8.16-85.74-3.9c-5.19,0.76-17.58,3.9-18.68,9.95c-0.07,0.35,0.06,0.62,0.37,0.8
		l2.92,1.69c0.33,0.19,0.67,0.19,1,0c5.36-3.11,12.19-5.42,20.48-6.91C567.85,219.52,586.75,218.98,605.76,221.29 M633.43,232.17
		c0.6-0.13,0.63-0.35,0.1-0.65c-7.95-4.58-17.11-6.25-26.89-7.51c-19.5-2.51-38.64-2.02-57.44,1.46
		c-6.05,1.13-11.64,2.88-16.76,5.26c-0.87,0.4-0.84,0.71,0.1,0.93c4.38,1.03,7.55,1.67,9.51,1.92c12.99,1.62,25.81,2.58,38.44,2.87
		c0.28,0.01,0.52-0.1,0.7-0.32c8.23-9.44,21.59-11.58,29.5-0.61c0.11,0.15,0.29,0.23,0.48,0.22
		C618.55,235,625.97,233.81,633.43,232.17 M607.41,236.14c0.21-0.01,0.32-0.27,0.18-0.43c-6.37-7.53-16.5-5.91-22.82,0.57
		c-0.17,0.17-0.03,0.47,0.21,0.46L607.41,236.14 M472.99,232.36c0-0.62-0.5-1.12-1.12-1.12h-25.46c-0.62,0-1.12,0.5-1.12,1.12v0.34
		c0,0.62,0.5,1.12,1.12,1.12h25.46c0.62,0,1.12-0.5,1.12-1.12V232.36 M493.65,260.31c3.86-4.25,7.64-8.83,11.33-13.72
		c0.95-1.27,1.53-2.1,1.73-2.49c1.25-2.43,0.73-2.89-1.54-1.4c-1.65,1.09-3.5,2.59-5.56,4.51c-4.91,4.57-9.33,8.98-13.24,13.22
		c-0.19,0.2-0.5,0.23-0.71,0.06c-2.51-1.94-5.17-3.36-7.97-4.25c-10.41-3.31-21.13-5.29-32.18-5.95c-0.41-0.02-0.66-0.48-0.45-0.84
		l4.82-8.35c0.31-0.53-0.12-1.19-0.74-1.12c-3.06,0.35-10.3,7.05-12.8,9.29c-0.25,0.22-0.55,0.35-0.88,0.38
		c-1.61,0.16-2.9,0.26-3.87,0.3c-8.02,0.31-16.83,4.15-19.85,11.92c-0.51,1.33-0.51,2.71,0.02,4.13
		c4.99,13.4,27.35,11.19,38.55,9.78c0.79-0.1,1.49,0.1,2.11,0.6l6.06,4.89c0.32,0.25,0.78-0.02,0.71-0.42l-0.89-5.39
		c-0.07-0.4,0.21-0.79,0.61-0.84c7.91-1.08,15.18-2.93,21.81-5.54c1.81-0.71,3.7-2.02,5.67-3.91c0.24-0.23,0.51-0.28,0.82-0.15
		c4.49,1.94,9.12,3.71,13.91,5.31c3.48,1.17,6.56,1.76,9.24,1.77c1.11,0,1.87-1.13,1.44-2.16c-1.76-4.16-13.39-7.61-17.83-8.61
		C493.51,261.23,493.33,260.66,493.65,260.31 M441.7,293.72c3.95,0.33,7.7,0.3,11.27-0.11c0.61-0.07,1.05-0.21,1.31-0.41
		c0.47-0.35,0.58-0.87,0.33-1.53c-0.18-0.46-0.64-0.74-1.13-0.69c-3.87,0.37-7.72,0.4-11.55,0.07c-3.83-0.32-7.63-0.99-11.38-2.01
		c-0.47-0.12-0.97,0.08-1.22,0.49c-0.37,0.62-0.35,1.14,0.05,1.57c0.23,0.24,0.64,0.45,1.23,0.63
		C434.06,292.72,437.76,293.39,441.7,293.72 M467.49,291.11l-5.06,0.9c-0.28,0.05-0.46,0.31-0.41,0.58l0.04,0.19
		c0.19,1.07,1.33,1.76,2.56,1.54l1.61-0.28c1.22-0.22,2.06-1.27,1.87-2.34l-0.03-0.19C468.02,291.24,467.76,291.06,467.49,291.11
		 M369.5,323.08c-0.49,0.25-0.91,0.17-1.28-0.24c-6.44-7.33-13.41-3.82-16.5,3.93c-0.13,0.33-0.09,0.63,0.14,0.9
		c0.3,0.36,0.67,0.57,1.12,0.63c0.34,0.05,0.6-0.07,0.78-0.36c1.02-1.63,2.08-3.93,3.38-5.07c4.3-3.77,8.38,0.09,10.84,3.89
		c0.33,0.52,1.08,0.56,1.47,0.08c0.83-1.03,1.17-1.67,2.29-2.03c1.75-0.57,3.02,0.09,3.81,1.96c0.47,1.11,0.8,1.92,1.01,2.41
		c0.17,0.37,0.45,0.51,0.84,0.42c0.31-0.07,0.53-0.17,0.68-0.3c0.61-0.58,0.78-1.25,0.51-2.02
		C376.77,322.25,373.74,320.85,369.5,323.08 M280.24,333.01c-0.11,0.49-0.38,0.62-0.83,0.4c-3.39-1.69-7.17-1.05-8.82,2.55
		c-0.79,1.72-0.66,3.42,0.39,5.09c0.28,0.45,0.88,0.6,1.34,0.33l0.4-0.23c0.43-0.25,0.61-0.77,0.43-1.24
		c-0.67-1.71-0.51-3.03,0.5-3.98c2.04-1.92,4.67-0.51,6.5,1.21c0.63,0.59,1.65,0.24,1.8-0.61c0.55-3.28,2.09-8.63,6.54-7.06
		c0.64,0.23,1.66,0.7,3.07,1.41c0.46,0.24,1.02-0.01,1.16-0.51c0.88-3.21,2.4-7.08,6.49-6.25c1.33,0.27,1.7,1.35,2.18,2.66
		c0.13,0.33,0.36,0.54,0.7,0.61c0.53,0.11,0.95,0.05,1.27-0.18c0.27-0.19,0.38-0.44,0.33-0.77c-0.37-2.52-1.67-4.1-3.9-4.73
		c-4.24-1.21-6.98,1.55-8.71,5.35c-0.18,0.4-0.47,0.51-0.87,0.33C285.27,325.18,281.21,328.35,280.24,333.01 M398.09,335.14
		c-3.81-6.11-10.62-0.23-7.56,2.17c0.44,0.35,1.09,0.22,1.37-0.27l0.71-1.23c0.61-1.06,2.14-1.06,2.75,0l1.7,2.93
		c0.29,0.51,0.98,0.61,1.4,0.2l2.25-2.14c0.96-0.92,2.52-0.7,3.17,0.45c0.07,0.13,0.02,0.62-0.17,1.48c-0.07,0.35,0,0.66,0.23,0.93
		c0.54,0.67,1.49,0.57,2-0.13c1.11-1.51,0.94-2.97-0.51-4.4c-2.05-2.01-4.3-1.98-6.75,0.1C398.45,335.43,398.25,335.4,398.09,335.14
		 M322,342.05c-3.63-2.57-6.92-3.47-9.78,1.01c-0.34,0.53-0.17,1.23,0.37,1.55l0.35,0.2c0.54,0.31,1.22,0.13,1.54-0.39
		c1.43-2.31,3.06-2.66,4.91-1.07c1.55,1.33,2.47,2.02,2.76,2.05c0.34,0.04,0.66-0.03,0.95-0.2c1.18-0.67,2.14-2.05,3.74-2.34
		c2.88-0.53,4.01,1.61,5.06,4.1c0.13,0.32,0.38,0.49,0.73,0.52c0.28,0.02,0.57-0.07,0.88-0.26c0.39-0.24,0.56-0.61,0.53-1.12
		c-0.07-1.24-0.27-2.07-0.62-2.49c-3.15-3.83-6.68-4.35-10.59-1.56C322.56,342.24,322.28,342.24,322,342.05 M247.62,346.15
		l-0.2,0.35c-0.77,1.35-0.67,2.63,0.3,3.84c1.3,1.61,2.43,2.64,3.4,3.09c15.1,7.01,31.33,9.92,47.37,11.11
		c27.77,2.07,56.41,2.22,85.93,0.47c9.74-0.58,18.51-2.22,26.31-4.91c6.32-2.19,26.19-12.36,10.62-20
		c-0.33-0.15-0.58-0.08-0.77,0.23c-4.58,7.71-11.41,13-20.49,15.85c-6.61,2.07-12.41,3.3-17.4,3.68
		c-31.53,2.37-63.64,0.22-97.17-1.96c-12.95-0.84-26.15-3.04-35.44-12.09C249.12,344.87,248.3,344.98,247.62,346.15L247.62,346.15z"
		/>
	<path class="st1" d="M637.36,230.71c-9.65-6.08-20.38-8.05-31.6-9.42c-19.01-2.31-37.91-1.77-56.71,1.6
		c-8.29,1.49-15.12,3.8-20.48,6.91c-0.33,0.19-0.67,0.19-1,0l-2.92-1.69c-0.31-0.18-0.44-0.45-0.37-0.8
		c1.1-6.05,13.49-9.19,18.68-9.95c29.27-4.26,57.85-2.96,85.74,3.9c5.18,1.28,11.25,2.46,13.08,5.36c0.39,0.63,0.34,1.43-0.13,2
		c-0.93,1.11-2.07,1.85-3.42,2.22C637.92,230.93,637.63,230.88,637.36,230.71L637.36,230.71z"/>
	<path class="st1" d="M633.43,232.17c-7.46,1.64-14.88,2.83-22.26,3.57c-0.19,0.01-0.37-0.07-0.48-0.22
		c-7.91-10.97-21.27-8.83-29.5,0.61c-0.18,0.22-0.42,0.33-0.7,0.32c-12.63-0.29-25.45-1.25-38.44-2.87
		c-1.96-0.25-5.13-0.89-9.51-1.92c-0.94-0.22-0.97-0.53-0.1-0.93c5.12-2.38,10.71-4.13,16.76-5.26c18.8-3.48,37.94-3.97,57.44-1.46
		c9.78,1.26,18.94,2.93,26.89,7.51C634.06,231.82,634.03,232.04,633.43,232.17L633.43,232.17z"/>
	<path class="st3" d="M646.24,231.35c1.39,27.01,1.38,53.9-0.03,80.69c-0.44,8.4-0.73,15.06-0.88,19.97
		c-0.44,14.98-0.77,24.84-0.99,29.58c-0.53,11.39-1.76,24.08-3.67,38.08c-2.1,5.11-5.48,8.94-10.13,11.49
		c-11.33,6.22-23.71,9.59-37.12,10.11c-17.17,0.66-34.26-1.59-51.23-4.78c-10.7-2.02-20.04-5.73-24.53-16.48
		c-1.7-4.89-2.44-10.3-2.23-16.23l0.19-24.19l1.13-61.93c0.28-0.18,0.44-0.72,0.47-1.62c0.87-24.29,1.87-45.93,3-64.92
		c0.02-0.33,0.16-0.4,0.43-0.21c5.08,3.64,10.88,5.9,17.4,6.77c18.29,2.47,36.5,3.67,54.65,3.6c13.49-0.05,28.01-1.7,43.54-4.95
		C640.05,235.54,643.38,233.88,646.24,231.35 M633.55,255.47c-0.16,4.51-0.51,9-1.05,13.47c-0.07,0.64,0.21,1.03,0.84,1.16
		c0.31,0.06,0.62,0.01,0.94-0.15c0.27-0.13,0.45-0.38,0.51-0.67c0.83-4.58,1.06-9.27,1.22-13.72c0.16-4.45,0.26-9.14-0.25-13.77
		c-0.03-0.3-0.2-0.56-0.46-0.71c-0.3-0.18-0.61-0.25-0.93-0.21c-0.64,0.08-0.94,0.45-0.91,1.1
		C633.68,246.46,633.71,250.96,633.55,255.47 M533.6,260c-0.52,3.64-0.68,7.12-0.48,10.45c0.03,0.57,0.14,0.98,0.31,1.24
		c0.3,0.46,0.77,0.58,1.41,0.38c0.43-0.14,0.71-0.55,0.69-1.01c-0.14-3.61,0.03-7.18,0.53-10.72c0.49-3.53,1.31-7.02,2.45-10.45
		c0.14-0.43-0.02-0.9-0.39-1.16c-0.55-0.37-1.04-0.37-1.46-0.02c-0.24,0.2-0.45,0.57-0.64,1.1
		C534.92,252.96,534.11,256.35,533.6,260 M532.72,355.89c3.81,0.62,8.3,1.83,11.6,2.4c32.67,5.68,64.87,3.6,96.6-6.24
		c0.77-0.24,1.42-0.63,1.94-1.16c0.22-0.23,0.35-0.54,0.36-0.86c0.74-19.74,1.1-30.82,1.08-33.25c-0.13-13.28,0.02-26.34,0.44-39.19
		c0.01-0.35-0.33-0.6-0.66-0.48c-10.56,3.83-21.57,6.09-33.03,6.78c-29.68,1.81-59.97-1.24-89.34-7.05
		c-0.29-0.05-0.55,0.16-0.57,0.45l-3.52,72.81c-0.04,0.76,0.45,1.44,1.18,1.65l10.36,3c0.33,0.09,0.49,0.31,0.46,0.66
		c-0.61,8.74-0.39,17.68,0.68,26.83c1.01,8.7,2.88,22.22,14.37,22.93c0.77,0.05,1.25-0.3,1.44-1.06c0.04-0.17,0.06-0.25,0.06-0.26
		c0.11-0.47-0.22-0.93-0.69-0.97c-6.22-0.53-9.59-5.35-10.87-11.02c-2.57-11.46-3.38-23.31-2.43-35.55
		C532.21,355.98,532.39,355.84,532.72,355.89 M621.87,396.29c-1.9,3.16-4.43,6.09-7.6,8.8c-0.42,0.36-0.65,0.65-0.68,0.84
		c-0.09,0.57,0.18,1,0.82,1.3c0.37,0.19,0.82,0.14,1.15-0.12c3.4-2.7,6.2-5.89,8.4-9.55c2.21-3.67,3.71-7.63,4.52-11.9
		c0.07-0.41-0.09-0.83-0.43-1.07c-0.57-0.42-1.08-0.46-1.54-0.12c-0.16,0.12-0.3,0.45-0.42,1
		C625.17,389.53,623.76,393.14,621.87,396.29L621.87,396.29z"/>
	<path class="st1" d="M607.41,236.14l-22.43,0.6c-0.24,0.01-0.38-0.29-0.21-0.46c6.32-6.48,16.45-8.1,22.82-0.57
		C607.73,235.87,607.62,236.13,607.41,236.14L607.41,236.14z"/>
	<path class="st1" d="M472.99,232.7c0,0.62-0.5,1.12-1.12,1.12h-25.46c-0.62,0-1.12-0.5-1.12-1.12v-0.34c0-0.62,0.5-1.12,1.12-1.12
		h25.46c0.62,0,1.12,0.5,1.12,1.12V232.7L472.99,232.7z"/>
	<path class="st0" d="M117.77,248.96c-5.67-3.25-10.65-5.36-14.96-6.33c-22.53-5.08-45.78-5.58-69.75-1.49
		c-8.01,1.37-14.95,3.62-20.82,6.75c-0.4,0.21-0.74,0.14-1.02-0.21l-0.25-0.33c-0.47-0.59-0.29-1.46,0.37-1.82
		c5.79-3.13,12.92-5.44,21.41-6.91c22.13-3.83,44.3-3.64,66.5,0.58c7.21,1.37,13.61,3.8,19.2,7.27c0.54,0.33,0.76,0.81,0.65,1.44
		l-0.09,0.47C118.88,249.17,118.46,249.36,117.77,248.96L117.77,248.96z"/>
	<path class="st1" d="M493.65,260.31c-0.32,0.35-0.14,0.92,0.32,1.02c4.44,1,16.07,4.45,17.83,8.61c0.43,1.03-0.33,2.16-1.44,2.16
		c-2.68-0.01-5.76-0.6-9.24-1.77c-4.79-1.6-9.42-3.37-13.91-5.31c-0.31-0.13-0.58-0.08-0.82,0.15c-1.97,1.89-3.86,3.2-5.67,3.91
		c-6.63,2.61-13.9,4.46-21.81,5.54c-0.4,0.05-0.68,0.44-0.61,0.84l0.89,5.39c0.07,0.4-0.39,0.67-0.71,0.42l-6.06-4.89
		c-0.62-0.5-1.32-0.7-2.11-0.6c-11.2,1.41-33.56,3.62-38.55-9.78c-0.53-1.42-0.53-2.8-0.02-4.13c3.02-7.77,11.83-11.61,19.85-11.92
		c0.97-0.04,2.26-0.14,3.87-0.3c0.33-0.03,0.63-0.16,0.88-0.38c2.5-2.24,9.74-8.94,12.8-9.29c0.62-0.07,1.05,0.59,0.74,1.12
		l-4.82,8.35c-0.21,0.36,0.04,0.82,0.45,0.84c11.05,0.66,21.77,2.64,32.18,5.95c2.8,0.89,5.46,2.31,7.97,4.25
		c0.21,0.17,0.52,0.14,0.71-0.06c3.91-4.24,8.33-8.65,13.24-13.22c2.06-1.92,3.91-3.42,5.56-4.51c2.27-1.49,2.79-1.03,1.54,1.4
		c-0.2,0.39-0.78,1.22-1.73,2.49C501.29,251.48,497.51,256.06,493.65,260.31L493.65,260.31z"/>
	<path class="st0" d="M633.55,255.47c0.16-4.51,0.13-9.01-0.09-13.5c-0.03-0.65,0.27-1.02,0.91-1.1c0.32-0.04,0.63,0.03,0.93,0.21
		c0.26,0.15,0.43,0.41,0.46,0.71c0.51,4.63,0.41,9.32,0.25,13.77c-0.16,4.45-0.39,9.14-1.22,13.72c-0.06,0.29-0.24,0.54-0.51,0.67
		c-0.32,0.16-0.63,0.21-0.94,0.15c-0.63-0.13-0.91-0.52-0.84-1.16C633.04,264.47,633.39,259.98,633.55,255.47L633.55,255.47z"/>
	<path class="st0" d="M64.42,254.54c-0.03,0.07-0.12,0.15-0.25,0.23c-0.25,0.15-0.51,0.18-0.78,0.1l-1.59-0.47
		c4.77-8.14,11.61-11.5,20.5-10.09c3.52,0.56,6.81,2.82,9.87,6.77c0.35,0.46,0.27,1.12-0.19,1.48l-0.22,0.18
		c-0.61,0.47-1.16,0.41-1.63-0.2C82.75,243.12,70.95,245.62,64.42,254.54L64.42,254.54z"/>
	<path class="st4" d="M61.8,254.4l1.59,0.47c0.27,0.08,0.53,0.05,0.78-0.1c0.13-0.08,0.22-0.16,0.25-0.23
		c10.74,0.23,19.58,0.07,26.51-0.48c6.12-0.48,13.93-1.71,23.44-3.68c0.07-0.01,1.11-0.19,3.13-0.54c3.17-0.54,5.74-1.94,7.69-4.2
		c0.47-0.55,0.73-0.46,0.76,0.27c0.68,15.73,0.78,31.07,0.31,46.04c-8.71,3.3-17.48,5.43-26.33,6.38
		c-30.91,3.33-63.49-0.1-94.94-6.08c-0.78-0.15-1.19,0.18-1.24,0.97c-0.25,4.5-0.44,8.49-0.57,11.98c-0.04,1.13-0.21,2.29-0.51,3.48
		c-0.29,1.14-0.59,2.28-0.92,3.41C1.72,289.62,2.47,266.93,4,244.03c2.9,2.83,5.9,4.62,9,5.39c4.11,1.03,9.32,1.91,15.62,2.64
		C40.18,253.41,51.24,254.19,61.8,254.4 M114.79,271c-0.16,4.45-0.51,8.88-1.05,13.29c-0.07,0.64,0.2,1.02,0.83,1.15
		c0.3,0.06,0.61,0.01,0.93-0.14c0.26-0.14,0.44-0.38,0.5-0.67c0.82-4.52,1.06-9.15,1.22-13.55c0.16-4.39,0.26-9.02-0.24-13.59
		c-0.03-0.3-0.2-0.56-0.45-0.7c-0.3-0.18-0.61-0.25-0.92-0.21c-0.63,0.08-0.93,0.44-0.9,1.08C114.92,262.1,114.95,266.54,114.79,271
		 M16.18,275.47c-0.5,3.57-0.65,6.98-0.46,10.25c0.03,0.55,0.13,0.96,0.3,1.21c0.3,0.44,0.76,0.57,1.38,0.37
		c0.42-0.14,0.7-0.54,0.69-0.99c-0.15-3.54,0.01-7.04,0.5-10.5c0.48-3.46,1.28-6.88,2.39-10.24c0.14-0.42-0.02-0.89-0.39-1.14
		c-0.54-0.36-1.01-0.36-1.42-0.02c-0.24,0.2-0.44,0.56-0.63,1.09C17.46,268.58,16.67,271.9,16.18,275.47L16.18,275.47z"/>
	<path class="st2" d="M319.58,248.37c-2.35,11.25-5.58,23.21-9.69,35.89c-1.44,4.43-2.9,8.37-4.38,11.82
		c-0.81,1.88-1.51,3.76-2.11,5.64c-0.61,1.91-1.29,3.81-2.02,5.7c-4.3-2.08-8.37-2.07-12.22,0.03c-0.19,0.11-0.42-0.06-0.36-0.26
		l13.51-46.74c0.19-0.64-0.09-1.07-0.84-1.29c-0.01-0.01-0.14-0.04-0.37-0.1c-0.64-0.17-1.05,0.07-1.23,0.7l-14.06,48.52
		c-0.06,0.22-0.33,0.31-0.51,0.17c-2.79-2.07-5.69-3.76-8.72-5.07c-8.92-3.87-18.14-1.09-23.15,7.33
		c-3.31,5.56-3.92,11.69-1.82,18.39c0.09,0.29-0.01,0.48-0.3,0.57c-4.43,1.41-6.25,4.47-5.45,9.18c0.21,1.27,0.97,2.24,1.27,3.41
		c0.09,0.32,0,0.59-0.26,0.8c-2.83,2.32-3.37,5.23-1.63,8.72c-0.89,1.15-1.55,2.45-1.99,3.88L228,357.07
		c-0.73,0.07-1.27,0.69-1.21,1.4l0.03,0.28c0.05,0.61,0.37,0.89,0.96,0.84l14.7-1.34l-2.5,9.24c-19.7,1.76-39.39,3.49-59.07,5.18
		c-15.72,1.35-31.46,2.26-47.23,2.71c-0.89,0.03-1.99-0.27-3.3-0.88c3.35-7.81,5.47-12.87,6.36-15.17
		c13.81-35.51,21.74-72.29,23.79-110.35c0.02-0.35,0.31-0.63,0.66-0.63L319.58,248.37 M210.56,358.49c-0.08-0.63-0.66-1.08-1.29-1
		l-10.14,1.28c-0.63,0.08-1.08,0.65-1,1.29l0.01,0.08c0.08,0.63,0.66,1.08,1.28,1l10.14-1.28c0.63-0.08,1.08-0.65,1-1.29
		L210.56,358.49L210.56,358.49z"/>
	<path class="st0" d="M533.6,260c0.51-3.65,1.32-7.04,2.42-10.19c0.19-0.53,0.4-0.9,0.64-1.1c0.42-0.35,0.91-0.35,1.46,0.02
		c0.37,0.26,0.53,0.73,0.39,1.16c-1.14,3.43-1.96,6.92-2.45,10.45c-0.5,3.54-0.67,7.11-0.53,10.72c0.02,0.46-0.26,0.87-0.69,1.01
		c-0.64,0.2-1.11,0.08-1.41-0.38c-0.17-0.26-0.28-0.67-0.31-1.24C532.92,267.12,533.08,263.64,533.6,260L533.6,260z"/>
	<path class="st0" d="M114.79,271c0.16-4.46,0.13-8.9-0.08-13.34c-0.03-0.64,0.27-1,0.9-1.08c0.31-0.04,0.62,0.03,0.92,0.21
		c0.25,0.14,0.42,0.4,0.45,0.7c0.5,4.57,0.4,9.2,0.24,13.59c-0.16,4.4-0.4,9.03-1.22,13.55c-0.06,0.29-0.24,0.53-0.5,0.67
		c-0.32,0.15-0.63,0.2-0.93,0.14c-0.63-0.13-0.9-0.51-0.83-1.15C114.28,279.88,114.63,275.45,114.79,271L114.79,271z"/>
	<path class="st0" d="M16.18,275.47c0.49-3.57,1.28-6.89,2.36-9.97c0.19-0.53,0.39-0.89,0.63-1.09c0.41-0.34,0.88-0.34,1.42,0.02
		c0.37,0.25,0.53,0.72,0.39,1.14c-1.11,3.36-1.91,6.78-2.39,10.24c-0.49,3.46-0.65,6.96-0.5,10.5c0.01,0.45-0.27,0.85-0.69,0.99
		c-0.62,0.2-1.08,0.07-1.38-0.37c-0.17-0.25-0.27-0.66-0.3-1.21C15.53,282.45,15.68,279.04,16.18,275.47L16.18,275.47z"/>
	<path class="st0" d="M532.18,356.31c-0.95,12.24-0.14,24.09,2.43,35.55c1.28,5.67,4.65,10.49,10.87,11.02
		c0.47,0.04,0.8,0.5,0.69,0.97c0,0.01-0.02,0.09-0.06,0.26c-0.19,0.76-0.67,1.11-1.44,1.06c-11.49-0.71-13.36-14.23-14.37-22.93
		c-1.07-9.15-1.29-18.09-0.68-26.83c0.03-0.35-0.13-0.57-0.46-0.66l-10.36-3c-0.73-0.21-1.22-0.89-1.18-1.65l3.52-72.81
		c0.02-0.29,0.28-0.5,0.57-0.45c29.37,5.81,59.66,8.86,89.34,7.05c11.46-0.69,22.47-2.95,33.03-6.78c0.33-0.12,0.67,0.13,0.66,0.48
		c-0.42,12.85-0.57,25.91-0.44,39.19c0.02,2.43-0.34,13.51-1.08,33.25c-0.01,0.32-0.14,0.63-0.36,0.86
		c-0.52,0.53-1.17,0.92-1.94,1.16c-31.73,9.84-63.93,11.92-96.6,6.24c-3.3-0.57-7.79-1.78-11.6-2.4
		C532.39,355.84,532.21,355.98,532.18,356.31 M591.92,295.49c0-0.62-0.5-1.11-1.11-1.11l-23.1,0.04c-0.62,0-1.11,0.5-1.11,1.11
		l0,0.3c0,0.62,0.5,1.11,1.11,1.11l23.1-0.04c0.62,0,1.11-0.5,1.11-1.11L591.92,295.49 M615.38,317.36
		c2.82-3.89,4.66-8.21,2.14-12.64c-2.01-3.54-6.62-4.56-10.17-2.81c-3.85,1.91-5.38,5.47-4.6,10.66c0.05,0.37-0.11,0.54-0.49,0.51
		l-37.73-3.67c-0.54-0.05-0.97-0.45-1.08-0.97c-1.35-6.78-8.13-11.77-14.89-8.79c-7.81,3.44-9.22,13.72-0.9,17.73
		c0.3,0.15,0.35,0.56,0.08,0.76c-6.98,5.37-6.65,14.73,0.82,19.62c3.65,2.39,9.05,2.15,12.28-1.1c2.53-2.54,3.56-5.76,3.1-9.65
		c-0.04-0.38,0.26-0.71,0.64-0.69l36.41,1.76c0.2,0.01,0.35,0.17,0.35,0.37c-0.01,3.17,1.03,5.41,3.12,6.71
		c6.05,3.77,14.14,1.14,16.05-6c1.46-5.48-0.19-9.2-4.94-11.16C615.24,317.86,615.17,317.65,615.38,317.36 M563.43,351.22
		c3.62,0.32,7.07,0.29,10.35-0.08c0.56-0.06,0.96-0.19,1.21-0.37c0.43-0.33,0.53-0.8,0.3-1.41c-0.17-0.42-0.59-0.68-1.03-0.64
		c-3.56,0.34-7.1,0.36-10.62,0.06c-3.52-0.31-7-0.93-10.45-1.87c-0.44-0.12-0.89,0.06-1.13,0.45c-0.33,0.56-0.31,1.04,0.06,1.44
		c0.21,0.22,0.58,0.41,1.12,0.57C556.41,350.29,559.8,350.91,563.43,351.22 M586.85,348.73l-4.67,0.8
		c-0.28,0.05-0.46,0.31-0.41,0.58l0.06,0.37c0.17,0.98,1.28,1.61,2.49,1.4l1.3-0.22c1.2-0.21,2.04-1.18,1.87-2.16l-0.06-0.37
		C587.38,348.86,587.12,348.68,586.85,348.73L586.85,348.73z"/>
	<path class="st1" d="M441.7,293.72c-3.94-0.33-7.64-1-11.09-1.99c-0.59-0.18-1-0.39-1.23-0.63c-0.4-0.43-0.42-0.95-0.05-1.57
		c0.25-0.41,0.75-0.61,1.22-0.49c3.75,1.02,7.55,1.69,11.38,2.01c3.83,0.33,7.68,0.3,11.55-0.07c0.49-0.05,0.95,0.23,1.13,0.69
		c0.25,0.66,0.14,1.18-0.33,1.53c-0.26,0.2-0.7,0.34-1.31,0.41C449.4,294.02,445.65,294.05,441.7,293.72L441.7,293.72z"/>
	<path class="st1" d="M467.49,291.11c0.27-0.05,0.53,0.13,0.58,0.4l0.03,0.19c0.19,1.07-0.65,2.12-1.87,2.34l-1.61,0.28
		c-1.23,0.22-2.37-0.47-2.56-1.54l-0.04-0.19c-0.05-0.27,0.13-0.53,0.41-0.58L467.49,291.11L467.49,291.11z"/>
	<path class="st0" d="M126.26,291.95l-2.05,73.68c-36.05,11.59-72.37,13.05-108.97,4.4c-0.33-0.07-0.5,0.05-0.53,0.38
		c-0.79,10.03-0.26,20.39,1.59,31.1c1.12,6.5,3.47,14.14,11.12,14.79c0.62,0.06,1.08,0.59,1.05,1.22c-0.01,0.04-0.02,0.16-0.04,0.37
		c-0.07,0.51-0.35,0.78-0.86,0.8c-10.04,0.48-12.88-10.85-14.07-18.62c-1.57-10.18-1.98-20.29-1.25-30.32
		c0.02-0.37-0.21-0.7-0.56-0.8l-11.41-3.22l1.47-53.64c0.33-1.13,0.63-2.27,0.92-3.41c0.3-1.19,0.47-2.35,0.51-3.48
		c0.13-3.49,0.32-7.48,0.57-11.98c0.05-0.79,0.46-1.12,1.24-0.97c31.45,5.98,64.03,9.41,94.94,6.08
		C108.78,297.38,117.55,295.25,126.26,291.95 M73.73,310.49c0-0.6-0.48-1.08-1.08-1.08H49.81c-0.6,0-1.08,0.48-1.08,1.08v0.38
		c0,0.6,0.48,1.08,1.08,1.08h22.84c0.6,0,1.08-0.48,1.08-1.08V310.49 M49.92,327.25l3.73-6.46c0.5-0.86-0.56-1.77-1.34-1.16
		l-9.55,7.49c-0.25,0.2-0.53,0.31-0.85,0.33c-7.3,0.5-13.48,1.48-17.74,8.04c-1.09,1.68-1.3,3.43-0.63,5.26
		c3.84,10.35,22.39,8.48,31.03,7.45c0.33-0.04,0.65,0.06,0.91,0.26l4.58,3.69c0.85,0.69,1.19,0.5,1.01-0.59l-0.62-3.72
		c-0.05-0.31,0.08-0.48,0.39-0.52c6.82-0.95,16.9-2.73,21.83-7.39c0.24-0.23,0.52-0.29,0.84-0.18c5.21,1.78,11.06,4.58,17.71,5.62
		c0.87,0.14,1.72-0.39,1.98-1.23c0.13-0.41-0.14-0.92-0.8-1.53c-3.38-3.09-9.2-4.85-13.46-5.93c-0.3-0.07-0.45-0.4-0.28-0.61
		l10.89-13.51c0.14-0.17,0.14-0.47-0.01-0.88c-0.03-0.09-0.08-0.18-0.15-0.27c-0.19-0.23-0.41-0.28-0.67-0.13
		c-1.69,0.99-3.39,2.31-5.11,3.94c-4.99,4.73-8.53,8.27-10.64,10.62c-0.23,0.25-0.48,0.28-0.76,0.09c-2.75-1.9-5.95-3.33-9.58-4.3
		c-7.4-1.97-14.85-3.22-22.36-3.73C49.95,327.88,49.76,327.53,49.92,327.25 M45.61,365.5c3.6,0.31,7.03,0.28,10.29-0.09
		c0.55-0.07,0.95-0.19,1.2-0.37c0.42-0.33,0.52-0.79,0.29-1.4c-0.16-0.42-0.58-0.67-1.02-0.63c-3.54,0.34-7.05,0.36-10.55,0.06
		c-3.49-0.3-6.95-0.92-10.38-1.85c-0.43-0.11-0.89,0.07-1.12,0.45c-0.33,0.56-0.31,1.04,0.06,1.43c0.21,0.22,0.58,0.41,1.12,0.57
		C38.64,364.58,42.01,365.19,45.61,365.5 M68.76,363.01l-4.69,0.8c-0.27,0.05-0.45,0.3-0.4,0.57l0.05,0.28
		c0.17,1.02,1.3,1.69,2.52,1.48l1.25-0.22c1.21-0.2,2.06-1.2,1.89-2.23l-0.05-0.28C69.28,363.14,69.03,362.96,68.76,363.01
		L68.76,363.01z"/>
	<path class="st1" d="M591.92,295.79c0,0.61-0.49,1.11-1.11,1.11l-23.1,0.04c-0.61,0-1.11-0.49-1.11-1.11l0-0.3
		c0-0.61,0.49-1.11,1.11-1.11l23.1-0.04c0.61,0,1.11,0.49,1.11,1.11L591.92,295.79L591.92,295.79z"/>
	<path class="st2" d="M516.75,297.66l-1.13,61.93c-10.69,6.24-21.92,9.79-33.71,10.64c-7.54,0.55-12.59,0.94-15.15,1.18
		c-9.24-2.34-18.8-3.89-28.69-4.65l-8.39-18.19c0.74-5.61-3.04-8.49-7.43-10.82c-0.3-0.16-0.39-0.4-0.26-0.71
		c2.49-6.37,2.94-12.51,1.37-18.4c-2.02-7.55-8.41-11.42-15.89-7.57c-0.4,0.2-0.86-0.1-0.84-0.55l0.55-11.45
		c0.01-0.31,0.17-0.43,0.47-0.36C443.92,307.46,480.54,306.84,516.75,297.66 M506.11,343.44c-2.07,3.42-4.83,6.61-8.28,9.55
		c-0.46,0.39-0.71,0.7-0.75,0.91c-0.09,0.62,0.2,1.09,0.89,1.42c0.41,0.2,0.9,0.15,1.26-0.13c3.7-2.93,6.75-6.39,9.16-10.37
		c2.4-3.98,4.05-8.28,4.93-12.92c0.09-0.45-0.09-0.9-0.46-1.17c-0.62-0.46-1.17-0.5-1.67-0.13c-0.18,0.13-0.33,0.49-0.46,1.08
		C509.72,336.1,508.18,340.02,506.11,343.44L506.11,343.44z"/>
	<path class="st1" d="M615.57,318c4.75,1.96,6.4,5.68,4.94,11.16c-1.91,7.14-10,9.77-16.05,6c-2.09-1.3-3.13-3.54-3.12-6.71
		c0-0.2-0.15-0.36-0.35-0.37l-36.41-1.76c-0.38-0.02-0.68,0.31-0.64,0.69c0.46,3.89-0.57,7.11-3.1,9.65
		c-3.23,3.25-8.63,3.49-12.28,1.1c-7.47-4.89-7.8-14.25-0.82-19.62c0.27-0.2,0.22-0.61-0.08-0.76c-8.32-4.01-6.91-14.29,0.9-17.73
		c6.76-2.98,13.54,2.01,14.89,8.79c0.11,0.52,0.54,0.92,1.08,0.97l37.73,3.67c0.38,0.03,0.54-0.14,0.49-0.51
		c-0.78-5.19,0.75-8.75,4.6-10.66c3.55-1.75,8.16-0.73,10.17,2.81c2.52,4.43,0.68,8.75-2.14,12.64
		C615.17,317.65,615.24,317.86,615.57,318L615.57,318z"/>
	<path class="st1" d="M73.73,310.87c0,0.6-0.48,1.08-1.08,1.08H49.81c-0.6,0-1.08-0.48-1.08-1.08v-0.38c0-0.6,0.48-1.08,1.08-1.08
		h22.84c0.6,0,1.08,0.48,1.08,1.08V310.87L73.73,310.87z"/>
	<path class="st1" d="M369.5,323.08c4.24-2.23,7.27-0.83,9.09,4.2c0.27,0.77,0.1,1.44-0.51,2.02c-0.15,0.13-0.37,0.23-0.68,0.3
		c-0.39,0.09-0.67-0.05-0.84-0.42c-0.21-0.49-0.54-1.3-1.01-2.41c-0.79-1.87-2.06-2.53-3.81-1.96c-1.12,0.36-1.46,1-2.29,2.03
		c-0.39,0.48-1.14,0.44-1.47-0.08c-2.46-3.8-6.54-7.66-10.84-3.89c-1.3,1.14-2.36,3.44-3.38,5.07c-0.18,0.29-0.44,0.41-0.78,0.36
		c-0.45-0.06-0.82-0.27-1.12-0.63c-0.23-0.27-0.27-0.57-0.14-0.9c3.09-7.75,10.06-11.26,16.5-3.93
		C368.59,323.25,369.01,323.33,369.5,323.08L369.5,323.08z"/>
	<path class="st1" d="M49.92,327.25c-0.16,0.28,0.03,0.63,0.35,0.65c7.51,0.51,14.96,1.76,22.36,3.73c3.63,0.97,6.83,2.4,9.58,4.3
		c0.28,0.19,0.53,0.16,0.76-0.09c2.11-2.35,5.65-5.89,10.64-10.62c1.72-1.63,3.42-2.95,5.11-3.94c0.26-0.15,0.48-0.1,0.67,0.13
		c0.07,0.09,0.12,0.18,0.15,0.27c0.15,0.41,0.15,0.71,0.01,0.88l-10.89,13.51c-0.17,0.21-0.02,0.54,0.28,0.61
		c4.26,1.08,10.08,2.84,13.46,5.93c0.66,0.61,0.93,1.12,0.8,1.53c-0.26,0.84-1.11,1.37-1.98,1.23c-6.65-1.04-12.5-3.84-17.71-5.62
		c-0.32-0.11-0.6-0.05-0.84,0.18c-4.93,4.66-15.01,6.44-21.83,7.39c-0.31,0.04-0.44,0.21-0.39,0.52l0.62,3.72
		c0.18,1.09-0.16,1.28-1.01,0.59l-4.58-3.69c-0.26-0.2-0.58-0.3-0.91-0.26c-8.64,1.03-27.19,2.9-31.03-7.45
		c-0.67-1.83-0.46-3.58,0.63-5.26c4.26-6.56,10.44-7.54,17.74-8.04c0.32-0.02,0.6-0.13,0.85-0.33l9.55-7.49
		c0.78-0.61,1.84,0.3,1.34,1.16L49.92,327.25L49.92,327.25z"/>
	<path class="st1" d="M280.24,333.01c0.97-4.66,5.03-7.83,9.97-5.62c0.4,0.18,0.69,0.07,0.87-0.33c1.73-3.8,4.47-6.56,8.71-5.35
		c2.23,0.63,3.53,2.21,3.9,4.73c0.05,0.33-0.06,0.58-0.33,0.77c-0.32,0.23-0.74,0.29-1.27,0.18c-0.34-0.07-0.57-0.28-0.7-0.61
		c-0.48-1.31-0.85-2.39-2.18-2.66c-4.09-0.83-5.61,3.04-6.49,6.25c-0.14,0.5-0.7,0.75-1.16,0.51c-1.41-0.71-2.43-1.18-3.07-1.41
		c-4.45-1.57-5.99,3.78-6.54,7.06c-0.15,0.85-1.17,1.2-1.8,0.61c-1.83-1.72-4.46-3.13-6.5-1.21c-1.01,0.95-1.17,2.27-0.5,3.98
		c0.18,0.47,0,0.99-0.43,1.24l-0.4,0.23c-0.46,0.27-1.06,0.12-1.34-0.33c-1.05-1.67-1.18-3.37-0.39-5.09
		c1.65-3.6,5.43-4.24,8.82-2.55C279.86,333.63,280.13,333.5,280.24,333.01L280.24,333.01z"/>
	<path class="st0" d="M506.11,343.44c2.07-3.42,3.61-7.34,4.62-11.76c0.13-0.59,0.28-0.95,0.46-1.08c0.5-0.37,1.05-0.33,1.67,0.13
		c0.37,0.27,0.55,0.72,0.46,1.17c-0.88,4.64-2.53,8.94-4.93,12.92c-2.41,3.98-5.46,7.44-9.16,10.37c-0.36,0.28-0.85,0.33-1.26,0.13
		c-0.69-0.33-0.98-0.8-0.89-1.42c0.04-0.21,0.29-0.52,0.75-0.91C501.28,350.05,504.04,346.86,506.11,343.44L506.11,343.44z"/>
	<path class="st1" d="M398.68,335.23c2.45-2.08,4.7-2.11,6.75-0.1c1.45,1.43,1.62,2.89,0.51,4.4c-0.51,0.7-1.46,0.8-2,0.13
		c-0.23-0.27-0.3-0.58-0.23-0.93c0.19-0.86,0.24-1.35,0.17-1.48c-0.65-1.15-2.21-1.37-3.17-0.45l-2.25,2.14
		c-0.42,0.41-1.11,0.31-1.4-0.2l-1.7-2.93c-0.61-1.06-2.14-1.06-2.75,0l-0.71,1.23c-0.28,0.49-0.93,0.62-1.37,0.27
		c-3.06-2.4,3.75-8.28,7.56-2.17C398.25,335.4,398.45,335.43,398.68,335.23L398.68,335.23z"/>
	<path class="st1" d="M322.83,342.05c3.91-2.79,7.44-2.27,10.59,1.56c0.35,0.42,0.55,1.25,0.62,2.49c0.03,0.51-0.14,0.88-0.53,1.12
		c-0.31,0.19-0.6,0.28-0.88,0.26c-0.35-0.03-0.6-0.2-0.73-0.52c-1.05-2.49-2.18-4.63-5.06-4.1c-1.6,0.29-2.56,1.67-3.74,2.34
		c-0.29,0.17-0.61,0.24-0.95,0.2c-0.29-0.03-1.21-0.72-2.76-2.05c-1.85-1.59-3.48-1.24-4.91,1.07c-0.32,0.52-1,0.7-1.54,0.39
		l-0.35-0.2c-0.54-0.32-0.71-1.02-0.37-1.55c2.86-4.48,6.15-3.58,9.78-1.01C322.28,342.24,322.56,342.24,322.83,342.05
		L322.83,342.05z"/>
	<path class="st3" d="M250.08,345.81c9.29,9.05,22.49,11.25,35.44,12.09c33.53,2.18,65.64,4.33,97.17,1.96
		c4.99-0.38,10.79-1.61,17.4-3.68c9.08-2.85,15.91-8.14,20.49-15.85c0.19-0.31,0.44-0.38,0.77-0.23c15.57,7.64-4.3,17.81-10.62,20
		c-7.8,2.69-16.57,4.33-26.31,4.91c-29.52,1.75-58.16,1.6-85.93-0.47c-16.04-1.19-32.27-4.1-47.37-11.11
		c-0.97-0.45-2.1-1.48-3.4-3.09c-0.97-1.21-1.07-2.49-0.3-3.84l0.2-0.35C248.3,344.98,249.12,344.87,250.08,345.81L250.08,345.81z"
		/>
	<path class="st1" d="M563.43,351.22c-3.63-0.31-7.02-0.93-10.19-1.85c-0.54-0.16-0.91-0.35-1.12-0.57
		c-0.37-0.4-0.39-0.88-0.06-1.44c0.24-0.39,0.69-0.57,1.13-0.45c3.45,0.94,6.93,1.56,10.45,1.87c3.52,0.3,7.06,0.28,10.62-0.06
		c0.44-0.04,0.86,0.22,1.03,0.64c0.23,0.61,0.13,1.08-0.3,1.41c-0.25,0.18-0.65,0.31-1.21,0.37
		C570.5,351.51,567.05,351.54,563.43,351.22L563.43,351.22z"/>
	<path class="st3" d="M429.68,348.57l8.39,18.19c-13.82-1-27.3-0.03-40.45,2.92c-9.27,2.08-19.14,5.28-25.13,13.12
		c-2.96,3.87-3.75,8.43-2.38,13.66l0.97,27.45c-26.03,2.2-51.84,1.61-77.43-1.78c-18.7-2.47-37.71-6.69-54.69-15.7
		c-2.48-1.31-4.22-2.74-5.23-4.27c-1.24-1.89-1.73-3.44-1.48-4.66c1.03-5.05,3.6-15.06,7.73-30.01l2.5-9.24
		c0.41-0.53,0.67-1.4,0.77-2.59c0.44-1.43,1.1-2.73,1.99-3.88c1.99,2.27,4.29,3.96,6.9,5.06c11.22,4.74,22.74,7.74,34.55,8.99
		c31.9,3.4,63.95,3.52,96.5,1.87c12.83-0.65,25.5-2.77,36.49-8.92C424.53,356.07,427.87,352.66,429.68,348.57 M329.74,393.38
		c3.54-0.65,5.68-5.17,4.78-10.1c-0.9-4.92-4.51-8.39-8.05-7.74c-3.54,0.65-5.68,5.17-4.78,10.1
		C322.59,390.56,326.2,394.03,329.74,393.38 M342.32,393.07c3.27,1.52,7.63-0.92,9.75-5.46c2.12-4.54,1.18-9.46-2.09-10.98
		c-3.27-1.52-7.63,0.92-9.75,5.46C338.11,386.63,339.05,391.55,342.32,393.07 M318.13,398.75c2.65-1.38,3.25-5.47,1.34-9.14
		c-1.91-3.67-5.61-5.52-8.26-4.15c-2.65,1.38-3.25,5.47-1.34,9.14C311.78,398.28,315.48,400.13,318.13,398.75 M298.34,389.32
		c0.16-0.67-0.25-1.34-0.92-1.51l-7.49-1.8c-0.67-0.16-1.35,0.25-1.51,0.92l-0.02,0.08c-0.16,0.67,0.25,1.34,0.92,1.51l7.49,1.8
		c0.67,0.16,1.35-0.25,1.51-0.92L298.34,389.32 M353.8,399.45c2.22,1.99,6.26,1.12,9.02-1.95c2.77-3.07,3.21-7.17,0.99-9.17
		c-2.22-1.99-6.26-1.12-9.02,1.95C352.02,393.35,351.58,397.45,353.8,399.45 M298.76,395.4c0.04-0.56-0.38-1.04-0.93-1.08l-8.3-0.64
		c-0.56-0.04-1.04,0.38-1.08,0.93l-0.04,0.54c-0.04,0.56,0.38,1.04,0.93,1.08l8.3,0.64c0.56,0.04,1.04-0.38,1.08-0.93L298.76,395.4
		 M353.28,406.71c-0.03-5.56-7.82-10.03-17.39-9.98c-9.58,0.05-17.32,4.6-17.29,10.16c0.03,5.56,7.82,10.03,17.39,9.98
		C345.57,416.82,353.31,412.27,353.28,406.71L353.28,406.71z"/>
	<path class="st1" d="M586.85,348.73c0.27-0.05,0.53,0.13,0.58,0.4l0.06,0.37c0.17,0.98-0.67,1.95-1.87,2.16l-1.3,0.22
		c-1.21,0.21-2.32-0.42-2.49-1.4l-0.06-0.37c-0.05-0.27,0.13-0.53,0.41-0.58L586.85,348.73L586.85,348.73z"/>
	<path class="st0" d="M243.25,355.66c-0.1,1.19-0.36,2.06-0.77,2.59l-14.7,1.34c-0.59,0.05-0.91-0.23-0.96-0.84l-0.03-0.28
		c-0.06-0.71,0.48-1.33,1.21-1.4L243.25,355.66L243.25,355.66z"/>
	<path class="st0" d="M210.57,358.57c0.08,0.63-0.37,1.2-1,1.29l-10.14,1.28c-0.63,0.08-1.21-0.37-1.28-1l-0.01-0.08
		c-0.08-0.63,0.37-1.2,1-1.29l10.14-1.28c0.63-0.08,1.21,0.37,1.29,1L210.57,358.57L210.57,358.57z"/>
	<path class="st1" d="M45.61,365.5c-3.6-0.31-6.97-0.92-10.11-1.83c-0.54-0.16-0.91-0.35-1.12-0.57c-0.37-0.39-0.39-0.87-0.06-1.43
		c0.23-0.38,0.69-0.56,1.12-0.45c3.43,0.93,6.89,1.55,10.38,1.85c3.5,0.3,7.01,0.28,10.55-0.06c0.44-0.04,0.86,0.21,1.02,0.63
		c0.23,0.61,0.13,1.07-0.29,1.4c-0.25,0.18-0.65,0.3-1.2,0.37C52.64,365.78,49.21,365.81,45.61,365.5L45.61,365.5z"/>
	<path class="st1" d="M68.76,363.01c0.27-0.05,0.52,0.13,0.57,0.4l0.05,0.28c0.17,1.03-0.68,2.03-1.89,2.23l-1.25,0.22
		c-1.22,0.21-2.35-0.46-2.52-1.48l-0.05-0.28c-0.05-0.27,0.13-0.52,0.4-0.57L68.76,363.01L68.76,363.01z"/>
	<path class="st4" d="M124.21,365.63l-0.51,9.19l-1.09,12.69l-2.56,25.66c-1.55,4-4.39,7.17-8.5,9.5
		c-8.16,4.62-16.71,7.64-25.64,9.05c-18.48,2.92-40.18,0.25-59.98-3.45c-9.74-1.82-17.74-4.3-23.07-13.19
		c-1.9-4.79-2.85-10.39-2.86-16.8c-0.01-10.64,0.09-21.49,0.28-32.55l11.41,3.22c0.35,0.1,0.58,0.43,0.56,0.8
		c-0.73,10.03-0.32,20.14,1.25,30.32c1.19,7.77,4.03,19.1,14.07,18.62c0.51-0.02,0.79-0.29,0.86-0.8c0.02-0.21,0.03-0.33,0.04-0.37
		c0.03-0.63-0.43-1.16-1.05-1.22c-7.65-0.65-10-8.29-11.12-14.79c-1.85-10.71-2.38-21.07-1.59-31.1c0.03-0.33,0.2-0.45,0.53-0.38
		C51.84,378.68,88.16,377.22,124.21,365.63 M103.24,409.99c-1.88,3.09-4.37,5.96-7.5,8.62c-0.41,0.35-0.64,0.63-0.67,0.82
		c-0.09,0.56,0.18,0.98,0.8,1.28c0.37,0.19,0.81,0.14,1.14-0.11c3.34-2.65,6.11-5.76,8.29-9.36c2.18-3.59,3.67-7.48,4.48-11.66
		c0.08-0.41-0.09-0.82-0.42-1.07c-0.55-0.41-1.06-0.45-1.51-0.12c-0.16,0.12-0.3,0.45-0.42,0.98
		C106.51,403.36,105.12,406.91,103.24,409.99L103.24,409.99z"/>
	<path class="st0" d="M438.07,366.76c9.89,0.76,19.45,2.31,28.69,4.65c8.44,2.88,18.05,6.97,20.09,16.48l-0.47,4.88
		c-2.15,3.66-4.81,6.5-7.98,8.52c-3.48,2.23-8.97,4.61-13.38,5.81c-23.32,6.37-46.65,7.24-69.99,2.61
		c-5.01-0.99-9.94-2.41-14.77-4.25c-4.48-1.71-7.86-4.71-10.15-9c-1.37-5.23-0.58-9.79,2.38-13.66
		c5.99-7.84,15.86-11.04,25.13-13.12C410.77,366.73,424.25,365.76,438.07,366.76 M374.95,391.6c3.47-4.3,7.7-7.43,12.69-9.4
		c10.97-4.32,22.66-5.66,35.82-6.69c16.25-1.26,32.39,1,46.92,5.6c3.91,1.24,7.56,3.51,10.94,6.81c0.25,0.23,0.36,0.18,0.33-0.15
		c-0.07-0.76-0.31-1.4-0.72-1.91c-5.98-7.44-16.16-9.92-25.9-11.72c-14.61-2.7-29.26-3.31-43.97-1.84
		c-9.56,0.96-18.24,3.3-26.04,7.01c-4.58,2.18-10.09,6.92-10.26,12.22C374.75,391.74,374.82,391.77,374.95,391.6 M402.14,380.88
		c-10.13,1.74-20.15,5.09-26.17,13.87c-0.37,0.54-0.3,1.27,0.18,1.72c3.13,2.97,6.99,5.06,11.6,6.26
		c27.24,7.07,56.09,6.52,82.38-3.24c3.92-1.46,7.38-3.68,10.39-6.66c0.4-0.39,0.44-1.01,0.11-1.46c-2.63-3.61-6.18-6.14-10.67-7.59
		c-16.36-5.29-33.05-7.08-50.08-5.37C414.47,378.96,408.56,379.78,402.14,380.88L402.14,380.88z"/>
	<path class="st1" d="M374.95,391.6c-0.13,0.17-0.2,0.14-0.19-0.07c0.17-5.3,5.68-10.04,10.26-12.22c7.8-3.71,16.48-6.05,26.04-7.01
		c14.71-1.47,29.36-0.86,43.97,1.84c9.74,1.8,19.92,4.28,25.9,11.72c0.41,0.51,0.65,1.15,0.72,1.91c0.03,0.33-0.08,0.38-0.33,0.15
		c-3.38-3.3-7.03-5.57-10.94-6.81c-14.53-4.6-30.67-6.86-46.92-5.6c-13.16,1.03-24.85,2.37-35.82,6.69
		C382.65,384.17,378.42,387.3,374.95,391.6L374.95,391.6z"/>
	<path class="st0" d="M329.74,393.38c-3.54,0.65-7.15-2.82-8.05-7.74c-0.91-4.93,1.23-9.45,4.78-10.1c3.54-0.65,7.15,2.82,8.05,7.74
		C335.42,388.21,333.28,392.73,329.74,393.38L329.74,393.38z"/>
	<path class="st0" d="M342.32,393.07c-3.27-1.52-4.21-6.44-2.09-10.98c2.12-4.54,6.48-6.98,9.75-5.46
		c3.27,1.52,4.21,6.44,2.09,10.98C349.95,392.15,345.59,394.59,342.32,393.07L342.32,393.07z"/>
	<path class="st1" d="M402.14,380.88c6.42-1.1,12.33-1.92,17.74-2.47c17.03-1.71,33.72,0.08,50.08,5.37
		c4.49,1.45,8.04,3.98,10.67,7.59c0.33,0.45,0.29,1.07-0.11,1.46c-3.01,2.98-6.47,5.2-10.39,6.66
		c-26.29,9.76-55.14,10.31-82.38,3.24c-4.61-1.2-8.47-3.29-11.6-6.26c-0.48-0.45-0.55-1.18-0.18-1.72
		C381.99,385.97,392.01,382.62,402.14,380.88 M457.62,387.93c3.8,1.92,7.41,4.59,10.82,8.02c0.45,0.45,0.8,0.69,1.03,0.71
		c0.66,0.05,1.14-0.3,1.43-1.06c0.18-0.45,0.09-0.97-0.24-1.32c-3.42-3.69-7.34-6.65-11.77-8.88c-4.42-2.23-9.13-3.63-14.13-4.18
		c-0.48-0.06-0.95,0.17-1.2,0.59c-0.44,0.69-0.44,1.28-0.01,1.78c0.16,0.17,0.55,0.31,1.19,0.4
		C449.52,384.7,453.81,386.01,457.62,387.93 M420.55,396.77c0.7-0.19,1.01-1.01,0.61-1.62c-2.37-3.55-5.31-6.8-8.82-9.75
		c-1.68-1.41-3.58-1.7-5.69-0.87c-6.43,2.55-12.84,5.5-19.24,8.86c-1.19,0.63-1.51,1.55-0.96,2.78c1.08,2.39,2.86,4.29,5.35,5.71
		c0.38,0.22,0.83,0.31,1.27,0.25C402.68,400.9,411.84,399.11,420.55,396.77L420.55,396.77z"/>
	<path class="st0" d="M458.89,385.4c4.43,2.23,8.35,5.19,11.77,8.88c0.33,0.35,0.42,0.87,0.24,1.32c-0.29,0.76-0.77,1.11-1.43,1.06
		c-0.23-0.02-0.58-0.26-1.03-0.71c-3.41-3.43-7.02-6.1-10.82-8.02c-3.81-1.92-8.1-3.23-12.88-3.94c-0.64-0.09-1.03-0.23-1.19-0.4
		c-0.43-0.5-0.43-1.09,0.01-1.78c0.25-0.42,0.72-0.65,1.2-0.59C449.76,381.77,454.47,383.17,458.89,385.4L458.89,385.4z"/>
	<path class="st0" d="M420.55,396.77c-8.71,2.34-17.87,4.13-27.48,5.36c-0.44,0.06-0.89-0.03-1.27-0.25
		c-2.49-1.42-4.27-3.32-5.35-5.71c-0.55-1.23-0.23-2.15,0.96-2.78c6.4-3.36,12.81-6.31,19.24-8.86c2.11-0.83,4.01-0.54,5.69,0.87
		c3.51,2.95,6.45,6.2,8.82,9.75C421.56,395.76,421.25,396.58,420.55,396.77 M411.1,396.14c1.32-1.08,0.95-3.74-0.85-5.93
		c-1.79-2.2-4.31-3.1-5.64-2.02c-1.32,1.08-0.95,3.74,0.85,5.93C407.26,396.31,409.78,397.21,411.1,396.14 M393.44,398.29
		c1.11,1.02,2.93,0.86,4.07-0.38c1.13-1.23,1.14-3.06,0.03-4.09c-1.11-1.02-2.93-0.86-4.07,0.38
		C392.34,395.44,392.33,397.27,393.44,398.29L393.44,398.29z"/>
	<path class="st0" d="M621.87,396.29c1.89-3.15,3.3-6.76,4.22-10.82c0.12-0.55,0.26-0.88,0.42-1c0.46-0.34,0.97-0.3,1.54,0.12
		c0.34,0.24,0.5,0.66,0.43,1.07c-0.81,4.27-2.31,8.23-4.52,11.9c-2.2,3.66-5,6.85-8.4,9.55c-0.33,0.26-0.78,0.31-1.15,0.12
		c-0.64-0.3-0.91-0.73-0.82-1.3c0.03-0.19,0.26-0.48,0.68-0.84C617.44,402.38,619.97,399.45,621.87,396.29L621.87,396.29z"/>
	<path class="st0" d="M318.13,398.75c-2.65,1.38-6.35-0.47-8.26-4.15c-1.91-3.67-1.31-7.76,1.34-9.14c2.65-1.38,6.35,0.47,8.26,4.15
		C321.38,393.28,320.78,397.37,318.13,398.75L318.13,398.75z"/>
	<path class="st0" d="M298.32,389.4c-0.16,0.67-0.84,1.08-1.51,0.92l-7.49-1.8c-0.68-0.17-1.09-0.84-0.92-1.51l0.02-0.08
		c0.16-0.67,0.84-1.08,1.51-0.92l7.49,1.8c0.68,0.17,1.09,0.84,0.92,1.51L298.32,389.4L298.32,389.4z"/>
	<path class="st0" d="M353.8,399.45c-2.21-2-1.77-6.1,0.99-9.17c2.76-3.07,6.8-3.94,9.02-1.95c2.21,2,1.77,6.1-0.99,9.17
		C360.05,400.57,356.01,401.44,353.8,399.45L353.8,399.45z"/>
	<path class="st1" d="M411.1,396.14c-1.32,1.07-3.84,0.17-5.64-2.02c-1.8-2.19-2.17-4.85-0.85-5.93c1.32-1.07,3.84-0.17,5.64,2.02
		C412.05,392.4,412.42,395.06,411.1,396.14L411.1,396.14z"/>
	<path class="st1" d="M393.44,398.29c-1.11-1.02-1.1-2.85,0.03-4.08c1.14-1.24,2.96-1.4,4.07-0.38c1.11,1.02,1.1,2.85-0.03,4.09
		C396.37,399.15,394.55,399.31,393.44,398.29L393.44,398.29z"/>
	<path class="st5" d="M485.26,429.76c-0.46,2.83-0.78,4.62-0.97,5.36c-1.1,4.35-4.1,7.45-8.99,9.3
		c-26.88,10.14-56.37,15.23-83.81,5.48c-11.45-4.07-19.68-12.52-20.25-24.86c-0.02-0.43-0.07-0.8-0.16-1.13l-0.97-27.45
		c2.29,4.29,5.67,7.29,10.15,9c4.83,1.84,9.76,3.26,14.77,4.25c23.34,4.63,46.67,3.76,69.99-2.61c4.41-1.2,9.9-3.58,13.38-5.81
		c3.17-2.02,5.83-4.86,7.98-8.52C487.69,405.28,487.32,417.61,485.26,429.76 M478.44,414.35l-3.3,15.26
		c-0.05,0.23,0.09,0.45,0.32,0.5l0.27,0.06c1.05,0.23,2.26-1.27,2.71-3.34l1.86-8.58c0.45-2.07-0.04-3.94-1.1-4.17l-0.26-0.05
		C478.71,413.98,478.49,414.12,478.44,414.35 M422.45,433.12l19.46,0.94c0.33,0.01,0.51,0.19,0.53,0.52
		c0.31,6.42,9.52,5.74,10.78-0.28c0.54-2.57-0.27-4.44-2.42-5.6c-0.33-0.18-0.4-0.43-0.2-0.76c6.1-9.73-7.87-12.34-7.45-2.7
		c0.01,0.25-0.21,0.46-0.46,0.43l-20.16-1.96c-0.41-0.04-0.75-0.33-0.85-0.73c-0.78-3.19-3.52-5.83-6.96-5.19
		c-5.02,0.93-7.01,7.19-2.23,10.08c0.29,0.18,0.33,0.59,0.07,0.81c-3.65,3.09-3.26,8.22,0.95,10.72c4.51,2.68,8.52-0.96,8.47-5.84
		C421.98,433.25,422.14,433.11,422.45,433.12 M382.48,431.04c1.61,3.27,3.71,5.88,6.3,7.83c0.29,0.22,0.61,0.25,0.94,0.08
		c0.44-0.23,0.73-0.56,0.87-0.97c0.1-0.3,0.02-0.64-0.22-0.87c-2.47-2.3-4.33-4.7-5.56-7.22c-1.24-2.51-2.01-5.45-2.32-8.81
		c-0.03-0.32-0.25-0.6-0.55-0.7c-0.42-0.15-0.85-0.11-1.3,0.09c-0.34,0.17-0.51,0.43-0.51,0.8
		C380.09,424.51,380.87,427.77,382.48,431.04 M396.71,442.53c0-0.72-0.58-1.3-1.3-1.3c-0.72,0-1.3,0.58-1.3,1.3s0.58,1.3,1.3,1.3
		C396.13,443.83,396.71,443.25,396.71,442.53L396.71,442.53z"/>
	<path class="st0" d="M298.71,395.94c-0.04,0.55-0.52,0.97-1.08,0.93l-8.3-0.64c-0.55-0.05-0.97-0.53-0.93-1.08l0.04-0.54
		c0.04-0.55,0.52-0.97,1.08-0.93l8.3,0.64c0.55,0.05,0.97,0.53,0.93,1.08L298.71,395.94L298.71,395.94z"/>
	<path class="st0" d="M353.28,406.71c0.03,5.56-7.71,10.11-17.29,10.16c-9.57,0.05-17.36-4.42-17.39-9.98
		c-0.03-5.56,7.71-10.11,17.29-10.16C345.46,396.68,353.25,401.15,353.28,406.71L353.28,406.71z"/>
	<path class="st0" d="M103.24,409.99c1.88-3.08,3.27-6.63,4.19-10.62c0.12-0.53,0.26-0.86,0.42-0.98c0.45-0.33,0.96-0.29,1.51,0.12
		c0.33,0.25,0.5,0.66,0.42,1.07c-0.81,4.18-2.3,8.07-4.48,11.66c-2.18,3.6-4.95,6.71-8.29,9.36c-0.33,0.25-0.77,0.3-1.14,0.11
		c-0.62-0.3-0.89-0.72-0.8-1.28c0.03-0.19,0.26-0.47,0.67-0.82C98.87,415.95,101.36,413.08,103.24,409.99L103.24,409.99z"/>
	<path class="st0" d="M478.44,414.35c0.05-0.23,0.27-0.37,0.5-0.32l0.26,0.05c1.06,0.23,1.55,2.1,1.1,4.17l-1.86,8.58
		c-0.45,2.07-1.66,3.57-2.71,3.34l-0.27-0.06c-0.23-0.05-0.37-0.27-0.32-0.5L478.44,414.35L478.44,414.35z"/>
	<path class="st0" d="M421.98,433.56c0.05,4.88-3.96,8.52-8.47,5.84c-4.21-2.5-4.6-7.63-0.95-10.72c0.26-0.22,0.22-0.63-0.07-0.81
		c-4.78-2.89-2.79-9.15,2.23-10.08c3.44-0.64,6.18,2,6.96,5.19c0.1,0.4,0.44,0.69,0.85,0.73l20.16,1.96
		c0.25,0.03,0.47-0.18,0.46-0.43c-0.42-9.64,13.55-7.03,7.45,2.7c-0.2,0.33-0.13,0.58,0.2,0.76c2.15,1.16,2.96,3.03,2.42,5.6
		c-1.26,6.02-10.47,6.7-10.78,0.28c-0.02-0.33-0.2-0.51-0.53-0.52l-19.46-0.94C422.14,433.11,421.98,433.25,421.98,433.56
		L421.98,433.56z"/>
	<path class="st0" d="M384.81,429.89c1.23,2.52,3.09,4.92,5.56,7.22c0.24,0.23,0.32,0.57,0.22,0.87c-0.14,0.41-0.43,0.74-0.87,0.97
		c-0.33,0.17-0.65,0.14-0.94-0.08c-2.59-1.95-4.69-4.56-6.3-7.83c-1.61-3.27-2.39-6.53-2.35-9.77c0-0.37,0.17-0.63,0.51-0.8
		c0.45-0.2,0.88-0.24,1.3-0.09c0.3,0.1,0.52,0.38,0.55,0.7C382.8,424.44,383.57,427.38,384.81,429.89L384.81,429.89z"/>
	<path class="st0" d="M396.71,442.53c0,0.72-0.58,1.3-1.3,1.3c-0.72,0-1.3-0.58-1.3-1.3s0.58-1.3,1.3-1.3
		C396.13,441.23,396.71,441.81,396.71,442.53L396.71,442.53z"/>
</g>
</svg>
