<?xml version="1.0" encoding="utf-8"?>
<!-- Generator: Adobe Illustrator 27.1.1, SVG Export Plug-In . SVG Version: 6.00 Build 0)  -->
<svg version="1.1" id="Layer_1" xmlns="http://www.w3.org/2000/svg" xmlns:xlink="http://www.w3.org/1999/xlink" x="0px" y="0px"
	 viewBox="0 0 1640.6 1582.6" style="enable-background:new 0 0 1640.6 1582.6;" xml:space="preserve">
<g>
	
		<image style="overflow:visible;enable-background:new    ;" width="294" height="653" xlink:href="57E17B0C.png"  transform="matrix(1.4868 0 0 1.4868 1203.5017 89.0554)">
	</image>
	
		<image style="overflow:visible;enable-background:new    ;" width="367" height="653" xlink:href="57E17B0E.png"  transform="matrix(1.1702 0 0 1.1702 0 135.1109)">
	</image>
	
		<image style="overflow:visible;enable-background:new    ;" width="368" height="653" xlink:href="57E17B0A.png"  transform="matrix(1.2478 -0.278 0.278 1.2478 99.9619 283.0131)">
	</image>
	
		<image style="overflow:visible;enable-background:new    ;" width="368" height="653" xlink:href="57E17B0B.png"  transform="matrix(1.7036 0 0 1.7036 398.9283 0)">
	</image>
	
		<image style="overflow:visible;enable-background:new    ;" width="368" height="653" xlink:href="57E17B04.png"  transform="matrix(1.2398 0.3133 -0.3133 1.2398 1077.6655 135.1109)">
	</image>
	
		<image style="overflow:visible;enable-background:new    ;" width="368" height="653" xlink:href="57E17B19.png"  transform="matrix(-1.3552 0.1619 -0.1619 -1.3552 1003.6937 1106.105)">
	</image>
	<g>
		
			<image style="overflow:visible;enable-background:new    ;" width="367" height="653" xlink:href="57E17B1A.png"  transform="matrix(2.2226 0 0 2.2226 465.2589 67.2517)">
		</image>
		<g>
			
				<image style="overflow:visible;enable-background:new    ;" width="289" height="168" xlink:href="57E17B1B.png"  transform="matrix(1 0 0 1 746.9332 345.7361)">
			</image>
		</g>
		<g>
			
				<image style="overflow:visible;opacity:0.75;enable-background:new    ;" width="250" height="129" xlink:href="57E17B1C.png"  transform="matrix(0.9922 0 0 0.9922 770.8084 353.1423)">
			</image>
			<g>
				<image style="overflow:visible;" width="288" height="168" xlink:href="B396C7CF.png"  transform="matrix(1 0 0 1 750 332.62)">
				</image>
			</g>
		</g>
	</g>
</g>
</svg>
