<?xml version="1.0" encoding="utf-8"?>
<!-- Generator: Adobe Illustrator 28.2.0, SVG Export Plug-In . SVG Version: 6.00 Build 0)  -->
<svg version="1.1" xmlns="http://www.w3.org/2000/svg" xmlns:xlink="http://www.w3.org/1999/xlink" x="0px" y="0px"
	 viewBox="0 0 93.26 131.04" style="enable-background:new 0 0 93.26 131.04;" xml:space="preserve">
<style type="text/css">
	.st0{fill:#E0E0E0;}
	.st1{fill:#E6E6E6;}
	.st2{fill:#EBEBEB;}
	.st3{opacity:0.3;fill:#FFFFFF;}
	.st4{fill:#FFFFFF;}
	.st5{fill:#F5F5F5;}
	.st6{opacity:0.3;}
	.st7{fill:#F0F0F0;}
	.st8{display:none;}
	.st9{display:inline;}
	.st10{fill:#407BFF;}
	.st11{opacity:0.9;fill:#FFFFFF;}
	.st12{opacity:0.1;}
	.st13{fill:#263238;}
	.st14{opacity:0.4;fill:#FFFFFF;}
	.st15{opacity:0.8;fill:#FFFFFF;}
	.st16{opacity:0.7;fill:#FFFFFF;}
</style>
<g id="Background_complete">
	<g>
		<g>
			<g>
				<g>
					<g>
						<path class="st0" d="M-107.08,117.04h-180.75c-3.23,0-5.86-2.63-5.86-5.86v-263.27c0-3.23,2.63-5.86,5.86-5.86h180.75
							c3.23,0,5.86,2.63,5.86,5.86v263.27C-101.21,114.41-103.84,117.04-107.08,117.04z M-287.82-157.7c-3.09,0-5.61,2.52-5.61,5.61
							v263.27c0,3.09,2.52,5.61,5.61,5.61h180.75c3.09,0,5.61-2.52,5.61-5.61v-263.27c0-3.09-2.52-5.61-5.61-5.61H-287.82z"/>
					</g>
				</g>
				<g>
					<g>
						<path class="st0" d="M-315.5,117.04h-180.75c-3.23,0-5.86-2.63-5.86-5.86v-263.27c0-3.23,2.63-5.86,5.86-5.86h180.75
							c3.23,0,5.86,2.63,5.86,5.86v263.27C-309.64,114.41-312.27,117.04-315.5,117.04z M-496.25-157.7c-3.09,0-5.61,2.52-5.61,5.61
							v263.27c0,3.09,2.52,5.61,5.61,5.61h180.75c3.09,0,5.61-2.52,5.61-5.61v-263.27c0-3.09-2.52-5.61-5.61-5.61H-496.25z"/>
					</g>
				</g>
			</g>
			<g>
				<g>
					<rect x="-551" y="178.11" class="st0" width="500" height="0.25"/>
				</g>
			</g>
		</g>
		<rect x="-498.54" y="192.38" class="st0" width="16.06" height="0.25"/>
		<rect x="-379.86" y="189.67" class="st0" width="53.53" height="0.25"/>
		<rect x="-481.48" y="201.67" class="st0" width="36.25" height="0.25"/>
		<rect x="-171.86" y="189.54" class="st0" width="43.19" height="0.25"/>
		<rect x="-119.76" y="189.54" class="st0" width="6.33" height="0.25"/>
		<rect x="-234" y="195.77" class="st0" width="53.89" height="0.25"/>
	</g>
	<path class="st1" d="M-236.62,261.17c2.52-1.52,3.83-4.82,3.03-7.66c-0.8-2.84-3.63-4.97-6.57-4.96c-1.92,0.01-3.78,0.93-5.06,2.36
		l-13.78-5.61c0.41-2.45-0.96-4.35-2.94-5.43c-2.22-1.21-5.04-1.1-7.18,0.67c-1.95,1.61-2.56,4.61-1.54,6.92
		c-2.52,1.52-3.83,4.82-3.03,7.66c0.8,2.84,3.63,4.97,6.57,4.96c2.13-0.01,4.19-1.14,5.46-2.84l13.51,5.5
		c-0.76,2.74,0.67,4.86,2.81,6.03c2.22,1.21,5.04,1.1,7.18-0.67C-236.21,266.47-235.6,263.48-236.62,261.17z"/>
	<path class="st0" d="M-334.56,256.94c1.11-2.09,0.64-4.9-1.08-6.52c-1.72-1.62-4.55-1.92-6.58-0.69c-1.32,0.8-2.21,2.2-2.5,3.71
		l-11.8,1.84c-0.73-1.86-2.46-2.59-4.27-2.52c-2.03,0.08-3.92,1.33-4.66,3.44c-0.67,1.92,0.15,4.23,1.81,5.4
		c-1.11,2.09-0.64,4.9,1.08,6.52c1.72,1.62,4.55,1.92,6.58,0.69c1.46-0.89,2.41-2.52,2.58-4.21l11.57-1.8
		c0.61,2.2,2.47,3.07,4.43,2.99c2.03-0.08,3.92-1.33,4.66-3.44C-332.09,260.42-332.9,258.11-334.56,256.94z"/>
	<path class="st0" d="M-423.54,224.69c1.11-2.09,0.64-4.9-1.08-6.52c-1.72-1.62-4.55-1.92-6.58-0.69c-1.32,0.8-2.21,2.2-2.5,3.71
		l-11.8,1.84c-0.73-1.86-2.46-2.59-4.27-2.52c-2.03,0.08-3.92,1.33-4.66,3.44c-0.67,1.92,0.15,4.23,1.81,5.4
		c-1.11,2.09-0.64,4.9,1.08,6.52c1.72,1.62,4.55,1.92,6.58,0.69c1.46-0.89,2.41-2.52,2.58-4.22l11.57-1.8
		c0.61,2.2,2.47,3.07,4.43,2.99c2.03-0.08,3.92-1.33,4.66-3.44C-421.06,228.17-421.88,225.86-423.54,224.69z"/>
	<path class="st1" d="M-156.59,206.26c1.19-2.7,0.38-6.14-1.9-8.01c-2.28-1.87-5.82-2-8.23-0.3c-1.57,1.11-2.56,2.93-2.79,4.83
		l-14.51,3.3c-1.07-2.25-3.28-3.01-5.53-2.77c-2.51,0.28-4.76,1.99-5.5,4.67c-0.67,2.44,0.54,5.24,2.71,6.55
		c-1.19,2.7-0.38,6.14,1.9,8.01c2.28,1.87,5.82,2,8.23,0.3c1.74-1.23,2.78-3.34,2.84-5.46l14.23-3.23c0.95,2.68,3.34,3.6,5.76,3.33
		c2.51-0.28,4.76-1.99,5.5-4.67C-153.21,210.37-154.43,207.57-156.59,206.26z"/>
	<g>
		<rect x="-524.05" y="144.75" class="st2" width="91.6" height="34.28"/>
		<rect x="-526.36" y="174.85" class="st2" width="96.22" height="4.29"/>
		<rect x="-526.36" y="142.04" class="st2" width="96.22" height="4.64"/>
		<rect x="-524.05" y="147.55" class="st1" width="91.6" height="26.05"/>
		<rect x="-524.05" y="152.07" class="st3" width="91.6" height="16.2"/>
		<ellipse class="st4" cx="-479.31" cy="160.96" rx="22.13" ry="8.89"/>
		<rect x="-445.53" y="156.97" class="st4" width="13.08" height="1.89"/>
		<rect x="-445.53" y="161.47" class="st4" width="13.08" height="1.89"/>
		<rect x="-523.88" y="156.97" class="st4" width="13.08" height="1.89"/>
		<rect x="-523.88" y="161.47" class="st4" width="13.08" height="1.89"/>
	</g>
	<g>
		<g>
			<rect x="-275.17" y="64.2" class="st1" width="79.14" height="108.53"/>
			<g>
				<rect x="-276.77" y="60.87" class="st1" width="82.6" height="4.65"/>
			</g>
			<g>
				
					<rect x="-277.02" y="172.63" transform="matrix(-1 -1.224647e-16 1.224647e-16 -1 -471.4395 349.8974)" class="st1" width="82.6" height="4.65"/>
			</g>
		</g>
		<rect x="-275.16" y="69.96" class="st2" width="79.14" height="96.83"/>
		<g>
			<path class="st5" d="M-275.46,106.18c8.91,4.04,18.76,1.36,27.67-2.7c8.9-4.06,16.79-10.05,25.52-14.46
				c8.73-4.41,16.9-7.76,26.24-4.83l0-13.58h-79.14L-275.46,106.18z"/>
		</g>
		<ellipse class="st4" cx="-235.72" cy="111.81" rx="22.14" ry="22.41"/>
		<g>
			<path class="st2" d="M-246.55,102.53l5.4-2.59c0,0-7.77-4.59-8.31-3.67C-250.01,97.19-246.55,102.53-246.55,102.53z"/>
			<g>
				<path class="st2" d="M-238.18,100.42c0,0-10.85,3.67-10.74,7.29c0.11,3.62,0.59,7.5,0,8.37c-0.59,0.86-2.81,1.62-2.1,3.18
					c0.7,1.57,3.48,4.43,6.36,5.78c0,0,1.96-0.11,2.82,0c0.86,0.11,5.24-0.32,5.24-0.32l6.32,5.37c0,0,7.88-4.56,9.76-10.66
					c1.49-4.83,1.03-8.69-2.54-13.23c-3.56-4.53-14.79-12.36-15.71-11.5C-239.69,95.57-238.18,100.42-238.18,100.42z"/>
				<path class="st4" d="M-244.88,113.79c0,0-0.02-2.09,0.78-2.24c0.81-0.15,2.26-0.02,2.26-0.02s0.14,2.79-1.49,2.87
					C-245.21,114.49-244.88,113.79-244.88,113.79z"/>
			</g>
		</g>
		
			<text transform="matrix(1 0 0 1 -263.045 145.8409)" class="st4" style="font-family:'Montserrat-ExtraBold'; font-size:11.7667px;">cat food</text>
		<g>
			<g>
				<path class="st4" d="M-262.72,149.77c8.42,0,16.85,0,25.27,0c1.93,0,1.93-3,0-3c-8.42,0-16.85,0-25.27,0
					C-264.65,146.77-264.65,149.77-262.72,149.77L-262.72,149.77z"/>
			</g>
		</g>
		<g>
			<g>
				<path class="st4" d="M-237.97,149.77c9.14,0,18.27,0,27.41,0c1.93,0,1.93-3,0-3c-9.14,0-18.27,0-27.41,0
					C-239.9,146.77-239.9,149.77-237.97,149.77L-237.97,149.77z"/>
			</g>
		</g>
		<path class="st4" d="M-219.68,155.49h-32.08c-0.92,0-1.67-0.75-1.67-1.67l0,0c0-0.92,0.75-1.67,1.67-1.67h32.08
			c0.92,0,1.67,0.75,1.67,1.67l0,0C-218.01,154.75-218.76,155.49-219.68,155.49z"/>
		<g class="st6">
			<path class="st4" d="M-196.03,132.89c-8.91-4.04-18.76-1.36-27.67,2.7c-8.9,4.06-16.79,10.05-25.52,14.46
				c-8.73,4.41-16.9,7.76-26.24,4.83l0,13.58h79.14L-196.03,132.89z"/>
		</g>
		<rect x="-275.46" y="75.49" class="st4" width="20.83" height="7.46"/>
	</g>
	<g>
		<g>
			<rect x="-169.91" y="64.2" class="st1" width="79.14" height="108.53"/>
			<g>
				<rect x="-171.52" y="60.87" class="st1" width="82.6" height="4.65"/>
			</g>
			<g>
				
					<rect x="-171.76" y="172.63" transform="matrix(-1 -1.224647e-16 1.224647e-16 -1 -260.9323 349.8974)" class="st1" width="82.6" height="4.65"/>
			</g>
		</g>
		<rect x="-169.91" y="69.96" class="st2" width="79.14" height="96.83"/>
		<g>
			<path class="st5" d="M-170.2,106.18c8.91,4.04,18.76,1.36,27.67-2.7c8.9-4.06,16.79-10.05,25.52-14.46
				c8.73-4.41,16.9-7.76,26.24-4.83l0-13.58h-79.14L-170.2,106.18z"/>
		</g>
		<ellipse class="st4" cx="-130.47" cy="111.81" rx="22.14" ry="22.41"/>
		<g>
			<path class="st2" d="M-141.3,102.53l5.4-2.59c0,0-7.77-4.59-8.31-3.67C-144.75,97.19-141.3,102.53-141.3,102.53z"/>
			<g>
				<path class="st2" d="M-132.93,100.42c0,0-10.85,3.67-10.74,7.29c0.11,3.62,0.59,7.5,0,8.37s-2.81,1.62-2.1,3.18
					c0.7,1.57,3.48,4.43,6.36,5.78c0,0,1.96-0.11,2.82,0c0.86,0.11,5.24-0.32,5.24-0.32l6.32,5.37c0,0,7.88-4.56,9.76-10.66
					c1.49-4.83,1.03-8.69-2.54-13.23c-3.56-4.53-14.79-12.36-15.71-11.5C-134.44,95.57-132.93,100.42-132.93,100.42z"/>
				<path class="st4" d="M-139.63,113.79c0,0-0.02-2.09,0.78-2.24c0.81-0.15,2.26-0.02,2.26-0.02s0.14,2.79-1.49,2.87
					C-139.96,114.49-139.63,113.79-139.63,113.79z"/>
			</g>
		</g>
		
			<text transform="matrix(1 0 0 1 -157.7914 145.8409)" class="st4" style="font-family:'Montserrat-ExtraBold'; font-size:11.7667px;">cat food</text>
		<g>
			<g>
				<path class="st4" d="M-157.46,149.77c8.42,0,16.85,0,25.27,0c1.93,0,1.93-3,0-3c-8.42,0-16.85,0-25.27,0
					C-159.39,146.77-159.4,149.77-157.46,149.77L-157.46,149.77z"/>
			</g>
		</g>
		<g>
			<g>
				<path class="st4" d="M-132.72,149.77c9.14,0,18.27,0,27.41,0c1.93,0,1.93-3,0-3c-9.14,0-18.27,0-27.41,0
					C-134.65,146.77-134.65,149.77-132.72,149.77L-132.72,149.77z"/>
			</g>
		</g>
		<path class="st4" d="M-114.43,155.49h-32.08c-0.92,0-1.67-0.75-1.67-1.67l0,0c0-0.92,0.75-1.67,1.67-1.67h32.08
			c0.92,0,1.67,0.75,1.67,1.67l0,0C-112.76,154.75-113.51,155.49-114.43,155.49z"/>
		<g class="st6">
			<path class="st4" d="M-90.77,132.89c-8.91-4.04-18.76-1.36-27.67,2.7c-8.9,4.06-16.79,10.05-25.52,14.46
				c-8.73,4.41-16.9,7.76-26.24,4.83l0,13.58h79.14L-90.77,132.89z"/>
		</g>
		<rect x="-170.2" y="75.49" class="st4" width="20.83" height="7.46"/>
	</g>
	<g>
		<g>
			<g>
				<path class="st1" d="M-255.71-19.9c-4.63-2.37-7.33-2.94-10.78-1.39c-3.44,1.56-6,4.54-8.43,7.43
					c-2.81,3.34-5.63,6.68-8.44,10.02c-2.6,3.09-5.34,6.54-5.33,10.58c0.01,3.97,2.86,7.55,6.41,9.33
					c3.55,1.78,7.68,2.04,11.64,1.75c3.96-0.29,7.88-1.09,11.84-1.28c4.45-0.22,8.96,0.33,13.36-0.43
					c4.39-0.76,8.88-3.21,10.39-7.41c1.94-5.38-1.64-11.1-5.36-15.44C-245.44-12.59-248.9-15.75-255.71-19.9"/>
			</g>
			<g>
				<path class="st1" d="M-227.71-25.5c-0.88-3.78-3.24-10.24-6.56-10.53c-2.33,0.25-4.46,1.61-5.98,3.4
					c-1.52,1.79-2.5,3.98-3.21,6.22c-0.78,2.46-1.27,5.06-0.9,7.61c0.37,2.55,1.69,5.05,3.89,6.39c3.31,2.03,7.98,0.86,10.51-2.08
					C-227.42-17.44-226.82-21.72-227.71-25.5z"/>
			</g>
			<g>
				<path class="st1" d="M-282.65-14.37c-0.41-3.03-2.03-5.8-4.1-8.06c-1.48-1.63-3.82-3.63-5.94-5.29
					c-1.92-1.51-4.71-1.48-6.44,0.24c-0.48,0.48-0.9,1.02-1.24,1.6c-1.14,1.93-1.54,4.21-1.62,6.45c-0.1,2.97,0.34,6.01,1.65,8.68
					c1.31,2.67,3.55,4.94,6.35,5.96c2.8,1.01,6.14,0.63,8.43-1.27C-283.21-8.03-282.24-11.34-282.65-14.37z"/>
			</g>
			<g>
				<path class="st1" d="M-274.26-53.49c-5.19,1.04-9.81,4.63-12.09,9.42c-2.28,4.78-2.16,10.63,0.31,15.32
					c1.7,3.23,4.9,6.05,8.54,5.84c2.76-0.16,5.21-2.07,6.59-4.47c1.38-2.4,1.84-5.22,1.97-7.98c0.22-4.59-0.41-9.23-1.85-13.59
					c-0.58-1.76-1.53-3.7-3.33-4.12"/>
			</g>
			<g>
				<path class="st1" d="M-257.27-52.66c-1.99-1.02-4.67-0.4-6.01,1.4c-0.99,1.33-1.22,3.06-1.38,4.71
					c-0.33,3.44-0.47,6.93,0.25,10.31c0.72,3.38,2.38,6.65,5.12,8.75c2.74,2.1,6.65,2.82,9.74,1.3c3.26-1.6,5.06-5.37,5.09-9
					c0.04-3.63-1.43-7.12-3.3-10.23c-2.08-3.46-5.3-5.33-8.98-6.99"/>
			</g>
		</g>
	</g>
	<g>
		<g>
			<g>
				<path class="st5" d="M-193.49-129.04c-1.15-2.34-2.06-3.38-3.91-3.79c-1.85-0.41-3.77,0.02-5.62,0.45
					c-2.13,0.5-4.27,0.99-6.4,1.49c-1.97,0.46-4.11,1.02-5.32,2.65c-1.19,1.6-1.12,3.89-0.23,5.67c0.89,1.78,2.47,3.12,4.15,4.2
					c1.68,1.07,3.49,1.93,5.14,3.04c1.85,1.25,3.5,2.82,5.49,3.84c1.99,1.01,4.53,1.38,6.4,0.15c2.39-1.58,2.67-4.95,2.48-7.81
					C-191.56-123.02-192-125.33-193.49-129.04"/>
			</g>
			<g>
				<path class="st5" d="M-180.56-122.88c0.78-1.78,1.77-5.08,0.53-6.2c-1.01-0.6-2.27-0.69-3.42-0.43
					c-1.15,0.26-2.2,0.85-3.16,1.53c-1.05,0.75-2.03,1.65-2.65,2.79c-0.62,1.14-0.84,2.54-0.36,3.74c0.72,1.81,2.94,2.74,4.85,2.32
					C-182.86-119.56-181.34-121.1-180.56-122.88z"/>
			</g>
			<g>
				<path class="st5" d="M-205.96-134.91c0.75-1.34,0.92-2.94,0.77-4.46c-0.11-1.1-0.45-2.6-0.8-3.91
					c-0.32-1.18-1.45-2.01-2.66-1.84c-0.34,0.05-0.67,0.14-0.98,0.27c-1.04,0.43-1.88,1.23-2.59,2.1c-0.93,1.16-1.67,2.51-1.94,3.98
					c-0.27,1.47-0.06,3.05,0.76,4.3c0.82,1.25,2.28,2.1,3.77,2.02C-208.09-132.53-206.71-133.57-205.96-134.91z"/>
			</g>
			<g>
				<path class="st5" d="M-190.85-148.09c-2.4-1.14-5.33-1.09-7.68,0.15c-2.35,1.24-4.06,3.62-4.47,6.24
					c-0.29,1.81,0.15,3.9,1.68,4.91c1.16,0.77,2.71,0.73,3.99,0.18c1.27-0.55,2.3-1.54,3.19-2.61c1.47-1.78,2.6-3.83,3.34-6.01
					c0.3-0.88,0.5-1.95-0.1-2.66"/>
			</g>
			<g>
				<path class="st5" d="M-184.28-142.66c-0.49-1.01-1.76-1.56-2.83-1.24c-0.8,0.24-1.41,0.86-1.97,1.48
					c-1.16,1.28-2.27,2.64-3,4.21s-1.04,3.39-0.57,5.05c0.47,1.66,1.82,3.13,3.52,3.45c1.79,0.33,3.64-0.64,4.75-2.08
					c1.1-1.45,1.56-3.29,1.75-5.09c0.2-2.01-0.53-3.73-1.51-5.5"/>
			</g>
		</g>
	</g>
	<g>
		<g>
			<g>
				<path class="st7" d="M-177.55-58.39c-2.67-3.51-4.52-4.94-7.72-5.02c-3.2-0.08-6.24,1.26-9.16,2.57
					c-3.37,1.52-6.75,3.03-10.12,4.55c-3.12,1.4-6.48,3.03-7.95,6.12c-1.45,3.04-0.59,6.81,1.47,9.47c2.05,2.66,5.11,4.38,8.24,5.61
					c3.13,1.23,6.41,2.06,9.51,3.37c3.48,1.47,6.72,3.54,10.35,4.57c3.63,1.03,7.96,0.81,10.65-1.84c3.45-3.4,2.82-9.07,1.57-13.76
					C-172.39-49.04-173.88-52.73-177.55-58.39"/>
			</g>
			<g>
				<path class="st7" d="M-154.11-52.39c0.71-3.21,1.28-9-1.14-10.45c-1.87-0.66-3.99-0.41-5.81,0.4c-1.82,0.81-3.37,2.12-4.73,3.57
					c-1.5,1.59-2.83,3.4-3.48,5.48c-0.65,2.08-0.56,4.48,0.62,6.31c1.79,2.77,5.77,3.58,8.79,2.27
					C-156.85-46.13-154.83-49.18-154.11-52.39z"/>
			</g>
			<g>
				<path class="st7" d="M-200.14-64.06c0.8-2.46,0.57-5.17-0.17-7.65c-0.54-1.78-1.59-4.17-2.59-6.22c-0.91-1.85-3.05-2.86-5-2.18
					c-0.54,0.19-1.06,0.45-1.53,0.76c-1.58,1.05-2.72,2.65-3.6,4.33c-1.17,2.23-1.95,4.71-1.92,7.23c0.02,2.52,0.9,5.08,2.66,6.88
					c1.76,1.8,4.46,2.73,6.9,2.12C-202.89-59.43-200.94-61.6-200.14-64.06z"/>
			</g>
			<g>
				<path class="st7" d="M-179.38-90.84c-4.35-1.12-9.19-0.06-12.68,2.75c-3.49,2.81-5.55,7.33-5.38,11.81
					c0.11,3.09,1.52,6.42,4.38,7.6c2.17,0.89,4.74,0.33,6.67-0.99c1.93-1.32,3.32-3.31,4.43-5.37c1.85-3.43,3.07-7.19,3.58-11.06
					c0.2-1.55,0.19-3.39-1.03-4.37"/>
			</g>
			<g>
				<path class="st7" d="M-166.71-83.97c-1.14-1.51-3.42-2.02-5.1-1.14c-1.24,0.65-2.05,1.89-2.78,3.09
					c-1.51,2.5-2.91,5.12-3.6,7.96c-0.69,2.84-0.62,5.95,0.7,8.56c1.32,2.61,4.04,4.59,6.96,4.57c3.07-0.03,5.83-2.24,7.19-5
					c1.36-2.76,1.52-5.96,1.24-9.02c-0.32-3.4-2.09-6.02-4.29-8.63"/>
			</g>
		</g>
	</g>
	<g>
		<g>
			<g>
				<path class="st5" d="M-398.44-101.34c-6.96-3.91-11.07-4.95-16.44-2.76c-5.37,2.18-9.46,6.6-13.37,10.89
					c-4.51,4.95-9.03,9.91-13.54,14.86c-4.17,4.58-8.58,9.71-8.8,15.9c-0.22,6.09,3.94,11.74,9.27,14.68
					c5.33,2.94,11.65,3.58,17.74,3.37c6.09-0.21,12.14-1.2,18.23-1.26c6.84-0.07,13.72,1.03,20.5,0.13
					c6.78-0.91,13.81-4.4,16.37-10.74c3.29-8.14-1.86-17.11-7.31-23.99C-383.12-89.53-388.25-94.58-398.44-101.34"/>
			</g>
			<g>
				<path class="st5" d="M-355.17-108.28c-1.13-5.85-4.36-15.88-9.44-16.54c-3.59,0.25-6.93,2.21-9.37,4.86
					c-2.44,2.65-4.07,5.95-5.29,9.34c-1.34,3.72-2.24,7.69-1.83,11.62c0.42,3.93,2.3,7.84,5.59,10.03
					c4.96,3.31,12.18,1.79,16.24-2.58C-355.2-95.91-354.04-102.43-355.17-108.28z"/>
			</g>
			<g>
				<path class="st5" d="M-440.06-94.46c-0.45-4.67-2.78-9.01-5.81-12.59c-2.18-2.58-5.64-5.78-8.79-8.46
					c-2.85-2.43-7.14-2.55-9.88-0.01c-0.76,0.71-1.44,1.51-2,2.38c-1.87,2.88-2.61,6.36-2.87,9.79c-0.34,4.55,0.16,9.23,2.02,13.4
					c1.85,4.17,5.15,7.79,9.38,9.51c4.23,1.72,9.38,1.33,13-1.46C-441.29-84.77-439.62-89.79-440.06-94.46z"/>
			</g>
			<g>
				<path class="st5" d="M-424.89-153.93c-8.02,1.28-15.32,6.53-19.09,13.72c-3.77,7.2-3.93,16.18-0.42,23.51
					c2.42,5.05,7.16,9.57,12.75,9.46c4.24-0.08,8.11-2.87,10.37-6.46c2.26-3.59,3.13-7.89,3.49-12.12
					c0.6-7.03-0.09-14.17-2.03-20.95c-0.78-2.73-2.13-5.76-4.87-6.51"/>
			</g>
			<g>
				<path class="st5" d="M-398.89-151.66c-2.99-1.68-7.14-0.88-9.3,1.79c-1.59,1.98-2.05,4.62-2.39,7.14
					c-0.7,5.25-1.13,10.6-0.23,15.82c0.9,5.22,3.26,10.34,7.34,13.71c4.08,3.38,10.02,4.72,14.86,2.56
					c5.09-2.26,8.07-7.93,8.34-13.49c0.27-5.56-1.77-11-4.45-15.87c-2.98-5.42-7.82-8.49-13.36-11.25"/>
			</g>
		</g>
	</g>
	<g>
		<g>
			<g>
				<path class="st7" d="M-261.48-105.3c-3.26-1.75-5.18-2.2-7.66-1.14c-2.48,1.06-4.34,3.15-6.11,5.17
					c-2.05,2.34-4.11,4.68-6.16,7.02c-1.9,2.16-3.9,4.58-3.95,7.46c-0.05,2.83,1.93,5.42,4.43,6.74s5.44,1.56,8.26,1.41
					c2.83-0.15,5.62-0.66,8.45-0.74c3.18-0.09,6.38,0.36,9.52-0.12c3.14-0.48,6.37-2.16,7.51-5.13c1.46-3.81-1.01-7.93-3.6-11.08
					C-254.27-99.95-256.69-102.25-261.48-105.3"/>
			</g>
			<g>
				<path class="st7" d="M-241.46-108.9c-0.57-2.71-2.16-7.34-4.52-7.6c-1.67,0.15-3.2,1.08-4.31,2.34
					c-1.11,1.25-1.84,2.8-2.38,4.38c-0.59,1.74-0.98,3.59-0.75,5.41c0.23,1.82,1.13,3.62,2.68,4.61c2.33,1.49,5.67,0.73,7.52-1.33
					C-241.36-103.15-240.88-106.19-241.46-108.9z"/>
			</g>
			<g>
				<path class="st7" d="M-280.75-101.75c-0.25-2.17-1.37-4.16-2.8-5.8c-1.03-1.18-2.67-2.64-4.15-3.85
					c-1.34-1.1-3.34-1.12-4.59,0.08c-0.35,0.33-0.65,0.71-0.91,1.12c-0.84,1.35-1.16,2.97-1.25,4.57c-0.12,2.12,0.15,4.28,1.05,6.2
					c0.9,1.92,2.46,3.57,4.44,4.33c1.98,0.76,4.37,0.54,6.02-0.79C-281.24-97.25-280.5-99.59-280.75-101.75z"/>
			</g>
			<g>
				<path class="st7" d="M-274.21-129.49c-3.71,0.66-7.05,3.16-8.74,6.53c-1.69,3.37-1.69,7.54,0,10.92c1.17,2.32,3.4,4.38,6,4.28
					c1.97-0.07,3.74-1.4,4.76-3.09c1.02-1.69,1.39-3.69,1.52-5.66c0.22-3.27-0.16-6.58-1.12-9.71c-0.39-1.26-1.04-2.66-2.32-2.98"/>
			</g>
			<g>
				<path class="st7" d="M-262.12-128.66c-1.4-0.76-3.32-0.35-4.3,0.91c-0.72,0.93-0.91,2.16-1.05,3.33
					c-0.28,2.44-0.44,4.93,0.03,7.35c0.46,2.41,1.6,4.77,3.52,6.3c1.92,1.53,4.69,2.1,6.92,1.06c2.34-1.09,3.68-3.75,3.76-6.33
					c0.08-2.58-0.91-5.09-2.2-7.33c-1.43-2.49-3.7-3.88-6.3-5.11"/>
			</g>
		</g>
	</g>
</g>
<g id="Background_simple" class="st8">
	<g class="st9">
		<path class="st10" d="M-358.17-153.71c-21.56,3.39-42.36,10.62-60.8,21.96c-21.74,13.36-43.95,34.18-37.39,61.4
			c12.11,50.26,70.21,51.18,58.61,84.97c-13.14,38.28-4.33,83.18,54.63,95.67C-231.14,134.02-95.77-4.76-133.79-81.01
			C-157.46-128.49-243.67-171.73-358.17-153.71z"/>
		<path class="st11" d="M-358.17-153.71c-21.56,3.39-42.36,10.62-60.8,21.96c-21.74,13.36-43.95,34.18-37.39,61.4
			c12.11,50.26,70.21,51.18,58.61,84.97c-13.14,38.28-4.33,83.18,54.63,95.67C-231.14,134.02-95.77-4.76-133.79-81.01
			C-157.46-128.49-243.67-171.73-358.17-153.71z"/>
	</g>
</g>
<g id="Shadow">
	<g>
		<g>
			<path class="st5" d="M-92.12,231.54c0,3.39-93.52,6.13-208.88,6.13s-208.88-2.75-208.88-6.13c0-3.39,93.52-6.13,208.88-6.13
				S-92.12,228.16-92.12,231.54z"/>
		</g>
	</g>
</g>
<g id="Sack">
</g>
<g id="Food">
	<g>
		<g>
			<g>
				<path class="st10" d="M-239.14,199.46c3.18-0.6,5.79-3.49,6.05-6.72c0.27-3.23-1.83-6.51-4.87-7.62
					c-1.98-0.73-4.24-0.49-6.11,0.49l-12.03-11.05c1.36-2.37,0.67-4.85-0.95-6.72c-1.82-2.1-4.77-3.07-7.65-2.06
					c-2.62,0.91-4.4,3.76-4.23,6.53c-3.18,0.6-5.79,3.49-6.05,6.72c-0.27,3.23,1.83,6.51,4.87,7.62c2.2,0.81,4.75,0.43,6.71-0.84
					l11.8,10.84c-1.83,2.53-1.17,5.26,0.58,7.28c1.82,2.1,4.77,3.07,7.65,2.06C-240.75,205.08-238.98,202.23-239.14,199.46z"/>
				<path class="st12" d="M-239.14,199.46c3.18-0.6,5.79-3.49,6.05-6.72c0.27-3.23-1.83-6.51-4.87-7.62
					c-1.98-0.73-4.24-0.49-6.11,0.49l-12.03-11.05c1.36-2.37,0.67-4.85-0.95-6.72c-1.82-2.1-4.77-3.07-7.65-2.06
					c-2.62,0.91-4.4,3.76-4.23,6.53c-3.18,0.6-5.79,3.49-6.05,6.72c-0.27,3.23,1.83,6.51,4.87,7.62c2.2,0.81,4.75,0.43,6.71-0.84
					l11.8,10.84c-1.83,2.53-1.17,5.26,0.58,7.28c1.82,2.1,4.77,3.07,7.65,2.06C-240.75,205.08-238.98,202.23-239.14,199.46z"/>
			</g>
			<g>
				<path class="st10" d="M-290.2,200.87c2.41,2.16,6.29,2.47,9.02,0.71c2.72-1.75,4.05-5.41,3.09-8.5
					c-0.63-2.01-2.19-3.67-4.1-4.55l1.45-16.28c2.71-0.36,4.26-2.41,4.76-4.84c0.56-2.72-0.47-5.65-3.02-7.33
					c-2.32-1.52-5.66-1.2-7.76,0.62c-2.41-2.16-6.29-2.47-9.02-0.71c-2.72,1.75-4.05,5.41-3.09,8.5c0.7,2.24,2.55,4.03,4.75,4.81
					l-1.42,15.96c-3.13,0.09-4.89,2.27-5.43,4.9c-0.56,2.72,0.47,5.65,3.02,7.33C-295.64,203.01-292.3,202.69-290.2,200.87z"/>
				<path class="st12" d="M-290.2,200.87c2.41,2.16,6.29,2.47,9.02,0.71c2.72-1.75,4.05-5.41,3.09-8.5
					c-0.63-2.01-2.19-3.67-4.1-4.55l1.45-16.28c2.71-0.36,4.26-2.41,4.76-4.84c0.56-2.72-0.47-5.65-3.02-7.33
					c-2.32-1.52-5.66-1.2-7.76,0.62c-2.41-2.16-6.29-2.47-9.02-0.71c-2.72,1.75-4.05,5.41-3.09,8.5c0.7,2.24,2.55,4.03,4.75,4.81
					l-1.42,15.96c-3.13,0.09-4.89,2.27-5.43,4.9c-0.56,2.72,0.47,5.65,3.02,7.33C-295.64,203.01-292.3,202.69-290.2,200.87z"/>
			</g>
			<g>
				<path class="st10" d="M-230.81,205.16c2.41,2.16,6.29,2.47,9.02,0.71c2.72-1.75,4.05-5.41,3.09-8.5
					c-0.63-2.01-2.19-3.67-4.1-4.55l1.45-16.28c2.71-0.36,4.26-2.41,4.76-4.84c0.56-2.72-0.47-5.65-3.02-7.33
					c-2.32-1.52-5.66-1.2-7.76,0.62c-2.41-2.16-6.29-2.47-9.02-0.71c-2.72,1.75-4.05,5.41-3.09,8.5c0.7,2.24,2.55,4.03,4.75,4.81
					l-1.42,15.96c-3.13,0.09-4.89,2.27-5.43,4.9c-0.56,2.72,0.47,5.65,3.02,7.33C-236.25,207.3-232.91,206.98-230.81,205.16z"/>
				<path class="st12" d="M-230.81,205.16c2.41,2.16,6.29,2.47,9.02,0.71c2.72-1.75,4.05-5.41,3.09-8.5
					c-0.63-2.01-2.19-3.67-4.1-4.55l1.45-16.28c2.71-0.36,4.26-2.41,4.76-4.84c0.56-2.72-0.47-5.65-3.02-7.33
					c-2.32-1.52-5.66-1.2-7.76,0.62c-2.41-2.16-6.29-2.47-9.02-0.71c-2.72,1.75-4.05,5.41-3.09,8.5c0.7,2.24,2.55,4.03,4.75,4.81
					l-1.42,15.96c-3.13,0.09-4.89,2.27-5.43,4.9c-0.56,2.72,0.47,5.65,3.02,7.33C-236.25,207.3-232.91,206.98-230.81,205.16z"/>
			</g>
			<path class="st10" d="M-295.09,200.86c3.22,0.32,6.53-1.72,7.7-4.75c1.16-3.02,0.08-6.76-2.52-8.68c-1.7-1.25-3.93-1.66-6-1.25
				l-8.44-13.99c1.97-1.89,2.01-4.46,0.98-6.71c-1.15-2.53-3.71-4.28-6.77-4.13c-2.77,0.14-5.28,2.37-5.9,5.08
				c-3.22-0.32-6.53,1.72-7.7,4.75c-1.16,3.02-0.08,6.76,2.52,8.68c1.88,1.39,4.44,1.75,6.67,1.08l8.27,13.72
				c-2.47,1.91-2.6,4.72-1.49,7.15c1.15,2.53,3.71,4.28,6.77,4.13C-298.22,205.8-295.71,203.57-295.09,200.86z"/>
			<path class="st6" d="M-295.09,200.86c3.22,0.32,6.53-1.72,7.7-4.75c1.16-3.02,0.08-6.76-2.52-8.68c-1.7-1.25-3.93-1.66-6-1.25
				l-8.44-13.99c1.97-1.89,2.01-4.46,0.98-6.71c-1.15-2.53-3.71-4.28-6.77-4.13c-2.77,0.14-5.28,2.37-5.9,5.08
				c-3.22-0.32-6.53,1.72-7.7,4.75c-1.16,3.02-0.08,6.76,2.52,8.68c1.88,1.39,4.44,1.75,6.67,1.08l8.27,13.72
				c-2.47,1.91-2.6,4.72-1.49,7.15c1.15,2.53,3.71,4.28,6.77,4.13C-298.22,205.8-295.71,203.57-295.09,200.86z"/>
			<g>
				<path class="st10" d="M-288.13,184.72c-2.45,2.12-3.24,5.93-1.84,8.85c1.4,2.92,4.86,4.7,8.04,4.13
					c2.08-0.37,3.91-1.71,5.03-3.5l15.96,3.49c0.02,2.73,1.86,4.53,4.2,5.33c2.63,0.9,5.66,0.25,7.65-2.08
					c1.81-2.11,1.9-5.46,0.37-7.78c2.45-2.12,3.24-5.93,1.84-8.85c-1.4-2.92-4.86-4.7-8.04-4.13c-2.31,0.41-4.32,2.02-5.37,4.1
					l-15.65-3.42c0.31-3.11-1.64-5.13-4.17-6c-2.63-0.9-5.66-0.25-7.65,2.08C-289.57,179.06-289.67,182.41-288.13,184.72z"/>
				<path class="st6" d="M-288.13,184.72c-2.45,2.12-3.24,5.93-1.84,8.85c1.4,2.92,4.86,4.7,8.04,4.13c2.08-0.37,3.91-1.71,5.03-3.5
					l15.96,3.49c0.02,2.73,1.86,4.53,4.2,5.33c2.63,0.9,5.66,0.25,7.65-2.08c1.81-2.11,1.9-5.46,0.37-7.78
					c2.45-2.12,3.24-5.93,1.84-8.85c-1.4-2.92-4.86-4.7-8.04-4.13c-2.31,0.41-4.32,2.02-5.37,4.1l-15.65-3.42
					c0.31-3.11-1.64-5.13-4.17-6c-2.63-0.9-5.66-0.25-7.65,2.08C-289.57,179.06-289.67,182.41-288.13,184.72z"/>
			</g>
			<g>
				<path class="st10" d="M-243,197c-0.75,3.15,0.82,6.71,3.66,8.27c2.84,1.56,6.69,0.99,8.95-1.33c1.47-1.51,2.18-3.67,2.05-5.77
					l15.01-6.47c1.6,2.21,4.15,2.6,6.52,1.88c2.66-0.8,4.74-3.1,5.01-6.14c0.24-2.77-1.64-5.55-4.24-6.53
					c0.75-3.15-0.82-6.71-3.66-8.27c-2.84-1.56-6.69-0.99-8.95,1.33c-1.63,1.68-2.33,4.16-1.97,6.46l-14.71,6.34
					c-1.56-2.71-4.32-3.22-6.89-2.44c-2.66,0.8-4.74,3.1-5.01,6.14C-247.48,193.23-245.6,196.01-243,197z"/>
				<path class="st6" d="M-243,197c-0.75,3.15,0.82,6.71,3.66,8.27c2.84,1.56,6.69,0.99,8.95-1.33c1.47-1.51,2.18-3.67,2.05-5.77
					l15.01-6.47c1.6,2.21,4.15,2.6,6.52,1.88c2.66-0.8,4.74-3.1,5.01-6.14c0.24-2.77-1.64-5.55-4.24-6.53
					c0.75-3.15-0.82-6.71-3.66-8.27c-2.84-1.56-6.69-0.99-8.95,1.33c-1.63,1.68-2.33,4.16-1.97,6.46l-14.71,6.34
					c-1.56-2.71-4.32-3.22-6.89-2.44c-2.66,0.8-4.74,3.1-5.01,6.14C-247.48,193.23-245.6,196.01-243,197z"/>
			</g>
			<path class="st10" d="M-284.84,188.5c1.61-2.81,1.1-6.67-1.18-8.97c-2.28-2.3-6.13-2.84-8.96-1.25c-1.84,1.03-3.13,2.91-3.6,4.96
				l-16.22,1.96c-0.91-2.57-3.25-3.66-5.72-3.64c-2.78,0.02-5.43,1.63-6.54,4.48c-1.01,2.59,0,5.79,2.22,7.46
				c-1.61,2.81-1.1,6.67,1.18,8.97c2.28,2.3,6.13,2.84,8.96,1.25c2.04-1.15,3.41-3.33,3.72-5.64l15.91-1.93
				c0.73,3.04,3.24,4.31,5.92,4.29c2.78-0.02,5.43-1.63,6.54-4.48C-281.62,193.37-282.63,190.18-284.84,188.5z"/>
			<path class="st10" d="M-210.23,180.86c-0.5-3.2-3.31-5.89-6.53-6.26c-3.22-0.37-6.56,1.62-7.77,4.63
				c-0.79,1.96-0.62,4.23,0.3,6.12l-11.42,11.68c-2.32-1.43-4.82-0.82-6.75,0.74c-2.15,1.75-3.21,4.67-2.29,7.59
				c0.83,2.65,3.62,4.51,6.4,4.43c0.5,3.2,3.31,5.89,6.53,6.26c3.22,0.37,6.56-1.62,7.77-4.63c0.87-2.17,0.57-4.73-0.63-6.73
				l11.2-11.46c2.47,1.91,5.22,1.33,7.3-0.36c2.15-1.75,3.21-4.67,2.29-7.59C-204.66,182.64-207.45,180.78-210.23,180.86z"/>
			<path class="st10" d="M-262.49,205.46c1.01,3.08,4.21,5.29,7.44,5.14c3.23-0.15,6.22-2.65,6.93-5.81
				c0.47-2.06-0.06-4.27-1.27-5.99l9.42-13.35c2.52,1.05,4.89,0.05,6.54-1.8c1.85-2.07,2.43-5.12,1.06-7.85
				c-1.24-2.48-4.3-3.88-7.02-3.36c-1.01-3.08-4.21-5.29-7.44-5.14c-3.23,0.15-6.22,2.65-6.93,5.81c-0.52,2.28,0.19,4.76,1.69,6.54
				l-9.23,13.09c-2.75-1.49-5.37-0.48-7.15,1.51c-1.85,2.07-2.43,5.12-1.06,7.85C-268.27,204.59-265.22,205.98-262.49,205.46z"/>
			<path class="st13" d="M-348.35,232.07l10.52-30.92c1.5-4.4,5.63-7.36,10.28-7.36h123c4.11,0,7.75,2.67,8.98,6.6l9.9,31.68
				H-348.35z"/>
			<path class="st14" d="M-348.35,232.07l10.52-30.92c1.5-4.4,5.63-7.36,10.28-7.36h123c4.11,0,7.75,2.67,8.98,6.6l9.9,31.68
				H-348.35z"/>
			<polygon class="st14" points="-284.77,193.79 -317.88,232.07 -299.23,232.07 -265.25,193.79 			"/>
			<polygon class="st14" points="-259.27,193.79 -292.39,232.07 -287.69,232.07 -255.79,193.79 			"/>
		</g>
		<path class="st10" d="M-284.54,235.19c1.61-2.81,1.1-6.67-1.18-8.97c-2.28-2.3-6.13-2.84-8.96-1.25c-1.84,1.03-3.13,2.91-3.6,4.96
			l-16.22,1.96c-0.91-2.57-3.25-3.66-5.72-3.64c-2.78,0.02-5.43,1.63-6.54,4.48c-1.01,2.59,0,5.79,2.22,7.46
			c-1.61,2.81-1.1,6.67,1.18,8.97c2.28,2.3,6.13,2.84,8.96,1.25c2.04-1.15,3.41-3.33,3.72-5.64l15.91-1.93
			c0.73,3.04,3.24,4.31,5.92,4.29c2.78-0.02,5.43-1.63,6.54-4.48C-281.32,240.06-282.33,236.87-284.54,235.19z"/>
	</g>
</g>
<g id="Cans">
	<g>
		<rect x="-439.55" y="162.28" class="st13" width="91.6" height="34.28"/>
		<rect x="-439.55" y="162.28" class="st15" width="91.6" height="34.28"/>
		<rect x="-441.86" y="192.38" class="st13" width="96.22" height="4.29"/>
		<rect x="-441.86" y="192.38" class="st16" width="96.22" height="4.29"/>
		<rect x="-441.86" y="159.56" class="st13" width="96.22" height="4.64"/>
		<rect x="-441.86" y="159.56" class="st16" width="96.22" height="4.64"/>
		<rect x="-439.55" y="165.07" class="st10" width="91.6" height="26.05"/>
		<rect x="-439.55" y="169.59" class="st3" width="91.6" height="16.2"/>
		<rect x="-439.55" y="164.2" class="st6" width="91.6" height="2.6"/>
		<rect x="-439.55" y="190.16" class="st6" width="91.6" height="2.4"/>
		<ellipse class="st4" cx="-394.81" cy="178.48" rx="22.13" ry="8.89"/>
		<path class="st10" d="M-398.41,176.93c0,0-3.92-4.96-9.73-3.55c0,0-0.12,1.22,1.96,3.92c2.08,2.69,2.2,3.06,2.14,4.22
			c-0.06,1.16-0.67,3.24,0.12,3.61c0.8,0.37,4.41-1.22,5.88-3.43l3.31,1.59c0,0-1.9,1.65-1.35,2.26c0.55,0.61,4.71-0.12,6.3-0.98
			c0,0,2.57,0.24,5.26-1.22c2.69-1.47,4.59-3.37,4.35-4.65c-0.24-1.29-3.31-3.92-6.49-4.28c0,0-2.94-3.61-7.77-2.63
			c-4.84,0.98-2.94,1.78-2.63,2.02c0.31,0.24,1.65,1.16,1.65,1.16S-397.86,176.45-398.41,176.93z"/>
		<path class="st4" d="M-382.54,178.48c0,0.76-0.61,1.37-1.37,1.37c-0.76,0-1.37-0.61-1.37-1.37c0-0.76,0.61-1.37,1.37-1.37
			C-383.16,177.11-382.54,177.73-382.54,178.48z"/>
		<path class="st10" d="M-379.16,175.18c0,0.47-0.38,0.86-0.86,0.86c-0.47,0-0.86-0.38-0.86-0.86c0-0.47,0.38-0.86,0.86-0.86
			C-379.55,174.32-379.16,174.7-379.16,175.18z"/>
		<rect x="-361.02" y="174.5" class="st4" width="13.08" height="1.89"/>
		<rect x="-361.02" y="179" class="st4" width="13.08" height="1.89"/>
		<rect x="-439.37" y="174.5" class="st4" width="13.08" height="1.89"/>
		<rect x="-439.37" y="179" class="st4" width="13.08" height="1.89"/>
	</g>
	<g>
		<rect x="13.39" y="54.03" class="st13" width="66.48" height="24.88"/>
		<rect x="13.39" y="54.03" class="st15" width="66.48" height="24.88"/>
		<rect x="11.72" y="75.87" class="st13" width="69.83" height="3.11"/>
		<rect x="11.72" y="75.87" class="st16" width="69.83" height="3.11"/>
		<rect x="11.72" y="52.06" class="st13" width="69.83" height="3.37"/>
		<rect x="11.72" y="52.06" class="st16" width="69.83" height="3.37"/>
		<rect x="13.39" y="56.06" class="st10" width="66.48" height="18.91"/>
		<rect x="13.39" y="59.34" class="st3" width="66.48" height="11.76"/>
		<rect x="13.39" y="55.43" class="st6" width="66.48" height="1.89"/>
		<rect x="13.39" y="74.26" class="st6" width="66.48" height="1.74"/>
		<ellipse class="st4" cx="45.86" cy="65.79" rx="16.06" ry="6.45"/>
		<path class="st10" d="M43.25,64.67c0,0-2.84-3.6-7.06-2.58c0,0-0.09,0.89,1.42,2.84c1.51,1.95,1.6,2.22,1.55,3.07
			c-0.04,0.84-0.49,2.35,0.09,2.62c0.58,0.27,3.2-0.89,4.26-2.49l2.4,1.16c0,0-1.38,1.2-0.98,1.64c0.4,0.44,3.42-0.09,4.58-0.71
			c0,0,1.87,0.18,3.82-0.89c1.95-1.07,3.33-2.44,3.15-3.38c-0.18-0.93-2.4-2.84-4.71-3.11c0,0-2.13-2.62-5.64-1.91
			c-3.51,0.71-2.13,1.29-1.91,1.47c0.22,0.18,1.2,0.84,1.2,0.84S43.65,64.31,43.25,64.67z"/>
		<path class="st4" d="M54.76,65.79c0,0.55-0.44,0.99-0.99,0.99s-0.99-0.44-0.99-0.99c0-0.55,0.44-0.99,0.99-0.99
			S54.76,65.24,54.76,65.79z"/>
		<circle class="st10" cx="56.59" cy="63.39" r="0.62"/>
		<rect x="70.38" y="62.9" class="st4" width="9.49" height="1.37"/>
		<rect x="70.38" y="66.16" class="st4" width="9.49" height="1.37"/>
		<rect x="13.52" y="62.9" class="st4" width="9.49" height="1.37"/>
		<rect x="13.52" y="66.16" class="st4" width="9.49" height="1.37"/>
	</g>
</g>
</svg>
