<?xml version="1.0" encoding="utf-8"?>
<!-- Generator: Adobe Illustrator 27.1.1, SVG Export Plug-In . SVG Version: 6.00 Build 0)  -->
<svg version="1.1" id="Layer_1" xmlns="http://www.w3.org/2000/svg" xmlns:xlink="http://www.w3.org/1999/xlink" x="0px" y="0px"
	 viewBox="0 0 2218.65 2304.31" style="enable-background:new 0 0 2218.65 2304.31;" xml:space="preserve">
<style type="text/css">
	.st0{opacity:0.63;}
	.st1{fill-rule:evenodd;clip-rule:evenodd;fill:#FFA047;}
	.st2{fill:#531250;}
	.st3{opacity:0.5;}
	.st4{fill-rule:evenodd;clip-rule:evenodd;fill:#FFFFFF;}
	.st5{fill-rule:evenodd;clip-rule:evenodd;fill:#8F4949;}
	.st6{opacity:0.3;}
	.st7{fill-rule:evenodd;clip-rule:evenodd;fill:#531250;}
	.st8{fill:#50124C;}
</style>
<g class="st0">
	<g>
		<g>
			<path class="st1" d="M980.63,29.06C879.91-6.92,808.36,84.49,765.98,303.3c-249.14,235.02-477.94,498.64-686.4,790.85
				c-99.23,137.18-69.25,328.7,67.13,429c249.16,167.52,1139.41,891.54,1438.07,738.62c189.04-74.62,283.55-111.92,283.55-111.92
				c252.97-85.47,157.9-857.42,180.96-1178.8c157.88-179.26,188.99-297.4,93.33-354.42C1776.48,381.45,1387.08,184.55,980.63,29.06z
				"/>
		</g>
		<g>
			<path class="st2" d="M1485.19,2304.31c-119.04,0-285.67-61.77-504.51-186.53c-242.19-138.08-492.98-321.35-676.11-455.17
				c-69.2-50.57-128.97-94.24-169.79-121.69c-0.25-0.17-0.5-0.34-0.74-0.52c-145.29-106.86-177.5-312.67-71.8-458.79
				C269.05,791.7,499.21,526.18,746.3,292.45c30.13-151.65,74.3-242.22,134.95-276.8C913.31-2.63,949.18-4.91,987.83,8.9
				c0.15,0.05,0.3,0.11,0.44,0.17c406.95,155.68,799.1,353.96,1165.62,589.38c35.81,21.44,56.89,50.99,62.67,87.81
				c11.24,71.65-36.66,167.7-146.41,293.48c-5.08,78.22-3.54,184.19-1.93,296.19c2.59,179.26,5.53,382.43-16.17,549.7
				c-25.94,200.01-83.64,312.67-176.36,344.35l-282.12,111.35C1563.23,2296.63,1527.17,2304.31,1485.19,2304.31z M159.04,1505.64
				c41.51,27.93,101.44,71.72,170.79,122.4c182.3,133.21,431.97,315.66,672.06,452.54c279.37,159.27,472.2,213.82,573.14,162.13
				c0.62-0.32,1.25-0.61,1.9-0.86l283.54-111.91c0.33-0.13,0.66-0.25,1.01-0.37c175.41-59.27,168.78-518.05,163.94-853.04
				c-1.68-116.39-3.27-226.33,2.52-307.01c0.34-4.67,2.19-9.1,5.29-12.61c128.01-145.35,147.36-223.8,141.05-264.02
				c-3.78-24.09-17.72-43.02-42.61-57.86c-0.21-0.12-0.41-0.25-0.61-0.38C1766.98,400.79,1377.43,203.79,973.2,49.13
				c-26.64-9.46-49.79-8.25-70.75,3.71C853.1,80.98,814.25,166.62,787,307.37c-0.85,4.4-3.07,8.43-6.33,11.5
				C533.7,551.84,303.68,816.87,97.01,1106.59C5.04,1233.73,32.93,1412.59,159.04,1505.64z"/>
		</g>
		<g class="st3">
			<path class="st4" d="M980.63,29.06C879.91-6.92,808.36,84.49,765.98,303.3l-16.55,15.69c24.11,6.45,51.3,11.98,81.62,16.58
				l1.81-8.75c2.9,5.27,13.46,9.27,31.73,12c13.06-44.25,37.26-118.55,72.56-222.91c-31.84,23.57-56.25,51.73-73.26,84.5
				c23.28-78.15,46.01-116.06,68.2-113.74c243.2,68.98,634.92,255.39,1175.25,559.24c2.46-16.04,4.4-32.05,5.9-48.04
				C1755.66,370.96,1376.23,180.39,980.63,29.06"/>
		</g>
		<g>
			<path class="st5" d="M477.32,598.48c-95.6,105.83-187.75,216.46-276.49,331.93c703.26,423.05,1140.06,683.61,1310.39,781.64
				c129.37-43.94,217.96-67.69,265.82-71.3c130.24,52.8,216.71,96.87,259.4,132.25c12.78-129.87,13.06-277.1,11.48-415.95
				c-41.94-33.12-88.22-60.24-138.87-81.37c-49.37,1.65-99.58,16.02-150.63,43.09C1523.16,1202.5,1096.13,962.41,477.32,598.48"/>
		</g>
		<g class="st3">
			<path class="st4" d="M764.07,305.11C515.69,539.68,287.52,802.68,79.58,1094.15c-99.23,137.18-69.25,328.7,67.13,429
				c48.23,32.42,120.55,85.74,207.87,149.47C124.52,1495.35,35.35,1324,126.03,1180.35C277.63,940.2,486.62,705.25,720.67,453.7
				c50.02-51.96,115-52.45,199.77-10.9c312.44,153.21,556.27,249.15,726.8,297.37L830.79,335.86l0.26-0.28
				C807.66,324.79,785.34,314.64,764.07,305.11"/>
		</g>
		<g class="st6">
			<path class="st7" d="M1530.67,2112.65c31.53-40.43,56.66-75.79,75.41-106.09l90.81-99.29l0.91-2.88
				c61.13,41.48,119.14,95.93,174.01,163.38c-40.11-25.01-96.68-56.51-169.74-94.5c0,0-65.5,70.8-196.51,212.4
				c-3.9-11.6-7.19-22.92-9.91-33.96C1505.21,2138.95,1516.86,2125.92,1530.67,2112.65 M1473.53,2277.88
				c24.41,0.08,49.21-1.19,70.47-4.52c64.81-47.31,170.46-102.47,316.97-165.48c103.5-35.45,150.62-343.52,141.41-924.13v-0.01
				v-0.35l-0.2-11.56c0.74-90.44,54.09-208.7,160.1-354.77c57.12-118.13,38.8-175.19-54.94-171.15
				c64.65,28.28,46.4,116.15-54.79,263.63c-24.56,26.15-50.35,84.34-77.39,174.56v0.01c-190.54,384.32-287.25,653.17-331.59,794.66
				c-74.28,66.68-128.96,125.66-169.63,176.66v0.01c-2.29,2.85-4.51,5.67-6.69,8.47c-15.31,16.95-37.02,26.38-59.43,26.38
				c-69.94-25.92-79-82.18-27.18-168.8l6.6-10.69l0.15-0.22c97.93-158.54,219.24-352.34,363.94-581.39
				c71.3-97.43,150.73-222.73,238.34-375.96c9.43-107.23,37.13-196.5,83.1-267.79c-80.94,108.93-215.08,95-421.59-5.05
				c-304.89-147.73-482.42-199.75-515.24-193.69c237.62,103.33,427.12,193.34,568.51,270.07c-39.05-17.9-81.88-36.14-128.48-54.7
				c328.62,228.12,212.47,397.72-132.03,881.54c-438.55,371.14-800.03,276.14-1245-24.09c209.42,149.24,657.64,496.44,1007.1,649.05
				l9.84-16.53C1290.37,2241.83,1382.33,2281.49,1473.53,2277.88z"/>
		</g>
		<g>
			<g>
				<path class="st2" d="M2175.98,703.95c-3.98-8.26-8.12-18.42-12-23.96c-1.87-3.34-3.79-6.64-6.25-9.42
					c-2.24-3.08-4.51-6.03-6.9-7.87c-4.75-5.11-8.97-6.24-12.67-7.08c-3.51-1.08-8.69,1.26-14.39,4.15
					c-5.68,3.72-11.76,8.53-17.27,14.86c-5.66,5.94-11,12.88-15.96,20.19c-10.02,14.56-19.01,30.49-27.09,46.99
					c-16.14,33.09-29.44,68.13-40.2,103.76c-5.4,17.8-9.99,35.84-13.61,53.84c-1.81,9-3.22,17.97-4.25,26.79
					c-0.78,8.45-1.39,17.89-0.28,23.65l0.11,0.6c0.78,4.05-0.13,8.06-2.2,11.26l-604.55,930.66l577.89-947.58l-2.09,11.86
					c-2.63-13.05-1.61-22.87-1.15-33.37c0.89-10.15,2.18-20.07,3.85-29.81c3.33-19.5,7.64-38.59,12.78-57.41
					c10.23-37.68,22.97-74.57,39.26-110.53c8.19-17.97,17.44-35.65,28.55-52.83c5.51-8.6,11.56-17.06,18.79-25.15
					c6.86-8.2,15.35-15.96,25.5-22.81c10.61-6.2,23.76-12.73,39.61-11.13c15.02,1.23,29.18,8.46,37.85,16.95
					c5.14,4.1,8.86,8.57,12.43,13.08c3.88,4.4,6.99,9.19,9.93,14.09c6.81,10.32,9.82,17.98,14.41,26.71
					c5.73,10.91,1.53,24.39-9.36,30.13c-10.91,5.73-24.39,1.55-30.14-9.36c-0.09-0.2-0.2-0.38-0.28-0.58L2175.98,703.95z"/>
			</g>
		</g>
		<g>
			<path class="st2" d="M1902.04,887.91c-3.19,0-6.44-0.72-9.49-2.23L756.48,322.48c-10.59-5.25-14.92-18.1-9.67-28.69
				c5.25-10.59,18.09-14.93,28.69-9.67l1136.07,563.19c10.59,5.25,14.92,18.09,9.67,28.68
				C1917.5,883.54,1909.92,887.91,1902.04,887.91z"/>
		</g>
		<g>
			<g>
				<g>
					<path class="st2" d="M1676.22,1901.68c0,0,15.4-50.55,38.48-126.38c12.91-37.72,28.92-81.51,45.53-128.44
						c8.58-23.35,16.55-47.91,26.28-72.03c9.43-24.27,18.99-48.93,28.57-73.58c9.58-24.65,19.14-49.3,28.57-73.57
						c9.56-24.2,18.4-48.24,27.96-71.11c18.77-45.86,36.28-88.66,51.3-125.35c30.01-73.35,50.02-122.25,50.02-122.25
						s-17.51,49.86-43.77,124.63c-13.13,37.37-28.44,80.98-44.86,127.7c-8.38,23.29-15.98,47.73-24.3,72.35
						c-8.17,24.66-16.46,49.73-24.76,74.78c-8.3,25.05-16.59,50.1-24.74,74.76c-8.52,24.58-15.11,49.13-22.43,72.67
						c-14.09,47.22-27.66,91.02-38.52,128.88c-19.21,76.88-32.01,128.14-32.01,128.14l-0.06,0.24
						c-2.87,11.47-14.5,18.45-25.98,15.58c-11.46-2.86-18.45-14.49-15.57-25.97C1676.02,1902.39,1676.13,1902,1676.22,1901.68z"/>
				</g>
			</g>
		</g>
		<g>
			<g>
				<path class="st2" d="M1713.41,1920.86c0,0-57.14,60.9-114.28,121.79c-14.66,14.99-27.55,31.1-40.44,45.75
					c-12.74,14.8-24.61,28.59-34.8,40.43c-20.43,23.73-34.06,39.57-34.06,39.57s11.48-17.43,28.7-43.57
					c8.65-13.11,18.71-28.41,29.51-44.79c10.97-16.27,22.02-34.34,34.54-50.97c48.89-67.69,97.78-135.38,97.78-135.38
					c6.9-9.64,20.29-11.84,29.92-4.93c9.62,6.9,11.85,20.31,4.94,29.93C1714.7,1919.4,1714,1920.23,1713.41,1920.86z"/>
			</g>
		</g>
		<g>
			<g>
				<path class="st2" d="M1709.43,1889.93c0,0,43.05,37.62,86.08,75.24c10.91,9.11,20.84,20,30.6,29.25
					c9.6,9.45,18.57,18.27,26.26,25.83c15.27,15.04,25.43,25.06,25.43,25.06s-11.87-7.96-29.7-19.9
					c-8.84-5.92-19.18-12.85-30.25-20.25c-11.24-7.21-22.34-15.65-34.91-22.65c-49.3-28.94-98.6-57.88-98.6-57.88
					c-10.26-6.02-13.68-19.2-7.67-29.44c6.01-10.24,19.19-13.66,29.42-7.66C1707.25,1888.2,1708.47,1889.1,1709.43,1889.93z"/>
			</g>
		</g>
		<g>
			<ellipse class="st4" cx="917.52" cy="1196.55" rx="426.46" ry="413.09"/>
		</g>
		<g>
			<path class="st2" d="M917.52,1631.04c-246.95,0-447.87-194.92-447.87-434.5s200.91-434.5,447.87-434.5
				s447.87,194.91,447.87,434.5S1164.47,1631.04,917.52,1631.04z M917.52,804.86c-223.35,0-405.05,175.71-405.05,391.68
				c0,215.98,181.7,391.69,405.05,391.69s405.05-175.71,405.05-391.69C1322.58,980.57,1140.87,804.86,917.52,804.86z"/>
		</g>
		<g>
			<path class="st7" d="M959.51,1411.44c118.79-32,39.15-195.48-55.2-237.16c-88.91-39.26-251.08-1.03-192.35,108.84
				c38.28,71.62,93.07,27.7,125.93,43.8C873.01,1344.12,870.68,1435.38,959.51,1411.44z"/>
		</g>
		<g>
			<path class="st2" d="M932.14,1420.8c-41.26,0-57.72-30.68-71.42-56.19c-7.69-14.33-14.96-27.87-25.19-32.89
				c-9.69-4.75-22.61-3.43-36.28-2.04c-28.92,2.95-64.93,6.63-92.01-44.05c-24.32-45.49-10.53-75.41,5.31-92.49
				c41.21-44.41,136.35-49.17,193.92-23.76c66.47,29.36,122.63,113.3,117.82,176.1c-1.93,25.17-14.49,57.95-63.39,71.12
				C950.14,1419.51,940.62,1420.8,932.14,1420.8z M817.9,1317.68c7.92,0,15.43,1.05,22.34,4.44c13.33,6.53,21.38,21.54,29.91,37.43
				c16.24,30.25,33.02,61.53,87.96,46.73l0,0c33.93-9.14,53.12-30.44,55.5-61.6c4.42-57.8-49.75-138.23-111.47-165.5
				c-59.08-26.09-147.41-15.77-181.74,21.25c-19.33,20.84-20.62,48.56-3.73,80.17c23.71,44.34,53.07,41.35,81.49,38.45
				C804.94,1318.35,811.55,1317.68,817.9,1317.68z"/>
		</g>
		<g>
			<path class="st7" d="M674.37,1022.64c21.99,0,39.81,27.51,39.81,61.47c0,33.95-17.81,61.46-39.81,61.46
				c-21.97,0-39.81-27.51-39.81-61.46C634.56,1050.16,652.4,1022.64,674.37,1022.64z"/>
		</g>
		<g>
			<path class="st2" d="M674.37,1150.93c-24.9,0-45.16-29.97-45.16-66.81c0-37.47,19.84-66.83,45.16-66.83
				c25.32,0,45.16,29.35,45.16,66.83C719.53,1121.58,699.69,1150.93,674.37,1150.93z M674.37,1027.99
				c-18.68,0-34.46,25.7-34.46,56.12c0,30.42,15.78,56.11,34.46,56.11c18.68,0,34.45-25.7,34.45-56.11
				C708.83,1053.69,693.05,1027.99,674.37,1027.99z"/>
		</g>
		<g>
			<path class="st7" d="M1186.98,1242.4c-7.88-20.51-39.96-27.29-71.64-15.09c-31.68,12.18-50.98,38.69-43.09,59.22
				c7.88,20.51,39.98,27.27,71.66,15.09C1175.59,1289.42,1194.88,1262.91,1186.98,1242.4z"/>
		</g>
		<g>
			<path class="st2" d="M1112.68,1313.03c-5.06,0-9.98-0.49-14.64-1.47c-15.38-3.24-26.31-11.45-30.8-23.12
				c-9.08-23.64,11.21-52.69,46.17-66.14c16.26-6.26,33.23-8.03,47.77-4.96c15.37,3.24,26.3,11.45,30.79,23.12l0,0
				c4.5,11.67,1.89,25.1-7.35,37.8c-8.74,12.01-22.51,22.07-38.79,28.33C1134.77,1310.86,1123.4,1313.03,1112.68,1313.03z
				 M1146.52,1226.57c-9.38,0-19.42,1.94-29.26,5.73c-28.39,10.92-46.72,34.87-40.02,52.31c3.14,8.17,11.31,14.02,23.02,16.49
				c12.54,2.64,27.36,1.05,41.73-4.48c14.37-5.53,26.44-14.28,33.97-24.64c7.04-9.67,9.17-19.49,6.03-27.66c0,0,0,0,0,0
				c-3.14-8.17-11.31-14.03-23.01-16.49C1155.02,1226.98,1150.84,1226.57,1146.52,1226.57z"/>
		</g>
		<g>
			<path class="st7" d="M875.28,931.1c35.17,4.97,58.1,48.55,51.2,97.3c-6.9,48.77-41.01,84.25-76.19,79.28
				c-35.19-4.98-58.1-48.55-51.2-97.31C805.98,961.6,840.08,926.11,875.28,931.1z"/>
		</g>
		<g>
			<path class="st2" d="M856.8,1113.48c-2.42,0-4.84-0.17-7.27-0.51c-18.77-2.65-34.88-15.1-45.37-35.04
				c-10.19-19.37-13.87-43.63-10.37-68.31c3.49-24.69,13.76-46.97,28.93-62.74c15.62-16.25,34.52-23.72,53.32-21.07
				c18.75,2.65,34.86,15.1,45.36,35.04c10.19,19.37,13.88,43.62,10.39,68.3C924.93,1077.44,892.16,1113.47,856.8,1113.48z
				 M868.64,935.98c-13.36,0-26.73,6.36-38.21,18.3c-13.61,14.17-22.87,34.35-26.04,56.83c-3.18,22.48,0.1,44.44,9.25,61.83
				c8.85,16.82,22.12,27.27,37.39,29.43c32.27,4.58,63.67-28.97,70.15-74.73c3.18-22.47-0.11-44.43-9.26-61.82
				c-8.85-16.82-22.12-27.27-37.38-29.43c0,0,0,0,0,0C872.57,936.12,870.6,935.98,868.64,935.98z"/>
		</g>
		<g>
			<path class="st7" d="M979.34,1159.32c-27.85-22.07-25.61-71.25,4.99-109.84c30.6-38.58,77.98-51.98,105.81-29.9
				c27.85,22.08,25.61,71.25-4.99,109.84C1054.56,1168.01,1007.2,1181.4,979.34,1159.32z"/>
		</g>
		<g>
			<path class="st2" d="M1011.48,1175.22c-13.15,0-25.45-3.77-35.46-11.71c-14.85-11.77-22.47-30.65-21.45-53.16
				c1-21.86,10.07-44.66,25.56-64.2c15.5-19.53,35.62-33.57,56.68-39.52c21.69-6.13,41.81-3.02,56.65,8.75
				c14.85,11.77,22.47,30.65,21.45,53.16c-1,21.86-10.07,44.65-25.56,64.19C1067.73,1160,1037.89,1175.22,1011.48,1175.22z
				 M1057.9,1014.28c-5.79,0-11.89,0.88-18.17,2.66c-18.91,5.34-37.1,18.09-51.21,35.87c-14.1,17.79-22.36,38.4-23.26,58.03
				c-0.86,18.98,5.32,34.71,17.41,44.29v0c25.49,20.21,69.58,7.19,98.29-29.03c14.11-17.79,22.37-38.4,23.26-58.02
				c0.86-18.98-5.32-34.71-17.41-44.29C1078.89,1017.49,1068.96,1014.28,1057.9,1014.28z"/>
		</g>
		<g>
			<path class="st2" d="M1485.19,2304.31c-119.04,0-285.67-61.77-504.51-186.53c-242.19-138.08-492.98-321.35-676.11-455.17
				c-69.2-50.57-128.97-94.24-169.79-121.69c-0.25-0.17-0.5-0.34-0.74-0.52c-145.29-106.86-177.5-312.67-71.8-458.79
				C269.05,791.7,499.21,526.18,746.3,292.45c30.13-151.65,74.3-242.22,134.95-276.8C913.31-2.63,949.18-4.91,987.83,8.9
				c0.15,0.05,0.3,0.11,0.44,0.17c406.95,155.68,799.1,353.96,1165.62,589.38c35.81,21.44,56.89,50.99,62.67,87.81
				c11.24,71.65-36.66,167.7-146.41,293.48c-5.08,78.22-3.54,184.19-1.93,296.19c2.59,179.26,5.53,382.43-16.17,549.7
				c-25.94,200.01-83.64,312.67-176.36,344.35l-282.12,111.35C1563.23,2296.63,1527.17,2304.31,1485.19,2304.31z M159.04,1505.64
				c41.51,27.93,101.44,71.72,170.79,122.4c182.3,133.21,431.97,315.66,672.06,452.54c279.37,159.27,472.2,213.82,573.14,162.13
				c0.62-0.32,1.25-0.61,1.9-0.86l283.54-111.91c0.33-0.13,0.66-0.25,1.01-0.37c175.41-59.27,168.78-518.05,163.94-853.04
				c-1.68-116.39-3.27-226.33,2.52-307.01c0.34-4.67,2.19-9.1,5.29-12.61c128.01-145.35,147.36-223.8,141.05-264.02
				c-3.78-24.09-17.72-43.02-42.61-57.86c-0.21-0.12-0.41-0.25-0.61-0.38C1766.98,400.79,1377.43,203.79,973.2,49.13
				c-26.64-9.46-49.79-8.25-70.75,3.71C853.1,80.98,814.25,166.62,787,307.37c-0.85,4.4-3.07,8.43-6.33,11.5
				C533.7,551.84,303.68,816.87,97.01,1106.59C5.04,1233.73,32.93,1412.59,159.04,1505.64z"/>
		</g>
		<g class="st3">
			<path class="st4" d="M929.06,641.38l-63.09-50.85c-36.37-29.31-90.07-23.54-119.38,12.82L308.23,1147.1
				c-29.31,36.36-23.54,90.07,12.83,119.39l63.06,50.84c36.37,29.32,90.09,23.55,119.4-12.79l438.35-543.76
				C971.18,724.41,965.43,670.7,929.06,641.38"/>
		</g>
		<g>
			<g>
				<path class="st8" d="M844.22,332.19l88.43-203l-47.71,216.26c-2.57,11.6-14.05,18.92-25.65,16.36
					c-11.59-2.56-18.92-14.03-16.35-25.63C843.22,334.84,843.7,333.41,844.22,332.19z"/>
			</g>
		</g>
		<g>
			<g>
				<path class="st8" d="M949.84,387.91l88.41-203l-47.69,216.26c-2.57,11.6-14.05,18.92-25.65,16.36
					c-11.58-2.56-18.92-14.03-16.35-25.63C948.84,390.56,949.31,389.13,949.84,387.91z"/>
			</g>
		</g>
		<g>
			<g>
				<path class="st8" d="M1063.99,444.77l88.41-202.98l-47.69,216.25c-2.57,11.6-14.05,18.93-25.65,16.37
					c-11.58-2.56-18.92-14.04-16.35-25.64C1062.98,447.43,1063.46,445.99,1063.99,444.77z"/>
			</g>
		</g>
		<g>
			<g>
				<path class="st8" d="M1176.87,501.21l88.43-202.98l-47.71,216.25c-2.57,11.61-14.05,18.93-25.65,16.38
					c-11.58-2.56-18.92-14.05-16.35-25.64C1175.87,503.87,1176.35,502.43,1176.87,501.21z"/>
			</g>
		</g>
		<g>
			<g>
				<path class="st8" d="M1300.21,559.75l88.41-202.98l-47.69,216.25c-2.57,11.6-14.05,18.93-25.65,16.38
					c-11.58-2.56-18.92-14.05-16.35-25.64C1299.21,562.4,1299.69,560.97,1300.21,559.75z"/>
			</g>
		</g>
		<g>
			<g>
				<path class="st8" d="M1411.01,616.2l88.43-203l-47.71,216.26c-2.57,11.6-14.05,18.92-25.65,16.36
					c-11.58-2.56-18.92-14.03-16.35-25.63C1410.01,618.85,1410.49,617.42,1411.01,616.2z"/>
			</g>
		</g>
		<g>
			<g>
				<path class="st8" d="M1531.47,677.23l88.41-203l-47.69,216.26c-2.57,11.6-14.05,18.92-25.65,16.36
					c-11.59-2.56-18.93-14.03-16.35-25.63C1530.47,679.88,1530.95,678.45,1531.47,677.23z"/>
			</g>
		</g>
		<g>
			<g>
				<path class="st8" d="M1657.69,737.44l88.43-202.98l-47.71,216.25c-2.57,11.6-14.05,18.93-25.65,16.36
					c-11.58-2.56-18.92-14.03-16.35-25.63C1656.69,740.09,1657.17,738.66,1657.69,737.44z"/>
			</g>
		</g>
		<g>
			<g>
				<path class="st8" d="M1797.75,808.52l88.43-202.98l-47.71,216.25c-2.57,11.6-14.05,18.93-25.65,16.36
					c-11.58-2.56-18.92-14.03-16.35-25.63C1796.75,811.16,1797.23,809.74,1797.75,808.52z"/>
			</g>
		</g>
	</g>
</g>
</svg>
