<?xml version="1.0" encoding="utf-8"?>
<!-- Generator: Adobe Illustrator 28.2.0, SVG Export Plug-In . SVG Version: 6.00 Build 0)  -->
<svg version="1.1" id="Layer_1" xmlns="http://www.w3.org/2000/svg" xmlns:xlink="http://www.w3.org/1999/xlink" x="0px" y="0px"
	 viewBox="0 0 1289.78 1331.15" style="enable-background:new 0 0 1289.78 1331.15;" xml:space="preserve">
<style type="text/css">
	.st0{fill:#609C42;}
	.st1{fill:#65BC46;}
	.st2{fill:#4F9437;}
	.st3{fill:#3B5F2D;}
	.st4{fill:#253B1E;}
	.st5{fill:#D6D6D6;}
	.st6{fill:url(#SVGID_1_);}
	.st7{fill:#8D8C8C;}
	.st8{fill:#7E3142;}
	.st9{fill:#FFFFFF;}
	.st10{fill:#141414;}
	.st11{opacity:0.29;}
	.st12{fill:#0B0B0B;}
	.st13{fill:#0D0D0D;}
</style>
<rect x="-2516.88" y="1846.17" class="st0" width="763.92" height="606.88"/>
<g>
	<g>
		<g>
			<g>
				<g>
					<g>
						<path class="st1" d="M640.5,956.64c-62.24,0-122.62-12.19-179.46-36.23c-54.9-23.22-104.21-56.46-146.54-98.8
							c-42.34-42.34-75.58-91.64-98.8-146.54c-24.04-56.84-36.23-117.22-36.23-179.46S191.66,373,215.7,316.15
							c23.22-54.9,56.46-104.21,98.8-146.54c42.34-42.34,91.64-75.58,146.54-98.8c56.84-24.04,117.22-36.23,179.46-36.23
							s122.61,12.19,179.46,36.23c54.9,23.22,104.21,56.46,146.54,98.8s75.58,91.64,98.8,146.54
							c24.04,56.84,36.23,117.22,36.23,179.46s-12.19,122.61-36.23,179.46c-23.22,54.9-56.46,104.21-98.8,146.54
							s-91.64,75.58-146.54,98.8C763.11,944.45,702.73,956.64,640.5,956.64z"/>
						<path d="M640.49,43.57c249.65,0,452.04,202.38,452.04,452.04S890.15,947.64,640.49,947.64S188.46,745.26,188.46,495.61
							S390.84,43.57,640.49,43.57 M640.49,25.57c-63.45,0-125.01,12.43-182.97,36.95c-55.97,23.67-106.24,57.56-149.4,100.73
							c-43.16,43.16-77.05,93.43-100.73,149.4c-24.52,57.96-36.95,119.52-36.95,182.97s12.43,125.01,36.95,182.97
							c23.68,55.97,57.56,106.24,100.73,149.4c43.16,43.16,93.43,77.05,149.4,100.73c57.96,24.52,119.52,36.95,182.97,36.95
							s125-12.43,182.97-36.95c55.97-23.68,106.24-57.56,149.4-100.73c43.16-43.16,77.05-93.43,100.73-149.4
							c24.52-57.96,36.95-119.52,36.95-182.97s-12.43-125.01-36.95-182.97c-23.68-55.97-57.56-106.24-100.73-149.4
							c-43.16-43.16-93.43-77.05-149.4-100.73C765.5,38,703.94,25.57,640.49,25.57L640.49,25.57z"/>
					</g>
					<circle class="st2" cx="640.49" cy="495.61" r="419.34"/>
					<circle class="st3" cx="640.49" cy="495.61" r="374.99"/>
					<circle class="st4" cx="640.49" cy="495.61" r="347.81"/>
					<g>
						<g>
							<g>
								<path d="M940.8,64.14c1.13,0,2.23,0.05,3.3,0.14c29.07,2.7,38.98,37.83,32.67,63.96c-6.29,26.1-5.39,88.2-12.6,113.9
									s-4.5,69.84-11.71,86.05s-14.41,27.01-19.82,37.83c-0.6,1.18-1,2.68-1.26,4.44c-2.1,14.41,5.76,45.79,5.76,51.4
									c0,4.33,3.12,42.71,5.07,66.28c0,0.06,0,0.1,0.01,0.17c0.79,9.63,1.39,16.75,1.49,18c0.01,0.06,0.01,0.13,0.01,0.19
									c0.25,4.61,0.36,9.26,0.36,13.94c0,35.73-5.96,68.96-17.23,99.39c51.17,3.48,101.82,14.03,145.58,35.33
									c11.62,5.9,22.79,12.64,33.29,20.31c-10.8-7.24-22.19-13.49-33.97-18.88c-46.52-20.44-97.27-27.95-147.91-29.04
									c-3.64,8.97-7.74,17.67-12.31,26.13c54.91,8.43,109.01,24.79,153.7,52.81c10.93,7.11,21.31,15.01,30.93,23.75
									c-9.97-8.36-20.62-15.79-31.74-22.41c-47.96-27.55-102.56-40.37-157.3-46.27c-3.9,6.67-8.08,13.16-12.54,19.49
									c57.6,11.33,114.33,31.24,159.81,63.57c10.5,7.73,20.4,16.22,29.5,25.51c-9.46-8.91-19.67-16.96-30.39-24.21
									c-49.22-32.2-106.9-48.22-164.7-56.97c-27.07,35.62-63.29,65.42-106.9,88.67c-35.41,18.88-58.6,48.69-130.67,48.69
									c-2.16,0-4.35-0.03-6.6-0.08c-47.32-1.14-76.27-17.91-116.07-38.9c-1.7-0.9-3.4-1.82-5.09-2.74
									c-0.52-0.29-1.04-0.58-1.57-0.87c-1.2-0.66-2.39-1.33-3.57-2c-0.57-0.32-1.14-0.65-1.7-0.97c-1.2-0.69-2.4-1.39-3.6-2.09
									c-0.49-0.29-0.99-0.58-1.48-0.87c-1.57-0.94-3.14-1.88-4.72-2.86c-0.09-0.05-0.18-0.1-0.27-0.17
									c-1.74-1.08-3.48-2.17-5.21-3.27c-0.21-0.13-0.4-0.26-0.6-0.39c-1.49-0.96-2.99-1.94-4.47-2.91
									c-0.32-0.21-0.65-0.43-0.96-0.65c-1.44-0.96-2.88-1.94-4.31-2.91c-0.23-0.16-0.47-0.32-0.7-0.48
									c-27.57-18.97-53.05-41.76-74.73-67.39c-55.3,9.15-109.81,26.38-154.47,55.5c-10.72,7.25-20.93,15.29-30.39,24.21
									c9.1-9.29,19-17.78,29.5-25.51c31.83-22.95,68.35-38.6,105.76-50.01c14.46-4.31,29.07-8.06,43.78-11.28
									c-1.04-1.3-2.08-2.61-3.11-3.92c-0.06-0.08-0.13-0.17-0.19-0.25c-1.43-1.83-2.83-3.68-4.22-5.55
									c-0.09-0.13-0.18-0.25-0.27-0.38c-1.21-1.64-2.42-3.27-3.6-4.94c-0.26-0.36-0.52-0.73-0.77-1.08c-1.01-1.43-2.01-2.86-3-4.3
									c-51.3,6.67-101.75,20.52-144.41,44.92c-11.12,6.63-21.78,14.06-31.74,22.41c9.62-8.74,20-16.63,30.93-23.75
									c33.11-21.06,70.48-34.58,108.49-43.8c10.67-2.52,21.39-4.72,32.16-6.65c-0.21-0.32-0.42-0.65-0.62-0.97
									c-0.92-1.43-1.83-2.86-2.73-4.3c-0.29-0.45-0.57-0.91-0.84-1.36c-1.1-1.79-2.2-3.6-3.26-5.42
									c-0.18-0.31-0.35-0.62-0.53-0.94c-0.88-1.52-1.75-3.05-2.61-4.59c-0.32-0.58-0.65-1.16-0.96-1.74
									c-0.79-1.43-1.57-2.87-2.33-4.31c-0.23-0.44-0.48-0.88-0.71-1.34c-0.52-1-1.04-2.01-1.55-3.03
									c-45.83,2.49-91.01,11.06-130.99,28.56c-11.77,5.39-23.17,11.66-33.97,18.88c10.5-7.67,21.66-14.41,33.29-20.31
									c35.17-17.4,73.77-26.85,112.54-31.95c5.29-0.66,10.58-1.23,15.88-1.75c-0.26-0.53-0.51-1.08-0.75-1.61
									c-0.3-0.64-0.6-1.27-0.9-1.91c-0.79-1.73-1.57-3.44-2.33-5.18c-0.17-0.38-0.32-0.77-0.49-1.16c-0.7-1.64-1.4-3.29-2.08-4.94
									c-0.27-0.66-0.55-1.34-0.81-2.01c-0.55-1.36-1.08-2.73-1.6-4.11c-0.23-0.61-0.47-1.22-0.7-1.83
									c-0.69-1.87-1.36-3.74-2.03-5.61c-0.19-0.56-0.38-1.13-0.57-1.69c-0.48-1.42-0.95-2.85-1.42-4.27
									c-0.22-0.69-0.44-1.39-0.66-2.08c-0.48-1.56-0.95-3.12-1.4-4.68c-0.13-0.43-0.26-0.86-0.38-1.29
									c-0.55-1.92-1.07-3.85-1.57-5.78c-0.17-0.66-0.34-1.31-0.49-1.98c-0.36-1.43-0.7-2.86-1.04-4.3
									c-0.16-0.65-0.3-1.29-0.44-1.94c-0.44-1.96-0.86-3.94-1.25-5.91c-0.08-0.4-0.16-0.82-0.23-1.22
									c-0.31-1.65-0.61-3.3-0.9-4.95c-0.12-0.66-0.22-1.34-0.32-2c-0.26-1.59-0.49-3.17-0.71-4.77c-0.06-0.49-0.14-0.99-0.21-1.47
									c-0.27-2.03-0.52-4.05-0.73-6.08c-0.06-0.55-0.1-1.1-0.17-1.65c-0.16-1.59-0.3-3.18-0.43-4.78
									c-0.05-0.61-0.1-1.23-0.14-1.85c-0.14-2.08-0.29-4.17-0.38-6.26l-0.23,0.01c0,0-24.44-43.32-26.39-69.18
									c-1.73-22.67,7.85-49.53,6.28-69.66c-0.22-2.85-0.66-5.54-1.39-8.07c-5.87-20.56-31.33-20.56-23.49-107.67
									c7.84-87.11,1.92-75.38-1.48-103.77c-0.09-0.81-0.19-1.64-0.27-2.49c-0.04-0.35-0.06-0.7-0.1-1.05
									c-0.05-0.52-0.1-1.03-0.14-1.56c-0.04-0.42-0.06-0.84-0.1-1.27c-0.04-0.48-0.08-0.96-0.1-1.46
									c-0.04-0.47-0.06-0.92-0.09-1.4c-0.03-0.47-0.05-0.95-0.08-1.43c-0.03-0.49-0.05-0.97-0.08-1.48
									c-0.03-0.49-0.04-0.99-0.05-1.48c-0.03-0.9-0.05-1.82-0.08-2.74c-0.01-0.52-0.03-1.03-0.03-1.55c0-0.53,0-1.07,0-1.61
									c0-0.49,0-0.99,0-1.49c0-0.55,0.01-1.09,0.03-1.65c0.01-0.49,0.01-1,0.03-1.49c0.01-0.56,0.03-1.12,0.05-1.68
									c0.01-0.52,0.04-1.03,0.06-1.55c0.03-0.55,0.05-1.1,0.08-1.65c0.03-0.57,0.08-1.16,0.12-1.73c0.05-0.79,0.12-1.57,0.18-2.36
									c0.06-0.71,0.12-1.43,0.19-2.14c0.05-0.51,0.1-1,0.17-1.51c0.06-0.58,0.13-1.17,0.21-1.74c0.06-0.51,0.13-1.03,0.21-1.53
									c0.08-0.58,0.17-1.16,0.25-1.73c0.08-0.51,0.16-1,0.23-1.51c0.1-0.6,0.21-1.2,0.31-1.78c0.09-0.47,0.17-0.94,0.26-1.42
									c0.14-0.71,0.29-1.42,0.44-2.12c0.08-0.34,0.14-0.69,0.22-1.03c0.23-1.01,0.48-2.01,0.74-3c0.1-0.38,0.21-0.74,0.31-1.12
									c0.18-0.65,0.36-1.3,0.56-1.94c0.13-0.42,0.26-0.82,0.39-1.22c0.19-0.6,0.39-1.2,0.6-1.79c0.14-0.4,0.29-0.79,0.43-1.2
									c0.22-0.61,0.47-1.21,0.7-1.81c0.14-0.35,0.29-0.7,0.43-1.05c0.31-0.73,0.64-1.44,0.97-2.14c0.09-0.19,0.18-0.4,0.27-0.6
									c0.44-0.9,0.9-1.77,1.38-2.62c0.12-0.22,0.26-0.43,0.38-0.65c0.36-0.64,0.74-1.26,1.13-1.87c0.18-0.27,0.36-0.55,0.55-0.81
									c0.36-0.55,0.74-1.08,1.13-1.6c0.19-0.26,0.39-0.52,0.58-0.78c0.42-0.53,0.84-1.05,1.27-1.55c0.18-0.21,0.36-0.43,0.55-0.64
									c0.57-0.62,1.16-1.23,1.75-1.81c0.06-0.06,0.13-0.13,0.19-0.19c0.7-0.66,1.44-1.3,2.2-1.9c0.08-0.06,0.17-0.12,0.25-0.18
									c0.52-0.4,1.05-0.81,1.6-1.17c0,0.01,0,0.03,0,0.04c4.37-2.96,9.54-4.87,15.7-5.33c1.47-0.12,2.96-0.17,4.47-0.17
									c36.93,0,85.82,32.56,106.48,63.57c21.49,32.22,53.21,101.64,80.06,109.17c0.01,0,0.05,0.01,0.06,0.01h0.01
									c13.12-5.42,26.72-9.97,40.72-13.57c0.03,0,0.05-0.01,0.08-0.01c21.92-5.64,41.48-5.98,64.28-5.98c3.08,0,6.22,0,9.43,0
									c8.17,0,16.8-0.16,25.51-0.16c16.14,0,32.51,0.55,46.66,3.68c0,0,17.54-19.33,45.45-27.44
									c28.79-31.52,54.03-58.54,76.55-88.27C856.16,97.78,910.84,64.12,940.8,64.14 M940.8,45.24L940.8,45.24
									c-37.97,0-97.45,38.16-121.39,69.76c-19.84,26.18-41.81,50.2-67.27,78c-1.57,1.72-3.16,3.46-4.76,5.2
									c-18.5,6.38-32.67,16.63-40.88,23.65c-13.64-1.99-27.99-2.3-40.7-2.3c-4.51,0-8.99,0.04-13.32,0.08
									c-4.24,0.04-8.24,0.08-12.18,0.08h-4.79h-4.64c-24.51,0-45.14,0.48-68.66,6.48c-0.13,0.03-0.27,0.06-0.4,0.1
									c-11.85,3.05-23.62,6.8-35.08,11.17c-3.33-2.62-8.71-7.94-16.41-18.7c-9.86-13.75-19.69-30.85-29.2-47.39
									c-7.03-12.23-13.67-23.78-19.74-32.89c-11.71-17.57-31-35.43-52.91-48.99c-23.95-14.83-48.56-22.99-69.28-22.99
									c-1.99,0-3.98,0.08-5.9,0.22c-8.63,0.65-16.57,3.24-23.6,7.71c-0.43,0.25-0.84,0.49-1.25,0.78c-0.91,0.61-1.68,1.2-2.34,1.7
									c-0.21,0.16-0.42,0.31-0.61,0.47c-1.2,0.94-2.35,1.95-3.46,2.98c-0.17,0.17-0.35,0.34-0.52,0.51
									c-0.86,0.82-1.69,1.69-2.49,2.59c-0.23,0.25-0.48,0.53-0.73,0.83l-0.09,0.1c-0.71,0.82-1.34,1.57-1.91,2.33
									c-0.29,0.36-0.57,0.75-0.87,1.14c-0.55,0.74-1.09,1.52-1.62,2.31l-0.1,0.14c-0.22,0.32-0.44,0.66-0.66,1
									c-0.49,0.78-1,1.61-1.55,2.55l-0.04,0.06c-0.18,0.3-0.36,0.61-0.53,0.92c-0.64,1.16-1.27,2.35-1.85,3.55
									c-0.13,0.26-0.26,0.55-0.39,0.84l0.03-0.06c-0.49,1.04-0.91,1.98-1.29,2.85c-0.17,0.39-0.32,0.77-0.48,1.16l-0.09,0.22
									c-0.3,0.73-0.6,1.51-0.88,2.29c-0.19,0.53-0.38,1.03-0.56,1.55c-0.25,0.71-0.51,1.47-0.74,2.22l-0.04,0.12
									c-0.16,0.47-0.3,0.94-0.44,1.4c-0.25,0.79-0.47,1.59-0.69,2.38l-0.09,0.31c-0.1,0.35-0.19,0.7-0.3,1.07
									c-0.32,1.22-0.62,2.43-0.9,3.61c-0.08,0.32-0.14,0.64-0.21,0.96l-0.05,0.26c-0.18,0.83-0.36,1.66-0.52,2.51
									c-0.09,0.47-0.18,0.92-0.26,1.39l-0.05,0.27c-0.13,0.69-0.25,1.4-0.36,2.1c-0.09,0.55-0.18,1.13-0.27,1.72
									c-0.1,0.68-0.19,1.34-0.29,2l-0.01,0.14c-0.08,0.55-0.14,1.08-0.22,1.62c-0.09,0.68-0.16,1.35-0.23,2.03l-0.04,0.32
									c-0.05,0.45-0.1,0.91-0.14,1.36c-0.08,0.82-0.16,1.64-0.22,2.46c-0.08,0.88-0.14,1.77-0.21,2.65l-0.03,0.31
									c-0.04,0.55-0.08,1.1-0.1,1.65c-0.03,0.52-0.05,1.08-0.08,1.62l-0.01,0.22v0.14c-0.03,0.53-0.05,1.07-0.06,1.6
									c-0.03,0.61-0.04,1.23-0.05,1.86c-0.01,0.56-0.03,1.13-0.04,1.69c-0.01,0.6-0.01,1.21-0.03,1.83c0,0.48,0,0.99,0,1.48v0.17
									v0.4c0,0.47,0,0.94,0.01,1.4c0,0.47,0.01,0.94,0.03,1.42v0.3c0.03,1,0.05,2.01,0.08,3.01l0.01,0.31
									c0.01,0.45,0.03,0.9,0.05,1.35c0.03,0.44,0.04,0.88,0.06,1.33l0.01,0.3c0.03,0.53,0.05,1.07,0.09,1.6
									c0.04,0.55,0.06,1.07,0.1,1.59c0.04,0.49,0.08,1.04,0.12,1.59c0.04,0.49,0.08,0.97,0.12,1.44c0.05,0.57,0.1,1.16,0.16,1.73
									l0.03,0.26c0.03,0.31,0.05,0.61,0.09,0.92c0.1,0.96,0.21,1.9,0.31,2.81c0.92,7.71,2.05,12.97,2.96,17.2
									c2.4,11.25,4.16,19.39-1.53,82.61c-2.75,30.63-1.86,54.35,2.75,72.53c4.4,17.36,11.42,26.99,16.54,34.03
									c2.78,3.81,4.25,5.9,4.85,7.99c0.35,1.21,0.58,2.66,0.71,4.35c0.58,7.51-1.08,17.63-2.83,28.34
									c-2.21,13.46-4.51,27.38-3.44,41.29c1.94,25.57,20.48,61.76,26.87,73.57c0.04,0.57,0.08,1.16,0.12,1.77
									c0.04,0.57,0.09,1.14,0.13,1.72l0.03,0.29c0.13,1.72,0.3,3.46,0.47,5.17l0.05,0.53c0.04,0.42,0.08,0.83,0.13,1.23
									c0.25,2.23,0.51,4.44,0.79,6.57c0.05,0.38,0.1,0.73,0.16,1.08l0.08,0.51c0.25,1.74,0.51,3.47,0.78,5.15
									c0.12,0.7,0.23,1.42,0.35,2.14c0.31,1.81,0.64,3.61,0.97,5.37l0.06,0.35c0.06,0.32,0.12,0.65,0.18,0.97
									c0.39,1.96,0.83,4.04,1.34,6.34c0.12,0.52,0.23,1.05,0.36,1.6l0.12,0.49c0.36,1.55,0.73,3.09,1.12,4.63l0.12,0.47
									c0.14,0.55,0.27,1.1,0.42,1.65c0.58,2.25,1.13,4.27,1.69,6.21c0.09,0.31,0.18,0.64,0.27,0.95l0.13,0.42
									c0.49,1.7,1,3.39,1.52,5.04c0.23,0.75,0.47,1.49,0.71,2.25c0.49,1.53,1,3.05,1.52,4.59l0.19,0.57
									c0.14,0.42,0.27,0.83,0.42,1.23c0.69,1.99,1.42,4,2.17,6.02c0.05,0.14,0.1,0.29,0.16,0.43
									c-42.2,6.28-78.13,16.93-109.6,32.51c-0.06,0.03-0.12,0.07-0.18,0.09c-12.84,6.52-24.91,13.89-35.88,21.89
									c-8.3,6.07-10.23,17.66-4.34,26.08c3.66,5.24,9.52,8.06,15.49,8.06c3.61,0,7.28-1.04,10.5-3.2
									c9.52-6.38,20.01-12.21,31.17-17.33c21.69-9.47,46.01-16.57,72.69-21.19c-32,9.94-59.69,22.45-84.03,37.93
									c-0.05,0.04-0.12,0.08-0.17,0.1c-12.07,7.86-23.28,16.48-33.33,25.6c-7.6,6.91-8.28,18.65-1.52,26.39
									c3.73,4.27,8.97,6.46,14.23,6.46c3.33,0,6.68-0.87,9.65-2.66c-3.77,3.4-7.41,6.89-10.86,10.43
									c-7.2,7.34-7.19,19.1,0.01,26.43c3.69,3.77,8.59,5.67,13.49,5.67c4.65,0,9.3-1.7,12.94-5.13
									c8.36-7.86,17.74-15.35,27.9-22.23c36.33-23.65,82.3-40.71,136.77-50.78c20.87,23.28,44.79,44.28,71.26,62.5l0.45,0.31
									l0.29,0.19c1.51,1.04,3.01,2.05,4.52,3.05l0.27,0.18l0.75,0.51c1.55,1.03,3.11,2.04,4.68,3.05l0.19,0.13l0.43,0.29
									c1.87,1.2,3.72,2.35,5.47,3.43l0.3,0.18c1.64,1,3.29,2,4.94,2.99c0.36,0.22,0.74,0.43,1.1,0.65l0.44,0.26
									c1.26,0.74,2.52,1.48,3.78,2.2c0.6,0.34,1.2,0.69,1.79,1.03c1.26,0.71,2.51,1.42,3.77,2.11l0.53,0.3
									c0.36,0.21,0.74,0.42,1.1,0.61c1.96,1.08,3.72,2.01,5.35,2.88c2.23,1.18,4.43,2.34,6.59,3.48
									c36.88,19.53,68.72,36.4,117.83,37.59c2.38,0.05,4.74,0.09,7.06,0.09c60.85,0,90.9-19.8,117.41-37.27
									c7.52-4.95,14.63-9.64,22.14-13.64c42.74-22.78,78.33-51.33,105.96-84.94c60.06,10.12,107.99,27.27,146.28,52.29
									c10.16,6.89,19.56,14.37,27.91,22.23c3.64,3.43,8.3,5.13,12.94,5.13c4.9,0,9.78-1.9,13.49-5.67
									c7.2-7.34,7.2-19.09,0.01-26.43c-3.47-3.55-7.09-7.03-10.86-10.43c2.99,1.78,6.33,2.66,9.65,2.66
									c5.26,0,10.5-2.2,14.23-6.46c6.76-7.74,6.08-19.48-1.52-26.39c-10.04-9.13-21.26-17.75-33.33-25.61
									c-0.09-0.06-0.18-0.12-0.27-0.17c-24.56-15.4-52.68-28.08-84.07-37.94c26.7,4.55,50.82,11.62,72.83,21.27
									c11.15,5.12,21.65,10.95,31.17,17.35c3.22,2.16,6.87,3.2,10.5,3.2c5.96,0,11.82-2.82,15.49-8.06
									c5.9-8.42,3.96-20.01-4.34-26.08c-10.97-8-23.03-15.37-35.88-21.89c-0.09-0.05-0.19-0.09-0.29-0.14
									c-36.63-17.81-79.82-29.57-128.64-35.04c7.25-26.29,10.91-54,10.91-82.69c0-5.09-0.13-10.04-0.38-14.71
									c-0.01-0.49-0.05-0.99-0.1-1.47c-0.17-1.9-0.71-8.51-1.46-17.49c-0.01-0.09-0.01-0.17-0.03-0.26
									c-3.59-43.36-4.94-61.85-5-64.74c-0.01-3.31-0.66-7.03-2.1-15.03c-1.55-8.58-4.76-26.27-3.89-33.28
									c1.7-3.34,3.7-6.89,5.8-10.62c4.22-7.52,9.02-16.05,13.89-27c5.05-11.38,6.21-27.99,7.54-47.23
									c1.04-15.12,2.12-30.77,5.11-41.39c4.3-15.35,5.86-38.85,7.51-63.73c1.3-19.65,2.65-39.97,5.28-50.83
									c5.52-22.86,1.34-47.71-10.91-64.85c-9.39-13.14-22.66-20.87-38.36-22.32C944.22,45.32,942.52,45.24,940.8,45.24
									L940.8,45.24z"/>
							</g>
							<g>
								<g>
									<path class="st5" d="M474.54,287.58c0,0-52.66,63.67-78.56,65.29c-25.88,1.61-62.54,20.97-70.91,38.79
										c-0.22-2.85-0.66-5.54-1.39-8.07c-5.87-20.56-31.33-20.56-23.49-107.67c7.84-87.11,1.92-75.38-1.48-103.77
										c-3.42-28.38-1.39-83.76,35.97-86.58C403.89,96.74,474.54,287.58,474.54,287.58z"/>
								</g>
								<g>
									<linearGradient id="SVGID_1_" gradientUnits="userSpaceOnUse" x1="972.8529" y1="842.6507" x2="356.777" y2="207.9059">
										<stop  offset="0" style="stop-color:#000000"/>
										<stop  offset="0.1659" style="stop-color:#0A0A0A"/>
										<stop  offset="0.6928" style="stop-color:#262626"/>
										<stop  offset="1" style="stop-color:#303030"/>
									</linearGradient>
									<path class="st6" d="M944.09,520.44c0,114.61-61.36,203.41-162.19,257.16c-36.46,19.45-59.98,50.48-137.27,48.61
										c-47.32-1.14-76.27-17.91-116.07-38.9c-96.28-50.83-178.35-148.22-183.14-256.84l-0.23,0.01c0,0-24.44-43.32-26.39-69.18
										c-1.73-22.67,7.85-49.53,6.28-69.66c8.37-17.81,45.02-37.19,70.91-38.79c25.88-1.62,78.56-65.29,78.56-65.29
										s22.74-16.5,51.16-29.43c0.01,0,0.05,0.01,0.06,0.01h0.01c13.12-5.42,26.72-9.97,40.72-13.57c0.03,0,0.05-0.01,0.08-0.01
										c24.88-6.41,46.73-5.98,73.73-5.98c23.34,0,50.38-1.3,72.17,3.52c33.86,5.54,49.64,8.25,49.64,8.25l0.03,0.01
										c1.36,0.61,45.1,20.19,58.3,37.19c2.55,3.29,6.72,7.67,11.88,12.6l76.9,54.54c10.84,4.04,21.61,15.14,22.15,15.72
										c-2.1,14.41,5.76,45.79,5.76,51.4c0,4.33,3.12,42.71,5.07,66.28c0,0.06,0,0.1,0.01,0.17c0.79,9.63,1.39,16.75,1.49,18
										c0.01,0.06,0.01,0.13,0.01,0.19C943.98,511.11,944.09,515.76,944.09,520.44z"/>
								</g>
								<g>
									<path class="st7" d="M692.63,775.55c-20.71,10.91-46.6,19.22-87.67,18.22c-47.32-1.14-76.27-17.91-116.07-38.9
										c-14.9-7.87-29.46-16.85-43.45-26.82c-56.42-52.66-96.71-122.44-100.01-197.58l-0.23,0.01c0,0-24.44-43.32-26.39-69.18
										c-1.73-22.67,7.85-49.53,6.28-69.66c-0.22-2.85-0.66-5.54-1.39-8.07c-5.87-20.56-31.33-20.56-23.49-107.67
										c7.84-87.11,1.92-75.38-1.48-103.77c-2.85-23.71-1.91-66.28,20.28-81.29c-0.84,11.49-0.31,22.74,0.74,31.45
										c3.4,28.39,9.32,16.65,1.48,103.77c-7.84,87.11,17.62,87.11,23.49,107.67c0.73,2.53,1.17,5.22,1.39,8.07
										c0.73,9.23-0.9,19.84-2.7,30.85c-2.13,13.02-4.52,26.53-3.57,38.83c1.95,25.86,26.39,69.18,26.39,69.18l0.23-0.01
										c4.78,108.62,86.85,206,183.14,256.84c39.8,21,68.75,37.75,116.07,38.9C675.48,776.59,684.42,776.3,692.63,775.55z"/>
								</g>
								<g>
									<ellipse class="st8" cx="653.42" cy="690.31" rx="19.09" ry="16.49"/>
								</g>
								<g>
									<path d="M718.03,607.2c0,0-35.11,22.41-35.11,28.39c0,5.96-29.51,38.84-29.51,38.84s-29.51-32.87-29.51-38.84
										c0-5.98-35.11-28.39-35.11-28.39c22.44-6.03,43.98-9.2,64.63-9.49C674.06,597.99,695.59,601.17,718.03,607.2z"/>
								</g>
								<g>
									<path d="M700.26,702.88c-2.48,0-4.95-0.14-7.41-0.42c-28.12-3.16-43.79-23.36-44.45-24.22c-2.1-2.77-1.57-6.72,1.2-8.82
										s6.7-1.57,8.81,1.18l0,0c0.13,0.17,13.31,16.91,36.03,19.37c18.59,2.03,38.6-5.81,59.43-23.25
										c2.66-2.23,6.64-1.88,8.86,0.78c2.23,2.66,1.88,6.64-0.78,8.86C740.93,693.99,720.22,702.88,700.26,702.88z"/>
								</g>
								<g>
									<path d="M606.57,702.88c-19.96,0-40.67-8.89-61.69-26.49c-2.66-2.23-3.01-6.2-0.78-8.86c2.23-2.66,6.2-3.01,8.86-0.78
										c20.83,17.44,40.81,25.27,59.43,23.25c22.73-2.47,35.9-19.2,36.03-19.37c2.12-2.74,6.07-3.26,8.82-1.16s3.29,6.04,1.18,8.8
										c-0.65,0.86-16.33,21.08-44.45,24.22C611.52,702.73,609.05,702.88,606.57,702.88z"/>
								</g>
								<g>
									<path class="st9" d="M509.38,642.32c-85.21-13.67-186.38-14.51-266.57,20.58c-11.77,5.39-23.16,11.64-33.97,18.88
										c10.5-7.67,21.66-14.41,33.29-20.31c35.17-17.4,73.77-26.85,112.54-31.95c52.04-6.51,104.72-6.24,156.81,0.38
										C519.86,631.34,517.92,643.71,509.38,642.32L509.38,642.32z"/>
								</g>
								<g>
									<path class="st9" d="M512.99,665.18c-86.19-4.48-186.86,5.51-262.84,48.97c-11.12,6.63-21.78,14.06-31.74,22.41
										c9.62-8.74,20-16.63,30.93-23.75c33.11-21.06,70.48-34.58,108.49-43.8c51.05-12.05,103.46-17.4,155.95-16.4
										C522.24,653.14,521.63,665.65,512.99,665.18L512.99,665.18z"/>
								</g>
								<g>
									<path class="st9" d="M520.64,688.09c-86.31,0.52-186.23,16.33-259.55,64.12c-10.72,7.25-20.93,15.29-30.39,24.21
										c9.1-9.29,19-17.78,29.5-25.51c31.83-22.95,68.35-38.6,105.76-50.01c50.27-14.98,102.27-23.36,154.73-25.42
										C529.18,675.54,529.3,688.06,520.64,688.09L520.64,688.09z"/>
								</g>
								<g>
									<path class="st10" d="M944.09,64.28c0,0-90.89,82.76-98.94,112.76c-8.04,30-83.06,73.32-83.06,73.32s-15.76-2.7-49.64-8.25
										c0,0,17.54-19.33,45.44-27.44c28.79-31.52,54.03-58.54,76.55-88.27C856.98,96.7,915.03,61.58,944.09,64.28z"/>
								</g>
								<g>
									<path class="st10" d="M525.7,258.15c-28.42,12.92-51.16,29.43-51.16,29.43s-70.63-190.83-139.85-202
										c37.36-2.83,89.45,31.12,110.95,63.4C467.15,181.2,498.85,250.61,525.7,258.15z"/>
								</g>
								<g>
									<path class="st5" d="M976.75,128.24c-6.29,26.1-5.39,88.2-12.6,113.9c-7.21,25.7-4.5,69.84-11.71,86.05
										c-7.21,16.2-14.41,27.01-19.82,37.83c-0.6,1.18-1,2.68-1.26,4.44c-0.55-0.58-11.32-11.68-22.15-15.72l-76.9-54.55
										c-5.16-4.94-9.33-9.32-11.88-12.6c-13.2-17-56.94-36.56-58.3-37.19l-0.03-0.01c0,0,75.01-43.32,83.06-73.32
										c8.04-30,98.94-112.76,98.94-112.76C973.15,66.98,983.07,102.11,976.75,128.24z"/>
								</g>
								<g class="st11">
									<path class="st12" d="M976.75,128.24c-6.29,26.1-5.39,88.2-12.6,113.9c-7.21,25.7-4.5,69.84-11.71,86.05
										c-7.21,16.2-14.41,27.01-19.82,37.83c-0.6,1.18-1,2.68-1.26,4.44c-2.1,14.41,5.76,45.79,5.76,51.4
										c0,4.33,3.12,42.71,5.07,66.28c0,0.06,0,0.1,0.01,0.17c0.79,9.63,1.39,16.75,1.49,18c0.01,0.06,0.01,0.13,0.01,0.19
										c0.25,4.61,0.36,9.26,0.36,13.94c0,114.61-61.36,203.41-162.19,257.16c-36.46,19.45-59.98,50.48-137.27,48.61
										c-47.32-1.14-76.27-17.91-116.07-38.9c-29.66-15.66-57.99-35.76-83.12-59.25c13.99,9.97,28.55,18.95,43.45,26.82
										c39.8,21,68.75,37.75,116.07,38.9c77.27,1.87,100.81-29.16,137.27-48.61C843.05,691.42,904.4,602.62,904.4,488.01
										c0-4.68-0.1-9.33-0.36-13.94c0-0.06,0-0.13-0.01-0.19c-0.1-1.26-0.71-8.37-1.49-18c-0.01-0.06-0.01-0.1-0.01-0.17
										c-1.95-23.57-5.07-61.95-5.07-66.28c0-5.13-6.57-31.82-6.11-47.36c0.06-1.44,0.16-2.82,0.35-4.04
										c0.25-1.77,0.66-3.26,1.26-4.44c5.39-10.81,12.6-21.62,19.82-37.83c7.21-16.2,4.5-60.34,11.71-86.05
										c7.21-25.7,6.31-87.79,12.6-113.9c1.99-8.21,2.36-17.32,1.05-26.03c3.74-3.5,5.95-5.5,5.95-5.5
										C973.15,66.98,983.07,102.11,976.75,128.24z"/>
								</g>
								<g>
									<path class="st9" d="M803.09,623.59c86.93-10.42,189.59-7.22,269.35,31.58c11.62,5.9,22.79,12.64,33.29,20.31
										c-10.8-7.24-22.19-13.49-33.97-18.88c-59.41-26.12-125.75-31.11-189.9-28.61c-25.62,1.2-51.64,3.65-76.79,8.06
										C796.76,637.27,794.66,625.06,803.09,623.59L803.09,623.59z"/>
								</g>
								<g>
									<path class="st9" d="M800.83,646.27c87.55-1.07,189.27,13.1,264.42,60.2c10.93,7.11,21.31,15.01,30.93,23.75
										c-9.97-8.36-20.62-15.79-31.74-22.41c-56.28-32.32-121.7-44.39-185.76-48.77c-25.6-1.55-51.73-1.9-77.22-0.21
										C793.07,659.2,792.28,646.83,800.83,646.27L800.83,646.27z"/>
								</g>
								<g>
									<path class="st9" d="M793.9,669.17c87.46,4.02,188.19,24.04,260.5,75.43c10.5,7.73,20.4,16.22,29.5,25.51
										c-9.46-8.91-19.67-16.96-30.39-24.21c-54.31-35.53-118.92-51.36-182.62-59.45c-25.47-3.03-51.53-4.9-77.08-4.68
										C785.41,681.63,785.33,669.23,793.9,669.17L793.9,669.17z"/>
								</g>
								<g>
									<g>
										<g>
											<g>
												<path class="st0" d="M524.9,560.17c-1.12,0-2.25-0.04-3.37-0.12c-31.41-2.29-45.26-18.38-51.35-31.48
													c-10.86-23.36-4.52-52.16-0.36-57.89c9.72-13.35,33.64-16.15,52-16.15c29.1,0,52.77,23.67,52.77,52.77
													c0,13.48-5.23,26.91-14.36,36.86C550.74,554.48,538.2,560.17,524.9,560.17C524.9,560.17,524.9,560.17,524.9,560.17z"/>
												<path class="st13" d="M521.81,458.53c26.94,0,48.77,21.83,48.77,48.77c0,25.9-20.25,48.88-45.68,48.88
													c-1.02,0-2.05-0.04-3.08-0.11c-67.35-4.9-54.61-74.97-48.77-83.03C481.92,460.84,505.58,458.53,521.81,458.53
													 M521.81,450.53c-19.29,0-44.53,3.09-55.23,17.79c-3.08,4.25-5.61,14.17-6.29,24.69c-0.61,9.54-0.03,23.74,6.25,37.25
													c6.54,14.07,21.34,31.35,54.69,33.78c1.22,0.09,2.45,0.13,3.66,0.13c14.43,0,28.03-6.15,38.27-17.32
													c9.79-10.67,15.41-25.09,15.41-39.56C578.58,475.99,553.11,450.53,521.81,450.53L521.81,450.53z"/>
											</g>
										</g>
										<g>
											<ellipse cx="522.14" cy="507.34" rx="33.32" ry="33.21"/>
										</g>
									</g>
									<ellipse class="st9" cx="495.1" cy="487.18" rx="12.68" ry="12.33"/>
								</g>
								<g>
									<g>
										<g>
											<g>
												<path class="st0" d="M781.93,560.17c-26.93,0-49.68-24.21-49.68-52.88c0-29.1,23.67-52.77,52.77-52.77
													c18.36,0,42.28,2.8,52,16.15c4.16,5.74,10.5,34.54-0.36,57.9c-6.09,13.1-19.94,29.19-51.35,31.47
													C784.19,560.13,783.05,560.17,781.93,560.17z"/>
												<path class="st13" d="M785.02,458.53c16.23,0,39.89,2.31,48.77,14.5c5.85,8.06,18.58,78.13-48.77,83.03
													c-1.03,0.08-2.06,0.11-3.08,0.11c-25.43,0-45.68-22.98-45.68-48.88C736.25,480.36,758.08,458.53,785.02,458.53
													 M785.02,450.53c-31.3,0-56.77,25.47-56.77,56.77c0,14.47,5.62,28.89,15.41,39.56c10.25,11.17,23.84,17.32,38.27,17.32
													c1.21,0,2.44-0.04,3.66-0.13c33.35-2.43,48.15-19.71,54.69-33.78c6.28-13.51,6.87-27.72,6.25-37.25
													c-0.68-10.52-3.2-20.44-6.28-24.68C829.54,453.61,804.3,450.53,785.02,450.53L785.02,450.53z"/>
											</g>
										</g>
										<g>
											<ellipse cx="779.99" cy="507.34" rx="31.82" ry="33.21"/>
										</g>
									</g>
									<circle class="st9" cx="762.11" cy="486.83" r="12.68"/>
								</g>
							</g>
						</g>
					</g>
					<g>
						<g>
							<path class="st1" d="M119.7,1290.88c-33.33,0-59.09-14.21-76.55-42.24c-17.04-27.35-22.25-61.95-15.52-102.84
								c6.05-37.46,21.39-72.32,43.18-98.11c25.17-29.8,57.17-45.54,92.54-45.54h0.14c23,0.47,40.25,7,51.27,19.42
								c11.9,12.92,16.2,27.9,12.8,44.54c-4.03,21.99-20.69,41.48-43.5,50.9c-6.72,2.95-13.43,4.44-19.94,4.44
								c-5.45,0-10.78-1.05-15.84-3.12l-0.16-0.06l-0.15-0.07c-2.5-1.17-9.13-4.26-9.33-10.75c-0.09-2.76,1.02-6.71,6.8-9.87
								l0.22-0.12c0.12-0.06,0.25-0.13,0.4-0.21c0.97-0.53,2.58-1.42,4.69-1.98c20.03-6.12,34.14-19.32,36.9-34.5
								c0.83-7.58-1.14-14.48-5.57-19.46c-4.44-4.99-11.07-7.62-19.17-7.62c-50.65,0-78.5,56.69-87.67,109.73
								c-6.82,42.18-2.39,75.07,12.47,92.53c8.61,10.12,20.81,15.24,36.26,15.24c15.55,0,32.51-7.26,50.4-21.57
								c14.89-11.98,26.51-27.08,35.51-46.15c1.25-5.01,2.81-10.17,4.62-15.33l0.04-0.11c15.26-41.1,43.45-67.65,71.81-67.65
								c10.09,0,19.22,3.42,26.79,9.98c3.86-3.3,8.89-5.66,15.05-7.04c4.22-1.05,8.34-1.6,11.91-1.6c8.7,0,12.56,3.29,14.27,6.05
								c1.14,1.85,2.66,5.68,0.22,10.79c-10.38,25.34-18.03,46.88-22.75,64.04c-6.88,26.21-5.53,33.48-4.86,35.21
								c1.5-0.21,11.79-3.28,27.98-48.11c1.43-5.85,3.08-12.01,4.91-18.3l7.23-24.53c-3.47-0.47-5.42-2.4-6.32-3.61
								c-3.14-4.22-1.51-9.66-0.9-11.71c2.3-8.05,7.87-9.27,10.98-9.27h3.9c3.44-10.57,6.56-19.69,9.39-25.79
								c5.14-12.25,7.02-14.84,13.31-18.4c0.35-0.2,0.72-0.41,1.12-0.64l0.14-0.08l0.15-0.08c10.81-5.64,21.69-8.5,32.34-8.5
								c5.08,0,7.39,3.04,8.15,4.35c1.16,2,1.99,5.28-0.25,9.83c-0.15,0.48-0.31,0.92-0.46,1.32c-0.11,0.28-0.24,0.62-0.37,1
								l-0.21,0.62l-2.37,4.26c-7.04,14.4-11.72,24.9-14.73,32.13h3.82c4.63,0,7.12,2.42,8.19,3.86c3.25,4.36,1.62,9.79,1.08,11.58
								l-0.17,0.58l-0.27,0.54c-2.07,4.14-5.36,6.96-9.27,7.94l-0.84,0.21h-11.55l-9.16,29.32c-14.54,48.34-10.52,59.03-8.94,61.15
								c0.19,0.26,0.28,0.37,0.98,0.37c6.22,0,20.4-13.98,33.99-52.5c1.06-3.38,4.49-6.83,11.2-6.83c1.85,0,8.16,0.34,11.64,4.68
								c1.72,2.15,2.37,4.89,1.78,7.53l-0.09,0.39l-0.13,0.38c-9.88,28.52-20.07,49.16-31.14,63.1
								c-12.08,15.21-25.86,22.92-40.95,22.92c-9.28,0-16.8-2.87-22.36-8.54c-3.71-3.78-6.41-8.63-8.14-14.64
								c-11.53,15.73-23.85,23.18-37.97,23.18c-8.2,0-15.11-2.97-19.97-8.58c-4.6-5.3-7.38-12.85-8.38-22.8
								c-13.98,21.06-28.92,31.38-45.25,31.38c-7.9,0-21.37-2.93-28.56-21.15C186.37,1272.55,155.88,1290.88,119.7,1290.88z
								 M292.21,1131.58c-9.8,0-25.06,11.22-35.8,42.86c-9.3,26.81-8.34,40.65-6.38,43.37c2.04-0.17,8.45-2.43,20.91-20.87
								c10.19-15.49,19.88-35.6,28.76-59.7l0.06-0.17l0.07-0.17c0.33-0.77,0.59-1.46,0.8-2.1
								C298.14,1132.66,295.31,1131.58,292.21,1131.58z"/>
							<path d="M163.35,1009.15c20.97,0.43,36.37,5.99,46.22,17.12c10.27,11.13,14.12,23.96,11.13,38.51
								c-3.42,18.83-17.54,36.8-39.37,45.79c-5.88,2.59-11.64,3.88-17.19,3.88c-4.54,0-8.95-0.87-13.19-2.6
								c-6.42-2.99-6.85-5.56-2.14-8.13c0.86-0.43,2.14-1.28,3.85-1.71c23.96-7.28,38.94-23.11,41.94-40.23
								c2.14-18.4-9.41-35.09-31.67-35.09c-54.78,0-84.73,58.63-94.57,115.54c-11.55,71.46,7.7,115.97,55.63,115.97
								c17.12,0,35.52-7.7,54.78-23.11c15.84-12.74,28.35-29.09,37.76-49.26c1.2-4.91,2.72-10.03,4.6-15.35
								c15.35-41.31,42.29-63.09,65.25-63.09c10.34,0,19.87,4.42,27.18,13.45c3-5.56,8.56-8.99,16.26-10.7
								c3.76-0.94,7.31-1.42,10.3-1.42c6.55,0,10.45,2.28,8.1,6.98c-10.7,26.1-18.4,47.93-23.11,65.05
								c-8.99,34.23-6.42,44.08,1.71,44.08c10.29,0,22.17-17.84,34.87-53.11c1.41-5.8,3.04-11.91,4.92-18.36l9.84-33.38h-7.7
								c-3,0-3.42-2.14-2.14-6.42c0.86-2.99,2.14-4.28,4.28-4.28h8.99c4.28-13.27,7.7-23.54,10.7-29.96
								c5.56-13.27,6.42-12.84,11.55-15.83c9.84-5.13,19.69-7.7,29.1-7.7c2.57,0,3,1.71,1.28,4.71c0,0.43-0.43,1.28-0.86,2.57
								l-2.14,3.85c-9.84,20.11-15.83,34.23-18.83,42.37h14.12c3,0,3.85,2.14,2.57,6.42c-1.28,2.57-3,3.85-4.71,4.28h-15.83
								l-10.7,34.23c-15.83,52.64-12.84,70.61-1.28,70.61c11.98,0,27.39-19.69,40.65-57.34c0.34-1.37,2.33-1.99,4.53-1.99
								c3.31,0,7.11,1.39,6.59,3.7c-18.83,54.35-39.37,81.31-65.47,81.31c-17.73,0-26.28-12.45-25.79-37.21
								c-12.92,24.58-26.54,37.21-42.67,37.21c-18.4,0-25.25-17.97-20.11-53.92c-16.69,35.95-34.23,53.92-53.49,53.92
								c-11.98,0-20.11-7.7-23.96-22.68c-0.8-3.09-1.34-6.38-1.65-9.83c-24.2,43.91-55.32,65.89-93.77,65.89
								c-30.81,0-54.35-12.84-70.61-38.94s-20.97-59.05-14.55-98C45.67,1078.04,91.46,1009.15,163.35,1009.15 M249.79,1224.83
								c7.27,0,16.26-8.13,26.96-23.96c10.7-16.26,20.54-36.8,29.53-61.19c1.28-3,1.71-5.13,2.14-6.85
								c-4.39-5.43-10.03-8.24-16.2-8.24c-14.27,0-31.37,15.04-42.42,47.61C238.66,1204.29,239.52,1224.83,249.79,1224.83
								 M163.49,995.15h-0.14c-37.5,0-71.35,16.61-97.89,48.03c-22.6,26.75-38.49,62.81-44.74,101.54
								c-7.02,42.57-1.47,78.8,16.49,107.63c9.36,15.02,21.13,26.5,34.98,34.12c13.77,7.57,29.76,11.42,47.51,11.42
								c35.42,0,65.61-16.23,90.03-48.33c1.43,1.98,3,3.78,4.7,5.4c6.6,6.25,15.13,9.56,24.66,9.56c13.43,0,26.1-5.93,37.67-17.64
								c1.38-1.39,2.74-2.87,4.09-4.43c1.66,4.26,3.85,7.93,6.58,11.08c6.24,7.19,14.97,10.99,25.26,10.99
								c11.45,0,22.15-4.34,31.82-12.91c1.44-1.28,2.87-2.65,4.28-4.13c1.45,2.34,3.12,4.47,5,6.39
								c4.76,4.86,13.37,10.64,27.36,10.64c17.33,0,32.95-8.6,46.43-25.56c11.58-14.57,22.13-35.88,32.28-65.16l0.26-0.76l0.17-0.78
								c1.05-4.73-0.1-9.62-3.16-13.43c-5.44-6.78-14.47-7.3-17.1-7.3c-8.72,0-15.62,4.54-17.85,11.66
								c-5.37,15.2-11.34,27.87-17.27,36.68c-2.21,3.28-4.12,5.6-5.69,7.24c0.05-2.06,0.24-4.7,0.68-8.03
								c1.33-10.24,4.57-23.94,9.62-40.74l7.61-24.34h5.54h1.72l1.67-0.42c5.92-1.48,10.84-5.6,13.84-11.6l0.54-1.08l0.35-1.16
								c2.62-8.74,0.27-14.49-2.17-17.77c-1.9-2.55-4.48-4.45-7.45-5.56c2.71-6.11,6.24-13.74,10.77-23.01l1.96-3.53l0.63-1.13
								l0.41-1.23c0.09-0.27,0.19-0.51,0.26-0.72c0.13-0.35,0.29-0.76,0.45-1.22c3.47-7.46,1.42-13.11-0.21-15.93
								c-2.85-4.9-8.16-7.83-14.2-7.83c-11.79,0-23.76,3.13-35.58,9.29l-0.29,0.15l-0.29,0.17c-0.37,0.22-0.72,0.41-1.05,0.6
								c-8.19,4.65-10.86,8.82-16.26,21.67c-2.52,5.45-5.18,12.96-8.07,21.66c-2.79,0.2-7.83,1.21-11.86,5.6
								c-3.25-3.28-8.69-6.21-17.73-6.21c-4.11,0-8.78,0.62-13.52,1.79c-5.06,1.14-9.51,2.86-13.32,5.16
								c-7.92-5.4-17.13-8.28-26.9-8.28c-31.32,0-62.08,28.34-78.38,72.21l-0.04,0.11l-0.04,0.11c-1.81,5.13-3.36,10.27-4.64,15.27
								c-8.49,17.8-19.39,31.9-33.29,43.08c-16.59,13.27-32.08,20.02-46,20.02c-13.49,0-23.61-4.18-30.93-12.78
								c-13.51-15.87-17.38-46.72-10.89-86.88c8.7-50.22,34.48-103.85,80.76-103.85c6.05,0,10.87,1.83,13.94,5.28
								c3.04,3.42,4.41,8.31,3.86,13.79c-2.39,12.46-14.56,23.44-31.9,28.77c-2.87,0.78-4.98,1.94-6.14,2.57l-0.22,0.12l-0.16,0.08
								l-0.22,0.12c-9.37,5.11-10.57,12.36-10.45,16.23c0.23,7.16,4.72,12.84,13.37,16.88l0.31,0.14l0.31,0.13
								c5.91,2.42,12.13,3.64,18.49,3.64c7.45,0,15.08-1.68,22.68-5c12.49-5.17,23.49-13.15,31.83-23.09
								c8.16-9.73,13.63-21.11,15.8-32.92c3.79-18.65-1.21-36.13-14.48-50.57c-12.37-13.91-31.31-21.22-56.32-21.73L163.49,995.15
								L163.49,995.15z M338.62,1184.38c4.1-14.87,10.45-33.14,18.92-54.41c0.36,0.31,0.73,0.6,1.11,0.87l-5.47,18.56
								c-1.83,6.3-3.48,12.43-4.91,18.27c-4.95,13.67-9.22,23.07-12.69,29.53C336.32,1193.62,337.31,1189.39,338.62,1184.38
								L338.62,1184.38z M256.06,1204.92c0.67-6.21,2.55-15.46,6.95-28.14l0.02-0.04l0.01-0.04c9.26-27.28,22.01-37.61,28.68-38.09
								c-8.29,21.89-17.24,40.21-26.63,54.5C261.44,1198.5,258.44,1202.28,256.06,1204.92L256.06,1204.92z"/>
						</g>
						<g>
							<path class="st1" d="M595.12,1298.58c-35.11,0-60.79-11.22-76.34-33.36c-15.42-21.96-16.66-46.73-3.6-71.64
								c8.95-20.88,34.89-35.43,63.22-35.43c23.59,0,43.77,10.05,55.41,27.58c2.67,3.66,6.04,9.11,5.14,14.68
								c-0.48,3.02-2.1,5.59-4.68,7.43l-0.86,0.61l-1,0.33c-1.27,0.42-2.56,0.64-3.81,0.64c-2.17,0-4.29-0.65-6.14-1.88l-0.53-0.35
								l-0.46-0.44c-10.3-9.97-22.3-15.02-35.66-15.02c-1.78,0-3.61,0.09-5.44,0.27c-15.55,1.52-26.25,7.67-32.71,18.8
								c-7.57,13.34-7.36,24.32,0.71,34.5c8.38,10.57,21.83,16.28,41.1,17.47c1.39,0.06,2.79,0.09,4.16,0.09
								c16.44,0,31.67-4.29,45.27-12.74c14.75-8.93,23.96-20.22,28.22-34.56c6.01-20.42-12.17-34.83-42.83-56.15
								c-16.63-11.56-33.84-23.52-45.33-38.45c-13.84-17.97-16.87-36.98-9.28-58.12c6.67-19.06,21.41-34.08,43.79-44.6
								c22.13-10.83,43.98-16.09,66.79-16.09c23.56,0,42.03,6.26,54.87,18.6c13.29,12.33,18.75,27.96,15.79,45.22
								c-3.97,21.85-20.97,41.38-44.38,51.05c-6.82,2.99-13.28,4.44-19.76,4.44c-5.34,0-10.69-1.04-15.92-3.08l-0.21-0.08
								c-2.52-1.08-9.23-3.95-9.82-10.38c-0.2-2.14,0.23-6.22,5.27-9.58c1.41-0.94,3.5-2.33,6.71-3.07
								c21.56-7.41,36-20.54,37.72-34.34l0.02-0.16c1.12-7.55-0.46-14.07-4.59-18.86c-5.11-5.92-13.85-9.05-25.29-9.05
								c-31.59,0-58.67,17.35-67.4,43.17c-5.61,16.09,12.74,34.12,29.16,46.45l1.54,1.09c32.85,23.33,77.83,55.27,67.9,96.91
								c-5.55,23.13-19.34,42.1-41,56.4C649.71,1291.28,624.21,1298.58,595.12,1298.58z"/>
							<path d="M680.27,1009.15c21.83,0,38.51,5.56,50.07,16.69c11.55,10.7,16.26,23.96,13.69,38.94
								c-3.42,18.83-18.4,36.8-40.23,45.79c-5.88,2.59-11.51,3.88-17.02,3.88c-4.51,0-8.94-0.87-13.37-2.6
								c-5.99-2.57-7.27-5.13-3.42-7.7c1.28-0.86,2.57-1.71,4.71-2.14c23.96-8.13,40.65-23.11,42.79-40.23
								c3-20.11-9.84-35.95-36.8-35.95c-32.95,0-63.76,17.55-74.03,47.93c-6.42,18.4,9.42,37.66,31.67,54.35
								c32.52,23.11,75.74,53.06,66.76,90.72c-5.13,21.4-17.97,38.94-38.09,52.21c-20.11,13.69-44.08,20.54-71.89,20.54
								c-32.95,0-56.49-10.27-70.61-30.38s-14.98-41.94-3-64.62c8.15-19.4,32.51-31.43,56.89-31.43c19.17,0,38.36,7.44,49.66,24.58
								c4.71,6.42,5.14,10.27,2.14,12.41c-0.53,0.18-1.06,0.28-1.6,0.28c-0.75,0-1.5-0.21-2.26-0.71
								c-11.71-11.33-25.41-16.99-40.52-16.99c-2.02,0-4.06,0.1-6.12,0.3c-17.55,1.71-30.38,8.99-38.09,22.25
								c-8.99,15.83-8.56,29.96,1.28,42.37s25.25,18.83,46.22,20.11c1.52,0.07,3.03,0.1,4.53,0.1c17.92,0,34.35-4.71,48.96-13.79
								c16.26-9.84,26.53-22.68,31.24-38.51c17.12-58.2-125.38-74.89-97.57-152.34c5.99-17.12,19.26-30.81,40.23-40.65
								C637.48,1014.28,658.45,1009.15,680.27,1009.15 M680.27,995.15c-23.89,0-46.73,5.49-69.82,16.78
								c-24.1,11.34-40.03,27.69-47.37,48.6c-8.32,23.22-4.84,44.99,10.34,64.7c9.28,12.05,21.77,22.06,34.75,31.4
								c-9.04-3.58-19.1-5.48-29.78-5.48c-14.37,0-28.97,3.58-41.14,10.09c-13.36,7.15-23.17,17.28-28.41,29.32
								c-14.23,27.31-12.78,54.5,4.19,78.68c16.93,24.11,44.54,36.34,82.07,36.34c30.51,0,57.32-7.71,79.69-22.91
								c23.16-15.3,37.93-35.68,43.91-60.57c5-20.97-1.84-42.05-20.33-62.68c-14.4-16.06-33.48-29.61-50.32-41.57l-1.46-1.04
								c-20.2-15.18-29.93-29.18-26.71-38.43l0.02-0.06l0.02-0.06c7.77-22.98,32.19-38.41,60.77-38.41c9.21,0,16.31,2.35,19.99,6.62
								c3.48,4.04,3.54,9.44,2.97,13.26l-0.02,0.16l-0.02,0.16c-1.36,10.89-14.18,22.02-32.73,28.48c-4.23,1.04-6.96,2.86-8.65,3.98
								c-8.36,5.57-8.63,13.08-8.35,16.05c0.64,7.02,5.37,12.46,14.03,16.17l0.21,0.09l0.21,0.08c6.04,2.36,12.25,3.56,18.47,3.56
								c7.34,0,14.91-1.68,22.5-5c25.56-10.58,44.14-32.09,48.52-56.17l0.01-0.07l0.01-0.07c3.37-19.68-2.81-37.48-17.88-51.49
								C725.76,1002.05,705.68,995.15,680.27,995.15L680.27,995.15z M639.56,1181.74c-1.45-2.18-3.02-4.25-4.7-6.21
								c19.05,14.14,29.36,25.14,25.56,38.08c-3.73,12.56-11.93,22.54-25.06,30.49l-0.07,0.04l-0.07,0.04
								c-12.47,7.75-26.46,11.68-41.57,11.68c-1.25,0-2.53-0.03-3.8-0.08c-17.14-1.07-28.91-5.92-35.98-14.83
								c-4.39-5.54-7.84-13.04-0.11-26.7c5.33-9.13,14.01-13.99,27.3-15.29c1.6-0.16,3.21-0.24,4.76-0.24
								c11.64,0,21.71,4.27,30.79,13.05l0.91,0.88l1.06,0.7c3,2,6.47,3.06,10.02,3.06c2.01,0,4.03-0.34,6.02-1l2-0.67l1.71-1.22
								c4.08-2.91,6.75-7.18,7.52-12.02C647.16,1193.46,642.95,1186.41,639.56,1181.74L639.56,1181.74z"/>
						</g>
						<g>
							<path class="st1" d="M1103.45,1257.76c-4.07,0-9.88-0.51-13.24-4.89c-1.31-1.7-2.61-4.5-2.04-8.6
								c-11.59,8.79-24.36,13.22-38.18,13.22c-19.84,0-34.73-9.03-43.06-26.12c-0.36-0.7-0.71-1.42-1.04-2.14
								c-12.54,19.2-25.94,28.26-41.48,28.26c-8.2,0-15.11-2.97-19.97-8.58c-4.6-5.3-7.38-12.85-8.38-22.8
								c-13.98,21.06-28.92,31.38-45.25,31.38c-8.12,0-22.09-3.09-29.12-22.63c-11.37,15.37-23.57,22.63-37.63,22.63
								c-15.27,0-23.19-6.93-27.15-12.74c-12.58-18.48-3.66-51.71,6.06-76.35l6.96-18.8c-12.03,12.59-33.7,42.57-61.79,98.06
								l-1.78,3.55l-1.66,1.66c-2.96,2.95-7.15,3.59-12.74,4.15c-4.14,0.5-7.31,0.73-9.97,0.73c-4.03,0-9.77-0.5-13.09-4.82
								c-2.17-2.82-2.71-6.38-1.62-10.57c2.28-9.48,8.24-30.2,18.09-64.47l4.7-16.34l7.75-24.96c1.77-5.32,8.39-23.14,19.04-29.14
								c10.6-5.99,21.69-9.03,32.96-9.03c4.84,0,7.26,2.27,8.43,4.18c2.84,4.61,0.57,9.11-2.57,15.33l-0.94,1.86l-0.06,0.11
								c-3.13,5.73-6.23,12.02-9.3,18.82c16.46-19.85,35.25-36.02,52.79-36.02c9.08,0,13.8,4.1,16.15,7.54
								c6.95,10.16,4.04,29.09-10.05,65.33c-9.6,24.74-9.74,38.61-7.49,41.9c0.16,0.23,0.23,0.34,0.97,0.34
								c0.41,0,10.26-0.49,26.4-43.35c0.72-2.31,1.4-4.38,2.08-6.32l0.04-0.11c15.26-41.1,43.45-67.65,71.81-67.65
								c10.09,0,19.22,3.42,26.79,9.98c3.86-3.3,8.89-5.66,15.05-7.04c4.22-1.05,8.34-1.6,11.91-1.6c8.7,0,12.56,3.29,14.27,6.05
								c1.14,1.85,2.66,5.68,0.23,10.79c-10.38,25.34-18.03,46.88-22.75,64.04c-6.88,26.21-5.53,33.48-4.86,35.21
								c1.41-0.19,10.66-2.94,25.28-40.88c0.74-2.82,1.59-5.72,2.54-8.63l0.06-0.19c14.6-40.71,44.5-67.04,76.2-67.12
								c0.58-0.02,1.15-0.03,1.72-0.03c15.84,0,27.7,8.88,30.2,22.61c2.31,12.71-4.31,29.81-24.27,37.49
								c-3.52,1.71-6.91,2.58-10.07,2.58c-4.57,0-8.56-1.76-11.55-5.09c-3.32-3.45-2.85-7.04-2.49-8.44
								c0.85-3.29,3.41-5.59,7.6-6.85c7.13-2.53,9.02-5.82,9.69-8.55c-0.08-1.77-0.56-2-1.82-2.2c-0.07,0-0.14,0-0.21,0
								c-4.72,0-10.53,3.93-17.28,11.67c-7.96,9.65-13.08,19.37-15.67,29.7l-0.07,0.25c-4.9,16.89-4.54,31.9,0.93,39.18
								c2.28,3.03,5.37,4.5,9.46,4.5c18.81,0,36.43-16.92,48.37-46.45c1.88-6.7,3.78-13.41,5.67-19.95
								c14.91-50.36,25.44-84.54,29.67-96.29c4.5-12.51,10.79-20.99,18.7-25.2c10.86-5.67,21.74-8.53,32.39-8.53
								c5.08,0,7.39,3.04,8.15,4.35c1.16,2,1.99,5.28-0.25,9.83c-0.15,0.48-0.31,0.92-0.46,1.31c-0.11,0.29-0.24,0.62-0.37,1
								l-0.21,0.62l-2.36,4.25c-12.07,25.02-25.92,62.18-42.34,113.59c-0.78,2.34-1.53,4.62-2.26,6.83
								c19.58-25.79,38.29-47,55.87-63.3l0.15-0.14c4.01-3.51,8.2-5.29,12.47-5.29c7.36,0,13.82,5.41,17.73,14.84
								c3.29,7.95,5.87,22.09-0.52,28.49c-0.46,0.46-0.78,0.7-3.23,2.59c-7.53,5.77-29.64,22.73-48.48,41.03
								c11.2,32.79,19.91,36.43,23.22,36.43c10.32,0,24.36-37.98,29.73-52.56c1.06-3.31,4.37-6.65,10.74-6.65
								c3.87,0,9,1.27,11.77,4.82c1.68,2.15,2.27,4.87,1.62,7.45l-0.08,0.31l-0.1,0.3c-18.52,53.09-36.32,86-67.8,86
								c-19.76,0-30.7-14.68-41.74-42.01c-8.01,9.46-16.54,20.45-26.69,34.34c-3.3,6.18-11.99,6.96-15.17,7.2
								C1109.23,1257.53,1106.06,1257.76,1103.45,1257.76z M943.93,1131.58c-9.8,0-25.06,11.22-35.8,42.86
								c-9.3,26.81-8.34,40.65-6.38,43.37c2.04-0.17,8.45-2.43,20.91-20.87c10.19-15.49,19.88-35.6,28.76-59.7l0.06-0.17l0.07-0.17
								c0.33-0.77,0.59-1.46,0.8-2.1C949.85,1132.66,947.03,1131.58,943.93,1131.58z"/>
							<path d="M1193.77,1028.41c2.57,0,3,1.71,1.28,4.71c0,0.43-0.43,1.28-0.86,2.57l-2.14,3.85
								c-12.41,25.68-26.53,63.76-42.79,114.69c-6.42,19.26-11.13,34.66-14.12,46.64c29.1-42.37,55.63-74.03,79.17-95.86
								c2.86-2.5,5.48-3.56,7.86-3.56c11.84,0,17.25,26.38,12.26,31.37c-0.86,0.86-31.24,23.11-54.78,46.64
								c9.84,30.38,20.11,45.36,31.24,45.36c11.55,0,21.4-16.69,36.37-57.34c0.33-1.31,2.09-1.87,4.1-1.87
								c3.25,0,7.13,1.46,6.6,3.58c-19.26,55.2-35.95,81.31-61.19,81.31c-15.83,0-25.68-11.13-39.37-48.36
								c-11.98,13.27-23.54,28.24-35.09,44.08c-0.86,2.14-4.28,3.42-9.84,3.85c-3.58,0.45-6.57,0.69-9.01,0.69
								c-6.9,0-9.37-1.94-8.1-6.68c1.83-7.42,3.79-15.2,5.9-23.31c-14.66,19.77-31.77,29.73-51.25,29.73
								c-17.12,0-29.53-7.27-36.8-22.25c-2.62-5.09-4.32-10.68-5.16-16.76c-13.2,25.77-27.09,39.01-43.62,39.01
								c-18.4,0-25.25-17.97-20.11-53.92c-16.69,35.95-34.23,53.92-53.49,53.92c-11.98,0-20.11-7.7-23.96-22.68
								c-0.91-3.56-1.5-7.36-1.78-11.39c-12.47,22.74-25.48,34.07-41.01,34.07c-31.24,0-32.95-32.95-14.55-79.6l8.56-23.11
								c2.14-7.7,2.14-11.98,0.86-12.41c-11.55,0-42.37,40.65-77.03,109.12l-1.28,2.57l-0.86,0.86c-1.28,1.28-4.28,1.71-8.56,2.14
								c-3.69,0.45-6.74,0.69-9.2,0.69c-6.95,0-9.19-1.94-7.92-6.68c2.57-10.7,10.27-37.23,22.68-80.45l7.7-24.82
								c3-8.99,8.99-21.4,15.83-25.25c9.84-5.56,19.69-8.13,29.53-8.13c4.71,0,2.57,3.42-1.28,11.13
								c-7.7,14.12-15.41,31.67-23.11,53.49l-7.7,21.4c30.81-52.64,59.91-81.74,80.45-81.74c16.69,0,17.55,17.12-0.43,63.33
								c-11.13,28.67-13.27,51.78,0,51.78c9.79,0,21.02-16.14,33.02-48.08c0.64-2.06,1.32-4.14,2.06-6.27
								c15.35-41.31,42.29-63.09,65.25-63.09c10.34,0,19.87,4.42,27.18,13.45c3-5.56,8.56-8.99,16.26-10.7
								c3.76-0.94,7.31-1.42,10.3-1.42c6.55,0,10.45,2.28,8.1,6.98c-10.7,26.1-18.4,47.93-23.11,65.05
								c-8.99,34.23-6.42,44.08,1.71,44.08c9.55,0,20.47-15.36,32.14-45.75c0.72-2.8,1.56-5.66,2.52-8.6
								c14.12-39.37,41.94-62.48,69.75-62.48c0.54-0.02,1.06-0.03,1.58-0.03c29.75,0,32.15,35.74,3.13,46.68
								c-2.7,1.35-5.13,2-7.27,2c-2.61,0-4.77-0.98-6.42-2.86c-1.71-1.71-0.86-3,2.14-3.85c8.56-3,13.27-7.7,14.55-14.55
								c0-5.56-2.57-8.99-8.13-9.84c-0.3-0.02-0.61-0.03-0.91-0.03c-7.01,0-14.42,4.72-22.62,14.15
								c-8.13,9.84-14.12,20.54-17.12,32.52c-8.56,29.53-2.14,52.64,17.12,52.64c21.39,0,41.64-17.91,55.01-51.19
								c1.85-6.6,3.77-13.36,5.76-20.28c15.83-53.49,25.68-85.16,29.53-95.86s8.99-17.97,15.41-21.4
								C1174.51,1030.97,1184.35,1028.41,1193.77,1028.41 M901.5,1224.83c7.27,0,16.26-8.13,26.96-23.96
								c10.7-16.26,20.54-36.8,29.53-61.19c1.28-3,1.71-5.13,2.14-6.85c-4.39-5.43-10.03-8.24-16.2-8.24
								c-14.27,0-31.37,15.04-42.42,47.61C890.37,1204.29,891.23,1224.83,901.5,1224.83 M1193.77,1014.41
								c-11.79,0-23.76,3.13-35.58,9.29l-0.06,0.03l-0.06,0.03c-9.48,5.06-16.88,14.82-21.99,29.01c-3.1,8.6-9.5,28.98-18.47,58.72
								c-2.12-3.67-4.92-6.93-8.3-9.57c-6.63-5.2-15.2-7.94-24.8-7.94c-0.63,0-1.24,0.01-1.86,0.03
								c-17.24,0.07-34.16,6.97-48.96,19.95c-14.42,12.65-26.07,30.56-33.69,51.8l-0.07,0.19l-0.06,0.19
								c-0.96,2.92-1.82,5.83-2.56,8.65c-3.83,9.9-7.19,17.14-10.03,22.41c0.74-3.57,1.74-7.81,3.05-12.81
								c4.64-16.84,12.17-38.03,22.39-63c2.73-5.88,2.49-12.15-0.68-17.28c-2.64-4.28-8.29-9.37-20.22-9.37
								c-4.11,0-8.78,0.62-13.52,1.79c-5.06,1.14-9.51,2.87-13.32,5.16c-7.92-5.4-17.13-8.28-26.9-8.28
								c-31.32,0-62.08,28.34-78.38,72.21l-0.04,0.11l-0.04,0.11c-0.7,1.98-1.37,4.01-2.1,6.36c-5.73,15.19-10.47,24.52-14.01,30.21
								c1.07-5.81,3.23-13.82,7.29-24.29c15.24-39.18,17.85-59.32,9.3-71.81c-3.3-4.83-9.79-10.59-21.93-10.59
								c-9.92,0-20.54,4.18-31.71,12.44c0.24-4.03-0.96-7.11-2.25-9.22c-1.39-2.26-5.57-7.51-14.39-7.51
								c-12.49,0-24.74,3.35-36.42,9.94c-12.47,7.01-19.7,25.42-22.23,33.01l-0.05,0.14l-0.04,0.14l-7.7,24.82l-0.04,0.14
								l-0.04,0.14l-4.65,16.19c-9.86,34.29-15.82,55.06-18.15,64.71c-2.05,7.92,0.42,13.36,2.86,16.54
								c5.81,7.56,15.47,7.56,18.64,7.56c2.93,0,6.35-0.25,10.73-0.77c5.37-0.54,12-1.24,16.92-6.15l0.86-0.87l1.6-1.6l1.01-2.03
								l1.27-2.54c11.47-22.65,22.96-43.1,33.73-60.06c-6.81,25.57-5.82,45,3,57.95c4.91,7.21,14.6,15.81,32.93,15.81
								c11.03,0,21.35-3.97,30.66-11.79c1.84-1.54,3.64-3.24,5.42-5.1c1.77,2.76,3.78,5.21,6.02,7.33
								c6.6,6.25,15.13,9.56,24.66,9.56c13.43,0,26.1-5.93,37.67-17.64c1.38-1.39,2.74-2.87,4.09-4.43
								c1.66,4.26,3.85,7.93,6.58,11.08c6.24,7.19,14.97,10.99,25.26,10.99c11.7,0,22.63-4.54,32.47-13.48
								c2.81-2.56,5.56-5.49,8.25-8.81c10.01,14.62,25.35,22.29,44.86,22.29c12,0,23.24-2.96,33.66-8.84
								c0.35,0.57,0.69,1.06,1.01,1.47c5.86,7.63,15.59,7.63,18.79,7.63c2.86,0,6.28-0.25,10.44-0.76
								c10.11-0.84,16.96-4.35,20.39-10.44c6.96-9.51,13.13-17.63,18.9-24.82c10.8,22.93,23.14,35.75,43.59,35.75
								c17.17,0,31.62-8.42,44.18-25.73c10.09-13.92,19.42-33.96,30.24-64.96l0.21-0.6l0.15-0.61c1.17-4.69,0.12-9.6-2.89-13.46
								c-5.44-6.97-14.61-7.51-17.29-7.51c-8.43,0-15.12,4.44-17.38,11.41c-6.33,17.17-11.36,28.95-15.79,37.05
								c-3.84,7.02-6.37,9.59-7.46,10.47c-1.76-1.23-7.43-6.54-14.96-27.23c17.78-16.82,37.61-32.03,44.63-37.41
								c2.66-2.04,3.14-2.41,3.93-3.2c9.48-9.48,5.74-27.15,2.04-36.1c-5.04-12.18-13.86-19.16-24.19-19.16c0,0,0,0-0.01,0
								c-6,0-11.75,2.36-17.07,7.02l-0.15,0.13l-0.15,0.14c-10.46,9.7-21.31,21.1-32.49,34.12c12.12-35.96,22.72-63.24,32.19-82.89
								l1.94-3.5l0.63-1.14l0.41-1.24c0.09-0.27,0.19-0.51,0.26-0.72c0.13-0.34,0.29-0.75,0.44-1.22
								c3.47-7.46,1.42-13.11-0.21-15.93C1205.13,1017.33,1199.82,1014.41,1193.77,1014.41L1193.77,1014.41z M907.78,1204.92
								c0.67-6.21,2.55-15.46,6.95-28.14l0.02-0.04l0.01-0.04c9.26-27.28,22.01-37.61,28.68-38.09
								c-8.29,21.89-17.24,40.2-26.63,54.49C913.15,1198.5,910.16,1202.28,907.78,1204.92L907.78,1204.92z M1058.97,1210.83
								c-2.39,0-3.19-0.81-3.87-1.71c-3.37-4.48-4.61-16.43,0.2-33.03l0.07-0.25l0.06-0.25c1.29-5.15,3.3-10.15,6.07-15.1
								c0.61,0.99,1.34,1.94,2.18,2.82c4.29,4.73,10.2,7.34,16.69,7.34c4.15,0,8.47-1.06,12.86-3.15c3.32-1.3,6.42-2.88,9.26-4.71
								c-0.6,2.12-1.19,4.23-1.78,6.33C1090.06,1195.25,1074.49,1210.83,1058.97,1210.83L1058.97,1210.83z"/>
						</g>
					</g>
				</g>
			</g>
		</g>
	</g>
</g>
<text transform="matrix(1 0 0 1 -1085.7878 2159.9792)" style="font-family:'Futura-Medium'; font-size:231px;">Home Page</text>
<text transform="matrix(1 0 0 1 342.0931 2159.9792)" style="font-family:'Futura-Medium'; font-size:231px;">Menu</text>
<text transform="matrix(1 0 0 1 1331.7705 2159.9792)" style="font-family:'Futura-Medium'; font-size:231px;">About us</text>
</svg>
