<?xml version="1.0" encoding="utf-8"?>
<!-- Generator: Adobe Illustrator 28.2.0, SVG Export Plug-In . SVG Version: 6.00 Build 0)  -->
<svg version="1.1" id="Layer_1" xmlns="http://www.w3.org/2000/svg" xmlns:xlink="http://www.w3.org/1999/xlink" x="0px" y="0px"
	 viewBox="0 0 1289.78 1331.15" style="enable-background:new 0 0 1289.78 1331.15;" xml:space="preserve">
<style type="text/css">
	.st0{fill:#609C42;}
	.st1{fill:#65BC46;}
	.st2{fill:#3B5F2D;}
	.st3{fill:#253B1E;}
	.st4{fill:#404040;}
	.st5{fill:#262626;}
	.st6{opacity:0.44;}
	.st7{fill:#8D8C8C;}
	.st8{fill:#7E3142;}
	.st9{fill:#FFFFFF;}
	.st10{fill:#3B3B3B;}
	.st11{opacity:0.29;}
	.st12{fill:#0B0B0B;}
</style>
<rect x="-2516.88" y="1846.17" class="st0" width="763.92" height="606.88"/>
<g>
	<g>
		<g>
			<g>
				<g>
					<g>
						<path class="st1" d="M640.5,956.64c-62.24,0-122.62-12.19-179.46-36.23c-54.9-23.22-104.21-56.46-146.54-98.8
							c-42.34-42.34-75.58-91.64-98.8-146.54c-24.04-56.84-36.23-117.22-36.23-179.46s12.19-122.61,36.23-179.46
							c23.22-54.9,56.46-104.21,98.8-146.54c42.34-42.34,91.64-75.58,146.54-98.8c56.84-24.04,117.22-36.23,179.46-36.23
							c62.24,0,122.61,12.19,179.46,36.23c54.9,23.22,104.21,56.46,146.54,98.8s75.58,91.64,98.8,146.54
							c24.04,56.84,36.23,117.22,36.23,179.46s-12.19,122.61-36.23,179.46c-23.22,54.9-56.46,104.21-98.8,146.54
							s-91.64,75.58-146.54,98.8C763.11,944.45,702.73,956.64,640.5,956.64z"/>
						<path d="M640.49,43.57c249.65,0,452.04,202.38,452.04,452.04S890.15,947.64,640.49,947.64S188.46,745.26,188.46,495.61
							S390.84,43.57,640.49,43.57 M640.49,25.57c-63.45,0-125.01,12.43-182.97,36.95c-55.97,23.67-106.24,57.56-149.4,100.73
							c-43.16,43.16-77.05,93.43-100.73,149.4c-24.52,57.96-36.95,119.52-36.95,182.97s12.43,125.01,36.95,182.97
							c23.68,55.97,57.56,106.24,100.73,149.4c43.16,43.16,93.43,77.05,149.4,100.73c57.96,24.52,119.52,36.95,182.97,36.95
							s125-12.43,182.97-36.95c55.97-23.68,106.24-57.56,149.4-100.73c43.16-43.16,77.05-93.43,100.73-149.4
							c24.52-57.96,36.95-119.52,36.95-182.97s-12.43-125.01-36.95-182.97c-23.68-55.97-57.56-106.24-100.73-149.4
							c-43.16-43.16-93.43-77.05-149.4-100.73C765.5,38,703.94,25.57,640.49,25.57L640.49,25.57z"/>
					</g>
					<circle class="st0" cx="640.49" cy="495.61" r="373.29"/>
					<circle class="st2" cx="640.49" cy="495.61" r="311.5"/>
					<circle class="st3" cx="640.49" cy="495.61" r="264.42"/>
					<g>
						<g>
							<path d="M875.49,151.95c0.87,0,1.72,0.04,2.54,0.11c22.37,2.08,30,29.11,25.14,49.22c-4.84,20.09-4.15,67.88-9.7,87.66
								c-5.55,19.78-3.46,53.75-9.01,66.22c-5.55,12.47-11.09,20.79-15.25,29.11c-0.46,0.91-0.77,2.06-0.97,3.42
								c-1.62,11.09,4.43,35.24,4.43,39.56c0,3.33,2.4,32.87,3.9,51.01c0,0.05,0,0.08,0.01,0.13c0.61,7.41,1.07,12.89,1.15,13.85
								c0.01,0.05,0.01,0.1,0.01,0.15c0.19,3.55,0.28,7.13,0.28,10.73c0,27.5-4.59,53.07-13.26,76.49
								c39.38,2.68,78.36,10.8,112.04,27.19c8.94,4.54,17.54,9.73,25.62,15.63c-8.31-5.57-17.08-10.38-26.14-14.53
								c-35.8-15.73-74.86-21.51-113.83-22.35c-2.8,6.9-5.96,13.6-9.47,20.11c42.26,6.49,83.89,19.08,118.29,40.64
								c8.41,5.47,16.4,11.55,23.8,18.28c-7.67-6.43-15.87-12.15-24.43-17.25c-36.91-21.2-78.93-31.07-121.06-35.61
								c-3,5.13-6.22,10.13-9.65,15c44.33,8.72,87.99,24.04,122.99,48.92c8.08,5.95,15.7,12.48,22.7,19.63
								c-7.28-6.86-15.14-13.05-23.39-18.63c-37.88-24.78-82.27-37.11-126.75-43.84c-20.83,27.41-48.71,50.35-82.27,68.24
								c-27.25,14.53-45.1,37.47-100.56,37.47c-1.66,0-3.35-0.02-5.08-0.06c-36.42-0.88-58.7-13.78-89.33-29.94
								c-1.31-0.69-2.62-1.4-3.92-2.11c-0.4-0.22-0.8-0.45-1.21-0.67c-0.92-0.51-1.84-1.02-2.75-1.54c-0.44-0.25-0.88-0.5-1.31-0.75
								c-0.92-0.53-1.85-1.07-2.77-1.61c-0.38-0.22-0.76-0.45-1.14-0.67c-1.21-0.72-2.42-1.45-3.63-2.2
								c-0.07-0.04-0.14-0.08-0.21-0.13c-1.34-0.83-2.68-1.67-4.01-2.52c-0.16-0.1-0.31-0.2-0.46-0.3c-1.15-0.74-2.3-1.49-3.44-2.24
								c-0.25-0.16-0.5-0.33-0.74-0.5c-1.11-0.74-2.22-1.49-3.32-2.24c-0.18-0.12-0.36-0.25-0.54-0.37
								c-21.22-14.6-40.83-32.14-57.51-51.86c-42.56,7.04-84.51,20.3-118.88,42.71c-8.25,5.58-16.11,11.77-23.39,18.63
								c7-7.15,14.62-13.68,22.7-19.63c24.5-17.66,52.6-29.71,81.39-38.49c11.13-3.32,22.37-6.2,33.69-8.68
								c-0.8-1-1.6-2.01-2.39-3.02c-0.05-0.06-0.1-0.13-0.15-0.19c-1.1-1.41-2.18-2.83-3.25-4.27c-0.07-0.1-0.14-0.19-0.21-0.29
								c-0.93-1.26-1.86-2.52-2.77-3.8c-0.2-0.28-0.4-0.56-0.59-0.83c-0.78-1.1-1.55-2.2-2.31-3.31
								c-39.48,5.13-78.31,15.79-111.14,34.57c-8.56,5.1-16.76,10.82-24.43,17.25c7.4-6.73,15.39-12.8,23.8-18.28
								c25.48-16.21,54.24-26.61,83.49-33.71c8.21-1.94,16.46-3.63,24.75-5.12c-0.16-0.25-0.32-0.5-0.48-0.75
								c-0.71-1.1-1.41-2.2-2.1-3.31c-0.22-0.35-0.44-0.7-0.65-1.05c-0.85-1.38-1.69-2.77-2.51-4.17c-0.14-0.24-0.27-0.48-0.41-0.72
								c-0.68-1.17-1.35-2.35-2.01-3.53c-0.25-0.45-0.5-0.89-0.74-1.34c-0.61-1.1-1.21-2.21-1.79-3.32
								c-0.18-0.34-0.37-0.68-0.55-1.03c-0.4-0.77-0.8-1.55-1.19-2.33c-35.27,1.92-70.04,8.51-100.81,21.98
								c-9.06,4.15-17.83,8.97-26.14,14.53c8.08-5.9,16.67-11.09,25.62-15.63c27.07-13.39,56.77-20.66,86.61-24.59
								c4.07-0.51,8.14-0.95,12.22-1.35c-0.2-0.41-0.39-0.83-0.58-1.24c-0.23-0.49-0.46-0.98-0.69-1.47
								c-0.61-1.33-1.21-2.65-1.79-3.99c-0.13-0.29-0.25-0.59-0.38-0.89c-0.54-1.26-1.08-2.53-1.6-3.8
								c-0.21-0.51-0.42-1.03-0.62-1.55c-0.42-1.05-0.83-2.1-1.23-3.16c-0.18-0.47-0.36-0.94-0.54-1.41
								c-0.53-1.44-1.05-2.88-1.56-4.32c-0.15-0.43-0.29-0.87-0.44-1.3c-0.37-1.09-0.73-2.19-1.09-3.29
								c-0.17-0.53-0.34-1.07-0.51-1.6c-0.37-1.2-0.73-2.4-1.08-3.6c-0.1-0.33-0.2-0.66-0.29-0.99c-0.42-1.48-0.82-2.96-1.21-4.45
								c-0.13-0.51-0.26-1.01-0.38-1.52c-0.28-1.1-0.54-2.2-0.8-3.31c-0.12-0.5-0.23-0.99-0.34-1.49c-0.34-1.51-0.66-3.03-0.96-4.55
								c-0.06-0.31-0.12-0.63-0.18-0.94c-0.24-1.27-0.47-2.54-0.69-3.81c-0.09-0.51-0.17-1.03-0.25-1.54
								c-0.2-1.22-0.38-2.44-0.55-3.67c-0.05-0.38-0.11-0.76-0.16-1.13c-0.21-1.56-0.4-3.12-0.56-4.68
								c-0.05-0.42-0.08-0.85-0.13-1.27c-0.12-1.22-0.23-2.45-0.33-3.68c-0.04-0.47-0.08-0.95-0.11-1.42
								c-0.11-1.6-0.22-3.21-0.29-4.82l-0.18,0.01c0,0-18.81-33.34-20.31-53.24c-1.33-17.45,6.04-38.12,4.83-53.61
								c-0.17-2.19-0.51-4.26-1.07-6.21c-4.52-15.82-24.11-15.82-18.08-82.86c6.03-67.04,1.48-58.01-1.14-79.86
								c-0.07-0.62-0.15-1.26-0.21-1.92c-0.03-0.27-0.05-0.54-0.08-0.81c-0.04-0.4-0.08-0.79-0.11-1.2
								c-0.03-0.32-0.05-0.65-0.08-0.98c-0.03-0.37-0.06-0.74-0.08-1.12c-0.03-0.36-0.05-0.71-0.07-1.08
								c-0.02-0.36-0.04-0.73-0.06-1.1c-0.02-0.38-0.04-0.75-0.06-1.14c-0.02-0.38-0.03-0.76-0.04-1.14
								c-0.02-0.69-0.04-1.4-0.06-2.11c-0.01-0.4-0.02-0.79-0.02-1.19c0-0.41,0-0.82,0-1.24c0-0.38,0-0.76,0-1.15
								c0-0.42,0.01-0.84,0.02-1.27c0.01-0.38,0.01-0.77,0.02-1.15c0.01-0.43,0.02-0.86,0.04-1.29c0.01-0.4,0.03-0.79,0.05-1.19
								c0.02-0.42,0.04-0.85,0.06-1.27c0.02-0.44,0.06-0.89,0.09-1.33c0.04-0.61,0.09-1.21,0.14-1.82c0.05-0.55,0.09-1.1,0.15-1.65
								c0.04-0.39,0.08-0.77,0.13-1.16c0.05-0.45,0.1-0.9,0.16-1.34c0.05-0.39,0.1-0.79,0.16-1.18c0.06-0.45,0.13-0.89,0.19-1.33
								c0.06-0.39,0.12-0.77,0.18-1.16c0.08-0.46,0.16-0.92,0.24-1.37c0.07-0.36,0.13-0.72,0.2-1.09c0.11-0.55,0.22-1.09,0.34-1.63
								c0.06-0.26,0.11-0.53,0.17-0.79c0.18-0.78,0.37-1.55,0.57-2.31c0.08-0.29,0.16-0.57,0.24-0.86c0.14-0.5,0.28-1,0.43-1.49
								c0.1-0.32,0.2-0.63,0.3-0.94c0.15-0.46,0.3-0.92,0.46-1.38c0.11-0.31,0.22-0.61,0.33-0.92c0.17-0.47,0.36-0.93,0.54-1.39
								c0.11-0.27,0.22-0.54,0.33-0.81c0.24-0.56,0.49-1.11,0.75-1.65c0.07-0.15,0.14-0.31,0.21-0.46c0.34-0.69,0.69-1.36,1.06-2.02
								c0.09-0.17,0.2-0.33,0.29-0.5c0.28-0.49,0.57-0.97,0.87-1.44c0.14-0.21,0.28-0.42,0.42-0.62c0.28-0.42,0.57-0.83,0.87-1.23
								c0.15-0.2,0.3-0.4,0.45-0.6c0.32-0.41,0.65-0.81,0.98-1.19c0.14-0.16,0.28-0.33,0.42-0.49c0.44-0.48,0.89-0.95,1.35-1.39
								c0.05-0.05,0.1-0.1,0.15-0.15c0.54-0.51,1.11-1,1.69-1.46c0.06-0.05,0.13-0.09,0.19-0.14c0.4-0.31,0.81-0.62,1.23-0.9
								c0,0.01,0,0.02,0,0.03c3.36-2.28,7.34-3.75,12.08-4.1c1.13-0.09,2.28-0.13,3.44-0.13c28.42,0,66.05,25.06,81.95,48.92
								c16.54,24.8,40.95,78.22,61.61,84.02c0.01,0,0.04,0.01,0.05,0.01h0.01c10.1-4.17,20.56-7.67,31.34-10.44
								c0.02,0,0.04-0.01,0.06-0.01c16.87-4.34,31.92-4.6,49.47-4.6c2.37,0,4.79,0,7.26,0c6.29,0,12.93-0.12,19.63-0.12
								c12.42,0,25.02,0.42,35.91,2.83c0,0,13.5-14.88,34.98-21.12c22.16-24.26,41.58-45.05,58.91-67.93
								C810.35,177.84,852.43,151.94,875.49,151.95 M875.49,137.41C875.49,137.41,875.49,137.41,875.49,137.41
								c-29.22,0-75,29.37-93.42,53.69c-15.27,20.15-32.18,38.63-51.77,60.03c-1.21,1.32-2.43,2.66-3.66,4
								c-14.24,4.91-25.14,12.8-31.46,18.2c-10.5-1.53-21.54-1.77-31.32-1.77c-3.47,0-6.92,0.03-10.25,0.06
								c-3.26,0.03-6.34,0.06-9.37,0.06l-3.69,0l-3.57,0c-18.86,0-34.74,0.37-52.84,4.99c-0.1,0.02-0.21,0.05-0.31,0.08
								c-9.12,2.35-18.18,5.23-27,8.6c-2.56-2.02-6.7-6.11-12.63-14.39c-7.59-10.58-15.15-23.74-22.47-36.47
								c-5.41-9.41-10.52-18.3-15.19-25.31c-9.01-13.52-23.86-27.27-40.72-37.7c-18.43-11.41-37.37-17.69-53.32-17.69
								c-1.53,0-3.06,0.06-4.54,0.17c-6.64,0.5-12.75,2.49-18.16,5.93c-0.33,0.19-0.65,0.38-0.96,0.6c-0.7,0.47-1.29,0.92-1.8,1.31
								c-0.16,0.12-0.32,0.24-0.47,0.36c-0.92,0.72-1.81,1.5-2.66,2.29c-0.13,0.13-0.27,0.26-0.4,0.39c-0.66,0.63-1.3,1.3-1.92,1.99
								c-0.18,0.19-0.37,0.41-0.56,0.64l-0.07,0.08c-0.55,0.63-1.03,1.21-1.47,1.79c-0.22,0.28-0.44,0.58-0.67,0.88
								c-0.42,0.57-0.84,1.17-1.25,1.78l-0.08,0.11c-0.17,0.25-0.34,0.51-0.51,0.77c-0.38,0.6-0.77,1.24-1.19,1.96l-0.03,0.05
								c-0.14,0.23-0.28,0.47-0.41,0.71c-0.49,0.89-0.98,1.81-1.42,2.73c-0.1,0.2-0.2,0.42-0.3,0.65l0.02-0.05
								c-0.38,0.8-0.7,1.52-0.99,2.19c-0.13,0.3-0.25,0.59-0.37,0.89l-0.07,0.17c-0.23,0.56-0.46,1.16-0.68,1.76
								c-0.15,0.41-0.29,0.79-0.43,1.19c-0.19,0.55-0.39,1.13-0.57,1.71l-0.03,0.09c-0.12,0.36-0.23,0.72-0.34,1.08
								c-0.19,0.61-0.36,1.22-0.53,1.83l-0.07,0.24c-0.08,0.27-0.15,0.54-0.23,0.82c-0.25,0.94-0.48,1.87-0.69,2.78
								c-0.06,0.25-0.11,0.49-0.16,0.74l-0.04,0.2c-0.14,0.64-0.28,1.28-0.4,1.93c-0.07,0.36-0.14,0.71-0.2,1.07l-0.04,0.21
								c-0.1,0.53-0.19,1.08-0.28,1.62c-0.07,0.42-0.14,0.87-0.21,1.32c-0.08,0.52-0.15,1.03-0.22,1.54l-0.01,0.11
								c-0.06,0.42-0.11,0.83-0.17,1.25c-0.07,0.52-0.12,1.04-0.18,1.56l-0.03,0.25c-0.04,0.35-0.08,0.7-0.11,1.05
								c-0.06,0.63-0.12,1.26-0.17,1.89c-0.06,0.68-0.11,1.36-0.16,2.04l-0.02,0.24c-0.03,0.42-0.06,0.85-0.08,1.27
								c-0.02,0.4-0.04,0.83-0.06,1.25l-0.01,0.17l0,0.11c-0.02,0.41-0.04,0.82-0.05,1.23c-0.02,0.47-0.03,0.95-0.04,1.43
								c-0.01,0.43-0.02,0.87-0.03,1.3c-0.01,0.46-0.01,0.93-0.02,1.41c0,0.37,0,0.76,0,1.14v0.13l0,0.31c0,0.36,0,0.72,0.01,1.08
								c0,0.36,0.01,0.72,0.02,1.09l0,0.23c0.02,0.77,0.04,1.55,0.06,2.32l0.01,0.24c0.01,0.35,0.02,0.69,0.04,1.04
								c0.02,0.34,0.03,0.68,0.05,1.02l0.01,0.23c0.02,0.41,0.04,0.82,0.07,1.23c0.03,0.42,0.05,0.82,0.08,1.22
								c0.03,0.38,0.06,0.8,0.09,1.22c0.03,0.38,0.06,0.75,0.09,1.11c0.04,0.44,0.08,0.89,0.12,1.33l0.02,0.2
								c0.02,0.24,0.04,0.47,0.07,0.71c0.08,0.74,0.16,1.46,0.24,2.16c0.71,5.93,1.58,9.98,2.28,13.24
								c1.85,8.66,3.2,14.92-1.18,63.58c-2.12,23.57-1.43,41.83,2.12,55.82c3.39,13.36,8.79,20.77,12.73,26.19
								c2.14,2.93,3.27,4.54,3.73,6.15c0.27,0.93,0.45,2.05,0.55,3.35c0.45,5.78-0.83,13.57-2.18,21.81
								c-1.7,10.36-3.47,21.07-2.65,31.78c1.49,19.68,15.76,47.53,20.68,56.62c0.03,0.44,0.06,0.89,0.09,1.36
								c0.03,0.44,0.07,0.88,0.1,1.32l0.02,0.22c0.1,1.32,0.23,2.66,0.36,3.98l0.04,0.41c0.03,0.32,0.06,0.64,0.1,0.95
								c0.19,1.72,0.39,3.42,0.61,5.06c0.04,0.29,0.08,0.56,0.12,0.83l0.06,0.39c0.19,1.34,0.39,2.67,0.6,3.96
								c0.09,0.54,0.18,1.09,0.27,1.65c0.24,1.39,0.49,2.78,0.75,4.13l0.05,0.27c0.05,0.25,0.09,0.5,0.14,0.75
								c0.3,1.51,0.64,3.11,1.03,4.88c0.09,0.4,0.18,0.81,0.28,1.23l0.09,0.38c0.28,1.19,0.56,2.38,0.86,3.56l0.09,0.36
								c0.11,0.42,0.21,0.85,0.32,1.27c0.45,1.73,0.87,3.29,1.3,4.78c0.07,0.24,0.14,0.49,0.21,0.73l0.1,0.32
								c0.38,1.31,0.77,2.61,1.17,3.88c0.18,0.58,0.36,1.15,0.55,1.73c0.38,1.18,0.77,2.35,1.17,3.53l0.15,0.44
								c0.11,0.32,0.21,0.64,0.32,0.95c0.53,1.53,1.09,3.08,1.67,4.63c0.04,0.11,0.08,0.22,0.12,0.33
								c-32.48,4.83-60.13,13.03-84.35,25.02c-0.05,0.02-0.09,0.05-0.14,0.07c-9.88,5.02-19.17,10.69-27.61,16.85
								c-6.39,4.67-7.87,13.59-3.34,20.07c2.82,4.03,7.33,6.2,11.92,6.2c2.78,0,5.6-0.8,8.08-2.46c7.33-4.91,15.4-9.4,23.99-13.34
								c16.69-7.29,35.41-12.75,55.94-16.31c-24.63,7.65-45.94,17.28-64.67,29.19c-0.04,0.03-0.09,0.06-0.13,0.08
								c-9.29,6.05-17.92,12.68-25.65,19.7c-5.85,5.32-6.37,14.35-1.17,20.31c2.87,3.29,6.9,4.97,10.95,4.97
								c2.56,0,5.14-0.67,7.43-2.05c-2.9,2.62-5.7,5.3-8.36,8.03c-5.54,5.65-5.53,14.7,0.01,20.34c2.84,2.9,6.61,4.36,10.38,4.36
								c3.58,0,7.16-1.31,9.96-3.95c6.43-6.05,13.65-11.81,21.47-17.11c27.96-18.2,63.34-31.33,105.26-39.08
								c16.06,17.92,34.47,34.08,54.84,48.1l0.35,0.24l0.22,0.15c1.16,0.8,2.32,1.58,3.48,2.35l0.21,0.14l0.58,0.39
								c1.19,0.79,2.39,1.57,3.6,2.35l0.15,0.1l0.33,0.22c1.44,0.92,2.86,1.81,4.21,2.64l0.23,0.14c1.26,0.77,2.53,1.54,3.8,2.3
								c0.28,0.17,0.57,0.33,0.85,0.5l0.34,0.2c0.97,0.57,1.94,1.14,2.91,1.69c0.46,0.26,0.92,0.53,1.38,0.79
								c0.97,0.55,1.93,1.09,2.9,1.62l0.41,0.23c0.28,0.16,0.57,0.32,0.85,0.47c1.51,0.83,2.86,1.55,4.12,2.22
								c1.72,0.91,3.41,1.8,5.07,2.68c28.38,15.03,52.89,28.01,90.68,28.93c1.83,0.04,3.65,0.07,5.43,0.07
								c46.83,0,69.96-15.24,90.36-28.68c5.79-3.81,11.26-7.42,17.04-10.5c32.89-17.53,60.28-39.5,81.55-65.37
								c46.22,7.79,83.11,20.99,112.58,40.24c7.82,5.3,15.05,11.06,21.48,17.11c2.8,2.64,6.39,3.95,9.96,3.95
								c3.77,0,7.53-1.46,10.38-4.36c5.54-5.65,5.54-14.69,0.01-20.34c-2.67-2.73-5.46-5.41-8.36-8.03c2.3,1.37,4.87,2.05,7.43,2.05
								c4.05,0,8.08-1.69,10.95-4.97c5.2-5.96,4.68-14.99-1.17-20.31c-7.73-7.03-16.36-13.66-25.65-19.71
								c-0.07-0.05-0.14-0.09-0.21-0.13c-18.9-11.85-40.54-21.61-64.7-29.2c20.55,3.5,39.11,8.94,56.05,16.37
								c8.58,3.94,16.66,8.43,23.99,13.35c2.48,1.66,5.29,2.46,8.08,2.46c4.59,0,9.1-2.17,11.92-6.2c4.54-6.48,3.05-15.4-3.34-20.07
								c-8.44-6.16-17.72-11.83-27.61-16.85c-0.07-0.04-0.15-0.07-0.22-0.11c-28.19-13.71-61.43-22.76-99-26.97
								c5.58-20.23,8.4-41.56,8.4-63.64c0-3.92-0.1-7.73-0.29-11.32c-0.01-0.38-0.04-0.76-0.08-1.13
								c-0.13-1.46-0.55-6.55-1.12-13.46c-0.01-0.07-0.01-0.13-0.02-0.2c-2.76-33.37-3.8-47.6-3.85-49.82
								c-0.01-2.55-0.51-5.41-1.62-11.57c-1.19-6.6-3.66-20.22-2.99-25.61c1.31-2.57,2.85-5.3,4.46-8.17
								c3.25-5.79,6.94-12.35,10.69-20.78c3.89-8.76,4.78-21.54,5.8-36.35c0.8-11.64,1.63-23.68,3.93-31.85
								c3.31-11.81,4.51-29.9,5.78-49.05c1-15.12,2.04-30.76,4.06-39.12c4.25-17.59,1.03-36.72-8.4-49.91
								c-7.23-10.11-17.44-16.06-29.52-17.18C878.12,137.47,876.81,137.41,875.49,137.41L875.49,137.41z"/>
						</g>
						<g>
							<g>
								<path class="st4" d="M516.66,323.91c0,0-40.53,49-60.46,50.25c-19.92,1.24-48.13,16.14-54.57,29.85
									c-0.17-2.19-0.51-4.26-1.07-6.21c-4.52-15.82-24.11-15.82-18.08-82.86c6.03-67.04,1.48-58.01-1.14-79.86
									c-2.63-21.84-1.07-64.46,27.68-66.63C462.29,177.04,516.66,323.91,516.66,323.91z"/>
							</g>
							<g>
								<path class="st5" d="M878.02,503.12c0,88.2-47.22,156.54-124.82,197.91c-28.06,14.97-46.16,38.85-105.64,37.41
									c-36.42-0.88-58.7-13.78-89.33-29.94c-74.1-39.12-137.26-114.07-140.94-197.66l-0.18,0.01c0,0-18.81-33.34-20.31-53.24
									c-1.33-17.45,6.04-38.12,4.83-53.61c6.44-13.71,34.65-28.62,54.57-29.85c19.92-1.25,60.46-50.25,60.46-50.25
									s17.5-12.7,39.37-22.65c0.01,0,0.04,0.01,0.05,0.01h0.01c10.1-4.17,20.56-7.67,31.34-10.44c0.02,0,0.04-0.01,0.06-0.01
									c19.15-4.93,35.96-4.6,56.74-4.6c17.96,0,38.77-1,55.54,2.71c26.06,4.26,38.2,6.35,38.2,6.35l0.02,0.01
									c1.05,0.47,34.71,15.54,44.87,28.62c1.96,2.53,5.17,5.9,9.14,9.7l59.18,41.97c8.34,3.11,16.63,11.65,17.05,12.1
									c-1.62,11.09,4.43,35.24,4.43,39.56c0,3.33,2.4,32.87,3.9,51.01c0,0.05,0,0.08,0.01,0.13c0.61,7.41,1.07,12.89,1.15,13.85
									c0.01,0.05,0.01,0.1,0.01,0.15C877.94,495.94,878.02,499.52,878.02,503.12z"/>
							</g>
							<g class="st6">
								<path class="st7" d="M684.5,699.45c-15.94,8.4-35.86,14.79-67.47,14.02c-36.42-0.88-58.7-13.78-89.33-29.94
									c-11.47-6.06-22.67-12.97-33.44-20.64c-43.42-40.53-74.43-94.23-76.97-152.06l-0.18,0.01c0,0-18.81-33.34-20.31-53.24
									c-1.33-17.45,6.04-38.12,4.83-53.61c-0.17-2.19-0.51-4.26-1.07-6.21c-4.52-15.82-24.11-15.82-18.08-82.86
									c6.03-67.04,1.48-58.01-1.14-79.86c-2.19-18.25-1.47-51.01,15.61-62.56c-0.65,8.84-0.24,17.5,0.57,24.2
									c2.62,21.85,7.17,12.81,1.14,79.86c-6.03,67.04,13.56,67.04,18.08,82.86c0.56,1.95,0.9,4.02,1.07,6.21
									c0.56,7.1-0.69,15.27-2.08,23.74c-1.64,10.02-3.48,20.42-2.75,29.88c1.5,19.9,20.31,53.24,20.31,53.24l0.18-0.01
									c3.68,83.59,66.84,158.54,140.94,197.66c30.63,16.16,52.91,29.05,89.33,29.94C671.3,700.25,678.18,700.03,684.5,699.45z"/>
							</g>
							<g>
								<g>
									<path class="st0" d="M755.6,530.53c-20.67,1.5-37.53-16.8-37.53-37.53s16.8-37.53,37.53-37.53
										c12.49,0,30.7,1.78,37.53,11.16C797.63,472.83,807.43,526.76,755.6,530.53z"/>
								</g>
								<g>
									<ellipse cx="751.73" cy="493.04" rx="24.49" ry="25.56"/>
								</g>
							</g>
							<g>
								<ellipse class="st8" cx="654.32" cy="633.85" rx="14.69" ry="12.69"/>
							</g>
							<g>
								<g>
									<path class="st0" d="M553.04,530.53c20.67,1.5,37.53-16.8,37.53-37.53s-16.8-37.53-37.53-37.53
										c-12.49,0-30.7,1.78-37.53,11.16C511.01,472.83,501.21,526.76,553.04,530.53z"/>
								</g>
								<g>
									<ellipse cx="553.29" cy="493.04" rx="25.64" ry="25.56"/>
								</g>
							</g>
							<g>
								<path d="M704.05,569.89c0,0-27.02,17.25-27.02,21.85c0,4.59-22.71,29.89-22.71,29.89s-22.71-25.3-22.71-29.89
									c0-4.6-27.02-21.85-27.02-21.85c17.27-4.64,33.85-7.08,49.74-7.3C670.21,562.8,686.78,565.25,704.05,569.89z"/>
							</g>
							<g>
								<path d="M690.37,643.52c-1.91,0-3.81-0.11-5.7-0.32c-21.64-2.43-33.7-17.98-34.21-18.64c-1.62-2.13-1.21-5.17,0.92-6.79
									c2.13-1.62,5.16-1.21,6.78,0.91l0,0c0.1,0.13,10.24,13.01,27.73,14.91c14.31,1.56,29.71-4.47,45.74-17.89
									c2.05-1.72,5.11-1.45,6.82,0.6c1.72,2.05,1.45,5.11-0.6,6.82C721.67,636.68,705.73,643.52,690.37,643.52z"/>
							</g>
							<g>
								<path d="M618.27,643.52c-15.36,0-31.3-6.84-47.48-20.39c-2.05-1.72-2.32-4.77-0.6-6.82c1.72-2.05,4.77-2.32,6.82-0.6
									c16.03,13.42,31.41,19.45,45.74,17.89c17.49-1.9,27.63-14.78,27.73-14.91c1.63-2.11,4.67-2.51,6.79-0.89
									c2.12,1.62,2.53,4.65,0.91,6.77c-0.5,0.66-12.57,16.22-34.21,18.64C622.08,643.41,620.18,643.52,618.27,643.52z"/>
							</g>
							<g>
								<path class="st9" d="M543.47,596.92c-65.58-10.52-143.44-11.17-205.15,15.84c-9.06,4.15-17.82,8.96-26.14,14.53
									c8.08-5.9,16.67-11.09,25.62-15.63c27.07-13.39,56.77-20.66,86.61-24.59c40.05-5.01,80.59-4.8,120.68,0.29
									C551.54,588.47,550.04,597.99,543.47,596.92L543.47,596.92z"/>
							</g>
							<g>
								<path class="st9" d="M546.25,614.51c-66.33-3.45-143.81,4.24-202.28,37.69c-8.56,5.1-16.76,10.82-24.43,17.25
									c7.4-6.73,15.39-12.8,23.8-18.28c25.48-16.21,54.24-26.61,83.49-33.71c39.29-9.27,79.62-13.39,120.02-12.62
									C553.37,605.24,552.9,614.87,546.25,614.51L546.25,614.51z"/>
							</g>
							<g>
								<path class="st9" d="M552.14,632.14c-66.42,0.4-143.32,12.57-199.75,49.35c-8.25,5.58-16.11,11.77-23.39,18.63
									c7-7.15,14.62-13.68,22.7-19.63c24.5-17.66,52.6-29.71,81.39-38.49c38.69-11.53,78.71-17.98,119.08-19.56
									C558.71,622.48,558.8,632.12,552.14,632.14L552.14,632.14z"/>
							</g>
							<g>
								<path class="st10" d="M878.02,152.06c0,0-69.95,63.69-76.14,86.78c-6.19,23.09-63.92,56.43-63.92,56.43
									s-12.13-2.08-38.2-6.35c0,0,13.5-14.88,34.97-21.12c22.16-24.26,41.58-45.05,58.91-67.93
									C810.98,177.01,855.66,149.98,878.02,152.06z"/>
							</g>
							<g>
								<path class="st10" d="M556.03,301.26c-21.87,9.94-39.37,22.65-39.37,22.65s-54.36-146.86-107.63-155.46
									c28.75-2.18,68.84,23.95,85.39,48.79C510.97,242.04,535.37,295.46,556.03,301.26z"/>
							</g>
							<g>
								<path class="st4" d="M903.16,201.28c-4.84,20.09-4.15,67.88-9.7,87.66c-5.55,19.78-3.46,53.75-9.01,66.22
									c-5.55,12.47-11.09,20.79-15.25,29.11c-0.46,0.91-0.77,2.06-0.97,3.42c-0.42-0.45-8.71-8.99-17.05-12.1L792,333.61
									c-3.97-3.8-7.18-7.17-9.14-9.7c-10.16-13.08-43.82-28.14-44.87-28.62l-0.02-0.01c0,0,57.73-33.34,63.92-56.43
									c6.19-23.09,76.14-86.78,76.14-86.78C900.39,154.14,908.02,181.17,903.16,201.28z"/>
							</g>
							<g class="st11">
								<path class="st12" d="M903.16,201.28c-4.84,20.09-4.15,67.88-9.7,87.66c-5.55,19.78-3.46,53.75-9.01,66.22
									c-5.55,12.47-11.09,20.79-15.25,29.11c-0.46,0.91-0.77,2.06-0.97,3.42c-1.62,11.09,4.43,35.24,4.43,39.56
									c0,3.33,2.4,32.87,3.9,51.01c0,0.05,0,0.08,0.01,0.13c0.61,7.41,1.07,12.89,1.15,13.85c0.01,0.05,0.01,0.1,0.01,0.15
									c0.19,3.55,0.28,7.13,0.28,10.73c0,88.2-47.22,156.54-124.82,197.91c-28.06,14.97-46.16,38.85-105.64,37.41
									c-36.42-0.88-58.7-13.78-89.33-29.94c-22.83-12.05-44.63-27.52-63.97-45.6c10.77,7.67,21.97,14.58,33.44,20.64
									c30.63,16.16,52.91,29.05,89.33,29.94c59.47,1.44,77.58-22.44,105.64-37.41c77.6-41.37,124.82-109.71,124.82-197.91
									c0-3.6-0.08-7.18-0.28-10.73c0-0.05,0-0.1-0.01-0.15c-0.08-0.97-0.55-6.44-1.15-13.85c-0.01-0.05-0.01-0.08-0.01-0.13
									c-1.5-18.14-3.9-47.68-3.9-51.01c0-3.95-5.06-24.49-4.7-36.45c0.05-1.11,0.12-2.17,0.27-3.11c0.19-1.36,0.51-2.51,0.97-3.42
									c4.15-8.32,9.7-16.64,15.25-29.11c5.55-12.47,3.46-46.44,9.01-66.22c5.55-19.78,4.86-67.56,9.7-87.66
									c1.53-6.32,1.82-13.33,0.81-20.03c2.88-2.69,4.58-4.23,4.58-4.23C900.39,154.14,908.02,181.17,903.16,201.28z"/>
							</g>
							<g>
								<path class="st9" d="M769.51,582.5c66.9-8.02,145.91-5.56,207.29,24.3c8.94,4.54,17.54,9.73,25.62,15.63
									c-8.31-5.57-17.08-10.38-26.14-14.53c-45.72-20.1-96.78-23.94-146.15-22.02c-19.72,0.92-39.74,2.81-59.1,6.2
									C764.64,593.03,763.02,583.63,769.51,582.5L769.51,582.5z"/>
							</g>
							<g>
								<path class="st9" d="M767.77,599.96c67.38-0.82,145.66,10.08,203.5,46.33c8.41,5.47,16.4,11.55,23.8,18.28
									c-7.67-6.43-15.87-12.15-24.43-17.25c-43.31-24.87-93.66-34.16-142.96-37.53c-19.7-1.19-39.81-1.46-59.43-0.16
									C761.8,609.91,761.19,600.39,767.77,599.96L767.77,599.96z"/>
							</g>
							<g>
								<path class="st9" d="M762.44,617.58c67.31,3.09,144.83,18.5,200.48,58.05c8.08,5.95,15.7,12.48,22.7,19.63
									c-7.28-6.86-15.14-13.05-23.39-18.63c-41.8-27.34-91.52-39.53-140.54-45.75c-19.6-2.33-39.66-3.77-59.32-3.6
									C755.9,627.17,755.84,617.63,762.44,617.58L762.44,617.58z"/>
							</g>
						</g>
					</g>
					<g>
						<g>
							<path class="st0" d="M119.7,1290.88c-33.33,0-59.09-14.21-76.55-42.24c-17.04-27.35-22.25-61.95-15.52-102.84
								c6.05-37.46,21.39-72.32,43.18-98.11c25.17-29.8,57.17-45.54,92.54-45.54l0.14,0c23,0.47,40.25,7,51.27,19.42
								c11.9,12.92,16.2,27.9,12.8,44.54c-4.03,21.99-20.69,41.48-43.5,50.9c-6.72,2.95-13.43,4.44-19.94,4.44
								c-5.45,0-10.78-1.05-15.84-3.12l-0.16-0.06l-0.15-0.07c-2.5-1.17-9.13-4.26-9.33-10.75c-0.09-2.76,1.02-6.71,6.8-9.87
								l0.22-0.12c0.12-0.06,0.25-0.13,0.4-0.21c0.97-0.53,2.58-1.42,4.69-1.98c20.03-6.12,34.14-19.32,36.9-34.5
								c0.83-7.58-1.14-14.48-5.57-19.46c-4.44-4.99-11.07-7.62-19.17-7.62c-50.65,0-78.5,56.69-87.67,109.73
								c-6.82,42.18-2.39,75.07,12.47,92.53c8.61,10.12,20.81,15.24,36.26,15.24c15.55,0,32.51-7.26,50.4-21.57
								c14.89-11.98,26.51-27.08,35.51-46.15c1.25-5.01,2.81-10.17,4.62-15.33l0.04-0.11c15.26-41.1,43.45-67.65,71.81-67.65
								c10.09,0,19.22,3.42,26.79,9.98c3.86-3.3,8.89-5.66,15.05-7.04c4.22-1.05,8.34-1.6,11.91-1.6c8.7,0,12.56,3.29,14.27,6.05
								c1.14,1.85,2.66,5.68,0.22,10.79c-10.38,25.34-18.03,46.88-22.75,64.04c-6.88,26.21-5.53,33.48-4.86,35.21
								c1.5-0.21,11.79-3.28,27.98-48.11c1.43-5.85,3.08-12.01,4.91-18.3l7.23-24.53c-3.47-0.47-5.42-2.4-6.32-3.61
								c-3.14-4.22-1.51-9.66-0.9-11.71c2.3-8.05,7.87-9.27,10.98-9.27h3.9c3.44-10.57,6.56-19.69,9.39-25.79
								c5.14-12.25,7.02-14.84,13.31-18.4c0.35-0.2,0.72-0.41,1.12-0.64l0.14-0.08l0.15-0.08c10.81-5.64,21.69-8.5,32.34-8.5
								c5.08,0,7.39,3.04,8.15,4.35c1.16,2,1.99,5.28-0.25,9.83c-0.15,0.48-0.31,0.92-0.46,1.32c-0.11,0.28-0.24,0.62-0.37,1
								l-0.21,0.62l-2.37,4.26c-7.04,14.4-11.72,24.9-14.73,32.13h3.82c4.63,0,7.12,2.42,8.19,3.86c3.25,4.36,1.62,9.79,1.08,11.58
								l-0.17,0.58l-0.27,0.54c-2.07,4.14-5.36,6.96-9.27,7.94l-0.84,0.21h-11.55l-9.16,29.32c-14.54,48.34-10.52,59.03-8.94,61.15
								c0.19,0.26,0.28,0.37,0.98,0.37c6.22,0,20.4-13.98,33.99-52.5c1.06-3.38,4.49-6.83,11.2-6.83c1.85,0,8.16,0.34,11.64,4.68
								c1.72,2.15,2.37,4.89,1.78,7.53l-0.09,0.39l-0.13,0.38c-9.88,28.52-20.07,49.16-31.14,63.1
								c-12.08,15.21-25.86,22.92-40.95,22.92c-9.28,0-16.8-2.87-22.36-8.54c-3.71-3.78-6.41-8.63-8.14-14.64
								c-11.53,15.73-23.85,23.18-37.97,23.18c-8.2,0-15.11-2.97-19.97-8.58c-4.6-5.3-7.38-12.85-8.38-22.8
								c-13.98,21.06-28.92,31.38-45.25,31.38c-7.9,0-21.37-2.93-28.56-21.15C186.37,1272.55,155.88,1290.88,119.7,1290.88z
								 M292.21,1131.58c-9.8,0-25.06,11.22-35.8,42.86c-9.3,26.81-8.34,40.65-6.38,43.37c2.04-0.17,8.45-2.43,20.91-20.87
								c10.19-15.49,19.88-35.6,28.76-59.7l0.06-0.17l0.07-0.17c0.33-0.77,0.59-1.46,0.8-2.1
								C298.14,1132.66,295.31,1131.58,292.21,1131.58z"/>
							<path d="M163.35,1009.15c20.97,0.43,36.37,5.99,46.22,17.12c10.27,11.13,14.12,23.96,11.13,38.51
								c-3.42,18.83-17.54,36.8-39.37,45.79c-5.88,2.59-11.64,3.88-17.19,3.88c-4.54,0-8.95-0.87-13.19-2.6
								c-6.42-2.99-6.85-5.56-2.14-8.13c0.86-0.43,2.14-1.28,3.85-1.71c23.96-7.28,38.94-23.11,41.94-40.23
								c2.14-18.4-9.41-35.09-31.67-35.09c-54.78,0-84.73,58.63-94.57,115.54c-11.55,71.46,7.7,115.97,55.63,115.97
								c17.12,0,35.52-7.7,54.78-23.11c15.84-12.74,28.35-29.09,37.76-49.26c1.2-4.91,2.72-10.03,4.6-15.35
								c15.35-41.31,42.29-63.09,65.25-63.09c10.34,0,19.87,4.42,27.18,13.45c3-5.56,8.56-8.99,16.26-10.7
								c3.76-0.94,7.31-1.42,10.3-1.42c6.55,0,10.45,2.28,8.1,6.98c-10.7,26.1-18.4,47.93-23.11,65.05
								c-8.99,34.23-6.42,44.08,1.71,44.08c10.29,0,22.17-17.84,34.87-53.11c1.41-5.8,3.04-11.91,4.92-18.36l9.84-33.38h-7.7
								c-3,0-3.42-2.14-2.14-6.42c0.86-2.99,2.14-4.28,4.28-4.28h8.99c4.28-13.27,7.7-23.54,10.7-29.96
								c5.56-13.27,6.42-12.84,11.55-15.83c9.84-5.13,19.69-7.7,29.1-7.7c2.57,0,3,1.71,1.28,4.71c0,0.43-0.43,1.28-0.86,2.57
								l-2.14,3.85c-9.84,20.11-15.83,34.23-18.83,42.37h14.12c3,0,3.85,2.14,2.57,6.42c-1.28,2.57-3,3.85-4.71,4.28h-15.83
								l-10.7,34.23c-15.83,52.64-12.84,70.61-1.28,70.61c11.98,0,27.39-19.69,40.65-57.34c0.34-1.37,2.33-1.99,4.53-1.99
								c3.31,0,7.11,1.39,6.59,3.7c-18.83,54.35-39.37,81.31-65.47,81.31c-17.73,0-26.28-12.45-25.79-37.21
								c-12.92,24.58-26.54,37.21-42.67,37.21c-18.4,0-25.25-17.97-20.11-53.92c-16.69,35.95-34.23,53.92-53.49,53.92
								c-11.98,0-20.11-7.7-23.96-22.68c-0.8-3.09-1.34-6.38-1.65-9.83c-24.2,43.91-55.32,65.89-93.77,65.89
								c-30.81,0-54.35-12.84-70.61-38.94c-16.26-26.1-20.97-59.05-14.55-98C45.67,1078.04,91.46,1009.15,163.35,1009.15
								 M249.79,1224.83c7.27,0,16.26-8.13,26.96-23.96c10.7-16.26,20.54-36.8,29.53-61.19c1.28-3,1.71-5.13,2.14-6.85
								c-4.39-5.43-10.03-8.24-16.2-8.24c-14.27,0-31.37,15.04-42.42,47.61C238.66,1204.29,239.52,1224.83,249.79,1224.83
								 M163.49,995.15h-0.14c-37.5,0-71.35,16.61-97.89,48.03c-22.6,26.75-38.49,62.81-44.74,101.54
								c-7.02,42.57-1.47,78.8,16.49,107.63c9.36,15.02,21.13,26.5,34.98,34.12c13.77,7.57,29.76,11.42,47.51,11.42
								c35.42,0,65.61-16.23,90.03-48.33c1.43,1.98,3,3.78,4.7,5.4c6.6,6.25,15.13,9.56,24.66,9.56c13.43,0,26.1-5.93,37.67-17.64
								c1.38-1.39,2.74-2.87,4.09-4.43c1.66,4.26,3.85,7.93,6.58,11.08c6.24,7.19,14.97,10.99,25.26,10.99
								c11.45,0,22.15-4.34,31.82-12.91c1.44-1.28,2.87-2.65,4.28-4.13c1.45,2.34,3.12,4.47,5,6.39
								c4.76,4.86,13.37,10.64,27.36,10.64c17.33,0,32.95-8.6,46.43-25.56c11.58-14.57,22.13-35.88,32.28-65.16l0.26-0.76l0.17-0.78
								c1.05-4.73-0.1-9.62-3.16-13.43c-5.44-6.78-14.47-7.3-17.1-7.3c-8.72,0-15.62,4.54-17.85,11.66
								c-5.37,15.2-11.34,27.87-17.27,36.68c-2.21,3.28-4.12,5.6-5.69,7.24c0.05-2.06,0.24-4.7,0.68-8.03
								c1.33-10.24,4.57-23.94,9.62-40.74l7.61-24.34h5.54h1.72l1.67-0.42c5.92-1.48,10.84-5.6,13.84-11.6l0.54-1.08l0.35-1.16
								c2.62-8.74,0.27-14.49-2.17-17.77c-1.9-2.55-4.48-4.45-7.45-5.56c2.71-6.11,6.24-13.74,10.77-23.01l1.96-3.53l0.63-1.13
								l0.41-1.23c0.09-0.27,0.19-0.51,0.26-0.72c0.13-0.35,0.29-0.76,0.45-1.22c3.47-7.46,1.42-13.11-0.21-15.93
								c-2.85-4.9-8.16-7.83-14.2-7.83c-11.79,0-23.76,3.13-35.58,9.29l-0.29,0.15l-0.29,0.17c-0.37,0.22-0.72,0.41-1.05,0.6
								c-8.19,4.65-10.86,8.82-16.26,21.67c-2.52,5.45-5.18,12.96-8.07,21.66c-2.79,0.2-7.83,1.21-11.86,5.6
								c-3.25-3.28-8.69-6.21-17.73-6.21c-4.11,0-8.78,0.62-13.52,1.79c-5.06,1.14-9.51,2.86-13.32,5.16
								c-7.92-5.4-17.13-8.28-26.9-8.28c-31.32,0-62.08,28.34-78.38,72.21l-0.04,0.11l-0.04,0.11c-1.81,5.13-3.36,10.27-4.64,15.27
								c-8.49,17.8-19.39,31.9-33.29,43.08c-16.59,13.27-32.08,20.02-46,20.02c-13.49,0-23.61-4.18-30.93-12.78
								c-13.51-15.87-17.38-46.72-10.89-86.88c8.7-50.22,34.48-103.85,80.76-103.85c6.05,0,10.87,1.83,13.94,5.28
								c3.04,3.42,4.41,8.31,3.86,13.79c-2.39,12.46-14.56,23.44-31.9,28.77c-2.87,0.78-4.98,1.94-6.14,2.57l-0.22,0.12l-0.16,0.08
								l-0.22,0.12c-9.37,5.11-10.57,12.36-10.45,16.23c0.23,7.16,4.72,12.84,13.37,16.88l0.31,0.14l0.31,0.13
								c5.91,2.42,12.13,3.64,18.49,3.64c7.45,0,15.08-1.68,22.68-5c12.49-5.17,23.49-13.15,31.83-23.09
								c8.16-9.73,13.63-21.11,15.8-32.92c3.79-18.65-1.21-36.13-14.48-50.57c-12.37-13.91-31.31-21.22-56.32-21.73L163.49,995.15
								L163.49,995.15z M338.62,1184.38c4.1-14.87,10.45-33.14,18.92-54.41c0.36,0.31,0.73,0.6,1.11,0.87l-5.47,18.56
								c-1.83,6.3-3.48,12.43-4.91,18.27c-4.95,13.67-9.22,23.07-12.69,29.53C336.32,1193.62,337.31,1189.39,338.62,1184.38
								L338.62,1184.38z M256.06,1204.92c0.67-6.21,2.55-15.46,6.95-28.14l0.02-0.04l0.01-0.04c9.26-27.28,22.01-37.61,28.68-38.09
								c-8.29,21.89-17.24,40.21-26.63,54.5C261.44,1198.5,258.44,1202.28,256.06,1204.92L256.06,1204.92z"/>
						</g>
						<g>
							<path class="st0" d="M595.12,1298.58c-35.11,0-60.79-11.22-76.34-33.36c-15.42-21.96-16.66-46.73-3.6-71.64
								c8.95-20.88,34.89-35.43,63.22-35.43c23.59,0,43.77,10.05,55.41,27.58c2.67,3.66,6.04,9.11,5.14,14.68
								c-0.48,3.02-2.1,5.59-4.68,7.43l-0.86,0.61l-1,0.33c-1.27,0.42-2.56,0.64-3.81,0.64c-2.17,0-4.29-0.65-6.14-1.88l-0.53-0.35
								l-0.46-0.44c-10.3-9.97-22.3-15.02-35.66-15.02c-1.78,0-3.61,0.09-5.44,0.27c-15.55,1.52-26.25,7.67-32.71,18.8
								c-7.57,13.34-7.36,24.32,0.71,34.5c8.38,10.57,21.83,16.28,41.1,17.47c1.39,0.06,2.79,0.09,4.16,0.09
								c16.44,0,31.67-4.29,45.27-12.74c14.75-8.93,23.96-20.22,28.22-34.56c6.01-20.42-12.17-34.83-42.83-56.15
								c-16.63-11.56-33.84-23.52-45.33-38.45c-13.84-17.97-16.87-36.98-9.28-58.12c6.67-19.06,21.41-34.08,43.79-44.6
								c22.13-10.83,43.98-16.09,66.79-16.09c23.56,0,42.03,6.26,54.87,18.6c13.29,12.33,18.75,27.96,15.79,45.22
								c-3.97,21.85-20.97,41.38-44.38,51.05c-6.82,2.99-13.28,4.44-19.76,4.44c-5.34,0-10.69-1.04-15.92-3.08l-0.21-0.08
								c-2.52-1.08-9.23-3.95-9.82-10.38c-0.2-2.14,0.23-6.22,5.27-9.58c1.41-0.94,3.5-2.33,6.71-3.07
								c21.56-7.41,36-20.54,37.72-34.34l0.02-0.16c1.12-7.55-0.46-14.07-4.59-18.86c-5.11-5.92-13.85-9.05-25.29-9.05
								c-31.59,0-58.67,17.35-67.4,43.17c-5.61,16.09,12.74,34.12,29.16,46.45l1.54,1.09c32.85,23.33,77.83,55.27,67.9,96.91
								c-5.55,23.13-19.34,42.1-41,56.4C649.71,1291.28,624.21,1298.58,595.12,1298.58z"/>
							<path d="M680.27,1009.15c21.83,0,38.51,5.56,50.07,16.69c11.55,10.7,16.26,23.96,13.69,38.94
								c-3.42,18.83-18.4,36.8-40.23,45.79c-5.88,2.59-11.51,3.88-17.02,3.88c-4.51,0-8.94-0.87-13.37-2.6
								c-5.99-2.57-7.27-5.13-3.42-7.7c1.28-0.86,2.57-1.71,4.71-2.14c23.96-8.13,40.65-23.11,42.79-40.23
								c3-20.11-9.84-35.95-36.8-35.95c-32.95,0-63.76,17.55-74.03,47.93c-6.42,18.4,9.42,37.66,31.67,54.35
								c32.52,23.11,75.74,53.06,66.76,90.72c-5.13,21.4-17.97,38.94-38.09,52.21c-20.11,13.69-44.08,20.54-71.89,20.54
								c-32.95,0-56.49-10.27-70.61-30.38c-14.12-20.11-14.98-41.94-3-64.62c8.15-19.4,32.51-31.43,56.89-31.43
								c19.17,0,38.36,7.44,49.66,24.58c4.71,6.42,5.14,10.27,2.14,12.41c-0.53,0.18-1.06,0.28-1.6,0.28c-0.75,0-1.5-0.21-2.26-0.71
								c-11.71-11.33-25.41-16.99-40.52-16.99c-2.02,0-4.06,0.1-6.12,0.3c-17.55,1.71-30.38,8.99-38.09,22.25
								c-8.99,15.83-8.56,29.96,1.28,42.37c9.84,12.41,25.25,18.83,46.22,20.11c1.52,0.07,3.03,0.1,4.53,0.1
								c17.92,0,34.35-4.71,48.96-13.79c16.26-9.84,26.53-22.68,31.24-38.51c17.12-58.2-125.38-74.89-97.57-152.34
								c5.99-17.12,19.26-30.81,40.23-40.65C637.48,1014.28,658.45,1009.15,680.27,1009.15 M680.27,995.15
								c-23.89,0-46.73,5.49-69.82,16.78c-24.1,11.34-40.03,27.69-47.37,48.6c-8.32,23.22-4.84,44.99,10.34,64.7
								c9.28,12.05,21.77,22.06,34.75,31.4c-9.04-3.58-19.1-5.48-29.78-5.48c-14.37,0-28.97,3.58-41.14,10.09
								c-13.36,7.15-23.17,17.28-28.41,29.32c-14.23,27.31-12.78,54.5,4.19,78.68c16.93,24.11,44.54,36.34,82.07,36.34
								c30.51,0,57.32-7.71,79.69-22.91c23.16-15.3,37.93-35.68,43.91-60.57c5-20.97-1.84-42.05-20.33-62.68
								c-14.4-16.06-33.48-29.61-50.32-41.57l-1.46-1.04c-20.2-15.18-29.93-29.18-26.71-38.43l0.02-0.06l0.02-0.06
								c7.77-22.98,32.19-38.41,60.77-38.41c9.21,0,16.31,2.35,19.99,6.62c3.48,4.04,3.54,9.44,2.97,13.26l-0.02,0.16l-0.02,0.16
								c-1.36,10.89-14.18,22.02-32.73,28.48c-4.23,1.04-6.96,2.86-8.65,3.98c-8.36,5.57-8.63,13.08-8.35,16.05
								c0.64,7.02,5.37,12.46,14.03,16.17l0.21,0.09l0.21,0.08c6.04,2.36,12.25,3.56,18.47,3.56c7.34,0,14.91-1.68,22.5-5
								c25.56-10.58,44.14-32.09,48.52-56.17l0.01-0.07l0.01-0.07c3.37-19.68-2.81-37.48-17.88-51.49
								C725.76,1002.05,705.68,995.15,680.27,995.15L680.27,995.15z M639.56,1181.74c-1.45-2.18-3.02-4.25-4.7-6.21
								c19.05,14.14,29.36,25.14,25.56,38.08c-3.73,12.56-11.93,22.54-25.06,30.49l-0.07,0.04l-0.07,0.04
								c-12.47,7.75-26.46,11.68-41.57,11.68c-1.25,0-2.53-0.03-3.8-0.08c-17.14-1.07-28.91-5.92-35.98-14.83
								c-4.39-5.54-7.84-13.04-0.11-26.7c5.33-9.13,14.01-13.99,27.3-15.29c1.6-0.16,3.21-0.24,4.76-0.24
								c11.64,0,21.71,4.27,30.79,13.05l0.91,0.88l1.06,0.7c3,2,6.47,3.06,10.02,3.06c2.01,0,4.03-0.34,6.02-1l2-0.67l1.71-1.22
								c4.08-2.91,6.75-7.18,7.52-12.02C647.16,1193.46,642.95,1186.41,639.56,1181.74L639.56,1181.74z"/>
						</g>
						<g>
							<path class="st0" d="M1103.45,1257.76c-4.07,0-9.88-0.51-13.24-4.89c-1.31-1.7-2.61-4.5-2.04-8.6
								c-11.59,8.79-24.36,13.22-38.18,13.22c-19.84,0-34.73-9.03-43.06-26.12c-0.36-0.7-0.71-1.42-1.04-2.14
								c-12.54,19.2-25.94,28.26-41.48,28.26c-8.2,0-15.11-2.97-19.97-8.58c-4.6-5.3-7.38-12.85-8.38-22.8
								c-13.98,21.06-28.92,31.38-45.25,31.38c-8.12,0-22.09-3.09-29.12-22.63c-11.37,15.37-23.57,22.63-37.63,22.63
								c-15.27,0-23.19-6.93-27.15-12.74c-12.58-18.48-3.66-51.71,6.06-76.35l6.96-18.8c-12.03,12.59-33.7,42.57-61.79,98.06
								l-1.78,3.55l-1.66,1.66c-2.96,2.95-7.15,3.59-12.74,4.15c-4.14,0.5-7.31,0.73-9.97,0.73c-4.03,0-9.77-0.5-13.09-4.82
								c-2.17-2.82-2.71-6.38-1.62-10.57c2.28-9.48,8.24-30.2,18.09-64.47l4.7-16.34l7.75-24.96c1.77-5.32,8.39-23.14,19.04-29.14
								c10.6-5.99,21.69-9.03,32.96-9.03c4.84,0,7.26,2.27,8.43,4.18c2.84,4.61,0.57,9.11-2.57,15.33l-0.94,1.86l-0.06,0.11
								c-3.13,5.73-6.23,12.02-9.3,18.82c16.46-19.85,35.25-36.02,52.79-36.02c9.08,0,13.8,4.1,16.15,7.54
								c6.95,10.16,4.04,29.09-10.05,65.33c-9.6,24.74-9.74,38.61-7.49,41.9c0.16,0.23,0.23,0.34,0.97,0.34
								c0.41,0,10.26-0.49,26.4-43.35c0.72-2.31,1.4-4.38,2.08-6.32l0.04-0.11c15.26-41.1,43.45-67.65,71.81-67.65
								c10.09,0,19.22,3.42,26.79,9.98c3.86-3.3,8.89-5.66,15.05-7.04c4.22-1.05,8.34-1.6,11.91-1.6c8.7,0,12.56,3.29,14.27,6.05
								c1.14,1.85,2.66,5.68,0.23,10.79c-10.38,25.34-18.03,46.88-22.75,64.04c-6.88,26.21-5.53,33.48-4.86,35.21
								c1.41-0.19,10.66-2.94,25.28-40.88c0.74-2.82,1.59-5.72,2.54-8.63l0.06-0.19c14.6-40.71,44.5-67.04,76.2-67.12
								c0.58-0.02,1.15-0.03,1.72-0.03c15.84,0,27.7,8.88,30.2,22.61c2.31,12.71-4.31,29.81-24.27,37.49
								c-3.52,1.71-6.91,2.58-10.07,2.58c-4.57,0-8.56-1.76-11.55-5.09c-3.32-3.45-2.85-7.04-2.49-8.44
								c0.85-3.29,3.41-5.59,7.6-6.85c7.13-2.53,9.02-5.82,9.69-8.55c-0.08-1.77-0.56-2-1.82-2.2c-0.07,0-0.14,0-0.21,0
								c-4.72,0-10.53,3.93-17.28,11.67c-7.96,9.65-13.08,19.37-15.67,29.7l-0.07,0.25c-4.9,16.89-4.54,31.9,0.93,39.18
								c2.28,3.03,5.37,4.5,9.46,4.5c18.81,0,36.43-16.92,48.37-46.45c1.88-6.7,3.78-13.41,5.67-19.95
								c14.91-50.36,25.44-84.54,29.67-96.29c4.5-12.51,10.79-20.99,18.7-25.2c10.86-5.67,21.74-8.53,32.39-8.53
								c5.08,0,7.39,3.04,8.15,4.35c1.16,2,1.99,5.28-0.25,9.83c-0.15,0.48-0.31,0.92-0.46,1.31c-0.11,0.29-0.24,0.62-0.37,1
								l-0.21,0.62l-2.36,4.25c-12.07,25.02-25.92,62.18-42.34,113.59c-0.78,2.34-1.53,4.62-2.26,6.83
								c19.58-25.79,38.29-47,55.87-63.3l0.15-0.14c4.01-3.51,8.2-5.29,12.47-5.29c7.36,0,13.82,5.41,17.73,14.84
								c3.29,7.95,5.87,22.09-0.52,28.49c-0.46,0.46-0.78,0.7-3.23,2.59c-7.53,5.77-29.64,22.73-48.48,41.03
								c11.2,32.79,19.91,36.43,23.22,36.43c10.32,0,24.36-37.98,29.73-52.56c1.06-3.31,4.37-6.65,10.74-6.65
								c3.87,0,9,1.27,11.77,4.82c1.68,2.15,2.27,4.87,1.62,7.45l-0.08,0.31l-0.1,0.3c-18.52,53.09-36.32,86-67.8,86
								c-19.76,0-30.7-14.68-41.74-42.01c-8.01,9.46-16.54,20.45-26.69,34.34c-3.3,6.18-11.99,6.96-15.17,7.2
								C1109.23,1257.53,1106.06,1257.76,1103.45,1257.76z M943.93,1131.58c-9.8,0-25.06,11.22-35.8,42.86
								c-9.3,26.81-8.34,40.65-6.38,43.37c2.04-0.17,8.45-2.43,20.91-20.87c10.19-15.49,19.88-35.6,28.76-59.7l0.06-0.17l0.07-0.17
								c0.33-0.77,0.59-1.46,0.8-2.1C949.85,1132.66,947.03,1131.58,943.93,1131.58z"/>
							<path d="M1193.77,1028.41c2.57,0,3,1.71,1.28,4.71c0,0.43-0.43,1.28-0.86,2.57l-2.14,3.85
								c-12.41,25.68-26.53,63.76-42.79,114.69c-6.42,19.26-11.13,34.66-14.12,46.64c29.1-42.37,55.63-74.03,79.17-95.86
								c2.86-2.5,5.48-3.56,7.86-3.56c11.84,0,17.25,26.38,12.26,31.37c-0.86,0.86-31.24,23.11-54.78,46.64
								c9.84,30.38,20.11,45.36,31.24,45.36c11.55,0,21.4-16.69,36.37-57.34c0.33-1.31,2.09-1.87,4.1-1.87
								c3.25,0,7.13,1.46,6.6,3.58c-19.26,55.2-35.95,81.31-61.19,81.31c-15.83,0-25.68-11.13-39.37-48.36
								c-11.98,13.27-23.54,28.24-35.09,44.08c-0.86,2.14-4.28,3.42-9.84,3.85c-3.58,0.45-6.57,0.69-9.01,0.69
								c-6.9,0-9.37-1.94-8.1-6.68c1.83-7.42,3.79-15.2,5.9-23.31c-14.66,19.77-31.77,29.73-51.25,29.73
								c-17.12,0-29.53-7.27-36.8-22.25c-2.62-5.09-4.32-10.68-5.16-16.76c-13.2,25.77-27.09,39.01-43.62,39.01
								c-18.4,0-25.25-17.97-20.11-53.92c-16.69,35.95-34.23,53.92-53.49,53.92c-11.98,0-20.11-7.7-23.96-22.68
								c-0.91-3.56-1.5-7.36-1.78-11.39c-12.47,22.74-25.48,34.07-41.01,34.07c-31.24,0-32.95-32.95-14.55-79.6l8.56-23.11
								c2.14-7.7,2.14-11.98,0.86-12.41c-11.55,0-42.37,40.65-77.03,109.12l-1.28,2.57l-0.86,0.86c-1.28,1.28-4.28,1.71-8.56,2.14
								c-3.69,0.45-6.74,0.69-9.2,0.69c-6.95,0-9.19-1.94-7.92-6.68c2.57-10.7,10.27-37.23,22.68-80.45l7.7-24.82
								c3-8.99,8.99-21.4,15.83-25.25c9.84-5.56,19.69-8.13,29.53-8.13c4.71,0,2.57,3.42-1.28,11.13
								c-7.7,14.12-15.41,31.67-23.11,53.49l-7.7,21.4c30.81-52.64,59.91-81.74,80.45-81.74c16.69,0,17.55,17.12-0.43,63.33
								c-11.13,28.67-13.27,51.78,0,51.78c9.79,0,21.02-16.14,33.02-48.08c0.64-2.06,1.32-4.14,2.06-6.27
								c15.35-41.31,42.29-63.09,65.25-63.09c10.34,0,19.87,4.42,27.18,13.45c3-5.56,8.56-8.99,16.26-10.7
								c3.76-0.94,7.31-1.42,10.3-1.42c6.55,0,10.45,2.28,8.1,6.98c-10.7,26.1-18.4,47.93-23.11,65.05
								c-8.99,34.23-6.42,44.08,1.71,44.08c9.55,0,20.47-15.36,32.14-45.75c0.72-2.8,1.56-5.66,2.52-8.6
								c14.12-39.37,41.94-62.48,69.75-62.48c0.54-0.02,1.06-0.03,1.58-0.03c29.75,0,32.15,35.74,3.13,46.68
								c-2.7,1.35-5.13,2-7.27,2c-2.61,0-4.77-0.98-6.42-2.86c-1.71-1.71-0.86-3,2.14-3.85c8.56-3,13.27-7.7,14.55-14.55
								c0-5.56-2.57-8.99-8.13-9.84c-0.3-0.02-0.61-0.03-0.91-0.03c-7.01,0-14.42,4.72-22.62,14.15
								c-8.13,9.84-14.12,20.54-17.12,32.52c-8.56,29.53-2.14,52.64,17.12,52.64c21.39,0,41.64-17.91,55.01-51.19
								c1.85-6.6,3.77-13.36,5.76-20.28c15.83-53.49,25.68-85.16,29.53-95.86c3.85-10.7,8.99-17.97,15.41-21.4
								C1174.51,1030.97,1184.35,1028.41,1193.77,1028.41 M901.5,1224.83c7.27,0,16.26-8.13,26.96-23.96
								c10.7-16.26,20.54-36.8,29.53-61.19c1.28-3,1.71-5.13,2.14-6.85c-4.39-5.43-10.03-8.24-16.2-8.24
								c-14.27,0-31.37,15.04-42.42,47.61C890.37,1204.29,891.23,1224.83,901.5,1224.83 M1193.77,1014.41
								c-11.79,0-23.76,3.13-35.58,9.29l-0.06,0.03l-0.06,0.03c-9.48,5.06-16.88,14.82-21.99,29.01c-3.1,8.6-9.5,28.98-18.47,58.72
								c-2.12-3.67-4.92-6.93-8.3-9.57c-6.63-5.2-15.2-7.94-24.8-7.94c-0.63,0-1.24,0.01-1.86,0.03
								c-17.24,0.07-34.16,6.97-48.96,19.95c-14.42,12.65-26.07,30.56-33.69,51.8l-0.07,0.19l-0.06,0.19
								c-0.96,2.92-1.82,5.83-2.56,8.65c-3.83,9.9-7.19,17.14-10.03,22.41c0.74-3.57,1.74-7.81,3.05-12.81
								c4.64-16.84,12.17-38.03,22.39-63c2.73-5.88,2.49-12.15-0.68-17.28c-2.64-4.28-8.29-9.37-20.22-9.37
								c-4.11,0-8.78,0.62-13.52,1.79c-5.06,1.14-9.51,2.87-13.32,5.16c-7.92-5.4-17.13-8.28-26.9-8.28
								c-31.32,0-62.08,28.34-78.38,72.21l-0.04,0.11l-0.04,0.11c-0.7,1.98-1.37,4.01-2.1,6.36c-5.73,15.19-10.47,24.52-14.01,30.21
								c1.07-5.81,3.23-13.82,7.29-24.29c15.24-39.18,17.85-59.32,9.3-71.81c-3.3-4.83-9.79-10.59-21.93-10.59
								c-9.92,0-20.54,4.18-31.71,12.44c0.24-4.03-0.96-7.11-2.25-9.22c-1.39-2.26-5.57-7.51-14.39-7.51
								c-12.49,0-24.74,3.35-36.42,9.94c-12.47,7.01-19.7,25.42-22.23,33.01l-0.05,0.14l-0.04,0.14l-7.7,24.82l-0.04,0.14
								l-0.04,0.14l-4.65,16.19c-9.86,34.29-15.82,55.06-18.15,64.71c-2.05,7.92,0.42,13.36,2.86,16.54
								c5.81,7.56,15.47,7.56,18.64,7.56c2.93,0,6.35-0.25,10.73-0.77c5.37-0.54,12-1.24,16.92-6.15l0.86-0.87l1.6-1.6l1.01-2.03
								l1.27-2.54c11.47-22.65,22.96-43.1,33.73-60.06c-6.81,25.57-5.82,45,3,57.95c4.91,7.21,14.6,15.81,32.93,15.81
								c11.03,0,21.35-3.97,30.66-11.79c1.84-1.54,3.64-3.24,5.42-5.1c1.77,2.76,3.78,5.21,6.02,7.33
								c6.6,6.25,15.13,9.56,24.66,9.56c13.43,0,26.1-5.93,37.67-17.64c1.38-1.39,2.74-2.87,4.09-4.43
								c1.66,4.26,3.85,7.93,6.58,11.08c6.24,7.19,14.97,10.99,25.26,10.99c11.7,0,22.63-4.54,32.47-13.48
								c2.81-2.56,5.56-5.49,8.25-8.81c10.01,14.62,25.35,22.29,44.86,22.29c12,0,23.24-2.96,33.66-8.84
								c0.35,0.57,0.69,1.06,1.01,1.47c5.86,7.63,15.59,7.63,18.79,7.63c2.86,0,6.28-0.25,10.44-0.76
								c10.11-0.84,16.96-4.35,20.39-10.44c6.96-9.51,13.13-17.63,18.9-24.82c10.8,22.93,23.14,35.75,43.59,35.75
								c17.17,0,31.62-8.42,44.18-25.73c10.09-13.92,19.42-33.96,30.24-64.96l0.21-0.6l0.15-0.61c1.17-4.69,0.12-9.6-2.89-13.46
								c-5.44-6.97-14.61-7.51-17.29-7.51c-8.43,0-15.12,4.44-17.38,11.41c-6.33,17.17-11.36,28.95-15.79,37.05
								c-3.84,7.02-6.37,9.59-7.46,10.47c-1.76-1.23-7.43-6.54-14.96-27.23c17.78-16.82,37.61-32.03,44.63-37.41
								c2.66-2.04,3.14-2.41,3.93-3.2c9.48-9.48,5.74-27.15,2.04-36.1c-5.04-12.18-13.86-19.16-24.19-19.16c0,0,0,0-0.01,0
								c-6,0-11.75,2.36-17.07,7.02l-0.15,0.13l-0.15,0.14c-10.46,9.7-21.31,21.1-32.49,34.12c12.12-35.96,22.72-63.24,32.19-82.89
								l1.94-3.5l0.63-1.14l0.41-1.24c0.09-0.27,0.19-0.51,0.26-0.72c0.13-0.34,0.29-0.75,0.44-1.22
								c3.47-7.46,1.42-13.11-0.21-15.93C1205.13,1017.33,1199.82,1014.41,1193.77,1014.41L1193.77,1014.41z M907.78,1204.92
								c0.67-6.21,2.55-15.46,6.95-28.14l0.02-0.04l0.01-0.04c9.26-27.28,22.01-37.61,28.68-38.09
								c-8.29,21.89-17.24,40.2-26.63,54.49C913.15,1198.5,910.16,1202.28,907.78,1204.92L907.78,1204.92z M1058.97,1210.83
								c-2.39,0-3.19-0.81-3.87-1.71c-3.37-4.48-4.61-16.43,0.2-33.03l0.07-0.25l0.06-0.25c1.29-5.15,3.3-10.15,6.07-15.1
								c0.61,0.99,1.34,1.94,2.18,2.82c4.29,4.73,10.2,7.34,16.69,7.34c4.15,0,8.47-1.06,12.86-3.15c3.32-1.3,6.42-2.88,9.26-4.71
								c-0.6,2.12-1.19,4.23-1.78,6.33C1090.06,1195.25,1074.49,1210.83,1058.97,1210.83L1058.97,1210.83z"/>
						</g>
					</g>
				</g>
				<circle class="st9" cx="532.48" cy="477.25" r="9.76"/>
				<circle class="st9" cx="737.97" cy="477.25" r="9.76"/>
			</g>
		</g>
	</g>
</g>
<text transform="matrix(1 0 0 1 -1085.7878 2159.9792)" style="font-family:'Futura-Medium'; font-size:231px;">Home Page</text>
<text transform="matrix(1 0 0 1 342.0931 2159.9792)" style="font-family:'Futura-Medium'; font-size:231px;">Menu</text>
<text transform="matrix(1 0 0 1 1331.7705 2159.9792)" style="font-family:'Futura-Medium'; font-size:231px;">About us</text>
</svg>
