<?xml version="1.0" encoding="utf-8"?>
<!-- Generator: Adobe Illustrator 28.2.0, SVG Export Plug-In . SVG Version: 6.00 Build 0)  -->
<svg version="1.1" id="Capa_1" xmlns="http://www.w3.org/2000/svg" xmlns:xlink="http://www.w3.org/1999/xlink" x="0px" y="0px"
	 viewBox="0 0 2122 2122" style="enable-background:new 0 0 2122 2122;" xml:space="preserve">
<style type="text/css">
	.st0{fill:#FAB600;}
	.st1{fill:#603F92;}
	.st2{fill:#7C5DA4;}
	.st3{fill:#F08300;}
	.st4{fill:#FFDA5A;}
	.st5{fill:#9F7BB6;}
	.st6{fill:#4D2C80;}
	.st7{fill:#6AB548;}
	.st8{fill:#020203;}
	.st9{fill:#509537;}
	.st10{fill:#3C602E;}
	.st11{fill:#263B20;}
	.st12{fill:#D6D7D7;}
	.st13{fill:url(#SVGID_1_);}
	.st14{fill:#8D8C8C;}
	.st15{fill:#7F3243;}
	.st16{fill:#FFFFFF;}
	.st17{fill:#141414;}
	.st18{opacity:0.29;}
	.st19{fill:#0B0C0C;}
	.st20{fill:#619C41;}
	.st21{fill:#0C0D0D;}
</style>
<g>
	<path class="st0" d="M1060.66,173.01c-394.58,0-714.44,29.13-714.44,65.06c0,0,12.59,191.32,32.52,230.05
		c3.08,5.98,15.12,11.95,35.24,17.71c19.5,367.76,66.93,1225.85,86.98,1264.03c7.22,13.75,25.13,26.16,51.54,37.18
		c3.37,34.65,6.4,56.56,8.93,61.97c30.52,65.23,274.89,100.42,530.21,99.29c223.8-0.99,427.91-52.67,461.04-99.29
		c3.73-5.25,7.8-29.86,12.06-69.06c23.88-9.9,40.69-20.11,48.65-30.09c27.34-34.28,70.5-891.76,87.91-1261.65
		c20.5-7.05,33.09-15.02,37.01-23.96c20.7-47.25,36.8-226.17,36.8-226.17C1775.1,202.14,1455.24,173.01,1060.66,173.01z"/>
	<path class="st1" d="M1060.66,173.01c-394.58,0-714.44,29.13-714.44,65.06c0,0,12.59,191.32,32.52,230.05
		c3.08,5.98,15.12,11.95,35.24,17.71c87.17,24.93,326.12,45.8,646.67,45.8c319.88,0,552.86-13.24,640.64-43.42
		c20.5-7.05,33.09-15.02,37.01-23.96c20.7-47.25,36.8-226.17,36.8-226.17C1775.1,202.14,1455.24,173.01,1060.66,173.01z"/>
	<path class="st2" d="M1060.66,173.01c-394.58,0-714.44,29.13-714.44,65.06c0,15.93,62.91,30.52,167.3,41.83
		c131.06,14.2,327.51,23.23,547.14,23.23c309.05,0,572.24-17.87,671.83-42.88c27.56-6.92,42.61-14.39,42.61-22.18
		C1775.1,202.14,1455.24,173.01,1060.66,173.01z"/>
	<path class="st3" d="M552.5,1787.03c3.37,34.65,6.4,56.56,8.93,61.97c30.52,65.23,274.89,100.42,530.21,99.29
		c223.8-0.99,427.91-52.67,461.04-99.29c3.73-5.25,7.8-29.86,12.06-69.06c-87.67,36.34-271.36,68.43-468.75,69.2
		C869.84,1850.03,651.39,1828.3,552.5,1787.03z"/>
	<path class="st4" d="M1154.85,805.04c-219.97,0-523.6-34.08-523.6-34.08l27.88,700.2c0,0,179.7,43.38,483.32,43.38
		c303.63,0,446.14-43.38,446.14-43.38l37.18-700.2C1625.78,770.96,1374.82,805.04,1154.85,805.04z"/>
	<path class="st5" d="M1238.5,247.37c171.97,0,311.37-11.1,311.37-24.79c0-13.69-139.4-24.79-311.37-24.79
		c-171.96,0-311.37,11.1-311.37,24.79C927.13,236.27,1066.54,247.37,1238.5,247.37z"/>
	<path class="st6" d="M1732.49,260.25c-4.22,33.71-10.63,67.88-28.1,95.15c-58.42,91.21-207.73,110.39-299.88,114.37
		c-236.52,10.2-468.55,5.19-705.72-0.97c-30.68-0.8-65.13-2.33-92.91-17.26c-22.38-12.03-38.85-33.59-52.53-54.76
		c-23.44-36.27-33.57-75.81-39.83-116.87c-104.39-11.31-167.3-25.9-167.3-41.83c0,0,12.59,191.32,32.52,230.05
		c3.08,5.98,15.12,11.95,35.24,17.71c87.17,24.93,326.12,45.8,646.67,45.8c319.88,0,552.86-13.24,640.64-43.42
		c20.5-7.05,33.09-15.02,37.01-23.96c20.7-47.25,36.8-226.17,36.8-226.17C1775.1,245.86,1760.05,253.33,1732.49,260.25z"/>
</g>
<g>
	<g>
		<path class="st7" d="M1124.15,1466.51c-38.63,0-76.12-7.57-111.4-22.49c-34.08-14.41-64.69-35.05-90.96-61.33
			c-26.28-26.28-46.92-56.88-61.33-90.96c-14.92-35.28-22.49-72.76-22.49-111.4s7.57-76.11,22.49-111.4
			c14.41-34.08,35.05-64.69,61.33-90.96c26.28-26.28,56.88-46.92,90.96-61.33c35.28-14.92,72.76-22.49,111.4-22.49
			s76.11,7.57,111.4,22.49c34.08,14.41,64.69,35.05,90.96,61.33c26.28,26.28,46.92,56.88,61.33,90.96
			c14.92,35.28,22.49,72.76,22.49,111.4s-7.57,76.11-22.49,111.4c-14.41,34.08-35.05,64.69-61.33,90.96
			c-26.28,26.28-56.88,46.92-90.96,61.33C1200.26,1458.94,1162.78,1466.51,1124.15,1466.51z"/>
		<path class="st8" d="M1124.14,899.73c154.97,0,280.6,125.63,280.6,280.6s-125.63,280.59-280.6,280.59
			s-280.59-125.63-280.59-280.59S969.17,899.73,1124.14,899.73 M1124.14,888.56c-39.39,0-77.6,7.72-113.58,22.94
			c-34.74,14.69-65.95,35.73-92.74,62.53c-26.79,26.79-47.83,58-62.53,92.74c-15.22,35.98-22.94,74.19-22.94,113.58
			s7.72,77.6,22.94,113.58c14.7,34.74,35.73,65.95,62.53,92.74c26.79,26.79,58,47.83,92.74,62.53
			c35.98,15.22,74.19,22.94,113.58,22.94s77.59-7.72,113.58-22.94c34.74-14.7,65.95-35.73,92.74-62.53
			c26.79-26.79,47.83-58,62.53-92.74c15.22-35.98,22.94-74.19,22.94-113.58s-7.72-77.6-22.94-113.58
			c-14.7-34.74-35.73-65.95-62.53-92.74c-26.79-26.79-58-47.83-92.74-62.53C1201.74,896.27,1163.53,888.56,1124.14,888.56
			L1124.14,888.56z"/>
	</g>
	<circle class="st9" cx="1124.14" cy="1180.33" r="260.3"/>
	<circle class="st10" cx="1124.14" cy="1180.33" r="232.77"/>
	<circle class="st11" cx="1124.14" cy="1180.33" r="215.9"/>
	<g>
		<g>
			<g>
				<path class="st8" d="M1310.56,912.5c0.7,0,1.38,0.03,2.05,0.09c18.04,1.68,24.2,23.48,20.28,39.7
					c-3.9,16.2-3.35,54.75-7.82,70.7c-4.48,15.95-2.79,43.35-7.27,53.41c-4.48,10.06-8.94,16.77-12.3,23.48
					c-0.37,0.73-0.62,1.66-0.78,2.76c-1.3,8.94,3.58,28.42,3.58,31.91c0,2.69,1.94,26.51,3.15,41.14c0,0.04,0,0.06,0.01,0.11
					c0.49,5.98,0.86,10.4,0.92,11.17c0.01,0.04,0.01,0.08,0.01,0.12c0.16,2.86,0.22,5.75,0.22,8.65c0,22.18-3.7,42.81-10.7,61.7
					c31.76,2.16,63.2,8.71,90.37,21.93c7.21,3.66,14.15,7.85,20.66,12.61c-6.7-4.49-13.77-8.37-21.09-11.72
					c-28.88-12.69-60.38-17.35-91.81-18.03c-2.26,5.57-4.8,10.97-7.64,16.22c34.08,5.23,67.67,15.39,95.41,32.78
					c6.78,4.41,13.23,9.32,19.2,14.74c-6.19-5.19-12.8-9.8-19.7-13.91c-29.77-17.1-63.66-25.06-97.64-28.72
					c-2.42,4.14-5.02,8.17-7.78,12.1c35.75,7.03,70.97,19.39,99.2,39.46c6.52,4.8,12.66,10.07,18.31,15.84
					c-5.87-5.53-12.21-10.53-18.86-15.03c-30.55-19.99-66.36-29.93-102.24-35.36c-16.8,22.11-39.29,40.61-66.36,55.04
					c-21.98,11.72-36.38,30.22-81.11,30.22c-1.34,0-2.7-0.02-4.1-0.05c-29.37-0.71-47.34-11.12-72.05-24.15
					c-1.06-0.56-2.11-1.13-3.16-1.7c-0.32-0.18-0.65-0.36-0.97-0.54c-0.74-0.41-1.48-0.83-2.22-1.24c-0.35-0.2-0.71-0.4-1.06-0.6
					c-0.74-0.43-1.49-0.86-2.23-1.3c-0.3-0.18-0.61-0.36-0.92-0.54c-0.97-0.58-1.95-1.17-2.93-1.78c-0.06-0.03-0.11-0.06-0.17-0.11
					c-1.08-0.67-2.16-1.35-3.23-2.03c-0.13-0.08-0.25-0.16-0.37-0.24c-0.92-0.6-1.86-1.2-2.77-1.81c-0.2-0.13-0.4-0.27-0.6-0.4
					c-0.89-0.6-1.79-1.2-2.68-1.81c-0.14-0.1-0.29-0.2-0.43-0.3c-17.11-11.78-32.93-25.92-46.39-41.83
					c-34.33,5.68-68.16,16.38-95.89,34.45c-6.65,4.5-12.99,9.49-18.86,15.03c5.65-5.77,11.79-11.04,18.31-15.84
					c19.76-14.25,42.43-23.96,65.65-31.04c8.98-2.68,18.04-5,27.18-7c-0.65-0.81-1.29-1.62-1.93-2.43
					c-0.04-0.05-0.08-0.11-0.12-0.16c-0.89-1.14-1.76-2.28-2.62-3.45c-0.06-0.08-0.11-0.16-0.17-0.24c-0.75-1.02-1.5-2.03-2.23-3.07
					c-0.16-0.22-0.32-0.45-0.48-0.67c-0.63-0.89-1.25-1.78-1.86-2.67c-31.84,4.14-63.16,12.74-89.64,27.88
					c-6.9,4.12-13.52,8.73-19.7,13.91c5.97-5.43,12.41-10.32,19.2-14.74c20.55-13.07,43.75-21.47,67.34-27.19
					c6.62-1.56,13.28-2.93,19.96-4.13c-0.13-0.2-0.26-0.4-0.38-0.6c-0.57-0.89-1.14-1.78-1.69-2.67c-0.18-0.28-0.35-0.56-0.52-0.84
					c-0.68-1.11-1.37-2.23-2.02-3.36c-0.11-0.19-0.22-0.38-0.33-0.58c-0.55-0.94-1.09-1.89-1.62-2.85c-0.2-0.36-0.4-0.72-0.6-1.08
					c-0.49-0.89-0.97-1.78-1.45-2.68c-0.14-0.27-0.3-0.55-0.44-0.83c-0.32-0.62-0.65-1.25-0.96-1.88
					c-28.45,1.55-56.49,6.87-81.31,17.73c-7.31,3.35-14.38,7.24-21.09,11.72c6.52-4.76,13.45-8.94,20.66-12.61
					c21.83-10.8,45.79-16.67,69.86-19.83c3.28-0.41,6.57-0.76,9.86-1.09c-0.16-0.33-0.32-0.67-0.47-1c-0.19-0.4-0.37-0.79-0.56-1.19
					c-0.49-1.07-0.97-2.14-1.45-3.22c-0.11-0.24-0.2-0.48-0.3-0.72c-0.43-1.02-0.87-2.04-1.29-3.07c-0.17-0.41-0.34-0.83-0.5-1.25
					c-0.34-0.84-0.67-1.69-0.99-2.55c-0.14-0.38-0.29-0.76-0.43-1.14c-0.43-1.16-0.84-2.32-1.26-3.48c-0.12-0.35-0.24-0.7-0.35-1.05
					c-0.3-0.88-0.59-1.77-0.88-2.65c-0.14-0.43-0.27-0.86-0.41-1.29c-0.3-0.97-0.59-1.94-0.87-2.91c-0.08-0.27-0.16-0.53-0.24-0.8
					c-0.34-1.19-0.66-2.39-0.97-3.59c-0.11-0.41-0.21-0.81-0.3-1.23c-0.22-0.89-0.43-1.78-0.65-2.67c-0.1-0.4-0.19-0.8-0.27-1.2
					c-0.27-1.22-0.53-2.45-0.78-3.67c-0.05-0.25-0.1-0.51-0.14-0.76c-0.19-1.02-0.38-2.05-0.56-3.07c-0.07-0.41-0.14-0.83-0.2-1.24
					c-0.16-0.99-0.3-1.97-0.44-2.96c-0.04-0.3-0.09-0.61-0.13-0.91c-0.17-1.26-0.32-2.51-0.45-3.77c-0.04-0.34-0.06-0.68-0.11-1.02
					c-0.1-0.99-0.19-1.97-0.27-2.97c-0.03-0.38-0.06-0.76-0.09-1.15c-0.09-1.29-0.18-2.59-0.24-3.89l-0.14,0.01
					c0,0-15.17-26.89-16.38-42.94c-1.07-14.07,4.87-30.75,3.9-43.24c-0.14-1.77-0.41-3.44-0.86-5.01
					c-3.64-12.76-19.45-12.76-14.58-66.84c4.87-54.07,1.19-46.79-0.92-64.41c-0.06-0.5-0.12-1.02-0.17-1.55
					c-0.02-0.22-0.04-0.43-0.06-0.65c-0.03-0.32-0.06-0.64-0.09-0.97c-0.02-0.26-0.04-0.52-0.06-0.79c-0.02-0.3-0.05-0.6-0.06-0.91
					c-0.02-0.29-0.04-0.57-0.06-0.87c-0.02-0.29-0.03-0.59-0.05-0.89c-0.02-0.3-0.03-0.6-0.05-0.92c-0.02-0.3-0.02-0.61-0.03-0.92
					c-0.02-0.56-0.03-1.13-0.05-1.7c-0.01-0.32-0.02-0.64-0.02-0.96c0-0.33,0-0.66,0-1c0-0.3,0-0.61,0-0.92
					c0-0.34,0.01-0.68,0.02-1.02c0.01-0.3,0.01-0.62,0.02-0.92c0.01-0.35,0.02-0.7,0.03-1.04c0.01-0.32,0.02-0.64,0.04-0.96
					c0.02-0.34,0.03-0.68,0.05-1.02c0.02-0.35,0.05-0.72,0.07-1.07c0.03-0.49,0.07-0.97,0.11-1.46c0.04-0.44,0.07-0.89,0.12-1.33
					c0.03-0.32,0.06-0.62,0.11-0.94c0.04-0.36,0.08-0.73,0.13-1.08c0.04-0.32,0.08-0.64,0.13-0.95c0.05-0.36,0.11-0.72,0.16-1.07
					c0.05-0.32,0.1-0.62,0.14-0.94c0.06-0.37,0.13-0.74,0.19-1.1c0.06-0.29,0.11-0.58,0.16-0.88c0.09-0.44,0.18-0.88,0.27-1.32
					c0.05-0.21,0.09-0.43,0.14-0.64c0.14-0.63,0.3-1.25,0.46-1.86c0.06-0.24,0.13-0.46,0.19-0.7c0.11-0.4,0.22-0.81,0.35-1.2
					c0.08-0.26,0.16-0.51,0.24-0.76c0.12-0.37,0.24-0.74,0.37-1.11c0.09-0.25,0.18-0.49,0.27-0.74c0.14-0.38,0.29-0.75,0.43-1.12
					c0.09-0.22,0.18-0.43,0.27-0.65c0.19-0.45,0.4-0.89,0.6-1.33c0.06-0.12,0.11-0.25,0.17-0.37c0.27-0.56,0.56-1.1,0.86-1.63
					c0.07-0.14,0.16-0.27,0.24-0.4c0.22-0.4,0.46-0.78,0.7-1.16c0.11-0.17,0.22-0.34,0.34-0.5c0.22-0.34,0.46-0.67,0.7-0.99
					c0.12-0.16,0.24-0.32,0.36-0.48c0.26-0.33,0.52-0.65,0.79-0.96c0.11-0.13,0.22-0.27,0.34-0.4c0.35-0.38,0.72-0.76,1.09-1.12
					c0.04-0.04,0.08-0.08,0.12-0.12c0.43-0.41,0.89-0.81,1.37-1.18c0.05-0.04,0.11-0.07,0.16-0.11c0.32-0.25,0.65-0.5,0.99-0.73
					c0,0.01,0,0.02,0,0.02c2.71-1.84,5.92-3.02,9.75-3.31c0.91-0.07,1.84-0.11,2.77-0.11c22.92,0,53.27,20.21,66.1,39.46
					c13.34,20,33.03,63.09,49.7,67.77c0.01,0,0.03,0.01,0.04,0.01h0.01c8.14-3.36,16.59-6.19,25.28-8.42c0.02,0,0.03-0.01,0.05-0.01
					c13.61-3.5,25.75-3.71,39.9-3.71c1.91,0,3.86,0,5.85,0c5.07,0,10.43-0.1,15.84-0.1c10.02,0,20.18,0.34,28.96,2.28
					c0,0,10.89-12,28.21-17.03c17.87-19.57,33.54-36.34,47.52-54.79C1258.02,933.38,1291.96,912.49,1310.56,912.5 M1310.56,900.77
					L1310.56,900.77c-23.57,0-60.49,23.69-75.35,43.3c-12.32,16.25-25.95,31.16-41.76,48.42c-0.97,1.07-1.96,2.15-2.95,3.23
					c-11.48,3.96-20.28,10.32-25.38,14.68c-8.47-1.24-17.37-1.43-25.26-1.43c-2.8,0-5.58,0.02-8.27,0.05
					c-2.63,0.02-5.11,0.05-7.56,0.05h-2.97h-2.88c-15.21,0-28.02,0.3-42.62,4.02c-0.08,0.02-0.17,0.04-0.25,0.06
					c-7.36,1.89-14.66,4.22-21.78,6.93c-2.07-1.63-5.41-4.93-10.19-11.61c-6.12-8.54-12.22-19.15-18.13-29.42
					c-4.36-7.59-8.49-14.76-12.25-20.42c-7.27-10.91-19.24-21.99-32.84-30.41c-14.87-9.21-30.14-14.27-43-14.27
					c-1.24,0-2.47,0.05-3.66,0.14c-5.36,0.4-10.29,2.01-14.65,4.79c-0.27,0.16-0.52,0.3-0.78,0.48c-0.56,0.38-1.04,0.74-1.45,1.06
					c-0.13,0.1-0.26,0.19-0.38,0.29c-0.74,0.58-1.46,1.21-2.15,1.85c-0.11,0.11-0.22,0.21-0.32,0.32c-0.53,0.51-1.05,1.05-1.55,1.61
					c-0.14,0.16-0.3,0.33-0.45,0.52l-0.06,0.06c-0.44,0.51-0.83,0.97-1.19,1.45c-0.18,0.22-0.35,0.47-0.54,0.71
					c-0.34,0.46-0.68,0.94-1.01,1.43l-0.06,0.09c-0.14,0.2-0.27,0.41-0.41,0.62c-0.3,0.48-0.62,1-0.96,1.58l-0.02,0.04
					c-0.11,0.19-0.22,0.38-0.33,0.57c-0.4,0.72-0.79,1.46-1.15,2.2c-0.08,0.16-0.16,0.34-0.24,0.52l0.02-0.04
					c-0.3,0.65-0.56,1.23-0.8,1.77c-0.11,0.24-0.2,0.48-0.3,0.72l-0.06,0.14c-0.19,0.45-0.37,0.94-0.55,1.42
					c-0.12,0.33-0.24,0.64-0.35,0.96c-0.16,0.44-0.32,0.91-0.46,1.38l-0.02,0.07c-0.1,0.29-0.19,0.58-0.27,0.87
					c-0.16,0.49-0.29,0.99-0.43,1.48l-0.06,0.19c-0.06,0.22-0.12,0.43-0.19,0.66c-0.2,0.76-0.38,1.51-0.56,2.24
					c-0.05,0.2-0.09,0.4-0.13,0.6l-0.03,0.16c-0.11,0.52-0.22,1.03-0.32,1.56c-0.06,0.29-0.11,0.57-0.16,0.86l-0.03,0.17
					c-0.08,0.43-0.16,0.87-0.22,1.3c-0.06,0.34-0.11,0.7-0.17,1.07c-0.06,0.42-0.12,0.83-0.18,1.24l-0.01,0.09
					c-0.05,0.34-0.09,0.67-0.14,1.01c-0.06,0.42-0.1,0.84-0.14,1.26l-0.02,0.2c-0.03,0.28-0.06,0.56-0.09,0.84
					c-0.05,0.51-0.1,1.02-0.14,1.53c-0.05,0.55-0.09,1.1-0.13,1.64l-0.02,0.19c-0.02,0.34-0.05,0.68-0.06,1.02
					c-0.02,0.32-0.03,0.67-0.05,1.01l-0.01,0.14v0.09c-0.02,0.33-0.03,0.66-0.04,0.99c-0.02,0.38-0.02,0.76-0.03,1.15
					c-0.01,0.35-0.02,0.7-0.02,1.05c-0.01,0.37-0.01,0.75-0.02,1.14c0,0.3,0,0.61,0,0.92v0.11v0.25c0,0.29,0,0.58,0.01,0.87
					c0,0.29,0.01,0.58,0.02,0.88v0.19c0.02,0.62,0.03,1.25,0.05,1.87l0.01,0.19c0.01,0.28,0.02,0.56,0.03,0.84
					c0.02,0.27,0.02,0.55,0.04,0.83l0.01,0.19c0.02,0.33,0.03,0.66,0.06,0.99c0.02,0.34,0.04,0.66,0.06,0.99
					c0.02,0.3,0.05,0.65,0.07,0.99c0.02,0.3,0.05,0.6,0.07,0.89c0.03,0.35,0.06,0.72,0.1,1.07l0.02,0.16
					c0.02,0.19,0.03,0.38,0.06,0.57c0.06,0.6,0.13,1.18,0.19,1.74c0.57,4.79,1.27,8.05,1.84,10.68c1.49,6.98,2.58,12.04-0.95,51.28
					c-1.71,19.01-1.15,33.74,1.71,45.02c2.73,10.78,7.09,16.75,10.27,21.12c1.73,2.36,2.64,3.66,3.01,4.96
					c0.22,0.75,0.36,1.65,0.44,2.7c0.36,4.66-0.67,10.94-1.76,17.59c-1.37,8.36-2.8,17-2.14,25.63
					c1.2,15.87,12.71,38.34,16.68,45.67c0.02,0.35,0.05,0.72,0.07,1.1c0.02,0.35,0.06,0.71,0.08,1.07l0.02,0.18
					c0.08,1.07,0.19,2.15,0.29,3.21l0.03,0.33c0.02,0.26,0.05,0.52,0.08,0.76c0.16,1.38,0.32,2.76,0.49,4.08
					c0.03,0.24,0.06,0.45,0.1,0.67l0.05,0.32c0.16,1.08,0.32,2.15,0.48,3.2c0.07,0.43,0.14,0.88,0.22,1.33
					c0.19,1.12,0.4,2.24,0.6,3.33l0.04,0.22c0.04,0.2,0.07,0.4,0.11,0.6c0.24,1.22,0.52,2.51,0.83,3.94
					c0.07,0.32,0.14,0.65,0.22,0.99l0.07,0.3c0.22,0.96,0.45,1.92,0.7,2.87l0.07,0.29c0.09,0.34,0.17,0.68,0.26,1.02
					c0.36,1.4,0.7,2.65,1.05,3.85c0.06,0.19,0.11,0.4,0.17,0.59l0.08,0.26c0.3,1.06,0.62,2.1,0.94,3.13
					c0.14,0.47,0.29,0.92,0.44,1.4c0.3,0.95,0.62,1.89,0.94,2.85l0.12,0.35c0.09,0.26,0.17,0.52,0.26,0.76
					c0.43,1.24,0.88,2.48,1.35,3.74c0.03,0.09,0.06,0.18,0.1,0.27c-26.2,3.9-48.5,10.51-68.03,20.18c-0.04,0.02-0.07,0.04-0.11,0.06
					c-7.97,4.05-15.46,8.62-22.27,13.59c-5.15,3.77-6.35,10.96-2.69,16.19c2.27,3.25,5.91,5,9.62,5c2.24,0,4.52-0.65,6.52-1.99
					c5.91-3.96,12.42-7.58,19.35-10.76c13.46-5.88,28.56-10.29,45.12-13.15c-19.86,6.17-37.05,13.94-52.16,23.54
					c-0.03,0.02-0.07,0.05-0.11,0.06c-7.49,4.88-14.45,10.23-20.69,15.89c-4.72,4.29-5.14,11.58-0.94,16.38
					c2.32,2.65,5.57,4.01,8.83,4.01c2.07,0,4.15-0.54,5.99-1.65c-2.34,2.11-4.6,4.28-6.74,6.47c-4.47,4.56-4.46,11.86,0.01,16.41
					c2.29,2.34,5.33,3.52,8.37,3.52c2.89,0,5.77-1.06,8.03-3.18c5.19-4.88,11.01-9.53,17.32-13.8
					c22.55-14.68,51.09-25.27,84.9-31.52c12.95,14.45,27.8,27.49,44.23,38.8l0.28,0.19l0.18,0.12c0.94,0.65,1.87,1.27,2.81,1.89
					l0.17,0.11l0.47,0.32c0.96,0.64,1.93,1.27,2.91,1.89l0.12,0.08l0.27,0.18c1.16,0.74,2.31,1.46,3.4,2.13l0.19,0.11
					c1.02,0.62,2.04,1.24,3.07,1.86c0.22,0.14,0.46,0.27,0.68,0.4l0.27,0.16c0.78,0.46,1.56,0.92,2.35,1.37
					c0.37,0.21,0.74,0.43,1.11,0.64c0.78,0.44,1.56,0.88,2.34,1.31l0.33,0.19c0.22,0.13,0.46,0.26,0.68,0.38
					c1.22,0.67,2.31,1.25,3.32,1.79c1.38,0.73,2.75,1.45,4.09,2.16c22.89,12.12,42.66,22.59,73.14,23.33
					c1.48,0.03,2.94,0.06,4.38,0.06c37.77,0,56.43-12.29,72.88-23.14c4.67-3.07,9.08-5.98,13.74-8.47
					c26.53-14.14,48.62-31.86,65.77-52.73c37.28,6.28,67.03,16.93,90.8,32.46c6.31,4.28,12.14,8.92,17.32,13.8
					c2.26,2.13,5.15,3.18,8.03,3.18c3.04,0,6.07-1.18,8.37-3.52c4.47-4.56,4.47-11.85,0.01-16.41c-2.15-2.2-4.4-4.36-6.74-6.47
					c1.86,1.1,3.93,1.65,5.99,1.65c3.27,0,6.52-1.37,8.83-4.01c4.2-4.8,3.77-12.09-0.94-16.38c-6.23-5.67-13.2-11.02-20.69-15.9
					c-0.06-0.04-0.11-0.07-0.17-0.11c-15.25-9.56-32.7-17.43-52.19-23.55c16.57,2.82,31.55,7.21,45.21,13.2
					c6.92,3.18,13.44,6.8,19.35,10.77c2,1.34,4.26,1.99,6.52,1.99c3.7,0,7.34-1.75,9.62-5c3.66-5.23,2.46-12.42-2.69-16.19
					c-6.81-4.97-14.3-9.54-22.27-13.59c-0.06-0.03-0.12-0.06-0.18-0.09c-22.74-11.06-49.55-18.36-79.85-21.75
					c4.5-16.32,6.77-33.52,6.77-51.33c0-3.16-0.08-6.23-0.24-9.13c-0.01-0.3-0.03-0.61-0.06-0.91c-0.11-1.18-0.44-5.28-0.91-10.86
					c-0.01-0.06-0.01-0.11-0.02-0.16c-2.23-26.92-3.07-38.39-3.1-40.19c-0.01-2.05-0.41-4.36-1.3-9.33
					c-0.96-5.33-2.95-16.31-2.41-20.66c1.06-2.07,2.3-4.28,3.6-6.59c2.62-4.67,5.6-9.96,8.62-16.76c3.13-7.06,3.85-17.37,4.68-29.32
					c0.65-9.39,1.32-19.1,3.17-25.69c2.67-9.53,3.64-24.12,4.66-39.56c0.81-12.2,1.65-24.81,3.28-31.55
					c3.43-14.19,0.83-29.62-6.77-40.26c-5.83-8.16-14.07-12.95-23.81-13.85C1312.68,900.82,1311.62,900.77,1310.56,900.77
					L1310.56,900.77z"/>
			</g>
			<g>
				<g>
					<path class="st12" d="M1021.13,1051.2c0,0-32.69,39.52-48.77,40.53c-16.06,1-38.82,13.02-44.02,24.08
						c-0.14-1.77-0.41-3.44-0.86-5.01c-3.64-12.76-19.45-12.76-14.58-66.84c4.87-54.07,1.19-46.79-0.92-64.41
						c-2.12-17.62-0.86-51.99,22.33-53.74C977.28,932.73,1021.13,1051.2,1021.13,1051.2z"/>
				</g>
				<g>
					
						<linearGradient id="SVGID_1_" gradientUnits="userSpaceOnUse" x1="1330.4592" y1="728.2543" x2="948.0359" y2="1122.2661" gradientTransform="matrix(1 0 0 -1 0 2124)">
						<stop  offset="0" style="stop-color:#020203"/>
						<stop  offset="0.1659" style="stop-color:#0A0B0B"/>
						<stop  offset="0.6928" style="stop-color:#262626"/>
						<stop  offset="1" style="stop-color:#313131"/>
					</linearGradient>
					<path class="st13" d="M1312.6,1195.74c0,71.14-38.09,126.26-100.68,159.63c-22.63,12.07-37.23,31.33-85.21,30.17
						c-29.37-0.71-47.34-11.12-72.05-24.15c-59.76-31.55-110.71-92.01-113.68-159.43l-0.14,0.01c0,0-15.17-26.89-16.38-42.94
						c-1.07-14.07,4.87-30.75,3.9-43.24c5.2-11.06,27.95-23.09,44.02-24.08c16.06-1.01,48.77-40.53,48.77-40.53
						s14.12-10.24,31.76-18.27c0.01,0,0.03,0.01,0.04,0.01h0.01c8.14-3.36,16.59-6.19,25.28-8.42c0.02,0,0.03-0.01,0.05-0.01
						c15.44-3.98,29.01-3.71,45.77-3.71c14.49,0,31.27-0.81,44.8,2.19c21.02,3.44,30.81,5.12,30.81,5.12l0.02,0.01
						c0.84,0.38,28,12.53,36.19,23.09c1.58,2.04,4.17,4.76,7.37,7.82l47.73,33.86c6.73,2.51,13.41,9.4,13.75,9.76
						c-1.3,8.94,3.58,28.42,3.58,31.91c0,2.69,1.94,26.51,3.15,41.14c0,0.04,0,0.06,0.01,0.11c0.49,5.98,0.86,10.4,0.92,11.17
						c0.01,0.04,0.01,0.08,0.01,0.12C1312.53,1189.95,1312.6,1192.84,1312.6,1195.74z"/>
				</g>
				<g>
					<path class="st14" d="M1156.51,1354.1c-12.86,6.77-28.93,11.93-54.42,11.31c-29.37-0.71-47.34-11.12-72.05-24.15
						c-9.25-4.89-18.29-10.46-26.97-16.65c-35.02-32.69-60.03-76-62.08-122.65l-0.14,0.01c0,0-15.17-26.89-16.38-42.94
						c-1.07-14.07,4.87-30.75,3.9-43.24c-0.14-1.77-0.41-3.44-0.86-5.01c-3.64-12.76-19.45-12.76-14.58-66.84
						c4.87-54.07,1.19-46.79-0.92-64.41c-1.77-14.72-1.19-41.14,12.59-50.46c-0.52,7.13-0.19,14.12,0.46,19.52
						c2.11,17.62,5.79,10.34,0.92,64.41c-4.87,54.07,10.94,54.07,14.58,66.84c0.45,1.57,0.73,3.24,0.86,5.01
						c0.45,5.73-0.56,12.32-1.68,19.15c-1.32,8.08-2.81,16.47-2.22,24.1c1.21,16.05,16.38,42.94,16.38,42.94l0.14-0.01
						c2.97,67.42,53.91,127.87,113.68,159.43c24.71,13.04,42.68,23.43,72.05,24.15C1145.86,1354.74,1151.41,1354.56,1156.51,1354.1z
						"/>
				</g>
				<g>
					<ellipse class="st15" cx="1132.17" cy="1301.19" rx="11.85" ry="10.24"/>
				</g>
				<g>
					<path class="st8" d="M1172.27,1249.6c0,0-21.79,13.91-21.79,17.62c0,3.7-18.32,24.11-18.32,24.11s-18.32-20.4-18.32-24.11
						c0-3.71-21.79-17.62-21.79-17.62c13.93-3.74,27.3-5.71,40.12-5.89C1144.98,1243.88,1158.35,1245.85,1172.27,1249.6z"/>
				</g>
				<g>
					<path class="st8" d="M1161.24,1308.99c-1.54,0-3.07-0.09-4.6-0.26c-17.46-1.96-27.18-14.5-27.59-15.03
						c-1.3-1.72-0.97-4.17,0.74-5.47c1.72-1.3,4.16-0.97,5.47,0.73l0,0c0.08,0.11,8.26,10.5,22.37,12.02
						c11.54,1.26,23.96-3.61,36.89-14.43c1.65-1.38,4.12-1.17,5.5,0.48c1.38,1.65,1.17,4.12-0.48,5.5
						C1186.49,1303.47,1173.63,1308.99,1161.24,1308.99z"/>
				</g>
				<g>
					<path class="st8" d="M1103.09,1308.99c-12.39,0-25.25-5.52-38.29-16.44c-1.65-1.38-1.87-3.85-0.48-5.5
						c1.38-1.65,3.85-1.87,5.5-0.48c12.93,10.83,25.33,15.69,36.89,14.43c14.11-1.53,22.28-11.92,22.37-12.02
						c1.32-1.7,3.77-2.02,5.47-0.72s2.04,3.75,0.73,5.46c-0.4,0.53-10.14,13.09-27.59,15.03
						C1106.16,1308.9,1104.63,1308.99,1103.09,1308.99z"/>
				</g>
				<g>
					<path class="st16" d="M1042.76,1271.4c-52.89-8.49-115.69-9.01-165.47,12.77c-7.31,3.35-14.38,7.23-21.09,11.72
						c6.52-4.76,13.45-8.94,20.66-12.61c21.83-10.8,45.79-16.67,69.86-19.83c32.3-4.04,65-3.87,97.34,0.24
						C1049.26,1264.58,1048.06,1272.26,1042.76,1271.4L1042.76,1271.4z"/>
				</g>
				<g>
					<path class="st16" d="M1045,1285.59c-53.5-2.78-115.99,3.42-163.16,30.4c-6.9,4.12-13.52,8.73-19.7,13.91
						c5.97-5.43,12.41-10.32,19.2-14.74c20.55-13.07,43.75-21.47,67.34-27.19c31.69-7.48,64.22-10.8,96.8-10.18
						C1050.74,1278.11,1050.36,1285.88,1045,1285.59L1045,1285.59z"/>
				</g>
				<g>
					<path class="st16" d="M1049.75,1299.81c-53.58,0.32-115.6,10.14-161.11,39.8c-6.65,4.5-12.99,9.49-18.86,15.03
						c5.65-5.77,11.79-11.04,18.31-15.84c19.76-14.25,42.43-23.96,65.65-31.04c31.2-9.3,63.48-14.5,96.05-15.78
						C1055.05,1292.02,1055.12,1299.79,1049.75,1299.81L1049.75,1299.81z"/>
				</g>
				<g>
					<path class="st17" d="M1312.6,912.59c0,0-56.42,51.37-61.42,69.99c-4.99,18.62-51.56,45.51-51.56,45.51s-9.78-1.68-30.81-5.12
						c0,0,10.89-12,28.21-17.03c17.87-19.57,33.54-36.34,47.52-54.79C1258.53,932.71,1294.56,910.91,1312.6,912.59z"/>
				</g>
				<g>
					<path class="st17" d="M1052.89,1032.93c-17.64,8.02-31.76,18.27-31.76,18.27s-43.84-118.46-86.81-125.39
						c23.19-1.76,55.53,19.32,68.87,39.35C1016.54,985.16,1036.22,1028.25,1052.89,1032.93z"/>
				</g>
				<g>
					<path class="st12" d="M1332.87,952.29c-3.9,16.2-3.35,54.75-7.82,70.7c-4.48,15.95-2.79,43.35-7.27,53.41
						c-4.48,10.06-8.94,16.77-12.3,23.48c-0.37,0.73-0.62,1.66-0.78,2.76c-0.34-0.36-7.03-7.25-13.75-9.76l-47.73-33.86
						c-3.2-3.07-5.79-5.79-7.37-7.82c-8.19-10.55-35.34-22.69-36.19-23.09l-0.02-0.01c0,0,46.56-26.89,51.56-45.51
						c4.99-18.62,61.42-69.99,61.42-69.99C1330.64,914.26,1336.8,936.07,1332.87,952.29z"/>
				</g>
				<g class="st18">
					<path class="st19" d="M1332.87,952.29c-3.9,16.2-3.35,54.75-7.82,70.7c-4.48,15.95-2.79,43.35-7.27,53.41
						c-4.48,10.06-8.94,16.77-12.3,23.48c-0.37,0.73-0.62,1.66-0.78,2.76c-1.3,8.94,3.58,28.42,3.58,31.91
						c0,2.69,1.94,26.51,3.15,41.14c0,0.04,0,0.06,0.01,0.11c0.49,5.98,0.86,10.4,0.92,11.17c0.01,0.04,0.01,0.08,0.01,0.12
						c0.16,2.86,0.22,5.75,0.22,8.65c0,71.14-38.09,126.26-100.68,159.63c-22.63,12.07-37.23,31.33-85.21,30.17
						c-29.37-0.71-47.34-11.12-72.05-24.15c-18.41-9.72-36-22.2-51.6-36.78c8.68,6.19,17.72,11.76,26.97,16.65
						c24.71,13.04,42.68,23.43,72.05,24.15c47.96,1.16,62.58-18.1,85.21-30.17c62.6-33.36,100.68-88.49,100.68-159.63
						c0-2.91-0.06-5.79-0.22-8.65c0-0.04,0-0.08-0.01-0.12c-0.06-0.78-0.44-5.2-0.92-11.17c-0.01-0.04-0.01-0.06-0.01-0.11
						c-1.21-14.63-3.15-38.45-3.15-41.14c0-3.18-4.08-19.75-3.79-29.4c0.04-0.89,0.1-1.75,0.22-2.51c0.16-1.1,0.41-2.02,0.78-2.76
						c3.35-6.71,7.82-13.42,12.3-23.48c4.48-10.06,2.79-37.46,7.27-53.41c4.48-15.95,3.92-54.49,7.82-70.7
						c1.24-5.1,1.46-10.75,0.65-16.16c2.32-2.17,3.69-3.41,3.69-3.41C1330.64,914.26,1336.8,936.07,1332.87,952.29z"/>
				</g>
				<g>
					<path class="st16" d="M1225.07,1259.77c53.96-6.47,117.69-4.48,167.2,19.6c7.21,3.66,14.15,7.85,20.66,12.61
						c-6.7-4.49-13.77-8.37-21.09-11.72c-36.88-16.21-78.06-19.31-117.88-17.76c-15.9,0.74-32.06,2.27-47.67,5
						C1221.15,1268.26,1219.84,1260.68,1225.07,1259.77L1225.07,1259.77z"/>
				</g>
				<g>
					<path class="st16" d="M1223.67,1273.85c54.35-0.66,117.49,8.13,164.14,37.37c6.78,4.41,13.23,9.32,19.2,14.74
						c-6.19-5.19-12.8-9.8-19.7-13.91c-34.94-20.06-75.54-27.55-115.31-30.27c-15.89-0.96-32.11-1.18-47.93-0.13
						C1218.85,1281.88,1218.36,1274.2,1223.67,1273.85L1223.67,1273.85z"/>
				</g>
				<g>
					<path class="st16" d="M1219.37,1288.06c54.29,2.5,116.82,14.92,161.7,46.82c6.52,4.8,12.66,10.07,18.31,15.84
						c-5.87-5.53-12.21-10.53-18.86-15.03c-33.71-22.05-73.82-31.88-113.36-36.9c-15.81-1.88-31.99-3.04-47.85-2.91
						C1214.1,1295.8,1214.05,1288.1,1219.37,1288.06L1219.37,1288.06z"/>
				</g>
				<g>
					<g>
						<g>
							<g>
								<path class="st20" d="M1052.39,1220.4c-0.7,0-1.4-0.02-2.09-0.07c-19.5-1.42-28.09-11.41-31.88-19.54
									c-6.74-14.5-2.81-32.38-0.22-35.93c6.03-8.29,20.88-10.02,32.28-10.02c18.06,0,32.76,14.69,32.76,32.76
									c0,8.37-3.25,16.7-8.91,22.88C1068.43,1216.87,1060.65,1220.4,1052.39,1220.4L1052.39,1220.4z"/>
								<path class="st21" d="M1050.47,1157.31c16.72,0,30.27,13.55,30.27,30.27c0,16.08-12.57,30.34-28.36,30.34
									c-0.63,0-1.27-0.02-1.91-0.07c-41.81-3.04-33.9-46.54-30.27-51.54C1025.71,1158.75,1040.4,1157.31,1050.47,1157.31
									 M1050.47,1152.35c-11.97,0-27.64,1.92-34.28,11.04c-1.91,2.64-3.48,8.8-3.9,15.33c-0.38,5.92-0.02,14.74,3.88,23.12
									c4.06,8.73,13.25,19.46,33.95,20.97c0.76,0.06,1.52,0.08,2.27,0.08c8.96,0,17.4-3.82,23.76-10.75
									c6.08-6.62,9.57-15.57,9.57-24.56C1085.71,1168.15,1069.9,1152.35,1050.47,1152.35L1050.47,1152.35z"/>
							</g>
						</g>
						<g>
							<ellipse class="st8" cx="1050.68" cy="1187.61" rx="20.68" ry="20.61"/>
						</g>
					</g>
					<ellipse class="st16" cx="1033.89" cy="1175.1" rx="7.87" ry="7.65"/>
				</g>
				<g>
					<g>
						<g>
							<g>
								<path class="st20" d="M1211.94,1220.4c-16.72,0-30.84-15.03-30.84-32.82c0-18.06,14.69-32.76,32.76-32.76
									c11.4,0,26.24,1.74,32.28,10.02c2.58,3.56,6.52,21.44-0.22,35.94c-3.78,8.13-12.38,18.12-31.88,19.53
									C1213.34,1220.38,1212.64,1220.4,1211.94,1220.4z"/>
								<path class="st21" d="M1213.86,1157.31c10.07,0,24.76,1.43,30.27,9c3.63,5,11.53,48.5-30.27,51.54
									c-0.64,0.05-1.28,0.07-1.91,0.07c-15.79,0-28.36-14.26-28.36-30.34C1183.58,1170.86,1197.14,1157.31,1213.86,1157.31
									 M1213.86,1152.35c-19.43,0-35.24,15.81-35.24,35.24c0,8.98,3.49,17.93,9.57,24.56c6.36,6.93,14.8,10.75,23.76,10.75
									c0.75,0,1.51-0.02,2.27-0.08c20.7-1.51,29.89-12.23,33.95-20.97c3.9-8.39,4.26-17.21,3.88-23.12
									c-0.42-6.53-1.99-12.69-3.9-15.32C1241.49,1154.26,1225.83,1152.35,1213.86,1152.35L1213.86,1152.35z"/>
							</g>
						</g>
						<g>
							<ellipse class="st8" cx="1210.74" cy="1187.61" rx="19.75" ry="20.61"/>
						</g>
					</g>
					<circle class="st16" cx="1199.64" cy="1174.88" r="7.87"/>
				</g>
			</g>
		</g>
	</g>
</g>
</svg>
